solid 1-4-1_Default_sldprt
   facet normal 1.000000e+000 0.000000e+000 0.000000e+000
      outer loop
         vertex 3.050000e+001 8.000000e+000 -4.500000e+000
         vertex 3.050000e+001 8.000000e+000 4.500000e+000
         vertex 3.050000e+001 0.000000e+000 -4.500000e+000
      endloop
   endfacet
   facet normal 1.000000e+000 0.000000e+000 0.000000e+000
      outer loop
         vertex 3.050000e+001 0.000000e+000 -4.500000e+000
         vertex 3.050000e+001 8.000000e+000 4.500000e+000
         vertex 3.050000e+001 0.000000e+000 4.500000e+000
      endloop
   endfacet
   facet normal 0.000000e+000 0.000000e+000 -1.000000e+000
      outer loop
         vertex -2.950000e+001 8.000000e+000 -4.500000e+000
         vertex 3.050000e+001 8.000000e+000 -4.500000e+000
         vertex -2.950000e+001 0.000000e+000 -4.500000e+000
      endloop
   endfacet
   facet normal 0.000000e+000 0.000000e+000 -1.000000e+000
      outer loop
         vertex -2.950000e+001 0.000000e+000 -4.500000e+000
         vertex 3.050000e+001 8.000000e+000 -4.500000e+000
         vertex 3.050000e+001 0.000000e+000 -4.500000e+000
      endloop
   endfacet
   facet normal -5.228807e-002 0.000000e+000 -9.986320e-001
      outer loop
         vertex -2.950000e+001 8.000000e+000 -4.500000e+000
         vertex -2.950000e+001 0.000000e+000 -4.500000e+000
         vertex -2.965644e+001 0.000000e+000 -4.487688e+000
      endloop
   endfacet
   facet normal -1.045761e-001 0.000000e+000 -9.945168e-001
      outer loop
         vertex -2.950000e+001 8.000000e+000 -4.500000e+000
         vertex -2.965644e+001 0.000000e+000 -4.487688e+000
         vertex -2.965644e+001 8.000000e+000 -4.487688e+000
      endloop
   endfacet
   facet normal -2.078648e-001 0.000000e+000 -9.781576e-001
      outer loop
         vertex -2.965644e+001 8.000000e+000 -4.487688e+000
         vertex -2.965644e+001 0.000000e+000 -4.487688e+000
         vertex -2.980902e+001 0.000000e+000 -4.451056e+000
      endloop
   endfacet
   facet normal -2.588653e-001 0.000000e+000 -9.659134e-001
      outer loop
         vertex -2.965644e+001 8.000000e+000 -4.487688e+000
         vertex -2.980902e+001 0.000000e+000 -4.451056e+000
         vertex -2.980902e+001 8.000000e+000 -4.451056e+000
      endloop
   endfacet
   facet normal -3.583232e-001 0.000000e+000 -9.335976e-001
      outer loop
         vertex -2.980902e+001 8.000000e+000 -4.451056e+000
         vertex -2.980902e+001 0.000000e+000 -4.451056e+000
         vertex -2.995399e+001 0.000000e+000 -4.391006e+000
      endloop
   endfacet
   facet normal -4.067805e-001 0.000000e+000 -9.135259e-001
      outer loop
         vertex -2.980902e+001 8.000000e+000 -4.451056e+000
         vertex -2.995399e+001 0.000000e+000 -4.391006e+000
         vertex -2.995399e+001 8.000000e+000 -4.391006e+000
      endloop
   endfacet
   facet normal -4.999584e-001 0.000000e+000 -8.660494e-001
      outer loop
         vertex -2.995399e+001 8.000000e+000 -4.391006e+000
         vertex -2.995399e+001 0.000000e+000 -4.391006e+000
         vertex -3.008779e+001 0.000000e+000 -4.309017e+000
      endloop
   endfacet
   facet normal -5.446792e-001 0.000000e+000 -8.386444e-001
      outer loop
         vertex -2.995399e+001 8.000000e+000 -4.391006e+000
         vertex -3.008779e+001 0.000000e+000 -4.309017e+000
         vertex -3.008779e+001 8.000000e+000 -4.309017e+000
      endloop
   endfacet
   facet normal -6.292831e-001 0.000000e+000 -7.771761e-001
      outer loop
         vertex -3.008779e+001 8.000000e+000 -4.309017e+000
         vertex -3.008779e+001 0.000000e+000 -4.309017e+000
         vertex -3.020711e+001 0.000000e+000 -4.207107e+000
      endloop
   endfacet
   facet normal -6.691663e-001 0.000000e+000 -7.431127e-001
      outer loop
         vertex -3.008779e+001 8.000000e+000 -4.309017e+000
         vertex -3.020711e+001 0.000000e+000 -4.207107e+000
         vertex -3.020711e+001 8.000000e+000 -4.207107e+000
      endloop
   endfacet
   facet normal -7.431127e-001 0.000000e+000 -6.691663e-001
      outer loop
         vertex -3.020711e+001 8.000000e+000 -4.207107e+000
         vertex -3.020711e+001 0.000000e+000 -4.207107e+000
         vertex -3.030902e+001 0.000000e+000 -4.087785e+000
      endloop
   endfacet
   facet normal -7.771761e-001 0.000000e+000 -6.292831e-001
      outer loop
         vertex -3.020711e+001 8.000000e+000 -4.207107e+000
         vertex -3.030902e+001 0.000000e+000 -4.087785e+000
         vertex -3.030902e+001 8.000000e+000 -4.087785e+000
      endloop
   endfacet
   facet normal -8.386444e-001 0.000000e+000 -5.446792e-001
      outer loop
         vertex -3.030902e+001 8.000000e+000 -4.087785e+000
         vertex -3.030902e+001 0.000000e+000 -4.087785e+000
         vertex -3.039101e+001 0.000000e+000 -3.953990e+000
      endloop
   endfacet
   facet normal -8.660494e-001 0.000000e+000 -4.999584e-001
      outer loop
         vertex -3.030902e+001 8.000000e+000 -4.087785e+000
         vertex -3.039101e+001 0.000000e+000 -3.953990e+000
         vertex -3.039101e+001 8.000000e+000 -3.953990e+000
      endloop
   endfacet
   facet normal -9.135259e-001 0.000000e+000 -4.067805e-001
      outer loop
         vertex -3.039101e+001 8.000000e+000 -3.953990e+000
         vertex -3.039101e+001 0.000000e+000 -3.953990e+000
         vertex -3.045106e+001 0.000000e+000 -3.809017e+000
      endloop
   endfacet
   facet normal -9.335976e-001 0.000000e+000 -3.583232e-001
      outer loop
         vertex -3.039101e+001 8.000000e+000 -3.953990e+000
         vertex -3.045106e+001 0.000000e+000 -3.809017e+000
         vertex -3.045106e+001 8.000000e+000 -3.809017e+000
      endloop
   endfacet
   facet normal -9.659134e-001 0.000000e+000 -2.588653e-001
      outer loop
         vertex -3.045106e+001 8.000000e+000 -3.809017e+000
         vertex -3.045106e+001 0.000000e+000 -3.809017e+000
         vertex -3.048769e+001 0.000000e+000 -3.656434e+000
      endloop
   endfacet
   facet normal -9.781575e-001 0.000000e+000 -2.078648e-001
      outer loop
         vertex -3.045106e+001 8.000000e+000 -3.809017e+000
         vertex -3.048769e+001 0.000000e+000 -3.656434e+000
         vertex -3.048769e+001 8.000000e+000 -3.656434e+000
      endloop
   endfacet
   facet normal -9.945168e-001 0.000000e+000 -1.045761e-001
      outer loop
         vertex -3.048769e+001 8.000000e+000 -3.656434e+000
         vertex -3.048769e+001 0.000000e+000 -3.656434e+000
         vertex -3.050000e+001 0.000000e+000 -3.500000e+000
      endloop
   endfacet
   facet normal -9.986320e-001 0.000000e+000 -5.228807e-002
      outer loop
         vertex -3.048769e+001 8.000000e+000 -3.656434e+000
         vertex -3.050000e+001 0.000000e+000 -3.500000e+000
         vertex -3.050000e+001 8.000000e+000 -3.500000e+000
      endloop
   endfacet
   facet normal -1.000000e+000 0.000000e+000 0.000000e+000
      outer loop
         vertex -3.050000e+001 8.000000e+000 4.500000e+000
         vertex -3.050000e+001 8.000000e+000 -3.500000e+000
         vertex -3.050000e+001 0.000000e+000 4.500000e+000
      endloop
   endfacet
   facet normal -1.000000e+000 0.000000e+000 0.000000e+000
      outer loop
         vertex -3.050000e+001 0.000000e+000 4.500000e+000
         vertex -3.050000e+001 8.000000e+000 -3.500000e+000
         vertex -3.050000e+001 0.000000e+000 -3.500000e+000
      endloop
   endfacet
   facet normal 0.000000e+000 0.000000e+000 1.000000e+000
      outer loop
         vertex 3.050000e+001 8.000000e+000 4.500000e+000
         vertex -3.050000e+001 8.000000e+000 4.500000e+000
         vertex 3.050000e+001 0.000000e+000 4.500000e+000
      endloop
   endfacet
   facet normal 0.000000e+000 0.000000e+000 1.000000e+000
      outer loop
         vertex 3.050000e+001 0.000000e+000 4.500000e+000
         vertex -3.050000e+001 8.000000e+000 4.500000e+000
         vertex -3.050000e+001 0.000000e+000 4.500000e+000
      endloop
   endfacet
   facet normal 0.000000e+000 1.000000e+000 0.000000e+000
      outer loop
         vertex -3.050000e+001 8.000000e+000 -3.500000e+000
         vertex -3.050000e+001 8.000000e+000 4.500000e+000
         vertex 3.050000e+001 8.000000e+000 4.500000e+000
      endloop
   endfacet
   facet normal 0.000000e+000 1.000000e+000 0.000000e+000
      outer loop
         vertex -2.965644e+001 8.000000e+000 -4.487688e+000
         vertex -2.980902e+001 8.000000e+000 -4.451056e+000
         vertex -3.030902e+001 8.000000e+000 -4.087785e+000
      endloop
   endfacet
   facet normal 0.000000e+000 1.000000e+000 0.000000e+000
      outer loop
         vertex -2.965644e+001 8.000000e+000 -4.487688e+000
         vertex -3.030902e+001 8.000000e+000 -4.087785e+000
         vertex -2.950000e+001 8.000000e+000 -4.500000e+000
      endloop
   endfacet
   facet normal 0.000000e+000 1.000000e+000 0.000000e+000
      outer loop
         vertex -2.950000e+001 8.000000e+000 -4.500000e+000
         vertex -3.030902e+001 8.000000e+000 -4.087785e+000
         vertex -3.039101e+001 8.000000e+000 -3.953990e+000
      endloop
   endfacet
   facet normal 0.000000e+000 1.000000e+000 0.000000e+000
      outer loop
         vertex -2.950000e+001 8.000000e+000 -4.500000e+000
         vertex -3.039101e+001 8.000000e+000 -3.953990e+000
         vertex -3.045106e+001 8.000000e+000 -3.809017e+000
      endloop
   endfacet
   facet normal 0.000000e+000 1.000000e+000 0.000000e+000
      outer loop
         vertex 3.050000e+001 8.000000e+000 4.500000e+000
         vertex 3.050000e+001 8.000000e+000 -4.500000e+000
         vertex -3.050000e+001 8.000000e+000 -3.500000e+000
      endloop
   endfacet
   facet normal 0.000000e+000 1.000000e+000 0.000000e+000
      outer loop
         vertex -3.050000e+001 8.000000e+000 -3.500000e+000
         vertex 3.050000e+001 8.000000e+000 -4.500000e+000
         vertex -2.950000e+001 8.000000e+000 -4.500000e+000
      endloop
   endfacet
   facet normal 0.000000e+000 1.000000e+000 0.000000e+000
      outer loop
         vertex -3.050000e+001 8.000000e+000 -3.500000e+000
         vertex -2.950000e+001 8.000000e+000 -4.500000e+000
         vertex -3.048769e+001 8.000000e+000 -3.656434e+000
      endloop
   endfacet
   facet normal 0.000000e+000 1.000000e+000 0.000000e+000
      outer loop
         vertex -3.048769e+001 8.000000e+000 -3.656434e+000
         vertex -2.950000e+001 8.000000e+000 -4.500000e+000
         vertex -3.045106e+001 8.000000e+000 -3.809017e+000
      endloop
   endfacet
   facet normal 0.000000e+000 1.000000e+000 0.000000e+000
      outer loop
         vertex -2.980902e+001 8.000000e+000 -4.451056e+000
         vertex -2.995399e+001 8.000000e+000 -4.391006e+000
         vertex -3.030902e+001 8.000000e+000 -4.087785e+000
      endloop
   endfacet
   facet normal 0.000000e+000 1.000000e+000 0.000000e+000
      outer loop
         vertex -3.030902e+001 8.000000e+000 -4.087785e+000
         vertex -2.995399e+001 8.000000e+000 -4.391006e+000
         vertex -3.008779e+001 8.000000e+000 -4.309017e+000
      endloop
   endfacet
   facet normal 0.000000e+000 1.000000e+000 0.000000e+000
      outer loop
         vertex -3.030902e+001 8.000000e+000 -4.087785e+000
         vertex -3.008779e+001 8.000000e+000 -4.309017e+000
         vertex -3.020711e+001 8.000000e+000 -4.207107e+000
      endloop
   endfacet
   facet normal 0.000000e+000 -1.000000e+000 0.000000e+000
      outer loop
         vertex 3.050000e+001 0.000000e+000 4.500000e+000
         vertex -3.050000e+001 0.000000e+000 4.500000e+000
         vertex 3.050000e+001 0.000000e+000 -4.500000e+000
      endloop
   endfacet
   facet normal 0.000000e+000 -1.000000e+000 0.000000e+000
      outer loop
         vertex 3.050000e+001 0.000000e+000 -4.500000e+000
         vertex -3.050000e+001 0.000000e+000 4.500000e+000
         vertex -3.050000e+001 0.000000e+000 -3.500000e+000
      endloop
   endfacet
   facet normal 0.000000e+000 -1.000000e+000 0.000000e+000
      outer loop
         vertex 3.050000e+001 0.000000e+000 -4.500000e+000
         vertex -3.050000e+001 0.000000e+000 -3.500000e+000
         vertex -2.950000e+001 0.000000e+000 -4.500000e+000
      endloop
   endfacet
   facet normal 0.000000e+000 -1.000000e+000 0.000000e+000
      outer loop
         vertex -2.950000e+001 0.000000e+000 -4.500000e+000
         vertex -3.050000e+001 0.000000e+000 -3.500000e+000
         vertex -3.048769e+001 0.000000e+000 -3.656434e+000
      endloop
   endfacet
   facet normal 0.000000e+000 -1.000000e+000 0.000000e+000
      outer loop
         vertex -2.950000e+001 0.000000e+000 -4.500000e+000
         vertex -3.048769e+001 0.000000e+000 -3.656434e+000
         vertex -3.045106e+001 0.000000e+000 -3.809017e+000
      endloop
   endfacet
   facet normal 0.000000e+000 -1.000000e+000 0.000000e+000
      outer loop
         vertex -3.045106e+001 0.000000e+000 -3.809017e+000
         vertex -3.039101e+001 0.000000e+000 -3.953990e+000
         vertex -2.950000e+001 0.000000e+000 -4.500000e+000
      endloop
   endfacet
   facet normal 0.000000e+000 -1.000000e+000 0.000000e+000
      outer loop
         vertex -2.950000e+001 0.000000e+000 -4.500000e+000
         vertex -3.039101e+001 0.000000e+000 -3.953990e+000
         vertex -3.030902e+001 0.000000e+000 -4.087785e+000
      endloop
   endfacet
   facet normal 0.000000e+000 -1.000000e+000 0.000000e+000
      outer loop
         vertex -2.950000e+001 0.000000e+000 -4.500000e+000
         vertex -3.030902e+001 0.000000e+000 -4.087785e+000
         vertex -2.965644e+001 0.000000e+000 -4.487688e+000
      endloop
   endfacet
   facet normal 0.000000e+000 -1.000000e+000 0.000000e+000
      outer loop
         vertex -3.030902e+001 0.000000e+000 -4.087785e+000
         vertex -3.020711e+001 0.000000e+000 -4.207107e+000
         vertex -3.008779e+001 0.000000e+000 -4.309017e+000
      endloop
   endfacet
   facet normal 0.000000e+000 -1.000000e+000 0.000000e+000
      outer loop
         vertex -3.008779e+001 0.000000e+000 -4.309017e+000
         vertex -2.995399e+001 0.000000e+000 -4.391006e+000
         vertex -3.030902e+001 0.000000e+000 -4.087785e+000
      endloop
   endfacet
   facet normal 0.000000e+000 -1.000000e+000 0.000000e+000
      outer loop
         vertex -3.030902e+001 0.000000e+000 -4.087785e+000
         vertex -2.995399e+001 0.000000e+000 -4.391006e+000
         vertex -2.980902e+001 0.000000e+000 -4.451056e+000
      endloop
   endfacet
   facet normal 0.000000e+000 -1.000000e+000 0.000000e+000
      outer loop
         vertex -3.030902e+001 0.000000e+000 -4.087785e+000
         vertex -2.980902e+001 0.000000e+000 -4.451056e+000
         vertex -2.965644e+001 0.000000e+000 -4.487688e+000
      endloop
   endfacet
endsolid