solid 7-0-1_Default_sldprt
   facet normal 0.000000e+000 1.000000e+000 0.000000e+000
      outer loop
         vertex -2.594390e+001 1.170000e+000 -3.366900e+001
         vertex -3.000000e+001 1.170000e+000 -3.650000e+001
         vertex -2.612789e+001 1.170000e+000 -3.349266e+001
      endloop
   endfacet
   facet normal 0.000000e+000 1.000000e+000 0.000000e+000
      outer loop
         vertex -2.612789e+001 1.170000e+000 -3.349266e+001
         vertex -3.000000e+001 1.170000e+000 -3.650000e+001
         vertex -2.627942e+001 1.170000e+000 -3.328777e+001
      endloop
   endfacet
   facet normal 0.000000e+000 1.000000e+000 0.000000e+000
      outer loop
         vertex 2.438112e+001 1.170000e+000 3.386912e+001
         vertex 2.415864e+001 1.170000e+000 3.374483e+001
         vertex -3.000000e+001 1.170000e+000 3.650000e+001
      endloop
   endfacet
   facet normal 0.000000e+000 1.000000e+000 0.000000e+000
      outer loop
         vertex -2.649033e+001 1.170000e+000 -3.230915e+001
         vertex -2.650115e+001 1.170000e+000 -3.256377e+001
         vertex -3.000000e+001 1.170000e+000 -3.650000e+001
      endloop
   endfacet
   facet normal 0.000000e+000 1.000000e+000 0.000000e+000
      outer loop
         vertex -2.594390e+001 1.170000e+000 -3.366900e+001
         vertex -2.573276e+001 1.170000e+000 -3.381170e+001
         vertex -3.000000e+001 1.170000e+000 -3.650000e+001
      endloop
   endfacet
   facet normal 0.000000e+000 1.000000e+000 0.000000e+000
      outer loop
         vertex -3.000000e+001 1.170000e+000 -3.650000e+001
         vertex -2.573276e+001 1.170000e+000 -3.381170e+001
         vertex -2.550054e+001 1.170000e+000 -3.391668e+001
      endloop
   endfacet
   facet normal 0.000000e+000 1.000000e+000 0.000000e+000
      outer loop
         vertex -3.000000e+001 1.170000e+000 -3.650000e+001
         vertex -2.550054e+001 1.170000e+000 -3.391668e+001
         vertex -2.525392e+001 1.170000e+000 -3.398089e+001
      endloop
   endfacet
   facet normal 0.000000e+000 1.000000e+000 0.000000e+000
      outer loop
         vertex -2.537860e+001 1.170000e+000 -3.104598e+001
         vertex -3.000000e+001 1.170000e+000 3.650000e+001
         vertex -2.512742e+001 1.170000e+000 -3.100291e+001
      endloop
   endfacet
   facet normal 0.000000e+000 1.000000e+000 0.000000e+000
      outer loop
         vertex -2.512742e+001 1.170000e+000 -3.100291e+001
         vertex -3.000000e+001 1.170000e+000 3.650000e+001
         vertex -2.500000e+001 1.170000e+000 -3.099750e+001
      endloop
   endfacet
   facet normal 0.000000e+000 1.000000e+000 0.000000e+000
      outer loop
         vertex -2.603964e+001 1.170000e+000 -3.141526e+001
         vertex -2.620801e+001 1.170000e+000 -3.160656e+001
         vertex -3.000000e+001 1.170000e+000 3.650000e+001
      endloop
   endfacet
   facet normal 0.000000e+000 1.000000e+000 0.000000e+000
      outer loop
         vertex -3.000000e+001 1.170000e+000 3.650000e+001
         vertex -2.620801e+001 1.170000e+000 -3.160656e+001
         vertex -2.634162e+001 1.170000e+000 -3.182357e+001
      endloop
   endfacet
   facet normal 0.000000e+000 1.000000e+000 0.000000e+000
      outer loop
         vertex -3.000000e+001 1.170000e+000 3.650000e+001
         vertex -2.634162e+001 1.170000e+000 -3.182357e+001
         vertex -3.000000e+001 1.170000e+000 -3.650000e+001
      endloop
   endfacet
   facet normal 0.000000e+000 1.000000e+000 0.000000e+000
      outer loop
         vertex -3.000000e+001 1.170000e+000 -3.650000e+001
         vertex -2.634162e+001 1.170000e+000 -3.182357e+001
         vertex -2.643664e+001 1.170000e+000 -3.206004e+001
      endloop
   endfacet
   facet normal 0.000000e+000 1.000000e+000 0.000000e+000
      outer loop
         vertex -3.000000e+001 1.170000e+000 -3.650000e+001
         vertex -2.643664e+001 1.170000e+000 -3.206004e+001
         vertex -2.649033e+001 1.170000e+000 -3.230915e+001
      endloop
   endfacet
   facet normal 0.000000e+000 1.000000e+000 0.000000e+000
      outer loop
         vertex -2.650115e+001 1.170000e+000 -3.256377e+001
         vertex -2.646878e+001 1.170000e+000 -3.281654e+001
         vertex -3.000000e+001 1.170000e+000 -3.650000e+001
      endloop
   endfacet
   facet normal 0.000000e+000 1.000000e+000 0.000000e+000
      outer loop
         vertex -3.000000e+001 1.170000e+000 -3.650000e+001
         vertex -2.646878e+001 1.170000e+000 -3.281654e+001
         vertex -2.639415e+001 1.170000e+000 -3.306021e+001
      endloop
   endfacet
   facet normal 0.000000e+000 1.000000e+000 0.000000e+000
      outer loop
         vertex -3.000000e+001 1.170000e+000 -3.650000e+001
         vertex -2.639415e+001 1.170000e+000 -3.306021e+001
         vertex -2.627942e+001 1.170000e+000 -3.328777e+001
      endloop
   endfacet
   facet normal 0.000000e+000 1.000000e+000 0.000000e+000
      outer loop
         vertex -2.449946e+001 1.170000e+000 -3.391668e+001
         vertex 3.000000e+001 1.170000e+000 -3.650000e+001
         vertex -2.474608e+001 1.170000e+000 -3.398089e+001
      endloop
   endfacet
   facet normal 0.000000e+000 1.000000e+000 0.000000e+000
      outer loop
         vertex -2.474608e+001 1.170000e+000 -3.398089e+001
         vertex 3.000000e+001 1.170000e+000 -3.650000e+001
         vertex -3.000000e+001 1.170000e+000 -3.650000e+001
      endloop
   endfacet
   facet normal 0.000000e+000 1.000000e+000 0.000000e+000
      outer loop
         vertex -2.474608e+001 1.170000e+000 -3.398089e+001
         vertex -3.000000e+001 1.170000e+000 -3.650000e+001
         vertex -2.500000e+001 1.170000e+000 -3.400250e+001
      endloop
   endfacet
   facet normal 0.000000e+000 1.000000e+000 0.000000e+000
      outer loop
         vertex -2.500000e+001 1.170000e+000 -3.400250e+001
         vertex -3.000000e+001 1.170000e+000 -3.650000e+001
         vertex -2.525392e+001 1.170000e+000 -3.398089e+001
      endloop
   endfacet
   facet normal 0.000000e+000 1.000000e+000 0.000000e+000
      outer loop
         vertex 2.438112e+001 1.170000e+000 3.386912e+001
         vertex -3.000000e+001 1.170000e+000 3.650000e+001
         vertex 2.462140e+001 1.170000e+000 3.395402e+001
      endloop
   endfacet
   facet normal 0.000000e+000 1.000000e+000 0.000000e+000
      outer loop
         vertex 2.462140e+001 1.170000e+000 3.395402e+001
         vertex -3.000000e+001 1.170000e+000 3.650000e+001
         vertex 3.000000e+001 1.170000e+000 3.650000e+001
      endloop
   endfacet
   facet normal 0.000000e+000 1.000000e+000 0.000000e+000
      outer loop
         vertex 2.462140e+001 1.170000e+000 3.395402e+001
         vertex 3.000000e+001 1.170000e+000 3.650000e+001
         vertex 2.487258e+001 1.170000e+000 3.399709e+001
      endloop
   endfacet
   facet normal 0.000000e+000 1.000000e+000 0.000000e+000
      outer loop
         vertex -2.449946e+001 1.170000e+000 -3.391668e+001
         vertex -2.426724e+001 1.170000e+000 -3.381170e+001
         vertex 3.000000e+001 1.170000e+000 -3.650000e+001
      endloop
   endfacet
   facet normal 0.000000e+000 1.000000e+000 0.000000e+000
      outer loop
         vertex 3.000000e+001 1.170000e+000 -3.650000e+001
         vertex -2.426724e+001 1.170000e+000 -3.381170e+001
         vertex -2.405610e+001 1.170000e+000 -3.366900e+001
      endloop
   endfacet
   facet normal 0.000000e+000 1.000000e+000 0.000000e+000
      outer loop
         vertex 3.000000e+001 1.170000e+000 -3.650000e+001
         vertex -2.405610e+001 1.170000e+000 -3.366900e+001
         vertex -2.387211e+001 1.170000e+000 -3.349266e+001
      endloop
   endfacet
   facet normal 0.000000e+000 1.000000e+000 0.000000e+000
      outer loop
         vertex 2.550054e+001 1.170000e+000 3.108333e+001
         vertex 2.573276e+001 1.170000e+000 3.118830e+001
         vertex 3.000000e+001 1.170000e+000 -3.650000e+001
      endloop
   endfacet
   facet normal 0.000000e+000 1.000000e+000 0.000000e+000
      outer loop
         vertex 3.000000e+001 1.170000e+000 -3.650000e+001
         vertex 2.573276e+001 1.170000e+000 3.118830e+001
         vertex 2.594390e+001 1.170000e+000 3.133100e+001
      endloop
   endfacet
   facet normal 0.000000e+000 1.000000e+000 0.000000e+000
      outer loop
         vertex 3.000000e+001 1.170000e+000 -3.650000e+001
         vertex 2.594390e+001 1.170000e+000 3.133100e+001
         vertex 2.612789e+001 1.170000e+000 3.150734e+001
      endloop
   endfacet
   facet normal 0.000000e+000 1.000000e+000 0.000000e+000
      outer loop
         vertex 2.561888e+001 1.170000e+000 3.386912e+001
         vertex 2.537860e+001 1.170000e+000 3.395402e+001
         vertex 3.000000e+001 1.170000e+000 3.650000e+001
      endloop
   endfacet
   facet normal 0.000000e+000 1.000000e+000 0.000000e+000
      outer loop
         vertex -2.537860e+001 1.170000e+000 -3.104598e+001
         vertex -2.561888e+001 1.170000e+000 -3.113088e+001
         vertex -3.000000e+001 1.170000e+000 3.650000e+001
      endloop
   endfacet
   facet normal 0.000000e+000 1.000000e+000 0.000000e+000
      outer loop
         vertex -3.000000e+001 1.170000e+000 3.650000e+001
         vertex -2.561888e+001 1.170000e+000 -3.113088e+001
         vertex -2.584136e+001 1.170000e+000 -3.125516e+001
      endloop
   endfacet
   facet normal 0.000000e+000 1.000000e+000 0.000000e+000
      outer loop
         vertex -3.000000e+001 1.170000e+000 3.650000e+001
         vertex -2.584136e+001 1.170000e+000 -3.125516e+001
         vertex -2.603964e+001 1.170000e+000 -3.141526e+001
      endloop
   endfacet
   facet normal 0.000000e+000 1.000000e+000 0.000000e+000
      outer loop
         vertex 2.415864e+001 1.170000e+000 3.374483e+001
         vertex 2.396036e+001 1.170000e+000 3.358474e+001
         vertex -3.000000e+001 1.170000e+000 3.650000e+001
      endloop
   endfacet
   facet normal 0.000000e+000 1.000000e+000 0.000000e+000
      outer loop
         vertex -3.000000e+001 1.170000e+000 3.650000e+001
         vertex 2.396036e+001 1.170000e+000 3.358474e+001
         vertex 2.379199e+001 1.170000e+000 3.339344e+001
      endloop
   endfacet
   facet normal 0.000000e+000 1.000000e+000 0.000000e+000
      outer loop
         vertex -3.000000e+001 1.170000e+000 3.650000e+001
         vertex 2.379199e+001 1.170000e+000 3.339344e+001
         vertex 2.365838e+001 1.170000e+000 3.317643e+001
      endloop
   endfacet
   facet normal 0.000000e+000 1.000000e+000 0.000000e+000
      outer loop
         vertex 2.634162e+001 1.170000e+000 3.317643e+001
         vertex 2.620801e+001 1.170000e+000 3.339344e+001
         vertex 3.000000e+001 1.170000e+000 3.650000e+001
      endloop
   endfacet
   facet normal 0.000000e+000 1.000000e+000 0.000000e+000
      outer loop
         vertex 2.537860e+001 1.170000e+000 3.395402e+001
         vertex 2.512742e+001 1.170000e+000 3.399709e+001
         vertex 3.000000e+001 1.170000e+000 3.650000e+001
      endloop
   endfacet
   facet normal 0.000000e+000 1.000000e+000 0.000000e+000
      outer loop
         vertex 3.000000e+001 1.170000e+000 3.650000e+001
         vertex 2.512742e+001 1.170000e+000 3.399709e+001
         vertex 2.500000e+001 1.170000e+000 3.400250e+001
      endloop
   endfacet
   facet normal 0.000000e+000 1.000000e+000 0.000000e+000
      outer loop
         vertex 3.000000e+001 1.170000e+000 3.650000e+001
         vertex 2.500000e+001 1.170000e+000 3.400250e+001
         vertex 2.487258e+001 1.170000e+000 3.399709e+001
      endloop
   endfacet
   facet normal 0.000000e+000 1.000000e+000 0.000000e+000
      outer loop
         vertex 2.365838e+001 1.170000e+000 3.317643e+001
         vertex 2.356336e+001 1.170000e+000 3.293997e+001
         vertex -3.000000e+001 1.170000e+000 3.650000e+001
      endloop
   endfacet
   facet normal 0.000000e+000 1.000000e+000 0.000000e+000
      outer loop
         vertex -3.000000e+001 1.170000e+000 3.650000e+001
         vertex 2.356336e+001 1.170000e+000 3.293997e+001
         vertex 2.350967e+001 1.170000e+000 3.269085e+001
      endloop
   endfacet
   facet normal 0.000000e+000 1.000000e+000 0.000000e+000
      outer loop
         vertex -3.000000e+001 1.170000e+000 3.650000e+001
         vertex 2.350967e+001 1.170000e+000 3.269085e+001
         vertex 2.349885e+001 1.170000e+000 3.243623e+001
      endloop
   endfacet
   facet normal 0.000000e+000 1.000000e+000 0.000000e+000
      outer loop
         vertex 2.372058e+001 1.170000e+000 3.171223e+001
         vertex -2.500000e+001 1.170000e+000 -3.099750e+001
         vertex 2.360585e+001 1.170000e+000 3.193978e+001
      endloop
   endfacet
   facet normal 0.000000e+000 1.000000e+000 0.000000e+000
      outer loop
         vertex 2.360585e+001 1.170000e+000 3.193978e+001
         vertex -2.500000e+001 1.170000e+000 -3.099750e+001
         vertex -3.000000e+001 1.170000e+000 3.650000e+001
      endloop
   endfacet
   facet normal 0.000000e+000 1.000000e+000 0.000000e+000
      outer loop
         vertex 2.360585e+001 1.170000e+000 3.193978e+001
         vertex -3.000000e+001 1.170000e+000 3.650000e+001
         vertex 2.353122e+001 1.170000e+000 3.218345e+001
      endloop
   endfacet
   facet normal 0.000000e+000 1.000000e+000 0.000000e+000
      outer loop
         vertex 2.353122e+001 1.170000e+000 3.218345e+001
         vertex -3.000000e+001 1.170000e+000 3.650000e+001
         vertex 2.349885e+001 1.170000e+000 3.243623e+001
      endloop
   endfacet
   facet normal 0.000000e+000 1.000000e+000 0.000000e+000
      outer loop
         vertex -2.387211e+001 1.170000e+000 -3.349266e+001
         vertex -2.372058e+001 1.170000e+000 -3.328777e+001
         vertex 3.000000e+001 1.170000e+000 -3.650000e+001
      endloop
   endfacet
   facet normal 0.000000e+000 1.000000e+000 0.000000e+000
      outer loop
         vertex 3.000000e+001 1.170000e+000 -3.650000e+001
         vertex -2.372058e+001 1.170000e+000 -3.328777e+001
         vertex -2.360585e+001 1.170000e+000 -3.306021e+001
      endloop
   endfacet
   facet normal 0.000000e+000 1.000000e+000 0.000000e+000
      outer loop
         vertex 3.000000e+001 1.170000e+000 -3.650000e+001
         vertex -2.360585e+001 1.170000e+000 -3.306021e+001
         vertex -2.353122e+001 1.170000e+000 -3.281654e+001
      endloop
   endfacet
   facet normal 0.000000e+000 1.000000e+000 0.000000e+000
      outer loop
         vertex -2.356336e+001 1.170000e+000 -3.206004e+001
         vertex 2.500000e+001 1.170000e+000 3.099750e+001
         vertex 3.000000e+001 1.170000e+000 -3.650000e+001
      endloop
   endfacet
   facet normal 0.000000e+000 1.000000e+000 0.000000e+000
      outer loop
         vertex 3.000000e+001 1.170000e+000 -3.650000e+001
         vertex 2.500000e+001 1.170000e+000 3.099750e+001
         vertex 2.525392e+001 1.170000e+000 3.101911e+001
      endloop
   endfacet
   facet normal 0.000000e+000 1.000000e+000 0.000000e+000
      outer loop
         vertex 3.000000e+001 1.170000e+000 -3.650000e+001
         vertex 2.525392e+001 1.170000e+000 3.101911e+001
         vertex 2.550054e+001 1.170000e+000 3.108333e+001
      endloop
   endfacet
   facet normal 0.000000e+000 1.000000e+000 0.000000e+000
      outer loop
         vertex 2.620801e+001 1.170000e+000 3.339344e+001
         vertex 2.603964e+001 1.170000e+000 3.358474e+001
         vertex 3.000000e+001 1.170000e+000 3.650000e+001
      endloop
   endfacet
   facet normal 0.000000e+000 1.000000e+000 0.000000e+000
      outer loop
         vertex 3.000000e+001 1.170000e+000 3.650000e+001
         vertex 2.603964e+001 1.170000e+000 3.358474e+001
         vertex 2.584136e+001 1.170000e+000 3.374483e+001
      endloop
   endfacet
   facet normal 0.000000e+000 1.000000e+000 0.000000e+000
      outer loop
         vertex 3.000000e+001 1.170000e+000 3.650000e+001
         vertex 2.584136e+001 1.170000e+000 3.374483e+001
         vertex 2.561888e+001 1.170000e+000 3.386912e+001
      endloop
   endfacet
   facet normal 0.000000e+000 1.000000e+000 0.000000e+000
      outer loop
         vertex -2.353122e+001 1.170000e+000 -3.281654e+001
         vertex -2.349885e+001 1.170000e+000 -3.256377e+001
         vertex 3.000000e+001 1.170000e+000 -3.650000e+001
      endloop
   endfacet
   facet normal 0.000000e+000 1.000000e+000 0.000000e+000
      outer loop
         vertex 3.000000e+001 1.170000e+000 -3.650000e+001
         vertex -2.349885e+001 1.170000e+000 -3.256377e+001
         vertex -2.350967e+001 1.170000e+000 -3.230915e+001
      endloop
   endfacet
   facet normal 0.000000e+000 1.000000e+000 0.000000e+000
      outer loop
         vertex 3.000000e+001 1.170000e+000 -3.650000e+001
         vertex -2.350967e+001 1.170000e+000 -3.230915e+001
         vertex -2.356336e+001 1.170000e+000 -3.206004e+001
      endloop
   endfacet
   facet normal 0.000000e+000 1.000000e+000 0.000000e+000
      outer loop
         vertex 2.372058e+001 1.170000e+000 3.171223e+001
         vertex 2.387211e+001 1.170000e+000 3.150734e+001
         vertex -2.500000e+001 1.170000e+000 -3.099750e+001
      endloop
   endfacet
   facet normal 0.000000e+000 1.000000e+000 0.000000e+000
      outer loop
         vertex -2.500000e+001 1.170000e+000 -3.099750e+001
         vertex 2.387211e+001 1.170000e+000 3.150734e+001
         vertex 2.405610e+001 1.170000e+000 3.133100e+001
      endloop
   endfacet
   facet normal 0.000000e+000 1.000000e+000 0.000000e+000
      outer loop
         vertex -2.500000e+001 1.170000e+000 -3.099750e+001
         vertex 2.405610e+001 1.170000e+000 3.133100e+001
         vertex -2.487258e+001 1.170000e+000 -3.100291e+001
      endloop
   endfacet
   facet normal 0.000000e+000 1.000000e+000 0.000000e+000
      outer loop
         vertex -2.487258e+001 1.170000e+000 -3.100291e+001
         vertex 2.405610e+001 1.170000e+000 3.133100e+001
         vertex -2.462140e+001 1.170000e+000 -3.104598e+001
      endloop
   endfacet
   facet normal 0.000000e+000 1.000000e+000 0.000000e+000
      outer loop
         vertex 2.612789e+001 1.170000e+000 3.150734e+001
         vertex 2.627942e+001 1.170000e+000 3.171223e+001
         vertex 3.000000e+001 1.170000e+000 -3.650000e+001
      endloop
   endfacet
   facet normal 0.000000e+000 1.000000e+000 0.000000e+000
      outer loop
         vertex 3.000000e+001 1.170000e+000 -3.650000e+001
         vertex 2.627942e+001 1.170000e+000 3.171223e+001
         vertex 2.639415e+001 1.170000e+000 3.193978e+001
      endloop
   endfacet
   facet normal 0.000000e+000 1.000000e+000 0.000000e+000
      outer loop
         vertex 3.000000e+001 1.170000e+000 -3.650000e+001
         vertex 2.639415e+001 1.170000e+000 3.193978e+001
         vertex 3.000000e+001 1.170000e+000 3.650000e+001
      endloop
   endfacet
   facet normal 0.000000e+000 1.000000e+000 0.000000e+000
      outer loop
         vertex 3.000000e+001 1.170000e+000 3.650000e+001
         vertex 2.639415e+001 1.170000e+000 3.193978e+001
         vertex 2.646878e+001 1.170000e+000 3.218345e+001
      endloop
   endfacet
   facet normal 0.000000e+000 1.000000e+000 0.000000e+000
      outer loop
         vertex 3.000000e+001 1.170000e+000 3.650000e+001
         vertex 2.646878e+001 1.170000e+000 3.218345e+001
         vertex 2.650115e+001 1.170000e+000 3.243623e+001
      endloop
   endfacet
   facet normal 0.000000e+000 1.000000e+000 0.000000e+000
      outer loop
         vertex 2.650115e+001 1.170000e+000 3.243623e+001
         vertex 2.649033e+001 1.170000e+000 3.269085e+001
         vertex 3.000000e+001 1.170000e+000 3.650000e+001
      endloop
   endfacet
   facet normal 0.000000e+000 1.000000e+000 0.000000e+000
      outer loop
         vertex 3.000000e+001 1.170000e+000 3.650000e+001
         vertex 2.649033e+001 1.170000e+000 3.269085e+001
         vertex 2.643664e+001 1.170000e+000 3.293997e+001
      endloop
   endfacet
   facet normal 0.000000e+000 1.000000e+000 0.000000e+000
      outer loop
         vertex 3.000000e+001 1.170000e+000 3.650000e+001
         vertex 2.643664e+001 1.170000e+000 3.293997e+001
         vertex 2.634162e+001 1.170000e+000 3.317643e+001
      endloop
   endfacet
   facet normal 0.000000e+000 1.000000e+000 0.000000e+000
      outer loop
         vertex -2.356336e+001 1.170000e+000 -3.206004e+001
         vertex -2.365838e+001 1.170000e+000 -3.182357e+001
         vertex 2.500000e+001 1.170000e+000 3.099750e+001
      endloop
   endfacet
   facet normal 0.000000e+000 1.000000e+000 0.000000e+000
      outer loop
         vertex 2.500000e+001 1.170000e+000 3.099750e+001
         vertex -2.365838e+001 1.170000e+000 -3.182357e+001
         vertex -2.379199e+001 1.170000e+000 -3.160656e+001
      endloop
   endfacet
   facet normal 0.000000e+000 1.000000e+000 0.000000e+000
      outer loop
         vertex 2.500000e+001 1.170000e+000 3.099750e+001
         vertex -2.379199e+001 1.170000e+000 -3.160656e+001
         vertex 2.474608e+001 1.170000e+000 3.101911e+001
      endloop
   endfacet
   facet normal 0.000000e+000 1.000000e+000 0.000000e+000
      outer loop
         vertex 2.474608e+001 1.170000e+000 3.101911e+001
         vertex -2.379199e+001 1.170000e+000 -3.160656e+001
         vertex 2.449946e+001 1.170000e+000 3.108333e+001
      endloop
   endfacet
   facet normal 0.000000e+000 1.000000e+000 0.000000e+000
      outer loop
         vertex -2.396036e+001 1.170000e+000 -3.141526e+001
         vertex -2.415864e+001 1.170000e+000 -3.125516e+001
         vertex 2.405610e+001 1.170000e+000 3.133100e+001
      endloop
   endfacet
   facet normal 0.000000e+000 1.000000e+000 0.000000e+000
      outer loop
         vertex 2.405610e+001 1.170000e+000 3.133100e+001
         vertex -2.415864e+001 1.170000e+000 -3.125516e+001
         vertex -2.438112e+001 1.170000e+000 -3.113088e+001
      endloop
   endfacet
   facet normal 0.000000e+000 1.000000e+000 0.000000e+000
      outer loop
         vertex 2.405610e+001 1.170000e+000 3.133100e+001
         vertex -2.438112e+001 1.170000e+000 -3.113088e+001
         vertex -2.462140e+001 1.170000e+000 -3.104598e+001
      endloop
   endfacet
   facet normal 0.000000e+000 1.000000e+000 0.000000e+000
      outer loop
         vertex -2.396036e+001 1.170000e+000 -3.141526e+001
         vertex 2.405610e+001 1.170000e+000 3.133100e+001
         vertex -2.379199e+001 1.170000e+000 -3.160656e+001
      endloop
   endfacet
   facet normal 0.000000e+000 1.000000e+000 0.000000e+000
      outer loop
         vertex -2.379199e+001 1.170000e+000 -3.160656e+001
         vertex 2.405610e+001 1.170000e+000 3.133100e+001
         vertex 2.426724e+001 1.170000e+000 3.118830e+001
      endloop
   endfacet
   facet normal 0.000000e+000 1.000000e+000 0.000000e+000
      outer loop
         vertex -2.379199e+001 1.170000e+000 -3.160656e+001
         vertex 2.426724e+001 1.170000e+000 3.118830e+001
         vertex 2.449946e+001 1.170000e+000 3.108333e+001
      endloop
   endfacet
   facet normal 0.000000e+000 -1.000000e+000 0.000000e+000
      outer loop
         vertex -2.474608e+001 0.000000e+000 -3.398089e+001
         vertex -2.500000e+001 0.000000e+000 -3.400250e+001
         vertex -3.000000e+001 0.000000e+000 -3.650000e+001
      endloop
   endfacet
   facet normal 0.000000e+000 -1.000000e+000 0.000000e+000
      outer loop
         vertex -2.500000e+001 0.000000e+000 -3.400250e+001
         vertex -2.525392e+001 0.000000e+000 -3.398089e+001
         vertex -3.000000e+001 0.000000e+000 -3.650000e+001
      endloop
   endfacet
   facet normal 0.000000e+000 -1.000000e+000 0.000000e+000
      outer loop
         vertex -3.000000e+001 0.000000e+000 -3.650000e+001
         vertex -2.525392e+001 0.000000e+000 -3.398089e+001
         vertex -2.550054e+001 0.000000e+000 -3.391668e+001
      endloop
   endfacet
   facet normal 0.000000e+000 -1.000000e+000 0.000000e+000
      outer loop
         vertex -3.000000e+001 0.000000e+000 -3.650000e+001
         vertex -2.550054e+001 0.000000e+000 -3.391668e+001
         vertex -2.573276e+001 0.000000e+000 -3.381170e+001
      endloop
   endfacet
   facet normal 0.000000e+000 -1.000000e+000 0.000000e+000
      outer loop
         vertex 3.000000e+001 0.000000e+000 -3.650000e+001
         vertex -2.372058e+001 0.000000e+000 -3.328777e+001
         vertex -2.387211e+001 0.000000e+000 -3.349266e+001
      endloop
   endfacet
   facet normal 0.000000e+000 -1.000000e+000 0.000000e+000
      outer loop
         vertex -2.387211e+001 0.000000e+000 -3.349266e+001
         vertex -2.405610e+001 0.000000e+000 -3.366900e+001
         vertex 3.000000e+001 0.000000e+000 -3.650000e+001
      endloop
   endfacet
   facet normal 0.000000e+000 -1.000000e+000 0.000000e+000
      outer loop
         vertex 3.000000e+001 0.000000e+000 -3.650000e+001
         vertex -2.405610e+001 0.000000e+000 -3.366900e+001
         vertex -2.426724e+001 0.000000e+000 -3.381170e+001
      endloop
   endfacet
   facet normal 0.000000e+000 -1.000000e+000 0.000000e+000
      outer loop
         vertex 3.000000e+001 0.000000e+000 -3.650000e+001
         vertex -2.426724e+001 0.000000e+000 -3.381170e+001
         vertex -3.000000e+001 0.000000e+000 -3.650000e+001
      endloop
   endfacet
   facet normal 0.000000e+000 -1.000000e+000 0.000000e+000
      outer loop
         vertex -3.000000e+001 0.000000e+000 -3.650000e+001
         vertex -2.426724e+001 0.000000e+000 -3.381170e+001
         vertex -2.449946e+001 0.000000e+000 -3.391668e+001
      endloop
   endfacet
   facet normal 0.000000e+000 -1.000000e+000 0.000000e+000
      outer loop
         vertex -3.000000e+001 0.000000e+000 -3.650000e+001
         vertex -2.449946e+001 0.000000e+000 -3.391668e+001
         vertex -2.474608e+001 0.000000e+000 -3.398089e+001
      endloop
   endfacet
   facet normal 0.000000e+000 -1.000000e+000 0.000000e+000
      outer loop
         vertex -2.573276e+001 0.000000e+000 -3.381170e+001
         vertex -2.594390e+001 0.000000e+000 -3.366900e+001
         vertex -3.000000e+001 0.000000e+000 -3.650000e+001
      endloop
   endfacet
   facet normal 0.000000e+000 -1.000000e+000 0.000000e+000
      outer loop
         vertex -3.000000e+001 0.000000e+000 -3.650000e+001
         vertex -2.594390e+001 0.000000e+000 -3.366900e+001
         vertex -2.612789e+001 0.000000e+000 -3.349266e+001
      endloop
   endfacet
   facet normal 0.000000e+000 -1.000000e+000 0.000000e+000
      outer loop
         vertex -3.000000e+001 0.000000e+000 -3.650000e+001
         vertex -2.612789e+001 0.000000e+000 -3.349266e+001
         vertex -2.627942e+001 0.000000e+000 -3.328777e+001
      endloop
   endfacet
   facet normal 0.000000e+000 -1.000000e+000 0.000000e+000
      outer loop
         vertex 2.573276e+001 0.000000e+000 3.118830e+001
         vertex 2.550054e+001 0.000000e+000 3.108333e+001
         vertex 3.000000e+001 0.000000e+000 -3.650000e+001
      endloop
   endfacet
   facet normal 0.000000e+000 -1.000000e+000 0.000000e+000
      outer loop
         vertex 3.000000e+001 0.000000e+000 -3.650000e+001
         vertex 2.550054e+001 0.000000e+000 3.108333e+001
         vertex 2.525392e+001 0.000000e+000 3.101911e+001
      endloop
   endfacet
   facet normal 0.000000e+000 -1.000000e+000 0.000000e+000
      outer loop
         vertex 3.000000e+001 0.000000e+000 -3.650000e+001
         vertex 2.525392e+001 0.000000e+000 3.101911e+001
         vertex 2.500000e+001 0.000000e+000 3.099750e+001
      endloop
   endfacet
   facet normal 0.000000e+000 -1.000000e+000 0.000000e+000
      outer loop
         vertex -2.365838e+001 0.000000e+000 -3.182357e+001
         vertex 3.000000e+001 0.000000e+000 -3.650000e+001
         vertex -2.379199e+001 0.000000e+000 -3.160656e+001
      endloop
   endfacet
   facet normal 0.000000e+000 -1.000000e+000 0.000000e+000
      outer loop
         vertex -2.379199e+001 0.000000e+000 -3.160656e+001
         vertex 3.000000e+001 0.000000e+000 -3.650000e+001
         vertex 2.500000e+001 0.000000e+000 3.099750e+001
      endloop
   endfacet
   facet normal 0.000000e+000 -1.000000e+000 0.000000e+000
      outer loop
         vertex -2.379199e+001 0.000000e+000 -3.160656e+001
         vertex 2.500000e+001 0.000000e+000 3.099750e+001
         vertex -2.396036e+001 0.000000e+000 -3.141526e+001
      endloop
   endfacet
   facet normal 0.000000e+000 -1.000000e+000 0.000000e+000
      outer loop
         vertex -2.365838e+001 0.000000e+000 -3.182357e+001
         vertex -2.356336e+001 0.000000e+000 -3.206004e+001
         vertex 3.000000e+001 0.000000e+000 -3.650000e+001
      endloop
   endfacet
   facet normal 0.000000e+000 -1.000000e+000 0.000000e+000
      outer loop
         vertex 3.000000e+001 0.000000e+000 -3.650000e+001
         vertex -2.356336e+001 0.000000e+000 -3.206004e+001
         vertex -2.350967e+001 0.000000e+000 -3.230915e+001
      endloop
   endfacet
   facet normal 0.000000e+000 -1.000000e+000 0.000000e+000
      outer loop
         vertex 3.000000e+001 0.000000e+000 -3.650000e+001
         vertex -2.350967e+001 0.000000e+000 -3.230915e+001
         vertex -2.349885e+001 0.000000e+000 -3.256377e+001
      endloop
   endfacet
   facet normal 0.000000e+000 -1.000000e+000 0.000000e+000
      outer loop
         vertex -2.349885e+001 0.000000e+000 -3.256377e+001
         vertex -2.353122e+001 0.000000e+000 -3.281654e+001
         vertex 3.000000e+001 0.000000e+000 -3.650000e+001
      endloop
   endfacet
   facet normal 0.000000e+000 -1.000000e+000 0.000000e+000
      outer loop
         vertex 3.000000e+001 0.000000e+000 -3.650000e+001
         vertex -2.353122e+001 0.000000e+000 -3.281654e+001
         vertex -2.360585e+001 0.000000e+000 -3.306021e+001
      endloop
   endfacet
   facet normal 0.000000e+000 -1.000000e+000 0.000000e+000
      outer loop
         vertex 3.000000e+001 0.000000e+000 -3.650000e+001
         vertex -2.360585e+001 0.000000e+000 -3.306021e+001
         vertex -2.372058e+001 0.000000e+000 -3.328777e+001
      endloop
   endfacet
   facet normal 0.000000e+000 -1.000000e+000 0.000000e+000
      outer loop
         vertex 2.426724e+001 0.000000e+000 3.118830e+001
         vertex 2.405610e+001 0.000000e+000 3.133100e+001
         vertex -2.620801e+001 0.000000e+000 -3.160656e+001
      endloop
   endfacet
   facet normal 0.000000e+000 -1.000000e+000 0.000000e+000
      outer loop
         vertex -2.584136e+001 0.000000e+000 -3.125516e+001
         vertex -2.561888e+001 0.000000e+000 -3.113088e+001
         vertex 2.500000e+001 0.000000e+000 3.099750e+001
      endloop
   endfacet
   facet normal 0.000000e+000 -1.000000e+000 0.000000e+000
      outer loop
         vertex 2.500000e+001 0.000000e+000 3.099750e+001
         vertex -2.561888e+001 0.000000e+000 -3.113088e+001
         vertex -2.537860e+001 0.000000e+000 -3.104598e+001
      endloop
   endfacet
   facet normal 0.000000e+000 -1.000000e+000 0.000000e+000
      outer loop
         vertex 2.500000e+001 0.000000e+000 3.099750e+001
         vertex -2.537860e+001 0.000000e+000 -3.104598e+001
         vertex -2.512742e+001 0.000000e+000 -3.100291e+001
      endloop
   endfacet
   facet normal 0.000000e+000 -1.000000e+000 0.000000e+000
      outer loop
         vertex 2.627942e+001 0.000000e+000 3.171223e+001
         vertex 2.612789e+001 0.000000e+000 3.150734e+001
         vertex 3.000000e+001 0.000000e+000 -3.650000e+001
      endloop
   endfacet
   facet normal 0.000000e+000 -1.000000e+000 0.000000e+000
      outer loop
         vertex 3.000000e+001 0.000000e+000 -3.650000e+001
         vertex 2.612789e+001 0.000000e+000 3.150734e+001
         vertex 2.594390e+001 0.000000e+000 3.133100e+001
      endloop
   endfacet
   facet normal 0.000000e+000 -1.000000e+000 0.000000e+000
      outer loop
         vertex 3.000000e+001 0.000000e+000 -3.650000e+001
         vertex 2.594390e+001 0.000000e+000 3.133100e+001
         vertex 2.573276e+001 0.000000e+000 3.118830e+001
      endloop
   endfacet
   facet normal 0.000000e+000 -1.000000e+000 0.000000e+000
      outer loop
         vertex -2.584136e+001 0.000000e+000 -3.125516e+001
         vertex 2.500000e+001 0.000000e+000 3.099750e+001
         vertex -2.603964e+001 0.000000e+000 -3.141526e+001
      endloop
   endfacet
   facet normal 0.000000e+000 -1.000000e+000 0.000000e+000
      outer loop
         vertex -2.603964e+001 0.000000e+000 -3.141526e+001
         vertex 2.500000e+001 0.000000e+000 3.099750e+001
         vertex 2.474608e+001 0.000000e+000 3.101911e+001
      endloop
   endfacet
   facet normal 0.000000e+000 -1.000000e+000 0.000000e+000
      outer loop
         vertex -2.603964e+001 0.000000e+000 -3.141526e+001
         vertex 2.474608e+001 0.000000e+000 3.101911e+001
         vertex -2.620801e+001 0.000000e+000 -3.160656e+001
      endloop
   endfacet
   facet normal 0.000000e+000 -1.000000e+000 0.000000e+000
      outer loop
         vertex -2.620801e+001 0.000000e+000 -3.160656e+001
         vertex 2.474608e+001 0.000000e+000 3.101911e+001
         vertex 2.449946e+001 0.000000e+000 3.108333e+001
      endloop
   endfacet
   facet normal 0.000000e+000 -1.000000e+000 0.000000e+000
      outer loop
         vertex -2.620801e+001 0.000000e+000 -3.160656e+001
         vertex 2.449946e+001 0.000000e+000 3.108333e+001
         vertex 2.426724e+001 0.000000e+000 3.118830e+001
      endloop
   endfacet
   facet normal 0.000000e+000 -1.000000e+000 0.000000e+000
      outer loop
         vertex -2.512742e+001 0.000000e+000 -3.100291e+001
         vertex -2.500000e+001 0.000000e+000 -3.099750e+001
         vertex 2.500000e+001 0.000000e+000 3.099750e+001
      endloop
   endfacet
   facet normal 0.000000e+000 -1.000000e+000 0.000000e+000
      outer loop
         vertex 2.500000e+001 0.000000e+000 3.099750e+001
         vertex -2.500000e+001 0.000000e+000 -3.099750e+001
         vertex -2.487258e+001 0.000000e+000 -3.100291e+001
      endloop
   endfacet
   facet normal 0.000000e+000 -1.000000e+000 0.000000e+000
      outer loop
         vertex 2.500000e+001 0.000000e+000 3.099750e+001
         vertex -2.487258e+001 0.000000e+000 -3.100291e+001
         vertex -2.462140e+001 0.000000e+000 -3.104598e+001
      endloop
   endfacet
   facet normal 0.000000e+000 -1.000000e+000 0.000000e+000
      outer loop
         vertex -2.462140e+001 0.000000e+000 -3.104598e+001
         vertex -2.438112e+001 0.000000e+000 -3.113088e+001
         vertex 2.500000e+001 0.000000e+000 3.099750e+001
      endloop
   endfacet
   facet normal 0.000000e+000 -1.000000e+000 0.000000e+000
      outer loop
         vertex 2.500000e+001 0.000000e+000 3.099750e+001
         vertex -2.438112e+001 0.000000e+000 -3.113088e+001
         vertex -2.415864e+001 0.000000e+000 -3.125516e+001
      endloop
   endfacet
   facet normal 0.000000e+000 -1.000000e+000 0.000000e+000
      outer loop
         vertex 2.500000e+001 0.000000e+000 3.099750e+001
         vertex -2.415864e+001 0.000000e+000 -3.125516e+001
         vertex -2.396036e+001 0.000000e+000 -3.141526e+001
      endloop
   endfacet
   facet normal 0.000000e+000 -1.000000e+000 0.000000e+000
      outer loop
         vertex -2.627942e+001 0.000000e+000 -3.328777e+001
         vertex -2.639415e+001 0.000000e+000 -3.306021e+001
         vertex -3.000000e+001 0.000000e+000 -3.650000e+001
      endloop
   endfacet
   facet normal 0.000000e+000 -1.000000e+000 0.000000e+000
      outer loop
         vertex -3.000000e+001 0.000000e+000 -3.650000e+001
         vertex -2.639415e+001 0.000000e+000 -3.306021e+001
         vertex -2.646878e+001 0.000000e+000 -3.281654e+001
      endloop
   endfacet
   facet normal 0.000000e+000 -1.000000e+000 0.000000e+000
      outer loop
         vertex -3.000000e+001 0.000000e+000 -3.650000e+001
         vertex -2.646878e+001 0.000000e+000 -3.281654e+001
         vertex -2.650115e+001 0.000000e+000 -3.256377e+001
      endloop
   endfacet
   facet normal 0.000000e+000 -1.000000e+000 0.000000e+000
      outer loop
         vertex 2.353122e+001 0.000000e+000 3.218345e+001
         vertex 2.349885e+001 0.000000e+000 3.243623e+001
         vertex -3.000000e+001 0.000000e+000 3.650000e+001
      endloop
   endfacet
   facet normal 0.000000e+000 -1.000000e+000 0.000000e+000
      outer loop
         vertex 2.365838e+001 0.000000e+000 3.317643e+001
         vertex 2.379199e+001 0.000000e+000 3.339344e+001
         vertex -3.000000e+001 0.000000e+000 3.650000e+001
      endloop
   endfacet
   facet normal 0.000000e+000 -1.000000e+000 0.000000e+000
      outer loop
         vertex -3.000000e+001 0.000000e+000 3.650000e+001
         vertex 2.379199e+001 0.000000e+000 3.339344e+001
         vertex 2.396036e+001 0.000000e+000 3.358474e+001
      endloop
   endfacet
   facet normal 0.000000e+000 -1.000000e+000 0.000000e+000
      outer loop
         vertex 2.396036e+001 0.000000e+000 3.358474e+001
         vertex 2.415864e+001 0.000000e+000 3.374483e+001
         vertex -3.000000e+001 0.000000e+000 3.650000e+001
      endloop
   endfacet
   facet normal 0.000000e+000 -1.000000e+000 0.000000e+000
      outer loop
         vertex -3.000000e+001 0.000000e+000 3.650000e+001
         vertex 2.415864e+001 0.000000e+000 3.374483e+001
         vertex 2.438112e+001 0.000000e+000 3.386912e+001
      endloop
   endfacet
   facet normal 0.000000e+000 -1.000000e+000 0.000000e+000
      outer loop
         vertex -3.000000e+001 0.000000e+000 3.650000e+001
         vertex 2.438112e+001 0.000000e+000 3.386912e+001
         vertex 3.000000e+001 0.000000e+000 3.650000e+001
      endloop
   endfacet
   facet normal 0.000000e+000 -1.000000e+000 0.000000e+000
      outer loop
         vertex 3.000000e+001 0.000000e+000 3.650000e+001
         vertex 2.438112e+001 0.000000e+000 3.386912e+001
         vertex 2.462140e+001 0.000000e+000 3.395402e+001
      endloop
   endfacet
   facet normal 0.000000e+000 -1.000000e+000 0.000000e+000
      outer loop
         vertex 3.000000e+001 0.000000e+000 3.650000e+001
         vertex 2.462140e+001 0.000000e+000 3.395402e+001
         vertex 2.487258e+001 0.000000e+000 3.399709e+001
      endloop
   endfacet
   facet normal 0.000000e+000 -1.000000e+000 0.000000e+000
      outer loop
         vertex 3.000000e+001 0.000000e+000 3.650000e+001
         vertex 2.537860e+001 0.000000e+000 3.395402e+001
         vertex 2.561888e+001 0.000000e+000 3.386912e+001
      endloop
   endfacet
   facet normal 0.000000e+000 -1.000000e+000 0.000000e+000
      outer loop
         vertex 2.405610e+001 0.000000e+000 3.133100e+001
         vertex 2.387211e+001 0.000000e+000 3.150734e+001
         vertex -2.620801e+001 0.000000e+000 -3.160656e+001
      endloop
   endfacet
   facet normal 0.000000e+000 -1.000000e+000 0.000000e+000
      outer loop
         vertex -2.620801e+001 0.000000e+000 -3.160656e+001
         vertex 2.387211e+001 0.000000e+000 3.150734e+001
         vertex 2.372058e+001 0.000000e+000 3.171223e+001
      endloop
   endfacet
   facet normal 0.000000e+000 -1.000000e+000 0.000000e+000
      outer loop
         vertex -2.620801e+001 0.000000e+000 -3.160656e+001
         vertex 2.372058e+001 0.000000e+000 3.171223e+001
         vertex -3.000000e+001 0.000000e+000 3.650000e+001
      endloop
   endfacet
   facet normal 0.000000e+000 -1.000000e+000 0.000000e+000
      outer loop
         vertex -3.000000e+001 0.000000e+000 3.650000e+001
         vertex 2.372058e+001 0.000000e+000 3.171223e+001
         vertex 2.360585e+001 0.000000e+000 3.193978e+001
      endloop
   endfacet
   facet normal 0.000000e+000 -1.000000e+000 0.000000e+000
      outer loop
         vertex -3.000000e+001 0.000000e+000 3.650000e+001
         vertex 2.360585e+001 0.000000e+000 3.193978e+001
         vertex 2.353122e+001 0.000000e+000 3.218345e+001
      endloop
   endfacet
   facet normal 0.000000e+000 -1.000000e+000 0.000000e+000
      outer loop
         vertex 2.349885e+001 0.000000e+000 3.243623e+001
         vertex 2.350967e+001 0.000000e+000 3.269085e+001
         vertex -3.000000e+001 0.000000e+000 3.650000e+001
      endloop
   endfacet
   facet normal 0.000000e+000 -1.000000e+000 0.000000e+000
      outer loop
         vertex -3.000000e+001 0.000000e+000 3.650000e+001
         vertex 2.350967e+001 0.000000e+000 3.269085e+001
         vertex 2.356336e+001 0.000000e+000 3.293997e+001
      endloop
   endfacet
   facet normal 0.000000e+000 -1.000000e+000 0.000000e+000
      outer loop
         vertex -3.000000e+001 0.000000e+000 3.650000e+001
         vertex 2.356336e+001 0.000000e+000 3.293997e+001
         vertex 2.365838e+001 0.000000e+000 3.317643e+001
      endloop
   endfacet
   facet normal 0.000000e+000 -1.000000e+000 0.000000e+000
      outer loop
         vertex 2.561888e+001 0.000000e+000 3.386912e+001
         vertex 2.584136e+001 0.000000e+000 3.374483e+001
         vertex 3.000000e+001 0.000000e+000 3.650000e+001
      endloop
   endfacet
   facet normal 0.000000e+000 -1.000000e+000 0.000000e+000
      outer loop
         vertex 3.000000e+001 0.000000e+000 3.650000e+001
         vertex 2.584136e+001 0.000000e+000 3.374483e+001
         vertex 2.603964e+001 0.000000e+000 3.358474e+001
      endloop
   endfacet
   facet normal 0.000000e+000 -1.000000e+000 0.000000e+000
      outer loop
         vertex 3.000000e+001 0.000000e+000 3.650000e+001
         vertex 2.603964e+001 0.000000e+000 3.358474e+001
         vertex 2.620801e+001 0.000000e+000 3.339344e+001
      endloop
   endfacet
   facet normal 0.000000e+000 -1.000000e+000 0.000000e+000
      outer loop
         vertex -2.650115e+001 0.000000e+000 -3.256377e+001
         vertex -2.649033e+001 0.000000e+000 -3.230915e+001
         vertex -3.000000e+001 0.000000e+000 -3.650000e+001
      endloop
   endfacet
   facet normal 0.000000e+000 -1.000000e+000 0.000000e+000
      outer loop
         vertex -3.000000e+001 0.000000e+000 -3.650000e+001
         vertex -2.649033e+001 0.000000e+000 -3.230915e+001
         vertex -2.643664e+001 0.000000e+000 -3.206004e+001
      endloop
   endfacet
   facet normal 0.000000e+000 -1.000000e+000 0.000000e+000
      outer loop
         vertex -3.000000e+001 0.000000e+000 -3.650000e+001
         vertex -2.643664e+001 0.000000e+000 -3.206004e+001
         vertex -3.000000e+001 0.000000e+000 3.650000e+001
      endloop
   endfacet
   facet normal 0.000000e+000 -1.000000e+000 0.000000e+000
      outer loop
         vertex -3.000000e+001 0.000000e+000 3.650000e+001
         vertex -2.643664e+001 0.000000e+000 -3.206004e+001
         vertex -2.634162e+001 0.000000e+000 -3.182357e+001
      endloop
   endfacet
   facet normal 0.000000e+000 -1.000000e+000 0.000000e+000
      outer loop
         vertex -3.000000e+001 0.000000e+000 3.650000e+001
         vertex -2.634162e+001 0.000000e+000 -3.182357e+001
         vertex -2.620801e+001 0.000000e+000 -3.160656e+001
      endloop
   endfacet
   facet normal 0.000000e+000 -1.000000e+000 0.000000e+000
      outer loop
         vertex 2.487258e+001 0.000000e+000 3.399709e+001
         vertex 2.500000e+001 0.000000e+000 3.400250e+001
         vertex 3.000000e+001 0.000000e+000 3.650000e+001
      endloop
   endfacet
   facet normal 0.000000e+000 -1.000000e+000 0.000000e+000
      outer loop
         vertex 3.000000e+001 0.000000e+000 3.650000e+001
         vertex 2.500000e+001 0.000000e+000 3.400250e+001
         vertex 2.512742e+001 0.000000e+000 3.399709e+001
      endloop
   endfacet
   facet normal 0.000000e+000 -1.000000e+000 0.000000e+000
      outer loop
         vertex 3.000000e+001 0.000000e+000 3.650000e+001
         vertex 2.512742e+001 0.000000e+000 3.399709e+001
         vertex 2.537860e+001 0.000000e+000 3.395402e+001
      endloop
   endfacet
   facet normal 0.000000e+000 -1.000000e+000 0.000000e+000
      outer loop
         vertex 2.620801e+001 0.000000e+000 3.339344e+001
         vertex 2.634162e+001 0.000000e+000 3.317643e+001
         vertex 3.000000e+001 0.000000e+000 3.650000e+001
      endloop
   endfacet
   facet normal 0.000000e+000 -1.000000e+000 0.000000e+000
      outer loop
         vertex 3.000000e+001 0.000000e+000 3.650000e+001
         vertex 2.634162e+001 0.000000e+000 3.317643e+001
         vertex 2.643664e+001 0.000000e+000 3.293997e+001
      endloop
   endfacet
   facet normal 0.000000e+000 -1.000000e+000 0.000000e+000
      outer loop
         vertex 3.000000e+001 0.000000e+000 3.650000e+001
         vertex 2.643664e+001 0.000000e+000 3.293997e+001
         vertex 2.649033e+001 0.000000e+000 3.269085e+001
      endloop
   endfacet
   facet normal 0.000000e+000 -1.000000e+000 0.000000e+000
      outer loop
         vertex 2.649033e+001 0.000000e+000 3.269085e+001
         vertex 2.650115e+001 0.000000e+000 3.243623e+001
         vertex 3.000000e+001 0.000000e+000 3.650000e+001
      endloop
   endfacet
   facet normal 0.000000e+000 -1.000000e+000 0.000000e+000
      outer loop
         vertex 3.000000e+001 0.000000e+000 3.650000e+001
         vertex 2.650115e+001 0.000000e+000 3.243623e+001
         vertex 2.646878e+001 0.000000e+000 3.218345e+001
      endloop
   endfacet
   facet normal 0.000000e+000 -1.000000e+000 0.000000e+000
      outer loop
         vertex 3.000000e+001 0.000000e+000 3.650000e+001
         vertex 2.646878e+001 0.000000e+000 3.218345e+001
         vertex 3.000000e+001 0.000000e+000 -3.650000e+001
      endloop
   endfacet
   facet normal 0.000000e+000 -1.000000e+000 0.000000e+000
      outer loop
         vertex 3.000000e+001 0.000000e+000 -3.650000e+001
         vertex 2.646878e+001 0.000000e+000 3.218345e+001
         vertex 2.639415e+001 0.000000e+000 3.193978e+001
      endloop
   endfacet
   facet normal 0.000000e+000 -1.000000e+000 0.000000e+000
      outer loop
         vertex 3.000000e+001 0.000000e+000 -3.650000e+001
         vertex 2.639415e+001 0.000000e+000 3.193978e+001
         vertex 2.627942e+001 0.000000e+000 3.171223e+001
      endloop
   endfacet
   facet normal -1.000000e+000 0.000000e+000 9.505334e-017
      outer loop
         vertex -3.000000e+001 1.170000e+000 3.650000e+001
         vertex -3.000000e+001 1.170000e+000 -3.650000e+001
         vertex -3.000000e+001 4.336809e-016 3.650000e+001
      endloop
   endfacet
   facet normal -1.000000e+000 0.000000e+000 9.505334e-017
      outer loop
         vertex -3.000000e+001 4.336809e-016 3.650000e+001
         vertex -3.000000e+001 1.170000e+000 -3.650000e+001
         vertex -3.000000e+001 4.336809e-016 -3.650000e+001
      endloop
   endfacet
   facet normal 0.000000e+000 0.000000e+000 1.000000e+000
      outer loop
         vertex 3.000000e+001 1.170000e+000 3.650000e+001
         vertex -3.000000e+001 1.170000e+000 3.650000e+001
         vertex 3.000000e+001 0.000000e+000 3.650000e+001
      endloop
   endfacet
   facet normal 0.000000e+000 0.000000e+000 1.000000e+000
      outer loop
         vertex 3.000000e+001 0.000000e+000 3.650000e+001
         vertex -3.000000e+001 1.170000e+000 3.650000e+001
         vertex -3.000000e+001 0.000000e+000 3.650000e+001
      endloop
   endfacet
   facet normal 1.000000e+000 0.000000e+000 0.000000e+000
      outer loop
         vertex 3.000000e+001 1.170000e+000 -3.650000e+001
         vertex 3.000000e+001 1.170000e+000 3.650000e+001
         vertex 3.000000e+001 4.336809e-016 -3.650000e+001
      endloop
   endfacet
   facet normal 1.000000e+000 0.000000e+000 0.000000e+000
      outer loop
         vertex 3.000000e+001 4.336809e-016 -3.650000e+001
         vertex 3.000000e+001 1.170000e+000 3.650000e+001
         vertex 3.000000e+001 4.336809e-016 3.650000e+001
      endloop
   endfacet
   facet normal 0.000000e+000 0.000000e+000 -1.000000e+000
      outer loop
         vertex -3.000000e+001 1.170000e+000 -3.650000e+001
         vertex 3.000000e+001 1.170000e+000 -3.650000e+001
         vertex -3.000000e+001 4.336809e-016 -3.650000e+001
      endloop
   endfacet
   facet normal 0.000000e+000 0.000000e+000 -1.000000e+000
      outer loop
         vertex -3.000000e+001 4.336809e-016 -3.650000e+001
         vertex 3.000000e+001 1.170000e+000 -3.650000e+001
         vertex 3.000000e+001 4.336809e-016 -3.650000e+001
      endloop
   endfacet
   facet normal -5.651454e-002 0.000000e+000 9.984018e-001
      outer loop
         vertex 2.500000e+001 1.170000e+000 3.099750e+001
         vertex 2.500000e+001 4.336809e-016 3.099750e+001
         vertex 2.525392e+001 1.170000e+000 3.101911e+001
      endloop
   endfacet
   facet normal -1.130291e-001 0.000000e+000 9.935917e-001
      outer loop
         vertex 2.525392e+001 1.170000e+000 3.101911e+001
         vertex 2.500000e+001 4.336809e-016 3.099750e+001
         vertex 2.525392e+001 4.336809e-016 3.101911e+001
      endloop
   endfacet
   facet normal -2.244324e-001 0.000000e+000 9.744897e-001
      outer loop
         vertex 2.525392e+001 1.170000e+000 3.101911e+001
         vertex 2.525392e+001 4.336809e-016 3.101911e+001
         vertex 2.550054e+001 1.170000e+000 3.108333e+001
      endloop
   endfacet
   facet normal -2.793211e-001 0.000000e+000 9.601977e-001
      outer loop
         vertex 2.550054e+001 1.170000e+000 3.108333e+001
         vertex 2.525392e+001 4.336809e-016 3.101911e+001
         vertex 2.550054e+001 4.336809e-016 3.108333e+001
      endloop
   endfacet
   facet normal -3.858936e-001 0.000000e+000 9.225433e-001
      outer loop
         vertex 2.550054e+001 1.170000e+000 3.108333e+001
         vertex 2.550054e+001 4.336809e-016 3.108333e+001
         vertex 2.573276e+001 1.170000e+000 3.118830e+001
      endloop
   endfacet
   facet normal -4.375775e-001 0.000000e+000 8.991807e-001
      outer loop
         vertex 2.573276e+001 1.170000e+000 3.118830e+001
         vertex 2.550054e+001 4.336809e-016 3.108333e+001
         vertex 2.573276e+001 4.336809e-016 3.118830e+001
      endloop
   endfacet
   facet normal -5.362535e-001 0.000000e+000 8.440570e-001
      outer loop
         vertex 2.573276e+001 1.170000e+000 3.118830e+001
         vertex 2.573276e+001 4.336809e-016 3.118830e+001
         vertex 2.594390e+001 1.170000e+000 3.133100e+001
      endloop
   endfacet
   facet normal -5.832456e-001 0.000000e+000 8.122959e-001
      outer loop
         vertex 2.594390e+001 1.170000e+000 3.133100e+001
         vertex 2.573276e+001 4.336809e-016 3.118830e+001
         vertex 2.594390e+001 4.336809e-016 3.133100e+001
      endloop
   endfacet
   facet normal -6.711863e-001 0.000000e+000 7.412888e-001
      outer loop
         vertex 2.594390e+001 1.170000e+000 3.133100e+001
         vertex 2.594390e+001 4.336809e-016 3.133100e+001
         vertex 2.612789e+001 1.170000e+000 3.150734e+001
      endloop
   endfacet
   facet normal -7.121348e-001 0.000000e+000 7.020428e-001
      outer loop
         vertex 2.612789e+001 1.170000e+000 3.150734e+001
         vertex 2.594390e+001 4.336809e-016 3.133100e+001
         vertex 2.612789e+001 4.336809e-016 3.150734e+001
      endloop
   endfacet
   facet normal -7.868103e-001 0.000000e+000 6.171949e-001
      outer loop
         vertex 2.612789e+001 1.170000e+000 3.150734e+001
         vertex 2.612789e+001 4.336809e-016 3.150734e+001
         vertex 2.627942e+001 1.170000e+000 3.171223e+001
      endloop
   endfacet
   facet normal -8.205372e-001 0.000000e+000 5.715931e-001
      outer loop
         vertex 2.627942e+001 1.170000e+000 3.171223e+001
         vertex 2.612789e+001 4.336809e-016 3.150734e+001
         vertex 2.627942e+001 4.336809e-016 3.171223e+001
      endloop
   endfacet
   facet normal -8.797992e-001 0.000000e+000 4.753455e-001
      outer loop
         vertex 2.627942e+001 1.170000e+000 3.171223e+001
         vertex 2.627942e+001 4.336809e-016 3.171223e+001
         vertex 2.639415e+001 1.170000e+000 3.193978e+001
      endloop
   endfacet
   facet normal -9.053342e-001 0.000000e+000 4.246998e-001
      outer loop
         vertex 2.639415e+001 1.170000e+000 3.193978e+001
         vertex 2.627942e+001 4.336809e-016 3.171223e+001
         vertex 2.639415e+001 4.336809e-016 3.193978e+001
      endloop
   endfacet
   facet normal -9.474779e-001 0.000000e+000 3.198213e-001
      outer loop
         vertex 2.639415e+001 1.170000e+000 3.193978e+001
         vertex 2.639415e+001 4.336809e-016 3.193978e+001
         vertex 2.646878e+001 1.170000e+000 3.218345e+001
      endloop
   endfacet
   facet normal -9.640865e-001 0.000000e+000 2.655886e-001
      outer loop
         vertex 2.646878e+001 1.170000e+000 3.218345e+001
         vertex 2.639415e+001 4.336809e-016 3.193978e+001
         vertex 2.646878e+001 4.336809e-016 3.218345e+001
      endloop
   endfacet
   facet normal -9.878993e-001 0.000000e+000 1.550965e-001
      outer loop
         vertex 2.646878e+001 1.170000e+000 3.218345e+001
         vertex 2.646878e+001 4.336809e-016 3.218345e+001
         vertex 2.650115e+001 1.170000e+000 3.243623e+001
      endloop
   endfacet
   facet normal -9.951036e-001 0.000000e+000 9.883699e-002
      outer loop
         vertex 2.650115e+001 1.170000e+000 3.243623e+001
         vertex 2.646878e+001 4.336809e-016 3.218345e+001
         vertex 2.650115e+001 4.336809e-016 3.243623e+001
      endloop
   endfacet
   facet normal -9.999007e-001 0.000000e+000 -1.409025e-002
      outer loop
         vertex 2.650115e+001 1.170000e+000 3.243623e+001
         vertex 2.650115e+001 4.336809e-016 3.243623e+001
         vertex 2.649033e+001 1.170000e+000 3.269085e+001
      endloop
   endfacet
   facet normal -9.974935e-001 0.000000e+000 -7.075802e-002
      outer loop
         vertex 2.649033e+001 1.170000e+000 3.269085e+001
         vertex 2.650115e+001 4.336809e-016 3.243623e+001
         vertex 2.649033e+001 4.336809e-016 3.269085e+001
      endloop
   endfacet
   facet normal -9.831368e-001 0.000000e+000 -1.828716e-001
      outer loop
         vertex 2.649033e+001 1.170000e+000 3.269085e+001
         vertex 2.649033e+001 4.336809e-016 3.269085e+001
         vertex 2.643664e+001 1.170000e+000 3.293997e+001
      endloop
   endfacet
   facet normal -9.711873e-001 0.000000e+000 -2.383175e-001
      outer loop
         vertex 2.643664e+001 1.170000e+000 3.293997e+001
         vertex 2.649033e+001 4.336809e-016 3.269085e+001
         vertex 2.643664e+001 4.336809e-016 3.293997e+001
      endloop
   endfacet
   facet normal -9.380898e-001 0.000000e+000 -3.463921e-001
      outer loop
         vertex 2.643664e+001 1.170000e+000 3.293997e+001
         vertex 2.643664e+001 4.336809e-016 3.293997e+001
         vertex 2.634162e+001 1.170000e+000 3.317643e+001
      endloop
   endfacet
   facet normal -9.169418e-001 0.000000e+000 -3.990209e-001
      outer loop
         vertex 2.634162e+001 1.170000e+000 3.317643e+001
         vertex 2.643664e+001 4.336809e-016 3.293997e+001
         vertex 2.634162e+001 4.336809e-016 3.317643e+001
      endloop
   endfacet
   facet normal -8.660557e-001 0.000000e+000 -4.999475e-001
      outer loop
         vertex 2.634162e+001 1.170000e+000 3.317643e+001
         vertex 2.634162e+001 4.336809e-016 3.317643e+001
         vertex 2.620801e+001 1.170000e+000 3.339344e+001
      endloop
   endfacet
   facet normal -8.363176e-001 0.000000e+000 -5.482453e-001
      outer loop
         vertex 2.620801e+001 1.170000e+000 3.339344e+001
         vertex 2.634162e+001 4.336809e-016 3.317643e+001
         vertex 2.620801e+001 4.336809e-016 3.339344e+001
      endloop
   endfacet
   facet normal -7.691067e-001 0.000000e+000 -6.391203e-001
      outer loop
         vertex 2.620801e+001 1.170000e+000 3.339344e+001
         vertex 2.620801e+001 4.336809e-016 3.339344e+001
         vertex 2.603964e+001 1.170000e+000 3.358474e+001
      endloop
   endfacet
   facet normal -7.316340e-001 0.000000e+000 -6.816977e-001
      outer loop
         vertex 2.603964e+001 1.170000e+000 3.358474e+001
         vertex 2.620801e+001 4.336809e-016 3.339344e+001
         vertex 2.603964e+001 4.336809e-016 3.358474e+001
      endloop
   endfacet
   facet normal -6.500320e-001 0.000000e+000 -7.599069e-001
      outer loop
         vertex 2.603964e+001 1.170000e+000 3.358474e+001
         vertex 2.603964e+001 4.336809e-016 3.358474e+001
         vertex 2.584136e+001 1.170000e+000 3.374483e+001
      endloop
   endfacet
   facet normal -6.059027e-001 0.000000e+000 -7.955388e-001
      outer loop
         vertex 2.584136e+001 1.170000e+000 3.374483e+001
         vertex 2.603964e+001 4.336809e-016 3.358474e+001
         vertex 2.584136e+001 4.336809e-016 3.374483e+001
      endloop
   endfacet
   facet normal -5.122570e-001 0.000000e+000 -8.588322e-001
      outer loop
         vertex 2.584136e+001 1.170000e+000 3.374483e+001
         vertex 2.584136e+001 4.336809e-016 3.374483e+001
         vertex 2.561888e+001 1.170000e+000 3.386912e+001
      endloop
   endfacet
   facet normal -4.627406e-001 0.000000e+000 -8.864937e-001
      outer loop
         vertex 2.561888e+001 1.170000e+000 3.386912e+001
         vertex 2.584136e+001 4.336809e-016 3.374483e+001
         vertex 2.561888e+001 4.336809e-016 3.386912e+001
      endloop
   endfacet
   facet normal -3.597453e-001 0.000000e+000 -9.330506e-001
      outer loop
         vertex 2.561888e+001 1.170000e+000 3.386912e+001
         vertex 2.561888e+001 4.336809e-016 3.386912e+001
         vertex 2.537860e+001 1.170000e+000 3.395402e+001
      endloop
   endfacet
   facet normal -3.062663e-001 0.000000e+000 -9.519458e-001
      outer loop
         vertex 2.537860e+001 1.170000e+000 3.395402e+001
         vertex 2.561888e+001 4.336809e-016 3.386912e+001
         vertex 2.537860e+001 4.336809e-016 3.395402e+001
      endloop
   endfacet
   facet normal -1.968844e-001 0.000000e+000 -9.804267e-001
      outer loop
         vertex 2.537860e+001 1.170000e+000 3.395402e+001
         vertex 2.537860e+001 4.336809e-016 3.395402e+001
         vertex 2.512742e+001 1.170000e+000 3.399709e+001
      endloop
   endfacet
   facet normal -1.409813e-001 0.000000e+000 -9.900123e-001
      outer loop
         vertex 2.512742e+001 1.170000e+000 3.399709e+001
         vertex 2.537860e+001 4.336809e-016 3.395402e+001
         vertex 2.512742e+001 4.336809e-016 3.399709e+001
      endloop
   endfacet
   facet normal -5.658260e-002 0.000000e+000 -9.983979e-001
      outer loop
         vertex 2.512742e+001 1.170000e+000 3.399709e+001
         vertex 2.512742e+001 4.336809e-016 3.399709e+001
         vertex 2.500000e+001 1.170000e+000 3.400250e+001
      endloop
   endfacet
   facet normal -2.829130e-002 0.000000e+000 -9.995998e-001
      outer loop
         vertex 2.500000e+001 1.170000e+000 3.400250e+001
         vertex 2.512742e+001 4.336809e-016 3.399709e+001
         vertex 2.500000e+001 4.336809e-016 3.400250e+001
      endloop
   endfacet
   facet normal 2.829130e-002 0.000000e+000 -9.995998e-001
      outer loop
         vertex 2.500000e+001 1.170000e+000 3.400250e+001
         vertex 2.500000e+001 4.336809e-016 3.400250e+001
         vertex 2.487258e+001 1.170000e+000 3.399709e+001
      endloop
   endfacet
   facet normal 5.658260e-002 0.000000e+000 -9.983979e-001
      outer loop
         vertex 2.487258e+001 1.170000e+000 3.399709e+001
         vertex 2.500000e+001 4.336809e-016 3.400250e+001
         vertex 2.487258e+001 4.336809e-016 3.399709e+001
      endloop
   endfacet
   facet normal 1.409813e-001 0.000000e+000 -9.900123e-001
      outer loop
         vertex 2.487258e+001 1.170000e+000 3.399709e+001
         vertex 2.487258e+001 4.336809e-016 3.399709e+001
         vertex 2.462140e+001 1.170000e+000 3.395402e+001
      endloop
   endfacet
   facet normal 1.968844e-001 0.000000e+000 -9.804267e-001
      outer loop
         vertex 2.462140e+001 1.170000e+000 3.395402e+001
         vertex 2.487258e+001 4.336809e-016 3.399709e+001
         vertex 2.462140e+001 4.336809e-016 3.395402e+001
      endloop
   endfacet
   facet normal 3.062663e-001 0.000000e+000 -9.519458e-001
      outer loop
         vertex 2.462140e+001 1.170000e+000 3.395402e+001
         vertex 2.462140e+001 4.336809e-016 3.395402e+001
         vertex 2.438112e+001 1.170000e+000 3.386912e+001
      endloop
   endfacet
   facet normal 3.597453e-001 0.000000e+000 -9.330506e-001
      outer loop
         vertex 2.438112e+001 1.170000e+000 3.386912e+001
         vertex 2.462140e+001 4.336809e-016 3.395402e+001
         vertex 2.438112e+001 4.336809e-016 3.386912e+001
      endloop
   endfacet
   facet normal 4.627406e-001 0.000000e+000 -8.864937e-001
      outer loop
         vertex 2.438112e+001 1.170000e+000 3.386912e+001
         vertex 2.438112e+001 4.336809e-016 3.386912e+001
         vertex 2.415864e+001 1.170000e+000 3.374483e+001
      endloop
   endfacet
   facet normal 5.122570e-001 0.000000e+000 -8.588322e-001
      outer loop
         vertex 2.415864e+001 1.170000e+000 3.374483e+001
         vertex 2.438112e+001 4.336809e-016 3.386912e+001
         vertex 2.415864e+001 4.336809e-016 3.374483e+001
      endloop
   endfacet
   facet normal 6.059027e-001 0.000000e+000 -7.955388e-001
      outer loop
         vertex 2.415864e+001 1.170000e+000 3.374483e+001
         vertex 2.415864e+001 4.336809e-016 3.374483e+001
         vertex 2.396036e+001 1.170000e+000 3.358474e+001
      endloop
   endfacet
   facet normal 6.500320e-001 0.000000e+000 -7.599069e-001
      outer loop
         vertex 2.396036e+001 1.170000e+000 3.358474e+001
         vertex 2.415864e+001 4.336809e-016 3.374483e+001
         vertex 2.396036e+001 4.336809e-016 3.358474e+001
      endloop
   endfacet
   facet normal 7.316340e-001 0.000000e+000 -6.816977e-001
      outer loop
         vertex 2.396036e+001 1.170000e+000 3.358474e+001
         vertex 2.396036e+001 4.336809e-016 3.358474e+001
         vertex 2.379199e+001 1.170000e+000 3.339344e+001
      endloop
   endfacet
   facet normal 7.691067e-001 0.000000e+000 -6.391203e-001
      outer loop
         vertex 2.379199e+001 1.170000e+000 3.339344e+001
         vertex 2.396036e+001 4.336809e-016 3.358474e+001
         vertex 2.379199e+001 4.336809e-016 3.339344e+001
      endloop
   endfacet
   facet normal 8.363176e-001 0.000000e+000 -5.482453e-001
      outer loop
         vertex 2.379199e+001 1.170000e+000 3.339344e+001
         vertex 2.379199e+001 4.336809e-016 3.339344e+001
         vertex 2.365838e+001 1.170000e+000 3.317643e+001
      endloop
   endfacet
   facet normal 8.660557e-001 0.000000e+000 -4.999475e-001
      outer loop
         vertex 2.365838e+001 1.170000e+000 3.317643e+001
         vertex 2.379199e+001 4.336809e-016 3.339344e+001
         vertex 2.365838e+001 4.336809e-016 3.317643e+001
      endloop
   endfacet
   facet normal 9.169418e-001 0.000000e+000 -3.990209e-001
      outer loop
         vertex 2.365838e+001 1.170000e+000 3.317643e+001
         vertex 2.365838e+001 4.336809e-016 3.317643e+001
         vertex 2.356336e+001 1.170000e+000 3.293997e+001
      endloop
   endfacet
   facet normal 9.380898e-001 0.000000e+000 -3.463921e-001
      outer loop
         vertex 2.356336e+001 1.170000e+000 3.293997e+001
         vertex 2.365838e+001 4.336809e-016 3.317643e+001
         vertex 2.356336e+001 4.336809e-016 3.293997e+001
      endloop
   endfacet
   facet normal 9.711873e-001 0.000000e+000 -2.383175e-001
      outer loop
         vertex 2.356336e+001 1.170000e+000 3.293997e+001
         vertex 2.356336e+001 4.336809e-016 3.293997e+001
         vertex 2.350967e+001 1.170000e+000 3.269085e+001
      endloop
   endfacet
   facet normal 9.831368e-001 0.000000e+000 -1.828716e-001
      outer loop
         vertex 2.350967e+001 1.170000e+000 3.269085e+001
         vertex 2.356336e+001 4.336809e-016 3.293997e+001
         vertex 2.350967e+001 4.336809e-016 3.269085e+001
      endloop
   endfacet
   facet normal 9.974935e-001 0.000000e+000 -7.075802e-002
      outer loop
         vertex 2.350967e+001 1.170000e+000 3.269085e+001
         vertex 2.350967e+001 4.336809e-016 3.269085e+001
         vertex 2.349885e+001 1.170000e+000 3.243623e+001
      endloop
   endfacet
   facet normal 9.999007e-001 0.000000e+000 -1.409025e-002
      outer loop
         vertex 2.349885e+001 1.170000e+000 3.243623e+001
         vertex 2.350967e+001 4.336809e-016 3.269085e+001
         vertex 2.349885e+001 4.336809e-016 3.243623e+001
      endloop
   endfacet
   facet normal 9.951036e-001 0.000000e+000 9.883699e-002
      outer loop
         vertex 2.349885e+001 1.170000e+000 3.243623e+001
         vertex 2.349885e+001 4.336809e-016 3.243623e+001
         vertex 2.353122e+001 1.170000e+000 3.218345e+001
      endloop
   endfacet
   facet normal 9.878993e-001 0.000000e+000 1.550965e-001
      outer loop
         vertex 2.353122e+001 1.170000e+000 3.218345e+001
         vertex 2.349885e+001 4.336809e-016 3.243623e+001
         vertex 2.353122e+001 4.336809e-016 3.218345e+001
      endloop
   endfacet
   facet normal 9.640865e-001 0.000000e+000 2.655886e-001
      outer loop
         vertex 2.353122e+001 1.170000e+000 3.218345e+001
         vertex 2.353122e+001 4.336809e-016 3.218345e+001
         vertex 2.360585e+001 1.170000e+000 3.193978e+001
      endloop
   endfacet
   facet normal 9.474779e-001 0.000000e+000 3.198213e-001
      outer loop
         vertex 2.360585e+001 1.170000e+000 3.193978e+001
         vertex 2.353122e+001 4.336809e-016 3.218345e+001
         vertex 2.360585e+001 4.336809e-016 3.193978e+001
      endloop
   endfacet
   facet normal 9.053342e-001 0.000000e+000 4.246998e-001
      outer loop
         vertex 2.360585e+001 1.170000e+000 3.193978e+001
         vertex 2.360585e+001 4.336809e-016 3.193978e+001
         vertex 2.372058e+001 1.170000e+000 3.171223e+001
      endloop
   endfacet
   facet normal 8.797992e-001 0.000000e+000 4.753455e-001
      outer loop
         vertex 2.372058e+001 1.170000e+000 3.171223e+001
         vertex 2.360585e+001 4.336809e-016 3.193978e+001
         vertex 2.372058e+001 4.336809e-016 3.171223e+001
      endloop
   endfacet
   facet normal 8.205372e-001 0.000000e+000 5.715931e-001
      outer loop
         vertex 2.372058e+001 1.170000e+000 3.171223e+001
         vertex 2.372058e+001 4.336809e-016 3.171223e+001
         vertex 2.387211e+001 1.170000e+000 3.150734e+001
      endloop
   endfacet
   facet normal 7.868103e-001 0.000000e+000 6.171949e-001
      outer loop
         vertex 2.387211e+001 1.170000e+000 3.150734e+001
         vertex 2.372058e+001 4.336809e-016 3.171223e+001
         vertex 2.387211e+001 4.336809e-016 3.150734e+001
      endloop
   endfacet
   facet normal 7.121348e-001 0.000000e+000 7.020428e-001
      outer loop
         vertex 2.387211e+001 1.170000e+000 3.150734e+001
         vertex 2.387211e+001 4.336809e-016 3.150734e+001
         vertex 2.405610e+001 1.170000e+000 3.133100e+001
      endloop
   endfacet
   facet normal 6.711863e-001 0.000000e+000 7.412888e-001
      outer loop
         vertex 2.405610e+001 1.170000e+000 3.133100e+001
         vertex 2.387211e+001 4.336809e-016 3.150734e+001
         vertex 2.405610e+001 4.336809e-016 3.133100e+001
      endloop
   endfacet
   facet normal 5.832456e-001 0.000000e+000 8.122959e-001
      outer loop
         vertex 2.405610e+001 1.170000e+000 3.133100e+001
         vertex 2.405610e+001 4.336809e-016 3.133100e+001
         vertex 2.426724e+001 1.170000e+000 3.118830e+001
      endloop
   endfacet
   facet normal 5.362535e-001 0.000000e+000 8.440570e-001
      outer loop
         vertex 2.426724e+001 1.170000e+000 3.118830e+001
         vertex 2.405610e+001 4.336809e-016 3.133100e+001
         vertex 2.426724e+001 4.336809e-016 3.118830e+001
      endloop
   endfacet
   facet normal 4.375775e-001 0.000000e+000 8.991807e-001
      outer loop
         vertex 2.426724e+001 1.170000e+000 3.118830e+001
         vertex 2.426724e+001 4.336809e-016 3.118830e+001
         vertex 2.449946e+001 1.170000e+000 3.108333e+001
      endloop
   endfacet
   facet normal 3.858936e-001 0.000000e+000 9.225433e-001
      outer loop
         vertex 2.449946e+001 1.170000e+000 3.108333e+001
         vertex 2.426724e+001 4.336809e-016 3.118830e+001
         vertex 2.449946e+001 4.336809e-016 3.108333e+001
      endloop
   endfacet
   facet normal 2.793211e-001 0.000000e+000 9.601977e-001
      outer loop
         vertex 2.449946e+001 1.170000e+000 3.108333e+001
         vertex 2.449946e+001 4.336809e-016 3.108333e+001
         vertex 2.474608e+001 1.170000e+000 3.101911e+001
      endloop
   endfacet
   facet normal 2.244324e-001 0.000000e+000 9.744897e-001
      outer loop
         vertex 2.474608e+001 1.170000e+000 3.101911e+001
         vertex 2.449946e+001 4.336809e-016 3.108333e+001
         vertex 2.474608e+001 4.336809e-016 3.101911e+001
      endloop
   endfacet
   facet normal 1.130291e-001 0.000000e+000 9.935917e-001
      outer loop
         vertex 2.474608e+001 1.170000e+000 3.101911e+001
         vertex 2.474608e+001 4.336809e-016 3.101911e+001
         vertex 2.500000e+001 1.170000e+000 3.099750e+001
      endloop
   endfacet
   facet normal 5.651454e-002 0.000000e+000 9.984018e-001
      outer loop
         vertex 2.500000e+001 1.170000e+000 3.099750e+001
         vertex 2.474608e+001 4.336809e-016 3.101911e+001
         vertex 2.500000e+001 4.336809e-016 3.099750e+001
      endloop
   endfacet
   facet normal -5.651454e-002 0.000000e+000 9.984018e-001
      outer loop
         vertex -2.500000e+001 1.170000e+000 -3.400250e+001
         vertex -2.500000e+001 4.336809e-016 -3.400250e+001
         vertex -2.474608e+001 1.170000e+000 -3.398089e+001
      endloop
   endfacet
   facet normal -1.130291e-001 0.000000e+000 9.935917e-001
      outer loop
         vertex -2.474608e+001 1.170000e+000 -3.398089e+001
         vertex -2.500000e+001 4.336809e-016 -3.400250e+001
         vertex -2.474608e+001 4.336809e-016 -3.398089e+001
      endloop
   endfacet
   facet normal -2.244324e-001 0.000000e+000 9.744897e-001
      outer loop
         vertex -2.474608e+001 1.170000e+000 -3.398089e+001
         vertex -2.474608e+001 4.336809e-016 -3.398089e+001
         vertex -2.449946e+001 1.170000e+000 -3.391668e+001
      endloop
   endfacet
   facet normal -2.793211e-001 0.000000e+000 9.601977e-001
      outer loop
         vertex -2.449946e+001 1.170000e+000 -3.391668e+001
         vertex -2.474608e+001 4.336809e-016 -3.398089e+001
         vertex -2.449946e+001 4.336809e-016 -3.391668e+001
      endloop
   endfacet
   facet normal -3.858936e-001 0.000000e+000 9.225433e-001
      outer loop
         vertex -2.449946e+001 1.170000e+000 -3.391668e+001
         vertex -2.449946e+001 4.336809e-016 -3.391668e+001
         vertex -2.426724e+001 1.170000e+000 -3.381170e+001
      endloop
   endfacet
   facet normal -4.375775e-001 0.000000e+000 8.991807e-001
      outer loop
         vertex -2.426724e+001 1.170000e+000 -3.381170e+001
         vertex -2.449946e+001 4.336809e-016 -3.391668e+001
         vertex -2.426724e+001 4.336809e-016 -3.381170e+001
      endloop
   endfacet
   facet normal -5.362535e-001 0.000000e+000 8.440570e-001
      outer loop
         vertex -2.426724e+001 1.170000e+000 -3.381170e+001
         vertex -2.426724e+001 4.336809e-016 -3.381170e+001
         vertex -2.405610e+001 1.170000e+000 -3.366900e+001
      endloop
   endfacet
   facet normal -5.832456e-001 0.000000e+000 8.122959e-001
      outer loop
         vertex -2.405610e+001 1.170000e+000 -3.366900e+001
         vertex -2.426724e+001 4.336809e-016 -3.381170e+001
         vertex -2.405610e+001 4.336809e-016 -3.366900e+001
      endloop
   endfacet
   facet normal -6.711863e-001 0.000000e+000 7.412888e-001
      outer loop
         vertex -2.405610e+001 1.170000e+000 -3.366900e+001
         vertex -2.405610e+001 4.336809e-016 -3.366900e+001
         vertex -2.387211e+001 1.170000e+000 -3.349266e+001
      endloop
   endfacet
   facet normal -7.121348e-001 0.000000e+000 7.020428e-001
      outer loop
         vertex -2.387211e+001 1.170000e+000 -3.349266e+001
         vertex -2.405610e+001 4.336809e-016 -3.366900e+001
         vertex -2.387211e+001 4.336809e-016 -3.349266e+001
      endloop
   endfacet
   facet normal -7.868103e-001 0.000000e+000 6.171949e-001
      outer loop
         vertex -2.387211e+001 1.170000e+000 -3.349266e+001
         vertex -2.387211e+001 4.336809e-016 -3.349266e+001
         vertex -2.372058e+001 1.170000e+000 -3.328777e+001
      endloop
   endfacet
   facet normal -8.205372e-001 0.000000e+000 5.715931e-001
      outer loop
         vertex -2.372058e+001 1.170000e+000 -3.328777e+001
         vertex -2.387211e+001 4.336809e-016 -3.349266e+001
         vertex -2.372058e+001 4.336809e-016 -3.328777e+001
      endloop
   endfacet
   facet normal -8.797992e-001 0.000000e+000 4.753455e-001
      outer loop
         vertex -2.372058e+001 1.170000e+000 -3.328777e+001
         vertex -2.372058e+001 4.336809e-016 -3.328777e+001
         vertex -2.360585e+001 1.170000e+000 -3.306021e+001
      endloop
   endfacet
   facet normal -9.053342e-001 0.000000e+000 4.246998e-001
      outer loop
         vertex -2.360585e+001 1.170000e+000 -3.306021e+001
         vertex -2.372058e+001 4.336809e-016 -3.328777e+001
         vertex -2.360585e+001 4.336809e-016 -3.306021e+001
      endloop
   endfacet
   facet normal -9.474779e-001 0.000000e+000 3.198213e-001
      outer loop
         vertex -2.360585e+001 1.170000e+000 -3.306021e+001
         vertex -2.360585e+001 4.336809e-016 -3.306021e+001
         vertex -2.353122e+001 1.170000e+000 -3.281654e+001
      endloop
   endfacet
   facet normal -9.640865e-001 0.000000e+000 2.655886e-001
      outer loop
         vertex -2.353122e+001 1.170000e+000 -3.281654e+001
         vertex -2.360585e+001 4.336809e-016 -3.306021e+001
         vertex -2.353122e+001 4.336809e-016 -3.281654e+001
      endloop
   endfacet
   facet normal -9.878993e-001 0.000000e+000 1.550965e-001
      outer loop
         vertex -2.353122e+001 1.170000e+000 -3.281654e+001
         vertex -2.353122e+001 4.336809e-016 -3.281654e+001
         vertex -2.349885e+001 1.170000e+000 -3.256377e+001
      endloop
   endfacet
   facet normal -9.951036e-001 0.000000e+000 9.883699e-002
      outer loop
         vertex -2.349885e+001 1.170000e+000 -3.256377e+001
         vertex -2.353122e+001 4.336809e-016 -3.281654e+001
         vertex -2.349885e+001 4.336809e-016 -3.256377e+001
      endloop
   endfacet
   facet normal -9.999007e-001 0.000000e+000 -1.409025e-002
      outer loop
         vertex -2.349885e+001 1.170000e+000 -3.256377e+001
         vertex -2.349885e+001 4.336809e-016 -3.256377e+001
         vertex -2.350967e+001 1.170000e+000 -3.230915e+001
      endloop
   endfacet
   facet normal -9.974935e-001 0.000000e+000 -7.075802e-002
      outer loop
         vertex -2.350967e+001 1.170000e+000 -3.230915e+001
         vertex -2.349885e+001 4.336809e-016 -3.256377e+001
         vertex -2.350967e+001 4.336809e-016 -3.230915e+001
      endloop
   endfacet
   facet normal -9.831368e-001 0.000000e+000 -1.828716e-001
      outer loop
         vertex -2.350967e+001 1.170000e+000 -3.230915e+001
         vertex -2.350967e+001 4.336809e-016 -3.230915e+001
         vertex -2.356336e+001 1.170000e+000 -3.206004e+001
      endloop
   endfacet
   facet normal -9.711873e-001 0.000000e+000 -2.383175e-001
      outer loop
         vertex -2.356336e+001 1.170000e+000 -3.206004e+001
         vertex -2.350967e+001 4.336809e-016 -3.230915e+001
         vertex -2.356336e+001 4.336809e-016 -3.206004e+001
      endloop
   endfacet
   facet normal -9.380898e-001 0.000000e+000 -3.463921e-001
      outer loop
         vertex -2.356336e+001 1.170000e+000 -3.206004e+001
         vertex -2.356336e+001 4.336809e-016 -3.206004e+001
         vertex -2.365838e+001 1.170000e+000 -3.182357e+001
      endloop
   endfacet
   facet normal -9.169418e-001 0.000000e+000 -3.990209e-001
      outer loop
         vertex -2.365838e+001 1.170000e+000 -3.182357e+001
         vertex -2.356336e+001 4.336809e-016 -3.206004e+001
         vertex -2.365838e+001 4.336809e-016 -3.182357e+001
      endloop
   endfacet
   facet normal -8.660557e-001 0.000000e+000 -4.999475e-001
      outer loop
         vertex -2.365838e+001 1.170000e+000 -3.182357e+001
         vertex -2.365838e+001 4.336809e-016 -3.182357e+001
         vertex -2.379199e+001 1.170000e+000 -3.160656e+001
      endloop
   endfacet
   facet normal -8.363176e-001 0.000000e+000 -5.482453e-001
      outer loop
         vertex -2.379199e+001 1.170000e+000 -3.160656e+001
         vertex -2.365838e+001 4.336809e-016 -3.182357e+001
         vertex -2.379199e+001 4.336809e-016 -3.160656e+001
      endloop
   endfacet
   facet normal -7.691067e-001 0.000000e+000 -6.391203e-001
      outer loop
         vertex -2.379199e+001 1.170000e+000 -3.160656e+001
         vertex -2.379199e+001 4.336809e-016 -3.160656e+001
         vertex -2.396036e+001 1.170000e+000 -3.141526e+001
      endloop
   endfacet
   facet normal -7.316340e-001 0.000000e+000 -6.816977e-001
      outer loop
         vertex -2.396036e+001 1.170000e+000 -3.141526e+001
         vertex -2.379199e+001 4.336809e-016 -3.160656e+001
         vertex -2.396036e+001 4.336809e-016 -3.141526e+001
      endloop
   endfacet
   facet normal -6.500320e-001 0.000000e+000 -7.599069e-001
      outer loop
         vertex -2.396036e+001 1.170000e+000 -3.141526e+001
         vertex -2.396036e+001 4.336809e-016 -3.141526e+001
         vertex -2.415864e+001 1.170000e+000 -3.125516e+001
      endloop
   endfacet
   facet normal -6.059027e-001 0.000000e+000 -7.955388e-001
      outer loop
         vertex -2.415864e+001 1.170000e+000 -3.125516e+001
         vertex -2.396036e+001 4.336809e-016 -3.141526e+001
         vertex -2.415864e+001 4.336809e-016 -3.125516e+001
      endloop
   endfacet
   facet normal -5.122570e-001 0.000000e+000 -8.588322e-001
      outer loop
         vertex -2.415864e+001 1.170000e+000 -3.125516e+001
         vertex -2.415864e+001 4.336809e-016 -3.125516e+001
         vertex -2.438112e+001 1.170000e+000 -3.113088e+001
      endloop
   endfacet
   facet normal -4.627406e-001 0.000000e+000 -8.864937e-001
      outer loop
         vertex -2.438112e+001 1.170000e+000 -3.113088e+001
         vertex -2.415864e+001 4.336809e-016 -3.125516e+001
         vertex -2.438112e+001 4.336809e-016 -3.113088e+001
      endloop
   endfacet
   facet normal -3.597453e-001 0.000000e+000 -9.330506e-001
      outer loop
         vertex -2.438112e+001 1.170000e+000 -3.113088e+001
         vertex -2.438112e+001 4.336809e-016 -3.113088e+001
         vertex -2.462140e+001 1.170000e+000 -3.104598e+001
      endloop
   endfacet
   facet normal -3.062663e-001 0.000000e+000 -9.519458e-001
      outer loop
         vertex -2.462140e+001 1.170000e+000 -3.104598e+001
         vertex -2.438112e+001 4.336809e-016 -3.113088e+001
         vertex -2.462140e+001 4.336809e-016 -3.104598e+001
      endloop
   endfacet
   facet normal -1.968844e-001 0.000000e+000 -9.804267e-001
      outer loop
         vertex -2.462140e+001 1.170000e+000 -3.104598e+001
         vertex -2.462140e+001 4.336809e-016 -3.104598e+001
         vertex -2.487258e+001 1.170000e+000 -3.100291e+001
      endloop
   endfacet
   facet normal -1.409813e-001 0.000000e+000 -9.900123e-001
      outer loop
         vertex -2.487258e+001 1.170000e+000 -3.100291e+001
         vertex -2.462140e+001 4.336809e-016 -3.104598e+001
         vertex -2.487258e+001 4.336809e-016 -3.100291e+001
      endloop
   endfacet
   facet normal -5.658260e-002 0.000000e+000 -9.983979e-001
      outer loop
         vertex -2.487258e+001 1.170000e+000 -3.100291e+001
         vertex -2.487258e+001 4.336809e-016 -3.100291e+001
         vertex -2.500000e+001 1.170000e+000 -3.099750e+001
      endloop
   endfacet
   facet normal -2.829130e-002 0.000000e+000 -9.995998e-001
      outer loop
         vertex -2.500000e+001 1.170000e+000 -3.099750e+001
         vertex -2.487258e+001 4.336809e-016 -3.100291e+001
         vertex -2.500000e+001 4.336809e-016 -3.099750e+001
      endloop
   endfacet
   facet normal 2.829130e-002 0.000000e+000 -9.995998e-001
      outer loop
         vertex -2.500000e+001 1.170000e+000 -3.099750e+001
         vertex -2.500000e+001 4.336809e-016 -3.099750e+001
         vertex -2.512742e+001 1.170000e+000 -3.100291e+001
      endloop
   endfacet
   facet normal 5.658260e-002 0.000000e+000 -9.983979e-001
      outer loop
         vertex -2.512742e+001 1.170000e+000 -3.100291e+001
         vertex -2.500000e+001 4.336809e-016 -3.099750e+001
         vertex -2.512742e+001 4.336809e-016 -3.100291e+001
      endloop
   endfacet
   facet normal 1.409813e-001 0.000000e+000 -9.900123e-001
      outer loop
         vertex -2.512742e+001 1.170000e+000 -3.100291e+001
         vertex -2.512742e+001 4.336809e-016 -3.100291e+001
         vertex -2.537860e+001 1.170000e+000 -3.104598e+001
      endloop
   endfacet
   facet normal 1.968844e-001 0.000000e+000 -9.804267e-001
      outer loop
         vertex -2.537860e+001 1.170000e+000 -3.104598e+001
         vertex -2.512742e+001 4.336809e-016 -3.100291e+001
         vertex -2.537860e+001 4.336809e-016 -3.104598e+001
      endloop
   endfacet
   facet normal 3.062663e-001 0.000000e+000 -9.519458e-001
      outer loop
         vertex -2.537860e+001 1.170000e+000 -3.104598e+001
         vertex -2.537860e+001 4.336809e-016 -3.104598e+001
         vertex -2.561888e+001 1.170000e+000 -3.113088e+001
      endloop
   endfacet
   facet normal 3.597453e-001 0.000000e+000 -9.330506e-001
      outer loop
         vertex -2.561888e+001 1.170000e+000 -3.113088e+001
         vertex -2.537860e+001 4.336809e-016 -3.104598e+001
         vertex -2.561888e+001 4.336809e-016 -3.113088e+001
      endloop
   endfacet
   facet normal 4.627406e-001 0.000000e+000 -8.864937e-001
      outer loop
         vertex -2.561888e+001 1.170000e+000 -3.113088e+001
         vertex -2.561888e+001 4.336809e-016 -3.113088e+001
         vertex -2.584136e+001 1.170000e+000 -3.125516e+001
      endloop
   endfacet
   facet normal 5.122570e-001 0.000000e+000 -8.588322e-001
      outer loop
         vertex -2.584136e+001 1.170000e+000 -3.125516e+001
         vertex -2.561888e+001 4.336809e-016 -3.113088e+001
         vertex -2.584136e+001 4.336809e-016 -3.125516e+001
      endloop
   endfacet
   facet normal 6.059027e-001 0.000000e+000 -7.955388e-001
      outer loop
         vertex -2.584136e+001 1.170000e+000 -3.125516e+001
         vertex -2.584136e+001 4.336809e-016 -3.125516e+001
         vertex -2.603964e+001 1.170000e+000 -3.141526e+001
      endloop
   endfacet
   facet normal 6.500320e-001 0.000000e+000 -7.599069e-001
      outer loop
         vertex -2.603964e+001 1.170000e+000 -3.141526e+001
         vertex -2.584136e+001 4.336809e-016 -3.125516e+001
         vertex -2.603964e+001 4.336809e-016 -3.141526e+001
      endloop
   endfacet
   facet normal 7.316340e-001 0.000000e+000 -6.816977e-001
      outer loop
         vertex -2.603964e+001 1.170000e+000 -3.141526e+001
         vertex -2.603964e+001 4.336809e-016 -3.141526e+001
         vertex -2.620801e+001 1.170000e+000 -3.160656e+001
      endloop
   endfacet
   facet normal 7.691067e-001 0.000000e+000 -6.391203e-001
      outer loop
         vertex -2.620801e+001 1.170000e+000 -3.160656e+001
         vertex -2.603964e+001 4.336809e-016 -3.141526e+001
         vertex -2.620801e+001 4.336809e-016 -3.160656e+001
      endloop
   endfacet
   facet normal 8.363176e-001 0.000000e+000 -5.482453e-001
      outer loop
         vertex -2.620801e+001 1.170000e+000 -3.160656e+001
         vertex -2.620801e+001 4.336809e-016 -3.160656e+001
         vertex -2.634162e+001 1.170000e+000 -3.182357e+001
      endloop
   endfacet
   facet normal 8.660557e-001 0.000000e+000 -4.999475e-001
      outer loop
         vertex -2.634162e+001 1.170000e+000 -3.182357e+001
         vertex -2.620801e+001 4.336809e-016 -3.160656e+001
         vertex -2.634162e+001 4.336809e-016 -3.182357e+001
      endloop
   endfacet
   facet normal 9.169418e-001 0.000000e+000 -3.990209e-001
      outer loop
         vertex -2.634162e+001 1.170000e+000 -3.182357e+001
         vertex -2.634162e+001 4.336809e-016 -3.182357e+001
         vertex -2.643664e+001 1.170000e+000 -3.206004e+001
      endloop
   endfacet
   facet normal 9.380898e-001 0.000000e+000 -3.463921e-001
      outer loop
         vertex -2.643664e+001 1.170000e+000 -3.206004e+001
         vertex -2.634162e+001 4.336809e-016 -3.182357e+001
         vertex -2.643664e+001 4.336809e-016 -3.206004e+001
      endloop
   endfacet
   facet normal 9.711873e-001 0.000000e+000 -2.383175e-001
      outer loop
         vertex -2.643664e+001 1.170000e+000 -3.206004e+001
         vertex -2.643664e+001 4.336809e-016 -3.206004e+001
         vertex -2.649033e+001 1.170000e+000 -3.230915e+001
      endloop
   endfacet
   facet normal 9.831368e-001 0.000000e+000 -1.828716e-001
      outer loop
         vertex -2.649033e+001 1.170000e+000 -3.230915e+001
         vertex -2.643664e+001 4.336809e-016 -3.206004e+001
         vertex -2.649033e+001 4.336809e-016 -3.230915e+001
      endloop
   endfacet
   facet normal 9.974935e-001 0.000000e+000 -7.075802e-002
      outer loop
         vertex -2.649033e+001 1.170000e+000 -3.230915e+001
         vertex -2.649033e+001 4.336809e-016 -3.230915e+001
         vertex -2.650115e+001 1.170000e+000 -3.256377e+001
      endloop
   endfacet
   facet normal 9.999007e-001 0.000000e+000 -1.409025e-002
      outer loop
         vertex -2.650115e+001 1.170000e+000 -3.256377e+001
         vertex -2.649033e+001 4.336809e-016 -3.230915e+001
         vertex -2.650115e+001 4.336809e-016 -3.256377e+001
      endloop
   endfacet
   facet normal 9.951036e-001 0.000000e+000 9.883699e-002
      outer loop
         vertex -2.650115e+001 1.170000e+000 -3.256377e+001
         vertex -2.650115e+001 4.336809e-016 -3.256377e+001
         vertex -2.646878e+001 1.170000e+000 -3.281654e+001
      endloop
   endfacet
   facet normal 9.878993e-001 0.000000e+000 1.550965e-001
      outer loop
         vertex -2.646878e+001 1.170000e+000 -3.281654e+001
         vertex -2.650115e+001 4.336809e-016 -3.256377e+001
         vertex -2.646878e+001 4.336809e-016 -3.281654e+001
      endloop
   endfacet
   facet normal 9.640865e-001 0.000000e+000 2.655886e-001
      outer loop
         vertex -2.646878e+001 1.170000e+000 -3.281654e+001
         vertex -2.646878e+001 4.336809e-016 -3.281654e+001
         vertex -2.639415e+001 1.170000e+000 -3.306021e+001
      endloop
   endfacet
   facet normal 9.474779e-001 0.000000e+000 3.198213e-001
      outer loop
         vertex -2.639415e+001 1.170000e+000 -3.306021e+001
         vertex -2.646878e+001 4.336809e-016 -3.281654e+001
         vertex -2.639415e+001 4.336809e-016 -3.306021e+001
      endloop
   endfacet
   facet normal 9.053342e-001 0.000000e+000 4.246998e-001
      outer loop
         vertex -2.639415e+001 1.170000e+000 -3.306021e+001
         vertex -2.639415e+001 4.336809e-016 -3.306021e+001
         vertex -2.627942e+001 1.170000e+000 -3.328777e+001
      endloop
   endfacet
   facet normal 8.797992e-001 0.000000e+000 4.753455e-001
      outer loop
         vertex -2.627942e+001 1.170000e+000 -3.328777e+001
         vertex -2.639415e+001 4.336809e-016 -3.306021e+001
         vertex -2.627942e+001 4.336809e-016 -3.328777e+001
      endloop
   endfacet
   facet normal 8.205372e-001 0.000000e+000 5.715931e-001
      outer loop
         vertex -2.627942e+001 1.170000e+000 -3.328777e+001
         vertex -2.627942e+001 4.336809e-016 -3.328777e+001
         vertex -2.612789e+001 1.170000e+000 -3.349266e+001
      endloop
   endfacet
   facet normal 7.868103e-001 0.000000e+000 6.171949e-001
      outer loop
         vertex -2.612789e+001 1.170000e+000 -3.349266e+001
         vertex -2.627942e+001 4.336809e-016 -3.328777e+001
         vertex -2.612789e+001 4.336809e-016 -3.349266e+001
      endloop
   endfacet
   facet normal 7.121348e-001 0.000000e+000 7.020428e-001
      outer loop
         vertex -2.612789e+001 1.170000e+000 -3.349266e+001
         vertex -2.612789e+001 4.336809e-016 -3.349266e+001
         vertex -2.594390e+001 1.170000e+000 -3.366900e+001
      endloop
   endfacet
   facet normal 6.711863e-001 0.000000e+000 7.412888e-001
      outer loop
         vertex -2.594390e+001 1.170000e+000 -3.366900e+001
         vertex -2.612789e+001 4.336809e-016 -3.349266e+001
         vertex -2.594390e+001 4.336809e-016 -3.366900e+001
      endloop
   endfacet
   facet normal 5.832456e-001 0.000000e+000 8.122959e-001
      outer loop
         vertex -2.594390e+001 1.170000e+000 -3.366900e+001
         vertex -2.594390e+001 4.336809e-016 -3.366900e+001
         vertex -2.573276e+001 1.170000e+000 -3.381170e+001
      endloop
   endfacet
   facet normal 5.362535e-001 0.000000e+000 8.440570e-001
      outer loop
         vertex -2.573276e+001 1.170000e+000 -3.381170e+001
         vertex -2.594390e+001 4.336809e-016 -3.366900e+001
         vertex -2.573276e+001 4.336809e-016 -3.381170e+001
      endloop
   endfacet
   facet normal 4.375775e-001 0.000000e+000 8.991807e-001
      outer loop
         vertex -2.573276e+001 1.170000e+000 -3.381170e+001
         vertex -2.573276e+001 4.336809e-016 -3.381170e+001
         vertex -2.550054e+001 1.170000e+000 -3.391668e+001
      endloop
   endfacet
   facet normal 3.858936e-001 0.000000e+000 9.225433e-001
      outer loop
         vertex -2.550054e+001 1.170000e+000 -3.391668e+001
         vertex -2.573276e+001 4.336809e-016 -3.381170e+001
         vertex -2.550054e+001 4.336809e-016 -3.391668e+001
      endloop
   endfacet
   facet normal 2.793211e-001 0.000000e+000 9.601977e-001
      outer loop
         vertex -2.550054e+001 1.170000e+000 -3.391668e+001
         vertex -2.550054e+001 4.336809e-016 -3.391668e+001
         vertex -2.525392e+001 1.170000e+000 -3.398089e+001
      endloop
   endfacet
   facet normal 2.244324e-001 0.000000e+000 9.744897e-001
      outer loop
         vertex -2.525392e+001 1.170000e+000 -3.398089e+001
         vertex -2.550054e+001 4.336809e-016 -3.391668e+001
         vertex -2.525392e+001 4.336809e-016 -3.398089e+001
      endloop
   endfacet
   facet normal 1.130291e-001 0.000000e+000 9.935917e-001
      outer loop
         vertex -2.525392e+001 1.170000e+000 -3.398089e+001
         vertex -2.525392e+001 4.336809e-016 -3.398089e+001
         vertex -2.500000e+001 1.170000e+000 -3.400250e+001
      endloop
   endfacet
   facet normal 5.651454e-002 0.000000e+000 9.984018e-001
      outer loop
         vertex -2.500000e+001 1.170000e+000 -3.400250e+001
         vertex -2.525392e+001 4.336809e-016 -3.398089e+001
         vertex -2.500000e+001 4.336809e-016 -3.400250e+001
      endloop
   endfacet
endsolid