solid BlackLineLargeLC_Default_sldprt
   facet normal -1.000000e+000 0.000000e+000 2.081668e-016
      outer loop
         vertex -2.000000e+002 1.000000e+001 2.000000e+002
         vertex -2.000000e+002 1.000000e+001 -2.000000e+002
         vertex -2.000000e+002 0.000000e+000 2.000000e+002
      endloop
   endfacet
   facet normal -1.000000e+000 0.000000e+000 2.081668e-016
      outer loop
         vertex -2.000000e+002 0.000000e+000 2.000000e+002
         vertex -2.000000e+002 1.000000e+001 -2.000000e+002
         vertex -2.000000e+002 0.000000e+000 -2.000000e+002
      endloop
   endfacet
   facet normal 0.000000e+000 0.000000e+000 1.000000e+000
      outer loop
         vertex 2.000000e+002 1.000000e+001 2.000000e+002
         vertex -2.000000e+002 1.000000e+001 2.000000e+002
         vertex 2.000000e+002 0.000000e+000 2.000000e+002
      endloop
   endfacet
   facet normal 0.000000e+000 0.000000e+000 1.000000e+000
      outer loop
         vertex 2.000000e+002 0.000000e+000 2.000000e+002
         vertex -2.000000e+002 1.000000e+001 2.000000e+002
         vertex -2.000000e+002 0.000000e+000 2.000000e+002
      endloop
   endfacet
   facet normal 1.000000e+000 0.000000e+000 -1.387779e-016
      outer loop
         vertex 2.000000e+002 1.000000e+001 -2.000000e+002
         vertex 2.000000e+002 1.000000e+001 2.000000e+002
         vertex 2.000000e+002 0.000000e+000 -2.000000e+002
      endloop
   endfacet
   facet normal 1.000000e+000 0.000000e+000 -1.387779e-016
      outer loop
         vertex 2.000000e+002 0.000000e+000 -2.000000e+002
         vertex 2.000000e+002 1.000000e+001 2.000000e+002
         vertex 2.000000e+002 0.000000e+000 2.000000e+002
      endloop
   endfacet
   facet normal 0.000000e+000 0.000000e+000 -1.000000e+000
      outer loop
         vertex -2.000000e+002 1.000000e+001 -2.000000e+002
         vertex 2.000000e+002 1.000000e+001 -2.000000e+002
         vertex -2.000000e+002 0.000000e+000 -2.000000e+002
      endloop
   endfacet
   facet normal 0.000000e+000 0.000000e+000 -1.000000e+000
      outer loop
         vertex -2.000000e+002 0.000000e+000 -2.000000e+002
         vertex 2.000000e+002 1.000000e+001 -2.000000e+002
         vertex 2.000000e+002 0.000000e+000 -2.000000e+002
      endloop
   endfacet
   facet normal 0.000000e+000 1.000000e+000 0.000000e+000
      outer loop
         vertex 2.000000e+002 1.000000e+001 2.000000e+002
         vertex 2.000000e+002 1.000000e+001 -2.000000e+002
         vertex -2.000000e+002 1.000000e+001 2.000000e+002
      endloop
   endfacet
   facet normal 0.000000e+000 1.000000e+000 0.000000e+000
      outer loop
         vertex -2.000000e+002 1.000000e+001 2.000000e+002
         vertex 2.000000e+002 1.000000e+001 -2.000000e+002
         vertex -2.000000e+002 1.000000e+001 -2.000000e+002
      endloop
   endfacet
   facet normal 0.000000e+000 -1.000000e+000 0.000000e+000
      outer loop
         vertex 2.000000e+002 0.000000e+000 -2.000000e+002
         vertex 2.000000e+002 0.000000e+000 2.000000e+002
         vertex -2.000000e+002 0.000000e+000 -2.000000e+002
      endloop
   endfacet
   facet normal 0.000000e+000 -1.000000e+000 0.000000e+000
      outer loop
         vertex -2.000000e+002 0.000000e+000 -2.000000e+002
         vertex 2.000000e+002 0.000000e+000 2.000000e+002
         vertex -2.000000e+002 0.000000e+000 2.000000e+002
      endloop
   endfacet
endsolid