solid CentralWhiteCurve450_Default_sldprt
   facet normal 6.946597e-001 0.000000e+000 -7.193386e-001
      outer loop
         vertex 4.313351e+002 1.000000e+001 -4.313351e+002
         vertex 4.313351e+002 0.000000e+000 -4.313351e+002
         vertex 4.081696e+002 0.000000e+000 -4.533184e+002
      endloop
   endfacet
   facet normal 6.819971e-001 0.000000e+000 -7.313549e-001
      outer loop
         vertex 4.313351e+002 1.000000e+001 -4.313351e+002
         vertex 4.081696e+002 0.000000e+000 -4.533184e+002
         vertex 4.081696e+002 1.000000e+001 -4.533184e+002
      endloop
   endfacet
   facet normal 6.560604e-001 0.000000e+000 -7.547084e-001
      outer loop
         vertex 4.081696e+002 1.000000e+001 -4.533184e+002
         vertex 4.081696e+002 0.000000e+000 -4.533184e+002
         vertex 3.838854e+002 0.000000e+000 -4.740591e+002
      endloop
   endfacet
   facet normal 6.427863e-001 0.000000e+000 -7.660456e-001
      outer loop
         vertex 4.081696e+002 1.000000e+001 -4.533184e+002
         vertex 3.838854e+002 0.000000e+000 -4.740591e+002
         vertex 3.838854e+002 1.000000e+001 -4.740591e+002
      endloop
   endfacet
   facet normal 6.156629e-001 0.000000e+000 -7.880096e-001
      outer loop
         vertex 3.838854e+002 1.000000e+001 -4.740591e+002
         vertex 3.838854e+002 0.000000e+000 -4.740591e+002
         vertex 3.585490e+002 0.000000e+000 -4.935004e+002
      endloop
   endfacet
   facet normal 6.018136e-001 0.000000e+000 -7.986366e-001
      outer loop
         vertex 3.838854e+002 1.000000e+001 -4.740591e+002
         vertex 3.585490e+002 0.000000e+000 -4.935004e+002
         vertex 3.585490e+002 1.000000e+001 -4.935004e+002
      endloop
   endfacet
   facet normal 5.735779e-001 0.000000e+000 -8.191510e-001
      outer loop
         vertex 3.585490e+002 1.000000e+001 -4.935004e+002
         vertex 3.585490e+002 0.000000e+000 -4.935004e+002
         vertex 3.322298e+002 0.000000e+000 -5.115891e+002
      endloop
   endfacet
   facet normal 5.591915e-001 0.000000e+000 -8.290386e-001
      outer loop
         vertex 3.585490e+002 1.000000e+001 -4.935004e+002
         vertex 3.322298e+002 0.000000e+000 -5.115891e+002
         vertex 3.322298e+002 1.000000e+001 -5.115891e+002
      endloop
   endfacet
   facet normal 5.299208e-001 0.000000e+000 -8.480471e-001
      outer loop
         vertex 3.322298e+002 1.000000e+001 -5.115891e+002
         vertex 3.322298e+002 0.000000e+000 -5.115891e+002
         vertex 3.050000e+002 0.000000e+000 -5.282755e+002
      endloop
   endfacet
   facet normal 5.150366e-001 0.000000e+000 -8.571682e-001
      outer loop
         vertex 3.322298e+002 1.000000e+001 -5.115891e+002
         vertex 3.050000e+002 0.000000e+000 -5.282755e+002
         vertex 3.050000e+002 1.000000e+001 -5.282755e+002
      endloop
   endfacet
   facet normal 4.848112e-001 0.000000e+000 -8.746188e-001
      outer loop
         vertex 3.050000e+002 1.000000e+001 -5.282755e+002
         vertex 3.050000e+002 0.000000e+000 -5.282755e+002
         vertex 2.769342e+002 0.000000e+000 -5.435140e+002
      endloop
   endfacet
   facet normal 4.694700e-001 0.000000e+000 -8.829485e-001
      outer loop
         vertex 3.050000e+002 1.000000e+001 -5.282755e+002
         vertex 2.769342e+002 0.000000e+000 -5.435140e+002
         vertex 2.769342e+002 1.000000e+001 -5.435140e+002
      endloop
   endfacet
   facet normal 4.383727e-001 0.000000e+000 -8.987933e-001
      outer loop
         vertex 2.769342e+002 1.000000e+001 -5.435140e+002
         vertex 2.769342e+002 0.000000e+000 -5.435140e+002
         vertex 2.481094e+002 0.000000e+000 -5.572627e+002
      endloop
   endfacet
   facet normal 4.226167e-001 0.000000e+000 -9.063085e-001
      outer loop
         vertex 2.769342e+002 1.000000e+001 -5.435140e+002
         vertex 2.481094e+002 0.000000e+000 -5.572627e+002
         vertex 2.481094e+002 1.000000e+001 -5.572627e+002
      endloop
   endfacet
   facet normal 3.907328e-001 0.000000e+000 -9.205042e-001
      outer loop
         vertex 2.481094e+002 1.000000e+001 -5.572627e+002
         vertex 2.481094e+002 0.000000e+000 -5.572627e+002
         vertex 2.186044e+002 0.000000e+000 -5.694841e+002
      endloop
   endfacet
   facet normal 3.746050e-001 0.000000e+000 -9.271845e-001
      outer loop
         vertex 2.481094e+002 1.000000e+001 -5.572627e+002
         vertex 2.186044e+002 0.000000e+000 -5.694841e+002
         vertex 2.186044e+002 1.000000e+001 -5.694841e+002
      endloop
   endfacet
   facet normal 3.420218e-001 0.000000e+000 -9.396920e-001
      outer loop
         vertex 2.186044e+002 1.000000e+001 -5.694841e+002
         vertex 2.186044e+002 0.000000e+000 -5.694841e+002
         vertex 1.885004e+002 0.000000e+000 -5.801445e+002
      endloop
   endfacet
   facet normal 3.255665e-001 0.000000e+000 -9.455192e-001
      outer loop
         vertex 2.186044e+002 1.000000e+001 -5.694841e+002
         vertex 1.885004e+002 0.000000e+000 -5.801445e+002
         vertex 1.885004e+002 1.000000e+001 -5.801445e+002
      endloop
   endfacet
   facet normal 2.923734e-001 0.000000e+000 -9.563043e-001
      outer loop
         vertex 1.885004e+002 1.000000e+001 -5.801445e+002
         vertex 1.885004e+002 0.000000e+000 -5.801445e+002
         vertex 1.578796e+002 0.000000e+000 -5.892147e+002
      endloop
   endfacet
   facet normal 2.756356e-001 0.000000e+000 -9.612622e-001
      outer loop
         vertex 1.885004e+002 1.000000e+001 -5.801445e+002
         vertex 1.578796e+002 0.000000e+000 -5.892147e+002
         vertex 1.578796e+002 1.000000e+001 -5.892147e+002
      endloop
   endfacet
   facet normal 2.419236e-001 0.000000e+000 -9.702953e-001
      outer loop
         vertex 1.578796e+002 1.000000e+001 -5.892147e+002
         vertex 1.578796e+002 0.000000e+000 -5.892147e+002
         vertex 1.268261e+002 0.000000e+000 -5.966700e+002
      endloop
   endfacet
   facet normal 2.249493e-001 0.000000e+000 -9.743705e-001
      outer loop
         vertex 1.578796e+002 1.000000e+001 -5.892147e+002
         vertex 1.268261e+002 0.000000e+000 -5.966700e+002
         vertex 1.268261e+002 1.000000e+001 -5.966700e+002
      endloop
   endfacet
   facet normal 1.908107e-001 0.000000e+000 -9.816269e-001
      outer loop
         vertex 1.268261e+002 1.000000e+001 -5.966700e+002
         vertex 1.268261e+002 0.000000e+000 -5.966700e+002
         vertex 9.542503e+001 0.000000e+000 -6.024899e+002
      endloop
   endfacet
   facet normal 1.736464e-001 0.000000e+000 -9.848080e-001
      outer loop
         vertex 1.268261e+002 1.000000e+001 -5.966700e+002
         vertex 9.542503e+001 0.000000e+000 -6.024899e+002
         vertex 9.542503e+001 1.000000e+001 -6.024899e+002
      endloop
   endfacet
   facet normal 1.391748e-001 0.000000e+000 -9.902678e-001
      outer loop
         vertex 9.542503e+001 1.000000e+001 -6.024899e+002
         vertex 9.542503e+001 0.000000e+000 -6.024899e+002
         vertex 6.376236e+001 0.000000e+000 -6.066583e+002
      endloop
   endfacet
   facet normal 1.218676e-001 0.000000e+000 -9.925464e-001
      outer loop
         vertex 9.542503e+001 1.000000e+001 -6.024899e+002
         vertex 6.376236e+001 0.000000e+000 -6.066583e+002
         vertex 6.376236e+001 1.000000e+001 -6.066583e+002
      endloop
   endfacet
   facet normal 8.715752e-002 0.000000e+000 -9.961946e-001
      outer loop
         vertex 6.376236e+001 1.000000e+001 -6.066583e+002
         vertex 6.376236e+001 0.000000e+000 -6.066583e+002
         vertex 3.192493e+001 0.000000e+000 -6.091640e+002
      endloop
   endfacet
   facet normal 6.975471e-002 0.000000e+000 -9.975642e-001
      outer loop
         vertex 6.376236e+001 1.000000e+001 -6.066583e+002
         vertex 3.192493e+001 0.000000e+000 -6.091640e+002
         vertex 3.192493e+001 1.000000e+001 -6.091640e+002
      endloop
   endfacet
   facet normal 3.490127e-002 0.000000e+000 -9.993908e-001
      outer loop
         vertex 3.192493e+001 1.000000e+001 -6.091640e+002
         vertex 3.192493e+001 0.000000e+000 -6.091640e+002
         vertex 0.000000e+000 0.000000e+000 -6.100000e+002
      endloop
   endfacet
   facet normal 1.745063e-002 0.000000e+000 -9.998477e-001
      outer loop
         vertex 3.192493e+001 1.000000e+001 -6.091640e+002
         vertex 0.000000e+000 0.000000e+000 -6.100000e+002
         vertex 0.000000e+000 1.000000e+001 -6.100000e+002
      endloop
   endfacet
   facet normal -1.000000e+000 0.000000e+000 0.000000e+000
      outer loop
         vertex 0.000000e+000 1.000000e+001 -5.900000e+002
         vertex 0.000000e+000 1.000000e+001 -6.100000e+002
         vertex 0.000000e+000 0.000000e+000 -5.900000e+002
      endloop
   endfacet
   facet normal -1.000000e+000 0.000000e+000 0.000000e+000
      outer loop
         vertex 0.000000e+000 0.000000e+000 -5.900000e+002
         vertex 0.000000e+000 1.000000e+001 -6.100000e+002
         vertex 0.000000e+000 0.000000e+000 -6.100000e+002
      endloop
   endfacet
   facet normal -1.745063e-002 0.000000e+000 9.998477e-001
      outer loop
         vertex 0.000000e+000 1.000000e+001 -5.900000e+002
         vertex 0.000000e+000 0.000000e+000 -5.900000e+002
         vertex 3.087821e+001 1.000000e+001 -5.891914e+002
      endloop
   endfacet
   facet normal -3.490127e-002 0.000000e+000 9.993908e-001
      outer loop
         vertex 3.087821e+001 1.000000e+001 -5.891914e+002
         vertex 0.000000e+000 0.000000e+000 -5.900000e+002
         vertex 3.087821e+001 0.000000e+000 -5.891914e+002
      endloop
   endfacet
   facet normal -6.975471e-002 0.000000e+000 9.975642e-001
      outer loop
         vertex 3.087821e+001 1.000000e+001 -5.891914e+002
         vertex 3.087821e+001 0.000000e+000 -5.891914e+002
         vertex 6.167179e+001 1.000000e+001 -5.867679e+002
      endloop
   endfacet
   facet normal -8.715752e-002 0.000000e+000 9.961946e-001
      outer loop
         vertex 6.167179e+001 1.000000e+001 -5.867679e+002
         vertex 3.087821e+001 0.000000e+000 -5.891914e+002
         vertex 6.167179e+001 0.000000e+000 -5.867679e+002
      endloop
   endfacet
   facet normal -1.218676e-001 0.000000e+000 9.925464e-001
      outer loop
         vertex 6.167179e+001 1.000000e+001 -5.867679e+002
         vertex 6.167179e+001 0.000000e+000 -5.867679e+002
         vertex 9.229633e+001 1.000000e+001 -5.827361e+002
      endloop
   endfacet
   facet normal -1.391748e-001 0.000000e+000 9.902678e-001
      outer loop
         vertex 9.229633e+001 1.000000e+001 -5.827361e+002
         vertex 6.167179e+001 0.000000e+000 -5.867679e+002
         vertex 9.229633e+001 0.000000e+000 -5.827361e+002
      endloop
   endfacet
   facet normal -1.736464e-001 0.000000e+000 9.848080e-001
      outer loop
         vertex 9.229633e+001 1.000000e+001 -5.827361e+002
         vertex 9.229633e+001 0.000000e+000 -5.827361e+002
         vertex 1.226679e+002 1.000000e+001 -5.771071e+002
      endloop
   endfacet
   facet normal -1.908107e-001 0.000000e+000 9.816269e-001
      outer loop
         vertex 1.226679e+002 1.000000e+001 -5.771071e+002
         vertex 9.229633e+001 0.000000e+000 -5.827361e+002
         vertex 1.226679e+002 0.000000e+000 -5.771071e+002
      endloop
   endfacet
   facet normal -2.249493e-001 0.000000e+000 9.743705e-001
      outer loop
         vertex 1.226679e+002 1.000000e+001 -5.771071e+002
         vertex 1.226679e+002 0.000000e+000 -5.771071e+002
         vertex 1.527032e+002 1.000000e+001 -5.698962e+002
      endloop
   endfacet
   facet normal -2.419236e-001 0.000000e+000 9.702953e-001
      outer loop
         vertex 1.527032e+002 1.000000e+001 -5.698962e+002
         vertex 1.226679e+002 0.000000e+000 -5.771071e+002
         vertex 1.527032e+002 0.000000e+000 -5.698962e+002
      endloop
   endfacet
   facet normal -2.756357e-001 0.000000e+000 9.612622e-001
      outer loop
         vertex 1.527032e+002 1.000000e+001 -5.698962e+002
         vertex 1.527032e+002 0.000000e+000 -5.698962e+002
         vertex 1.823200e+002 1.000000e+001 -5.611234e+002
      endloop
   endfacet
   facet normal -2.923734e-001 0.000000e+000 9.563043e-001
      outer loop
         vertex 1.823200e+002 1.000000e+001 -5.611234e+002
         vertex 1.527032e+002 0.000000e+000 -5.698962e+002
         vertex 1.823200e+002 0.000000e+000 -5.611234e+002
      endloop
   endfacet
   facet normal -3.255665e-001 0.000000e+000 9.455192e-001
      outer loop
         vertex 1.823200e+002 1.000000e+001 -5.611234e+002
         vertex 1.823200e+002 0.000000e+000 -5.611234e+002
         vertex 2.114371e+002 1.000000e+001 -5.508124e+002
      endloop
   endfacet
   facet normal -3.420218e-001 0.000000e+000 9.396920e-001
      outer loop
         vertex 2.114371e+002 1.000000e+001 -5.508124e+002
         vertex 1.823200e+002 0.000000e+000 -5.611234e+002
         vertex 2.114371e+002 0.000000e+000 -5.508124e+002
      endloop
   endfacet
   facet normal -3.746050e-001 0.000000e+000 9.271845e-001
      outer loop
         vertex 2.114371e+002 1.000000e+001 -5.508124e+002
         vertex 2.114371e+002 0.000000e+000 -5.508124e+002
         vertex 2.399746e+002 1.000000e+001 -5.389918e+002
      endloop
   endfacet
   facet normal -3.907328e-001 0.000000e+000 9.205042e-001
      outer loop
         vertex 2.399746e+002 1.000000e+001 -5.389918e+002
         vertex 2.114371e+002 0.000000e+000 -5.508124e+002
         vertex 2.399746e+002 0.000000e+000 -5.389918e+002
      endloop
   endfacet
   facet normal -4.226167e-001 0.000000e+000 9.063085e-001
      outer loop
         vertex 2.399746e+002 1.000000e+001 -5.389918e+002
         vertex 2.399746e+002 0.000000e+000 -5.389918e+002
         vertex 2.678544e+002 1.000000e+001 -5.256938e+002
      endloop
   endfacet
   facet normal -4.383727e-001 0.000000e+000 8.987933e-001
      outer loop
         vertex 2.678544e+002 1.000000e+001 -5.256938e+002
         vertex 2.399746e+002 0.000000e+000 -5.389918e+002
         vertex 2.678544e+002 0.000000e+000 -5.256938e+002
      endloop
   endfacet
   facet normal -4.694700e-001 0.000000e+000 8.829485e-001
      outer loop
         vertex 2.678544e+002 1.000000e+001 -5.256938e+002
         vertex 2.678544e+002 0.000000e+000 -5.256938e+002
         vertex 2.950000e+002 1.000000e+001 -5.109550e+002
      endloop
   endfacet
   facet normal -4.848112e-001 0.000000e+000 8.746188e-001
      outer loop
         vertex 2.950000e+002 1.000000e+001 -5.109550e+002
         vertex 2.678544e+002 0.000000e+000 -5.256938e+002
         vertex 2.950000e+002 0.000000e+000 -5.109550e+002
      endloop
   endfacet
   facet normal -5.150366e-001 0.000000e+000 8.571682e-001
      outer loop
         vertex 2.950000e+002 1.000000e+001 -5.109550e+002
         vertex 2.950000e+002 0.000000e+000 -5.109550e+002
         vertex 3.213370e+002 1.000000e+001 -4.948156e+002
      endloop
   endfacet
   facet normal -5.299208e-001 0.000000e+000 8.480471e-001
      outer loop
         vertex 3.213370e+002 1.000000e+001 -4.948156e+002
         vertex 2.950000e+002 0.000000e+000 -5.109550e+002
         vertex 3.213370e+002 0.000000e+000 -4.948156e+002
      endloop
   endfacet
   facet normal -5.591914e-001 0.000000e+000 8.290386e-001
      outer loop
         vertex 3.213370e+002 1.000000e+001 -4.948156e+002
         vertex 3.213370e+002 0.000000e+000 -4.948156e+002
         vertex 3.467933e+002 1.000000e+001 -4.773200e+002
      endloop
   endfacet
   facet normal -5.735779e-001 0.000000e+000 8.191510e-001
      outer loop
         vertex 3.467933e+002 1.000000e+001 -4.773200e+002
         vertex 3.213370e+002 0.000000e+000 -4.948156e+002
         vertex 3.467933e+002 0.000000e+000 -4.773200e+002
      endloop
   endfacet
   facet normal -6.018136e-001 0.000000e+000 7.986366e-001
      outer loop
         vertex 3.467933e+002 1.000000e+001 -4.773200e+002
         vertex 3.467933e+002 0.000000e+000 -4.773200e+002
         vertex 3.712990e+002 1.000000e+001 -4.585161e+002
      endloop
   endfacet
   facet normal -6.156629e-001 0.000000e+000 7.880096e-001
      outer loop
         vertex 3.712990e+002 1.000000e+001 -4.585161e+002
         vertex 3.467933e+002 0.000000e+000 -4.773200e+002
         vertex 3.712990e+002 0.000000e+000 -4.585161e+002
      endloop
   endfacet
   facet normal -6.427863e-001 0.000000e+000 7.660456e-001
      outer loop
         vertex 3.712990e+002 1.000000e+001 -4.585161e+002
         vertex 3.712990e+002 0.000000e+000 -4.585161e+002
         vertex 3.947870e+002 1.000000e+001 -4.384554e+002
      endloop
   endfacet
   facet normal -6.560603e-001 0.000000e+000 7.547084e-001
      outer loop
         vertex 3.947870e+002 1.000000e+001 -4.384554e+002
         vertex 3.712990e+002 0.000000e+000 -4.585161e+002
         vertex 3.947870e+002 0.000000e+000 -4.384554e+002
      endloop
   endfacet
   facet normal -6.819971e-001 0.000000e+000 7.313549e-001
      outer loop
         vertex 3.947870e+002 1.000000e+001 -4.384554e+002
         vertex 3.947870e+002 0.000000e+000 -4.384554e+002
         vertex 4.171930e+002 1.000000e+001 -4.171930e+002
      endloop
   endfacet
   facet normal -6.946597e-001 0.000000e+000 7.193386e-001
      outer loop
         vertex 4.171930e+002 1.000000e+001 -4.171930e+002
         vertex 3.947870e+002 0.000000e+000 -4.384554e+002
         vertex 4.171930e+002 0.000000e+000 -4.171930e+002
      endloop
   endfacet
   facet normal 7.071068e-001 0.000000e+000 7.071068e-001
      outer loop
         vertex 4.313351e+002 1.000000e+001 -4.313351e+002
         vertex 4.171930e+002 1.000000e+001 -4.171930e+002
         vertex 4.313351e+002 0.000000e+000 -4.313351e+002
      endloop
   endfacet
   facet normal 7.071068e-001 0.000000e+000 7.071068e-001
      outer loop
         vertex 4.313351e+002 0.000000e+000 -4.313351e+002
         vertex 4.171930e+002 1.000000e+001 -4.171930e+002
         vertex 4.171930e+002 0.000000e+000 -4.171930e+002
      endloop
   endfacet
   facet normal 0.000000e+000 1.000000e+000 0.000000e+000
      outer loop
         vertex 4.171930e+002 1.000000e+001 -4.171930e+002
         vertex 4.313351e+002 1.000000e+001 -4.313351e+002
         vertex 3.947870e+002 1.000000e+001 -4.384554e+002
      endloop
   endfacet
   facet normal 0.000000e+000 1.000000e+000 0.000000e+000
      outer loop
         vertex 3.947870e+002 1.000000e+001 -4.384554e+002
         vertex 4.313351e+002 1.000000e+001 -4.313351e+002
         vertex 4.081696e+002 1.000000e+001 -4.533184e+002
      endloop
   endfacet
   facet normal 0.000000e+000 1.000000e+000 0.000000e+000
      outer loop
         vertex 3.947870e+002 1.000000e+001 -4.384554e+002
         vertex 4.081696e+002 1.000000e+001 -4.533184e+002
         vertex 3.712990e+002 1.000000e+001 -4.585161e+002
      endloop
   endfacet
   facet normal 0.000000e+000 1.000000e+000 0.000000e+000
      outer loop
         vertex 3.712990e+002 1.000000e+001 -4.585161e+002
         vertex 4.081696e+002 1.000000e+001 -4.533184e+002
         vertex 3.838854e+002 1.000000e+001 -4.740591e+002
      endloop
   endfacet
   facet normal 0.000000e+000 1.000000e+000 0.000000e+000
      outer loop
         vertex 3.712990e+002 1.000000e+001 -4.585161e+002
         vertex 3.838854e+002 1.000000e+001 -4.740591e+002
         vertex 3.467933e+002 1.000000e+001 -4.773200e+002
      endloop
   endfacet
   facet normal 0.000000e+000 1.000000e+000 0.000000e+000
      outer loop
         vertex 3.467933e+002 1.000000e+001 -4.773200e+002
         vertex 3.838854e+002 1.000000e+001 -4.740591e+002
         vertex 3.585490e+002 1.000000e+001 -4.935004e+002
      endloop
   endfacet
   facet normal 0.000000e+000 1.000000e+000 0.000000e+000
      outer loop
         vertex 3.467933e+002 1.000000e+001 -4.773200e+002
         vertex 3.585490e+002 1.000000e+001 -4.935004e+002
         vertex 3.213370e+002 1.000000e+001 -4.948156e+002
      endloop
   endfacet
   facet normal 0.000000e+000 1.000000e+000 0.000000e+000
      outer loop
         vertex 3.213370e+002 1.000000e+001 -4.948156e+002
         vertex 3.585490e+002 1.000000e+001 -4.935004e+002
         vertex 3.322298e+002 1.000000e+001 -5.115891e+002
      endloop
   endfacet
   facet normal 0.000000e+000 1.000000e+000 0.000000e+000
      outer loop
         vertex 3.213370e+002 1.000000e+001 -4.948156e+002
         vertex 3.322298e+002 1.000000e+001 -5.115891e+002
         vertex 2.950000e+002 1.000000e+001 -5.109550e+002
      endloop
   endfacet
   facet normal 0.000000e+000 1.000000e+000 0.000000e+000
      outer loop
         vertex 2.950000e+002 1.000000e+001 -5.109550e+002
         vertex 3.322298e+002 1.000000e+001 -5.115891e+002
         vertex 3.050000e+002 1.000000e+001 -5.282755e+002
      endloop
   endfacet
   facet normal 0.000000e+000 1.000000e+000 0.000000e+000
      outer loop
         vertex 2.950000e+002 1.000000e+001 -5.109550e+002
         vertex 3.050000e+002 1.000000e+001 -5.282755e+002
         vertex 2.678544e+002 1.000000e+001 -5.256938e+002
      endloop
   endfacet
   facet normal 0.000000e+000 1.000000e+000 0.000000e+000
      outer loop
         vertex 2.678544e+002 1.000000e+001 -5.256938e+002
         vertex 3.050000e+002 1.000000e+001 -5.282755e+002
         vertex 2.769342e+002 1.000000e+001 -5.435140e+002
      endloop
   endfacet
   facet normal 0.000000e+000 1.000000e+000 0.000000e+000
      outer loop
         vertex 2.678544e+002 1.000000e+001 -5.256938e+002
         vertex 2.769342e+002 1.000000e+001 -5.435140e+002
         vertex 2.399746e+002 1.000000e+001 -5.389918e+002
      endloop
   endfacet
   facet normal 0.000000e+000 1.000000e+000 0.000000e+000
      outer loop
         vertex 2.399746e+002 1.000000e+001 -5.389918e+002
         vertex 2.769342e+002 1.000000e+001 -5.435140e+002
         vertex 2.481094e+002 1.000000e+001 -5.572627e+002
      endloop
   endfacet
   facet normal 0.000000e+000 1.000000e+000 0.000000e+000
      outer loop
         vertex 2.399746e+002 1.000000e+001 -5.389918e+002
         vertex 2.481094e+002 1.000000e+001 -5.572627e+002
         vertex 2.114371e+002 1.000000e+001 -5.508124e+002
      endloop
   endfacet
   facet normal 0.000000e+000 1.000000e+000 0.000000e+000
      outer loop
         vertex 2.114371e+002 1.000000e+001 -5.508124e+002
         vertex 2.481094e+002 1.000000e+001 -5.572627e+002
         vertex 2.186044e+002 1.000000e+001 -5.694841e+002
      endloop
   endfacet
   facet normal 0.000000e+000 1.000000e+000 0.000000e+000
      outer loop
         vertex 2.114371e+002 1.000000e+001 -5.508124e+002
         vertex 2.186044e+002 1.000000e+001 -5.694841e+002
         vertex 1.823200e+002 1.000000e+001 -5.611234e+002
      endloop
   endfacet
   facet normal 0.000000e+000 1.000000e+000 0.000000e+000
      outer loop
         vertex 1.823200e+002 1.000000e+001 -5.611234e+002
         vertex 2.186044e+002 1.000000e+001 -5.694841e+002
         vertex 1.885004e+002 1.000000e+001 -5.801445e+002
      endloop
   endfacet
   facet normal 0.000000e+000 1.000000e+000 0.000000e+000
      outer loop
         vertex 1.823200e+002 1.000000e+001 -5.611234e+002
         vertex 1.885004e+002 1.000000e+001 -5.801445e+002
         vertex 1.527032e+002 1.000000e+001 -5.698962e+002
      endloop
   endfacet
   facet normal 0.000000e+000 1.000000e+000 0.000000e+000
      outer loop
         vertex 1.527032e+002 1.000000e+001 -5.698962e+002
         vertex 1.885004e+002 1.000000e+001 -5.801445e+002
         vertex 1.578796e+002 1.000000e+001 -5.892147e+002
      endloop
   endfacet
   facet normal 0.000000e+000 1.000000e+000 0.000000e+000
      outer loop
         vertex 1.527032e+002 1.000000e+001 -5.698962e+002
         vertex 1.578796e+002 1.000000e+001 -5.892147e+002
         vertex 1.226679e+002 1.000000e+001 -5.771071e+002
      endloop
   endfacet
   facet normal 0.000000e+000 1.000000e+000 0.000000e+000
      outer loop
         vertex 1.226679e+002 1.000000e+001 -5.771071e+002
         vertex 1.578796e+002 1.000000e+001 -5.892147e+002
         vertex 1.268261e+002 1.000000e+001 -5.966700e+002
      endloop
   endfacet
   facet normal 0.000000e+000 1.000000e+000 0.000000e+000
      outer loop
         vertex 1.226679e+002 1.000000e+001 -5.771071e+002
         vertex 1.268261e+002 1.000000e+001 -5.966700e+002
         vertex 9.229633e+001 1.000000e+001 -5.827361e+002
      endloop
   endfacet
   facet normal 0.000000e+000 1.000000e+000 0.000000e+000
      outer loop
         vertex 9.229633e+001 1.000000e+001 -5.827361e+002
         vertex 1.268261e+002 1.000000e+001 -5.966700e+002
         vertex 9.542503e+001 1.000000e+001 -6.024899e+002
      endloop
   endfacet
   facet normal 0.000000e+000 1.000000e+000 0.000000e+000
      outer loop
         vertex 9.229633e+001 1.000000e+001 -5.827361e+002
         vertex 9.542503e+001 1.000000e+001 -6.024899e+002
         vertex 6.167179e+001 1.000000e+001 -5.867679e+002
      endloop
   endfacet
   facet normal 0.000000e+000 1.000000e+000 0.000000e+000
      outer loop
         vertex 6.167179e+001 1.000000e+001 -5.867679e+002
         vertex 9.542503e+001 1.000000e+001 -6.024899e+002
         vertex 6.376236e+001 1.000000e+001 -6.066583e+002
      endloop
   endfacet
   facet normal 0.000000e+000 1.000000e+000 0.000000e+000
      outer loop
         vertex 6.167179e+001 1.000000e+001 -5.867679e+002
         vertex 6.376236e+001 1.000000e+001 -6.066583e+002
         vertex 3.087821e+001 1.000000e+001 -5.891914e+002
      endloop
   endfacet
   facet normal 0.000000e+000 1.000000e+000 0.000000e+000
      outer loop
         vertex 3.087821e+001 1.000000e+001 -5.891914e+002
         vertex 6.376236e+001 1.000000e+001 -6.066583e+002
         vertex 3.192493e+001 1.000000e+001 -6.091640e+002
      endloop
   endfacet
   facet normal 0.000000e+000 1.000000e+000 0.000000e+000
      outer loop
         vertex 3.087821e+001 1.000000e+001 -5.891914e+002
         vertex 3.192493e+001 1.000000e+001 -6.091640e+002
         vertex 0.000000e+000 1.000000e+001 -5.900000e+002
      endloop
   endfacet
   facet normal 0.000000e+000 1.000000e+000 0.000000e+000
      outer loop
         vertex 0.000000e+000 1.000000e+001 -5.900000e+002
         vertex 3.192493e+001 1.000000e+001 -6.091640e+002
         vertex 0.000000e+000 1.000000e+001 -6.100000e+002
      endloop
   endfacet
   facet normal 0.000000e+000 -1.000000e+000 0.000000e+000
      outer loop
         vertex 0.000000e+000 0.000000e+000 -5.900000e+002
         vertex 0.000000e+000 0.000000e+000 -6.100000e+002
         vertex 3.087821e+001 0.000000e+000 -5.891914e+002
      endloop
   endfacet
   facet normal 0.000000e+000 -1.000000e+000 0.000000e+000
      outer loop
         vertex 3.087821e+001 0.000000e+000 -5.891914e+002
         vertex 0.000000e+000 0.000000e+000 -6.100000e+002
         vertex 3.192493e+001 0.000000e+000 -6.091640e+002
      endloop
   endfacet
   facet normal 0.000000e+000 -1.000000e+000 0.000000e+000
      outer loop
         vertex 3.087821e+001 0.000000e+000 -5.891914e+002
         vertex 3.192493e+001 0.000000e+000 -6.091640e+002
         vertex 6.167179e+001 0.000000e+000 -5.867679e+002
      endloop
   endfacet
   facet normal 0.000000e+000 -1.000000e+000 0.000000e+000
      outer loop
         vertex 6.167179e+001 0.000000e+000 -5.867679e+002
         vertex 3.192493e+001 0.000000e+000 -6.091640e+002
         vertex 6.376236e+001 0.000000e+000 -6.066583e+002
      endloop
   endfacet
   facet normal 0.000000e+000 -1.000000e+000 0.000000e+000
      outer loop
         vertex 6.167179e+001 0.000000e+000 -5.867679e+002
         vertex 6.376236e+001 0.000000e+000 -6.066583e+002
         vertex 9.229633e+001 0.000000e+000 -5.827361e+002
      endloop
   endfacet
   facet normal 0.000000e+000 -1.000000e+000 0.000000e+000
      outer loop
         vertex 9.229633e+001 0.000000e+000 -5.827361e+002
         vertex 6.376236e+001 0.000000e+000 -6.066583e+002
         vertex 9.542503e+001 0.000000e+000 -6.024899e+002
      endloop
   endfacet
   facet normal 0.000000e+000 -1.000000e+000 0.000000e+000
      outer loop
         vertex 9.229633e+001 0.000000e+000 -5.827361e+002
         vertex 9.542503e+001 0.000000e+000 -6.024899e+002
         vertex 1.226679e+002 0.000000e+000 -5.771071e+002
      endloop
   endfacet
   facet normal 0.000000e+000 -1.000000e+000 0.000000e+000
      outer loop
         vertex 1.226679e+002 0.000000e+000 -5.771071e+002
         vertex 9.542503e+001 0.000000e+000 -6.024899e+002
         vertex 1.268261e+002 0.000000e+000 -5.966700e+002
      endloop
   endfacet
   facet normal 0.000000e+000 -1.000000e+000 0.000000e+000
      outer loop
         vertex 1.226679e+002 0.000000e+000 -5.771071e+002
         vertex 1.268261e+002 0.000000e+000 -5.966700e+002
         vertex 1.527032e+002 0.000000e+000 -5.698962e+002
      endloop
   endfacet
   facet normal 0.000000e+000 -1.000000e+000 0.000000e+000
      outer loop
         vertex 1.527032e+002 0.000000e+000 -5.698962e+002
         vertex 1.268261e+002 0.000000e+000 -5.966700e+002
         vertex 1.578796e+002 0.000000e+000 -5.892147e+002
      endloop
   endfacet
   facet normal 0.000000e+000 -1.000000e+000 0.000000e+000
      outer loop
         vertex 1.527032e+002 0.000000e+000 -5.698962e+002
         vertex 1.578796e+002 0.000000e+000 -5.892147e+002
         vertex 1.823200e+002 0.000000e+000 -5.611234e+002
      endloop
   endfacet
   facet normal 0.000000e+000 -1.000000e+000 0.000000e+000
      outer loop
         vertex 1.823200e+002 0.000000e+000 -5.611234e+002
         vertex 1.578796e+002 0.000000e+000 -5.892147e+002
         vertex 1.885004e+002 0.000000e+000 -5.801445e+002
      endloop
   endfacet
   facet normal 0.000000e+000 -1.000000e+000 0.000000e+000
      outer loop
         vertex 1.823200e+002 0.000000e+000 -5.611234e+002
         vertex 1.885004e+002 0.000000e+000 -5.801445e+002
         vertex 2.114371e+002 0.000000e+000 -5.508124e+002
      endloop
   endfacet
   facet normal 0.000000e+000 -1.000000e+000 0.000000e+000
      outer loop
         vertex 2.114371e+002 0.000000e+000 -5.508124e+002
         vertex 1.885004e+002 0.000000e+000 -5.801445e+002
         vertex 2.186044e+002 0.000000e+000 -5.694841e+002
      endloop
   endfacet
   facet normal 0.000000e+000 -1.000000e+000 0.000000e+000
      outer loop
         vertex 2.114371e+002 0.000000e+000 -5.508124e+002
         vertex 2.186044e+002 0.000000e+000 -5.694841e+002
         vertex 2.399746e+002 0.000000e+000 -5.389918e+002
      endloop
   endfacet
   facet normal 0.000000e+000 -1.000000e+000 0.000000e+000
      outer loop
         vertex 2.399746e+002 0.000000e+000 -5.389918e+002
         vertex 2.186044e+002 0.000000e+000 -5.694841e+002
         vertex 2.481094e+002 0.000000e+000 -5.572627e+002
      endloop
   endfacet
   facet normal 0.000000e+000 -1.000000e+000 0.000000e+000
      outer loop
         vertex 2.399746e+002 0.000000e+000 -5.389918e+002
         vertex 2.481094e+002 0.000000e+000 -5.572627e+002
         vertex 2.678544e+002 0.000000e+000 -5.256938e+002
      endloop
   endfacet
   facet normal 0.000000e+000 -1.000000e+000 0.000000e+000
      outer loop
         vertex 2.678544e+002 0.000000e+000 -5.256938e+002
         vertex 2.481094e+002 0.000000e+000 -5.572627e+002
         vertex 2.769342e+002 0.000000e+000 -5.435140e+002
      endloop
   endfacet
   facet normal 0.000000e+000 -1.000000e+000 0.000000e+000
      outer loop
         vertex 2.678544e+002 0.000000e+000 -5.256938e+002
         vertex 2.769342e+002 0.000000e+000 -5.435140e+002
         vertex 2.950000e+002 0.000000e+000 -5.109550e+002
      endloop
   endfacet
   facet normal 0.000000e+000 -1.000000e+000 0.000000e+000
      outer loop
         vertex 2.950000e+002 0.000000e+000 -5.109550e+002
         vertex 2.769342e+002 0.000000e+000 -5.435140e+002
         vertex 3.050000e+002 0.000000e+000 -5.282755e+002
      endloop
   endfacet
   facet normal 0.000000e+000 -1.000000e+000 0.000000e+000
      outer loop
         vertex 2.950000e+002 0.000000e+000 -5.109550e+002
         vertex 3.050000e+002 0.000000e+000 -5.282755e+002
         vertex 3.213370e+002 0.000000e+000 -4.948156e+002
      endloop
   endfacet
   facet normal 0.000000e+000 -1.000000e+000 0.000000e+000
      outer loop
         vertex 3.213370e+002 0.000000e+000 -4.948156e+002
         vertex 3.050000e+002 0.000000e+000 -5.282755e+002
         vertex 3.322298e+002 0.000000e+000 -5.115891e+002
      endloop
   endfacet
   facet normal 0.000000e+000 -1.000000e+000 0.000000e+000
      outer loop
         vertex 3.213370e+002 0.000000e+000 -4.948156e+002
         vertex 3.322298e+002 0.000000e+000 -5.115891e+002
         vertex 3.467933e+002 0.000000e+000 -4.773200e+002
      endloop
   endfacet
   facet normal 0.000000e+000 -1.000000e+000 0.000000e+000
      outer loop
         vertex 3.467933e+002 0.000000e+000 -4.773200e+002
         vertex 3.322298e+002 0.000000e+000 -5.115891e+002
         vertex 3.585490e+002 0.000000e+000 -4.935004e+002
      endloop
   endfacet
   facet normal 0.000000e+000 -1.000000e+000 0.000000e+000
      outer loop
         vertex 3.467933e+002 0.000000e+000 -4.773200e+002
         vertex 3.585490e+002 0.000000e+000 -4.935004e+002
         vertex 3.712990e+002 0.000000e+000 -4.585161e+002
      endloop
   endfacet
   facet normal 0.000000e+000 -1.000000e+000 0.000000e+000
      outer loop
         vertex 3.712990e+002 0.000000e+000 -4.585161e+002
         vertex 3.585490e+002 0.000000e+000 -4.935004e+002
         vertex 3.838854e+002 0.000000e+000 -4.740591e+002
      endloop
   endfacet
   facet normal 0.000000e+000 -1.000000e+000 0.000000e+000
      outer loop
         vertex 3.712990e+002 0.000000e+000 -4.585161e+002
         vertex 3.838854e+002 0.000000e+000 -4.740591e+002
         vertex 3.947870e+002 0.000000e+000 -4.384554e+002
      endloop
   endfacet
   facet normal 0.000000e+000 -1.000000e+000 0.000000e+000
      outer loop
         vertex 3.947870e+002 0.000000e+000 -4.384554e+002
         vertex 3.838854e+002 0.000000e+000 -4.740591e+002
         vertex 4.081696e+002 0.000000e+000 -4.533184e+002
      endloop
   endfacet
   facet normal 0.000000e+000 -1.000000e+000 0.000000e+000
      outer loop
         vertex 3.947870e+002 0.000000e+000 -4.384554e+002
         vertex 4.081696e+002 0.000000e+000 -4.533184e+002
         vertex 4.171930e+002 0.000000e+000 -4.171930e+002
      endloop
   endfacet
   facet normal 0.000000e+000 -1.000000e+000 0.000000e+000
      outer loop
         vertex 4.171930e+002 0.000000e+000 -4.171930e+002
         vertex 4.081696e+002 0.000000e+000 -4.533184e+002
         vertex 4.313351e+002 0.000000e+000 -4.313351e+002
      endloop
   endfacet
endsolid