solid CentralWhiteRightAngle_Default_sldprt
   facet normal 1.000000e+000 0.000000e+000 -8.673617e-017
      outer loop
         vertex 8.000000e+001 1.000000e+001 -8.000000e+001
         vertex 8.000000e+001 1.000000e+001 8.000000e+001
         vertex 8.000000e+001 0.000000e+000 -8.000000e+001
      endloop
   endfacet
   facet normal 1.000000e+000 0.000000e+000 -8.673617e-017
      outer loop
         vertex 8.000000e+001 0.000000e+000 -8.000000e+001
         vertex 8.000000e+001 1.000000e+001 8.000000e+001
         vertex 8.000000e+001 0.000000e+000 8.000000e+001
      endloop
   endfacet
   facet normal 0.000000e+000 0.000000e+000 -1.000000e+000
      outer loop
         vertex 6.000000e+001 1.000000e+001 -8.000000e+001
         vertex 8.000000e+001 1.000000e+001 -8.000000e+001
         vertex 6.000000e+001 0.000000e+000 -8.000000e+001
      endloop
   endfacet
   facet normal 0.000000e+000 0.000000e+000 -1.000000e+000
      outer loop
         vertex 6.000000e+001 0.000000e+000 -8.000000e+001
         vertex 8.000000e+001 1.000000e+001 -8.000000e+001
         vertex 8.000000e+001 0.000000e+000 -8.000000e+001
      endloop
   endfacet
   facet normal -1.000000e+000 0.000000e+000 9.912705e-017
      outer loop
         vertex 6.000000e+001 1.000000e+001 6.000000e+001
         vertex 6.000000e+001 1.000000e+001 -8.000000e+001
         vertex 6.000000e+001 0.000000e+000 6.000000e+001
      endloop
   endfacet
   facet normal -1.000000e+000 0.000000e+000 9.912705e-017
      outer loop
         vertex 6.000000e+001 0.000000e+000 6.000000e+001
         vertex 6.000000e+001 1.000000e+001 -8.000000e+001
         vertex 6.000000e+001 0.000000e+000 -8.000000e+001
      endloop
   endfacet
   facet normal -9.912705e-017 0.000000e+000 -1.000000e+000
      outer loop
         vertex -8.000000e+001 1.000000e+001 6.000000e+001
         vertex 6.000000e+001 1.000000e+001 6.000000e+001
         vertex -8.000000e+001 0.000000e+000 6.000000e+001
      endloop
   endfacet
   facet normal -9.912705e-017 0.000000e+000 -1.000000e+000
      outer loop
         vertex -8.000000e+001 0.000000e+000 6.000000e+001
         vertex 6.000000e+001 1.000000e+001 6.000000e+001
         vertex 6.000000e+001 0.000000e+000 6.000000e+001
      endloop
   endfacet
   facet normal -1.000000e+000 0.000000e+000 6.938894e-016
      outer loop
         vertex -8.000000e+001 1.000000e+001 8.000000e+001
         vertex -8.000000e+001 1.000000e+001 6.000000e+001
         vertex -8.000000e+001 0.000000e+000 8.000000e+001
      endloop
   endfacet
   facet normal -1.000000e+000 0.000000e+000 6.938894e-016
      outer loop
         vertex -8.000000e+001 0.000000e+000 8.000000e+001
         vertex -8.000000e+001 1.000000e+001 6.000000e+001
         vertex -8.000000e+001 0.000000e+000 6.000000e+001
      endloop
   endfacet
   facet normal 0.000000e+000 0.000000e+000 1.000000e+000
      outer loop
         vertex 8.000000e+001 1.000000e+001 8.000000e+001
         vertex -8.000000e+001 1.000000e+001 8.000000e+001
         vertex 8.000000e+001 0.000000e+000 8.000000e+001
      endloop
   endfacet
   facet normal 0.000000e+000 0.000000e+000 1.000000e+000
      outer loop
         vertex 8.000000e+001 0.000000e+000 8.000000e+001
         vertex -8.000000e+001 1.000000e+001 8.000000e+001
         vertex -8.000000e+001 0.000000e+000 8.000000e+001
      endloop
   endfacet
   facet normal 0.000000e+000 1.000000e+000 0.000000e+000
      outer loop
         vertex -8.000000e+001 1.000000e+001 6.000000e+001
         vertex -8.000000e+001 1.000000e+001 8.000000e+001
         vertex 6.000000e+001 1.000000e+001 6.000000e+001
      endloop
   endfacet
   facet normal 0.000000e+000 1.000000e+000 0.000000e+000
      outer loop
         vertex 6.000000e+001 1.000000e+001 6.000000e+001
         vertex -8.000000e+001 1.000000e+001 8.000000e+001
         vertex 8.000000e+001 1.000000e+001 8.000000e+001
      endloop
   endfacet
   facet normal 0.000000e+000 1.000000e+000 0.000000e+000
      outer loop
         vertex 6.000000e+001 1.000000e+001 6.000000e+001
         vertex 8.000000e+001 1.000000e+001 8.000000e+001
         vertex 6.000000e+001 1.000000e+001 -8.000000e+001
      endloop
   endfacet
   facet normal 0.000000e+000 1.000000e+000 0.000000e+000
      outer loop
         vertex 6.000000e+001 1.000000e+001 -8.000000e+001
         vertex 8.000000e+001 1.000000e+001 8.000000e+001
         vertex 8.000000e+001 1.000000e+001 -8.000000e+001
      endloop
   endfacet
   facet normal 0.000000e+000 -1.000000e+000 0.000000e+000
      outer loop
         vertex 6.000000e+001 0.000000e+000 -8.000000e+001
         vertex 8.000000e+001 0.000000e+000 -8.000000e+001
         vertex 6.000000e+001 0.000000e+000 6.000000e+001
      endloop
   endfacet
   facet normal 0.000000e+000 -1.000000e+000 0.000000e+000
      outer loop
         vertex 6.000000e+001 0.000000e+000 6.000000e+001
         vertex 8.000000e+001 0.000000e+000 -8.000000e+001
         vertex 8.000000e+001 0.000000e+000 8.000000e+001
      endloop
   endfacet
   facet normal 0.000000e+000 -1.000000e+000 0.000000e+000
      outer loop
         vertex 6.000000e+001 0.000000e+000 6.000000e+001
         vertex 8.000000e+001 0.000000e+000 8.000000e+001
         vertex -8.000000e+001 0.000000e+000 6.000000e+001
      endloop
   endfacet
   facet normal 0.000000e+000 -1.000000e+000 0.000000e+000
      outer loop
         vertex -8.000000e+001 0.000000e+000 6.000000e+001
         vertex 8.000000e+001 0.000000e+000 8.000000e+001
         vertex -8.000000e+001 0.000000e+000 8.000000e+001
      endloop
   endfacet
endsolid