solid GreyLine430_Default_sldprt
   facet normal -1.000000e+000 0.000000e+000 0.000000e+000
      outer loop
         vertex -2.150000e+002 1.000000e+001 5.000000e+000
         vertex -2.150000e+002 1.000000e+001 -5.000000e+000
         vertex -2.150000e+002 0.000000e+000 5.000000e+000
      endloop
   endfacet
   facet normal -1.000000e+000 0.000000e+000 0.000000e+000
      outer loop
         vertex -2.150000e+002 0.000000e+000 5.000000e+000
         vertex -2.150000e+002 1.000000e+001 -5.000000e+000
         vertex -2.150000e+002 0.000000e+000 -5.000000e+000
      endloop
   endfacet
   facet normal 0.000000e+000 0.000000e+000 1.000000e+000
      outer loop
         vertex 2.150000e+002 1.000000e+001 5.000000e+000
         vertex -2.150000e+002 1.000000e+001 5.000000e+000
         vertex 2.150000e+002 0.000000e+000 5.000000e+000
      endloop
   endfacet
   facet normal 0.000000e+000 0.000000e+000 1.000000e+000
      outer loop
         vertex 2.150000e+002 0.000000e+000 5.000000e+000
         vertex -2.150000e+002 1.000000e+001 5.000000e+000
         vertex -2.150000e+002 0.000000e+000 5.000000e+000
      endloop
   endfacet
   facet normal 1.000000e+000 0.000000e+000 0.000000e+000
      outer loop
         vertex 2.150000e+002 1.000000e+001 -5.000000e+000
         vertex 2.150000e+002 1.000000e+001 5.000000e+000
         vertex 2.150000e+002 0.000000e+000 -5.000000e+000
      endloop
   endfacet
   facet normal 1.000000e+000 0.000000e+000 0.000000e+000
      outer loop
         vertex 2.150000e+002 0.000000e+000 -5.000000e+000
         vertex 2.150000e+002 1.000000e+001 5.000000e+000
         vertex 2.150000e+002 0.000000e+000 5.000000e+000
      endloop
   endfacet
   facet normal 0.000000e+000 0.000000e+000 -1.000000e+000
      outer loop
         vertex -2.150000e+002 1.000000e+001 -5.000000e+000
         vertex 2.150000e+002 1.000000e+001 -5.000000e+000
         vertex -2.150000e+002 0.000000e+000 -5.000000e+000
      endloop
   endfacet
   facet normal 0.000000e+000 0.000000e+000 -1.000000e+000
      outer loop
         vertex -2.150000e+002 0.000000e+000 -5.000000e+000
         vertex 2.150000e+002 1.000000e+001 -5.000000e+000
         vertex 2.150000e+002 0.000000e+000 -5.000000e+000
      endloop
   endfacet
   facet normal 0.000000e+000 1.000000e+000 0.000000e+000
      outer loop
         vertex 2.150000e+002 1.000000e+001 5.000000e+000
         vertex 2.150000e+002 1.000000e+001 -5.000000e+000
         vertex -2.150000e+002 1.000000e+001 5.000000e+000
      endloop
   endfacet
   facet normal 0.000000e+000 1.000000e+000 0.000000e+000
      outer loop
         vertex -2.150000e+002 1.000000e+001 5.000000e+000
         vertex 2.150000e+002 1.000000e+001 -5.000000e+000
         vertex -2.150000e+002 1.000000e+001 -5.000000e+000
      endloop
   endfacet
   facet normal 0.000000e+000 -1.000000e+000 0.000000e+000
      outer loop
         vertex 2.150000e+002 0.000000e+000 -5.000000e+000
         vertex 2.150000e+002 0.000000e+000 5.000000e+000
         vertex -2.150000e+002 0.000000e+000 -5.000000e+000
      endloop
   endfacet
   facet normal 0.000000e+000 -1.000000e+000 0.000000e+000
      outer loop
         vertex -2.150000e+002 0.000000e+000 -5.000000e+000
         vertex 2.150000e+002 0.000000e+000 5.000000e+000
         vertex -2.150000e+002 0.000000e+000 5.000000e+000
      endloop
   endfacet
endsolid