solid InfraredPhotodetector_Default_sldprt
   facet normal -1.000000e+000 0.000000e+000 1.084202e-016
      outer loop
         vertex -2.500000e+000 2.200000e+000 2.000000e+000
         vertex -2.500000e+000 2.200000e+000 -2.000000e+000
         vertex -2.500000e+000 0.000000e+000 2.000000e+000
      endloop
   endfacet
   facet normal -1.000000e+000 0.000000e+000 1.084202e-016
      outer loop
         vertex -2.500000e+000 0.000000e+000 2.000000e+000
         vertex -2.500000e+000 2.200000e+000 -2.000000e+000
         vertex -2.500000e+000 0.000000e+000 -2.000000e+000
      endloop
   endfacet
   facet normal 0.000000e+000 0.000000e+000 1.000000e+000
      outer loop
         vertex 2.500000e+000 2.200000e+000 2.000000e+000
         vertex -2.500000e+000 2.200000e+000 2.000000e+000
         vertex 2.500000e+000 0.000000e+000 2.000000e+000
      endloop
   endfacet
   facet normal 0.000000e+000 0.000000e+000 1.000000e+000
      outer loop
         vertex 2.500000e+000 0.000000e+000 2.000000e+000
         vertex -2.500000e+000 2.200000e+000 2.000000e+000
         vertex -2.500000e+000 0.000000e+000 2.000000e+000
      endloop
   endfacet
   facet normal 1.000000e+000 0.000000e+000 -2.168404e-016
      outer loop
         vertex 2.500000e+000 2.200000e+000 -2.000000e+000
         vertex 2.500000e+000 2.200000e+000 2.000000e+000
         vertex 2.500000e+000 0.000000e+000 -2.000000e+000
      endloop
   endfacet
   facet normal 1.000000e+000 0.000000e+000 -2.168404e-016
      outer loop
         vertex 2.500000e+000 0.000000e+000 -2.000000e+000
         vertex 2.500000e+000 2.200000e+000 2.000000e+000
         vertex 2.500000e+000 0.000000e+000 2.000000e+000
      endloop
   endfacet
   facet normal 0.000000e+000 0.000000e+000 -1.000000e+000
      outer loop
         vertex -2.500000e+000 2.200000e+000 -2.000000e+000
         vertex 2.500000e+000 2.200000e+000 -2.000000e+000
         vertex -2.500000e+000 0.000000e+000 -2.000000e+000
      endloop
   endfacet
   facet normal 0.000000e+000 0.000000e+000 -1.000000e+000
      outer loop
         vertex -2.500000e+000 0.000000e+000 -2.000000e+000
         vertex 2.500000e+000 2.200000e+000 -2.000000e+000
         vertex 2.500000e+000 0.000000e+000 -2.000000e+000
      endloop
   endfacet
   facet normal 0.000000e+000 1.000000e+000 0.000000e+000
      outer loop
         vertex 2.500000e+000 2.200000e+000 2.000000e+000
         vertex 2.500000e+000 2.200000e+000 -2.000000e+000
         vertex -2.500000e+000 2.200000e+000 2.000000e+000
      endloop
   endfacet
   facet normal 0.000000e+000 1.000000e+000 0.000000e+000
      outer loop
         vertex -2.500000e+000 2.200000e+000 2.000000e+000
         vertex 2.500000e+000 2.200000e+000 -2.000000e+000
         vertex -2.500000e+000 2.200000e+000 -2.000000e+000
      endloop
   endfacet
   facet normal 0.000000e+000 -1.000000e+000 0.000000e+000
      outer loop
         vertex 2.500000e+000 0.000000e+000 -2.000000e+000
         vertex 2.500000e+000 0.000000e+000 2.000000e+000
         vertex -2.500000e+000 0.000000e+000 -2.000000e+000
      endloop
   endfacet
   facet normal 0.000000e+000 -1.000000e+000 0.000000e+000
      outer loop
         vertex -2.500000e+000 0.000000e+000 -2.000000e+000
         vertex 2.500000e+000 0.000000e+000 2.000000e+000
         vertex -2.500000e+000 0.000000e+000 2.000000e+000
      endloop
   endfacet
endsolid