solid InnerBlackRightAngle_Default_sldprt
   facet normal 1.000000e+000 0.000000e+000 -2.135044e-016
      outer loop
         vertex 6.500000e+001 1.000000e+001 -6.500000e+001
         vertex 6.500000e+001 1.000000e+001 6.500000e+001
         vertex 6.500000e+001 0.000000e+000 -6.500000e+001
      endloop
   endfacet
   facet normal 1.000000e+000 0.000000e+000 -2.135044e-016
      outer loop
         vertex 6.500000e+001 0.000000e+000 -6.500000e+001
         vertex 6.500000e+001 1.000000e+001 6.500000e+001
         vertex 6.500000e+001 0.000000e+000 6.500000e+001
      endloop
   endfacet
   facet normal 0.000000e+000 0.000000e+000 -1.000000e+000
      outer loop
         vertex -3.500000e+001 1.000000e+001 -6.500000e+001
         vertex 6.500000e+001 1.000000e+001 -6.500000e+001
         vertex -3.500000e+001 0.000000e+000 -6.500000e+001
      endloop
   endfacet
   facet normal 0.000000e+000 0.000000e+000 -1.000000e+000
      outer loop
         vertex -3.500000e+001 0.000000e+000 -6.500000e+001
         vertex 6.500000e+001 1.000000e+001 -6.500000e+001
         vertex 6.500000e+001 0.000000e+000 -6.500000e+001
      endloop
   endfacet
   facet normal -1.000000e+000 0.000000e+000 2.312965e-016
      outer loop
         vertex -3.500000e+001 1.000000e+001 -3.500000e+001
         vertex -3.500000e+001 1.000000e+001 -6.500000e+001
         vertex -3.500000e+001 0.000000e+000 -3.500000e+001
      endloop
   endfacet
   facet normal -1.000000e+000 0.000000e+000 2.312965e-016
      outer loop
         vertex -3.500000e+001 0.000000e+000 -3.500000e+001
         vertex -3.500000e+001 1.000000e+001 -6.500000e+001
         vertex -3.500000e+001 0.000000e+000 -6.500000e+001
      endloop
   endfacet
   facet normal 0.000000e+000 0.000000e+000 -1.000000e+000
      outer loop
         vertex -6.500000e+001 1.000000e+001 -3.500000e+001
         vertex -3.500000e+001 1.000000e+001 -3.500000e+001
         vertex -6.500000e+001 0.000000e+000 -3.500000e+001
      endloop
   endfacet
   facet normal 0.000000e+000 0.000000e+000 -1.000000e+000
      outer loop
         vertex -6.500000e+001 0.000000e+000 -3.500000e+001
         vertex -3.500000e+001 1.000000e+001 -3.500000e+001
         vertex -3.500000e+001 0.000000e+000 -3.500000e+001
      endloop
   endfacet
   facet normal -1.000000e+000 0.000000e+000 1.387779e-016
      outer loop
         vertex -6.500000e+001 1.000000e+001 6.500000e+001
         vertex -6.500000e+001 1.000000e+001 -3.500000e+001
         vertex -6.500000e+001 0.000000e+000 6.500000e+001
      endloop
   endfacet
   facet normal -1.000000e+000 0.000000e+000 1.387779e-016
      outer loop
         vertex -6.500000e+001 0.000000e+000 6.500000e+001
         vertex -6.500000e+001 1.000000e+001 -3.500000e+001
         vertex -6.500000e+001 0.000000e+000 -3.500000e+001
      endloop
   endfacet
   facet normal 0.000000e+000 0.000000e+000 1.000000e+000
      outer loop
         vertex 6.500000e+001 1.000000e+001 6.500000e+001
         vertex -6.500000e+001 1.000000e+001 6.500000e+001
         vertex 6.500000e+001 0.000000e+000 6.500000e+001
      endloop
   endfacet
   facet normal 0.000000e+000 0.000000e+000 1.000000e+000
      outer loop
         vertex 6.500000e+001 0.000000e+000 6.500000e+001
         vertex -6.500000e+001 1.000000e+001 6.500000e+001
         vertex -6.500000e+001 0.000000e+000 6.500000e+001
      endloop
   endfacet
   facet normal 0.000000e+000 1.000000e+000 0.000000e+000
      outer loop
         vertex -6.500000e+001 1.000000e+001 -3.500000e+001
         vertex -6.500000e+001 1.000000e+001 6.500000e+001
         vertex -3.500000e+001 1.000000e+001 -3.500000e+001
      endloop
   endfacet
   facet normal 0.000000e+000 1.000000e+000 0.000000e+000
      outer loop
         vertex -3.500000e+001 1.000000e+001 -3.500000e+001
         vertex -6.500000e+001 1.000000e+001 6.500000e+001
         vertex 6.500000e+001 1.000000e+001 6.500000e+001
      endloop
   endfacet
   facet normal 0.000000e+000 1.000000e+000 0.000000e+000
      outer loop
         vertex -3.500000e+001 1.000000e+001 -3.500000e+001
         vertex 6.500000e+001 1.000000e+001 6.500000e+001
         vertex -3.500000e+001 1.000000e+001 -6.500000e+001
      endloop
   endfacet
   facet normal 0.000000e+000 1.000000e+000 0.000000e+000
      outer loop
         vertex -3.500000e+001 1.000000e+001 -6.500000e+001
         vertex 6.500000e+001 1.000000e+001 6.500000e+001
         vertex 6.500000e+001 1.000000e+001 -6.500000e+001
      endloop
   endfacet
   facet normal 0.000000e+000 -1.000000e+000 0.000000e+000
      outer loop
         vertex -3.500000e+001 0.000000e+000 -6.500000e+001
         vertex 6.500000e+001 0.000000e+000 -6.500000e+001
         vertex -3.500000e+001 0.000000e+000 -3.500000e+001
      endloop
   endfacet
   facet normal 0.000000e+000 -1.000000e+000 0.000000e+000
      outer loop
         vertex -3.500000e+001 0.000000e+000 -3.500000e+001
         vertex 6.500000e+001 0.000000e+000 -6.500000e+001
         vertex 6.500000e+001 0.000000e+000 6.500000e+001
      endloop
   endfacet
   facet normal 0.000000e+000 -1.000000e+000 0.000000e+000
      outer loop
         vertex -3.500000e+001 0.000000e+000 -3.500000e+001
         vertex 6.500000e+001 0.000000e+000 6.500000e+001
         vertex -6.500000e+001 0.000000e+000 -3.500000e+001
      endloop
   endfacet
   facet normal 0.000000e+000 -1.000000e+000 0.000000e+000
      outer loop
         vertex -6.500000e+001 0.000000e+000 -3.500000e+001
         vertex 6.500000e+001 0.000000e+000 6.500000e+001
         vertex -6.500000e+001 0.000000e+000 6.500000e+001
      endloop
   endfacet
endsolid