solid InnerWhiteCurve300_Default_sldprt
   facet normal 6.946597e-001 0.000000e+000 -7.193386e-001
      outer loop
         vertex 2.333452e+002 1.000000e+001 -2.333452e+002
         vertex 2.333452e+002 0.000000e+000 -2.333452e+002
         vertex 2.208131e+002 0.000000e+000 -2.452378e+002
      endloop
   endfacet
   facet normal 6.819971e-001 0.000000e+000 -7.313549e-001
      outer loop
         vertex 2.333452e+002 1.000000e+001 -2.333452e+002
         vertex 2.208131e+002 0.000000e+000 -2.452378e+002
         vertex 2.208131e+002 1.000000e+001 -2.452378e+002
      endloop
   endfacet
   facet normal 6.560604e-001 0.000000e+000 -7.547084e-001
      outer loop
         vertex 2.208131e+002 1.000000e+001 -2.452378e+002
         vertex 2.208131e+002 0.000000e+000 -2.452378e+002
         vertex 2.076757e+002 0.000000e+000 -2.564582e+002
      endloop
   endfacet
   facet normal 6.427863e-001 0.000000e+000 -7.660456e-001
      outer loop
         vertex 2.208131e+002 1.000000e+001 -2.452378e+002
         vertex 2.076757e+002 0.000000e+000 -2.564582e+002
         vertex 2.076757e+002 1.000000e+001 -2.564582e+002
      endloop
   endfacet
   facet normal 6.156629e-001 0.000000e+000 -7.880096e-001
      outer loop
         vertex 2.076757e+002 1.000000e+001 -2.564582e+002
         vertex 2.076757e+002 0.000000e+000 -2.564582e+002
         vertex 1.939691e+002 0.000000e+000 -2.669756e+002
      endloop
   endfacet
   facet normal 6.018136e-001 0.000000e+000 -7.986366e-001
      outer loop
         vertex 2.076757e+002 1.000000e+001 -2.564582e+002
         vertex 1.939691e+002 0.000000e+000 -2.669756e+002
         vertex 1.939691e+002 1.000000e+001 -2.669756e+002
      endloop
   endfacet
   facet normal 5.735779e-001 0.000000e+000 -8.191510e-001
      outer loop
         vertex 1.939691e+002 1.000000e+001 -2.669756e+002
         vertex 1.939691e+002 0.000000e+000 -2.669756e+002
         vertex 1.797309e+002 0.000000e+000 -2.767613e+002
      endloop
   endfacet
   facet normal 5.591915e-001 0.000000e+000 -8.290386e-001
      outer loop
         vertex 1.939691e+002 1.000000e+001 -2.669756e+002
         vertex 1.797309e+002 0.000000e+000 -2.767613e+002
         vertex 1.797309e+002 1.000000e+001 -2.767613e+002
      endloop
   endfacet
   facet normal 5.299208e-001 0.000000e+000 -8.480471e-001
      outer loop
         vertex 1.797309e+002 1.000000e+001 -2.767613e+002
         vertex 1.797309e+002 0.000000e+000 -2.767613e+002
         vertex 1.650000e+002 0.000000e+000 -2.857884e+002
      endloop
   endfacet
   facet normal 5.150366e-001 0.000000e+000 -8.571682e-001
      outer loop
         vertex 1.797309e+002 1.000000e+001 -2.767613e+002
         vertex 1.650000e+002 0.000000e+000 -2.857884e+002
         vertex 1.650000e+002 1.000000e+001 -2.857884e+002
      endloop
   endfacet
   facet normal 4.848112e-001 0.000000e+000 -8.746188e-001
      outer loop
         vertex 1.650000e+002 1.000000e+001 -2.857884e+002
         vertex 1.650000e+002 0.000000e+000 -2.857884e+002
         vertex 1.498169e+002 0.000000e+000 -2.940322e+002
      endloop
   endfacet
   facet normal 4.694700e-001 0.000000e+000 -8.829485e-001
      outer loop
         vertex 1.650000e+002 1.000000e+001 -2.857884e+002
         vertex 1.498169e+002 0.000000e+000 -2.940322e+002
         vertex 1.498169e+002 1.000000e+001 -2.940322e+002
      endloop
   endfacet
   facet normal 4.383727e-001 0.000000e+000 -8.987933e-001
      outer loop
         vertex 1.498169e+002 1.000000e+001 -2.940322e+002
         vertex 1.498169e+002 0.000000e+000 -2.940322e+002
         vertex 1.342231e+002 0.000000e+000 -3.014700e+002
      endloop
   endfacet
   facet normal 4.226167e-001 0.000000e+000 -9.063085e-001
      outer loop
         vertex 1.498169e+002 1.000000e+001 -2.940322e+002
         vertex 1.342231e+002 0.000000e+000 -3.014700e+002
         vertex 1.342231e+002 1.000000e+001 -3.014700e+002
      endloop
   endfacet
   facet normal 3.907328e-001 0.000000e+000 -9.205042e-001
      outer loop
         vertex 1.342231e+002 1.000000e+001 -3.014700e+002
         vertex 1.342231e+002 0.000000e+000 -3.014700e+002
         vertex 1.182614e+002 0.000000e+000 -3.080815e+002
      endloop
   endfacet
   facet normal 3.746050e-001 0.000000e+000 -9.271845e-001
      outer loop
         vertex 1.342231e+002 1.000000e+001 -3.014700e+002
         vertex 1.182614e+002 0.000000e+000 -3.080815e+002
         vertex 1.182614e+002 1.000000e+001 -3.080815e+002
      endloop
   endfacet
   facet normal 3.420218e-001 0.000000e+000 -9.396920e-001
      outer loop
         vertex 1.182614e+002 1.000000e+001 -3.080815e+002
         vertex 1.182614e+002 0.000000e+000 -3.080815e+002
         vertex 1.019756e+002 0.000000e+000 -3.138486e+002
      endloop
   endfacet
   facet normal 3.255665e-001 0.000000e+000 -9.455192e-001
      outer loop
         vertex 1.182614e+002 1.000000e+001 -3.080815e+002
         vertex 1.019756e+002 0.000000e+000 -3.138486e+002
         vertex 1.019756e+002 1.000000e+001 -3.138486e+002
      endloop
   endfacet
   facet normal 2.923734e-001 0.000000e+000 -9.563043e-001
      outer loop
         vertex 1.019756e+002 1.000000e+001 -3.138486e+002
         vertex 1.019756e+002 0.000000e+000 -3.138486e+002
         vertex 8.541028e+001 0.000000e+000 -3.187555e+002
      endloop
   endfacet
   facet normal 2.756356e-001 0.000000e+000 -9.612622e-001
      outer loop
         vertex 1.019756e+002 1.000000e+001 -3.138486e+002
         vertex 8.541028e+001 0.000000e+000 -3.187555e+002
         vertex 8.541028e+001 1.000000e+001 -3.187555e+002
      endloop
   endfacet
   facet normal 2.419236e-001 0.000000e+000 -9.702953e-001
      outer loop
         vertex 8.541028e+001 1.000000e+001 -3.187555e+002
         vertex 8.541028e+001 0.000000e+000 -3.187555e+002
         vertex 6.861086e+001 0.000000e+000 -3.227887e+002
      endloop
   endfacet
   facet normal 2.249493e-001 0.000000e+000 -9.743705e-001
      outer loop
         vertex 8.541028e+001 1.000000e+001 -3.187555e+002
         vertex 6.861086e+001 0.000000e+000 -3.227887e+002
         vertex 6.861086e+001 1.000000e+001 -3.227887e+002
      endloop
   endfacet
   facet normal 1.908107e-001 0.000000e+000 -9.816269e-001
      outer loop
         vertex 6.861086e+001 1.000000e+001 -3.227887e+002
         vertex 6.861086e+001 0.000000e+000 -3.227887e+002
         vertex 5.162337e+001 0.000000e+000 -3.259372e+002
      endloop
   endfacet
   facet normal 1.736464e-001 0.000000e+000 -9.848080e-001
      outer loop
         vertex 6.861086e+001 1.000000e+001 -3.227887e+002
         vertex 5.162337e+001 0.000000e+000 -3.259372e+002
         vertex 5.162337e+001 1.000000e+001 -3.259372e+002
      endloop
   endfacet
   facet normal 1.391748e-001 0.000000e+000 -9.902678e-001
      outer loop
         vertex 5.162337e+001 1.000000e+001 -3.259372e+002
         vertex 5.162337e+001 0.000000e+000 -3.259372e+002
         vertex 3.449439e+001 0.000000e+000 -3.281922e+002
      endloop
   endfacet
   facet normal 1.218676e-001 0.000000e+000 -9.925464e-001
      outer loop
         vertex 5.162337e+001 1.000000e+001 -3.259372e+002
         vertex 3.449439e+001 0.000000e+000 -3.281922e+002
         vertex 3.449439e+001 1.000000e+001 -3.281922e+002
      endloop
   endfacet
   facet normal 8.715752e-002 0.000000e+000 -9.961946e-001
      outer loop
         vertex 3.449439e+001 1.000000e+001 -3.281922e+002
         vertex 3.449439e+001 0.000000e+000 -3.281922e+002
         vertex 1.727086e+001 0.000000e+000 -3.295477e+002
      endloop
   endfacet
   facet normal 6.975471e-002 0.000000e+000 -9.975642e-001
      outer loop
         vertex 3.449439e+001 1.000000e+001 -3.281922e+002
         vertex 1.727086e+001 0.000000e+000 -3.295477e+002
         vertex 1.727086e+001 1.000000e+001 -3.295477e+002
      endloop
   endfacet
   facet normal 3.490127e-002 0.000000e+000 -9.993908e-001
      outer loop
         vertex 1.727086e+001 1.000000e+001 -3.295477e+002
         vertex 1.727086e+001 0.000000e+000 -3.295477e+002
         vertex 0.000000e+000 0.000000e+000 -3.300000e+002
      endloop
   endfacet
   facet normal 1.745063e-002 0.000000e+000 -9.998477e-001
      outer loop
         vertex 1.727086e+001 1.000000e+001 -3.295477e+002
         vertex 0.000000e+000 0.000000e+000 -3.300000e+002
         vertex 0.000000e+000 1.000000e+001 -3.300000e+002
      endloop
   endfacet
   facet normal -1.000000e+000 0.000000e+000 0.000000e+000
      outer loop
         vertex 0.000000e+000 1.000000e+001 -3.000000e+002
         vertex 0.000000e+000 1.000000e+001 -3.300000e+002
         vertex 0.000000e+000 0.000000e+000 -3.000000e+002
      endloop
   endfacet
   facet normal -1.000000e+000 0.000000e+000 0.000000e+000
      outer loop
         vertex 0.000000e+000 0.000000e+000 -3.000000e+002
         vertex 0.000000e+000 1.000000e+001 -3.300000e+002
         vertex 0.000000e+000 0.000000e+000 -3.300000e+002
      endloop
   endfacet
   facet normal -1.869668e-002 0.000000e+000 9.998252e-001
      outer loop
         vertex 0.000000e+000 1.000000e+001 -3.000000e+002
         vertex 0.000000e+000 0.000000e+000 -3.000000e+002
         vertex 1.682113e+001 1.000000e+001 -2.995280e+002
      endloop
   endfacet
   facet normal -3.739337e-002 0.000000e+000 9.993007e-001
      outer loop
         vertex 1.682113e+001 1.000000e+001 -2.995280e+002
         vertex 0.000000e+000 0.000000e+000 -3.000000e+002
         vertex 1.682113e+001 0.000000e+000 -2.995280e+002
      endloop
   endfacet
   facet normal -7.472792e-002 0.000000e+000 9.972040e-001
      outer loop
         vertex 1.682113e+001 1.000000e+001 -2.995280e+002
         vertex 1.682113e+001 0.000000e+000 -2.995280e+002
         vertex 3.358934e+001 1.000000e+001 -2.981137e+002
      endloop
   endfacet
   facet normal -9.336577e-002 0.000000e+000 9.956319e-001
      outer loop
         vertex 3.358934e+001 1.000000e+001 -2.981137e+002
         vertex 1.682113e+001 0.000000e+000 -2.995280e+002
         vertex 3.358934e+001 0.000000e+000 -2.981137e+002
      endloop
   endfacet
   facet normal -1.305240e-001 0.000000e+000 9.914452e-001
      outer loop
         vertex 3.358934e+001 1.000000e+001 -2.981137e+002
         vertex 3.358934e+001 0.000000e+000 -2.981137e+002
         vertex 5.025187e+001 1.000000e+001 -2.957613e+002
      endloop
   endfacet
   facet normal -1.490444e-001 0.000000e+000 9.888305e-001
      outer loop
         vertex 5.025187e+001 1.000000e+001 -2.957613e+002
         vertex 3.358934e+001 0.000000e+000 -2.981137e+002
         vertex 5.025187e+001 0.000000e+000 -2.957613e+002
      endloop
   endfacet
   facet normal -1.859095e-001 0.000000e+000 9.825669e-001
      outer loop
         vertex 5.025187e+001 1.000000e+001 -2.957613e+002
         vertex 5.025187e+001 0.000000e+000 -2.957613e+002
         vertex 6.675628e+001 1.000000e+001 -2.924784e+002
      endloop
   endfacet
   facet normal -2.042541e-001 0.000000e+000 9.789179e-001
      outer loop
         vertex 6.675628e+001 1.000000e+001 -2.924784e+002
         vertex 5.025187e+001 0.000000e+000 -2.957613e+002
         vertex 6.675628e+001 0.000000e+000 -2.924784e+002
      endloop
   endfacet
   facet normal -2.407100e-001 0.000000e+000 9.705971e-001
      outer loop
         vertex 6.675628e+001 1.000000e+001 -2.924784e+002
         vertex 6.675628e+001 0.000000e+000 -2.924784e+002
         vertex 8.305065e+001 1.000000e+001 -2.882752e+002
      endloop
   endfacet
   facet normal -2.588212e-001 0.000000e+000 9.659253e-001
      outer loop
         vertex 8.305065e+001 1.000000e+001 -2.882752e+002
         vertex 6.675628e+001 0.000000e+000 -2.924784e+002
         vertex 8.305065e+001 0.000000e+000 -2.882752e+002
      endloop
   endfacet
   facet normal -2.947531e-001 0.000000e+000 9.555734e-001
      outer loop
         vertex 8.305065e+001 1.000000e+001 -2.882752e+002
         vertex 8.305065e+001 0.000000e+000 -2.882752e+002
         vertex 9.908372e+001 1.000000e+001 -2.831650e+002
      endloop
   endfacet
   facet normal -3.125738e-001 0.000000e+000 9.498935e-001
      outer loop
         vertex 9.908372e+001 1.000000e+001 -2.831650e+002
         vertex 8.305065e+001 0.000000e+000 -2.882752e+002
         vertex 9.908372e+001 0.000000e+000 -2.831650e+002
      endloop
   endfacet
   facet normal -3.478688e-001 0.000000e+000 9.375433e-001
      outer loop
         vertex 9.908372e+001 1.000000e+001 -2.831650e+002
         vertex 9.908372e+001 0.000000e+000 -2.831650e+002
         vertex 1.148050e+002 1.000000e+001 -2.771638e+002
      endloop
   endfacet
   facet normal -3.653431e-001 0.000000e+000 9.308729e-001
      outer loop
         vertex 1.148050e+002 1.000000e+001 -2.771638e+002
         vertex 9.908372e+001 0.000000e+000 -2.831650e+002
         vertex 1.148050e+002 0.000000e+000 -2.771638e+002
      endloop
   endfacet
   facet normal -3.998900e-001 0.000000e+000 9.165631e-001
      outer loop
         vertex 1.148050e+002 1.000000e+001 -2.771638e+002
         vertex 1.148050e+002 0.000000e+000 -2.771638e+002
         vertex 1.301651e+002 1.000000e+001 -2.702907e+002
      endloop
   endfacet
   facet normal -4.169627e-001 0.000000e+000 9.089236e-001
      outer loop
         vertex 1.301651e+002 1.000000e+001 -2.702907e+002
         vertex 1.148050e+002 0.000000e+000 -2.771638e+002
         vertex 1.301651e+002 0.000000e+000 -2.702907e+002
      endloop
   endfacet
   facet normal -4.506530e-001 0.000000e+000 8.926992e-001
      outer loop
         vertex 1.301651e+002 1.000000e+001 -2.702907e+002
         vertex 1.301651e+002 0.000000e+000 -2.702907e+002
         vertex 1.451157e+002 1.000000e+001 -2.625670e+002
      endloop
   endfacet
   facet normal -4.672706e-001 0.000000e+000 8.841144e-001
      outer loop
         vertex 1.451157e+002 1.000000e+001 -2.625670e+002
         vertex 1.301651e+002 0.000000e+000 -2.702907e+002
         vertex 1.451157e+002 0.000000e+000 -2.625670e+002
      endloop
   endfacet
   facet normal -4.999982e-001 0.000000e+000 8.660265e-001
      outer loop
         vertex 1.451157e+002 1.000000e+001 -2.625670e+002
         vertex 1.451157e+002 0.000000e+000 -2.625670e+002
         vertex 1.596096e+002 1.000000e+001 -2.540173e+002
      endloop
   endfacet
   facet normal -5.161082e-001 0.000000e+000 8.565235e-001
      outer loop
         vertex 1.596096e+002 1.000000e+001 -2.540173e+002
         vertex 1.451157e+002 0.000000e+000 -2.625670e+002
         vertex 1.596096e+002 0.000000e+000 -2.540173e+002
      endloop
   endfacet
   facet normal -5.477700e-001 0.000000e+000 8.366290e-001
      outer loop
         vertex 1.596096e+002 1.000000e+001 -2.540173e+002
         vertex 1.596096e+002 0.000000e+000 -2.540173e+002
         vertex 1.736014e+002 1.000000e+001 -2.446683e+002
      endloop
   endfacet
   facet normal -5.633218e-001 0.000000e+000 8.262376e-001
      outer loop
         vertex 1.736014e+002 1.000000e+001 -2.446683e+002
         vertex 1.596096e+002 0.000000e+000 -2.540173e+002
         vertex 1.736014e+002 0.000000e+000 -2.446683e+002
      endloop
   endfacet
   facet normal -5.938184e-001 0.000000e+000 8.045991e-001
      outer loop
         vertex 1.736014e+002 1.000000e+001 -2.446683e+002
         vertex 1.736014e+002 0.000000e+000 -2.446683e+002
         vertex 1.870470e+002 1.000000e+001 -2.345495e+002
      endloop
   endfacet
   facet normal -6.087632e-001 0.000000e+000 7.933520e-001
      outer loop
         vertex 1.870470e+002 1.000000e+001 -2.345495e+002
         vertex 1.736014e+002 0.000000e+000 -2.446683e+002
         vertex 1.870470e+002 0.000000e+000 -2.345495e+002
      endloop
   endfacet
   facet normal -6.379984e-001 0.000000e+000 7.700377e-001
      outer loop
         vertex 1.870470e+002 1.000000e+001 -2.345495e+002
         vertex 1.870470e+002 0.000000e+000 -2.345495e+002
         vertex 1.999040e+002 1.000000e+001 -2.236927e+002
      endloop
   endfacet
   facet normal -6.522890e-001 0.000000e+000 7.579703e-001
      outer loop
         vertex 1.999040e+002 1.000000e+001 -2.236927e+002
         vertex 1.870470e+002 0.000000e+000 -2.345495e+002
         vertex 1.999040e+002 0.000000e+000 -2.236927e+002
      endloop
   endfacet
   facet normal -6.801711e-001 0.000000e+000 7.330534e-001
      outer loop
         vertex 1.999040e+002 1.000000e+001 -2.236927e+002
         vertex 1.999040e+002 0.000000e+000 -2.236927e+002
         vertex 2.121320e+002 1.000000e+001 -2.121320e+002
      endloop
   endfacet
   facet normal -6.937627e-001 0.000000e+000 7.202038e-001
      outer loop
         vertex 2.121320e+002 1.000000e+001 -2.121320e+002
         vertex 1.999040e+002 0.000000e+000 -2.236927e+002
         vertex 2.121320e+002 0.000000e+000 -2.121320e+002
      endloop
   endfacet
   facet normal 7.071068e-001 0.000000e+000 7.071068e-001
      outer loop
         vertex 2.333452e+002 1.000000e+001 -2.333452e+002
         vertex 2.121320e+002 1.000000e+001 -2.121320e+002
         vertex 2.333452e+002 0.000000e+000 -2.333452e+002
      endloop
   endfacet
   facet normal 7.071068e-001 0.000000e+000 7.071068e-001
      outer loop
         vertex 2.333452e+002 0.000000e+000 -2.333452e+002
         vertex 2.121320e+002 1.000000e+001 -2.121320e+002
         vertex 2.121320e+002 0.000000e+000 -2.121320e+002
      endloop
   endfacet
   facet normal 0.000000e+000 1.000000e+000 0.000000e+000
      outer loop
         vertex 0.000000e+000 1.000000e+001 -3.300000e+002
         vertex 0.000000e+000 1.000000e+001 -3.000000e+002
         vertex 1.727086e+001 1.000000e+001 -3.295477e+002
      endloop
   endfacet
   facet normal 0.000000e+000 1.000000e+000 0.000000e+000
      outer loop
         vertex 1.727086e+001 1.000000e+001 -3.295477e+002
         vertex 0.000000e+000 1.000000e+001 -3.000000e+002
         vertex 1.682113e+001 1.000000e+001 -2.995280e+002
      endloop
   endfacet
   facet normal 0.000000e+000 1.000000e+000 0.000000e+000
      outer loop
         vertex 1.727086e+001 1.000000e+001 -3.295477e+002
         vertex 1.682113e+001 1.000000e+001 -2.995280e+002
         vertex 3.449439e+001 1.000000e+001 -3.281922e+002
      endloop
   endfacet
   facet normal 0.000000e+000 1.000000e+000 0.000000e+000
      outer loop
         vertex 3.449439e+001 1.000000e+001 -3.281922e+002
         vertex 1.682113e+001 1.000000e+001 -2.995280e+002
         vertex 3.358934e+001 1.000000e+001 -2.981137e+002
      endloop
   endfacet
   facet normal 0.000000e+000 1.000000e+000 0.000000e+000
      outer loop
         vertex 3.449439e+001 1.000000e+001 -3.281922e+002
         vertex 3.358934e+001 1.000000e+001 -2.981137e+002
         vertex 5.162337e+001 1.000000e+001 -3.259372e+002
      endloop
   endfacet
   facet normal 0.000000e+000 1.000000e+000 0.000000e+000
      outer loop
         vertex 5.162337e+001 1.000000e+001 -3.259372e+002
         vertex 3.358934e+001 1.000000e+001 -2.981137e+002
         vertex 5.025187e+001 1.000000e+001 -2.957613e+002
      endloop
   endfacet
   facet normal 0.000000e+000 1.000000e+000 0.000000e+000
      outer loop
         vertex 5.162337e+001 1.000000e+001 -3.259372e+002
         vertex 5.025187e+001 1.000000e+001 -2.957613e+002
         vertex 6.861086e+001 1.000000e+001 -3.227887e+002
      endloop
   endfacet
   facet normal 0.000000e+000 1.000000e+000 0.000000e+000
      outer loop
         vertex 6.861086e+001 1.000000e+001 -3.227887e+002
         vertex 5.025187e+001 1.000000e+001 -2.957613e+002
         vertex 6.675628e+001 1.000000e+001 -2.924784e+002
      endloop
   endfacet
   facet normal 0.000000e+000 1.000000e+000 0.000000e+000
      outer loop
         vertex 6.861086e+001 1.000000e+001 -3.227887e+002
         vertex 6.675628e+001 1.000000e+001 -2.924784e+002
         vertex 8.541028e+001 1.000000e+001 -3.187555e+002
      endloop
   endfacet
   facet normal 0.000000e+000 1.000000e+000 0.000000e+000
      outer loop
         vertex 8.541028e+001 1.000000e+001 -3.187555e+002
         vertex 6.675628e+001 1.000000e+001 -2.924784e+002
         vertex 8.305065e+001 1.000000e+001 -2.882752e+002
      endloop
   endfacet
   facet normal 0.000000e+000 1.000000e+000 0.000000e+000
      outer loop
         vertex 8.541028e+001 1.000000e+001 -3.187555e+002
         vertex 8.305065e+001 1.000000e+001 -2.882752e+002
         vertex 1.019756e+002 1.000000e+001 -3.138486e+002
      endloop
   endfacet
   facet normal 0.000000e+000 1.000000e+000 0.000000e+000
      outer loop
         vertex 1.019756e+002 1.000000e+001 -3.138486e+002
         vertex 8.305065e+001 1.000000e+001 -2.882752e+002
         vertex 9.908372e+001 1.000000e+001 -2.831650e+002
      endloop
   endfacet
   facet normal 0.000000e+000 1.000000e+000 0.000000e+000
      outer loop
         vertex 1.019756e+002 1.000000e+001 -3.138486e+002
         vertex 9.908372e+001 1.000000e+001 -2.831650e+002
         vertex 1.182614e+002 1.000000e+001 -3.080815e+002
      endloop
   endfacet
   facet normal 0.000000e+000 1.000000e+000 0.000000e+000
      outer loop
         vertex 1.182614e+002 1.000000e+001 -3.080815e+002
         vertex 9.908372e+001 1.000000e+001 -2.831650e+002
         vertex 1.148050e+002 1.000000e+001 -2.771638e+002
      endloop
   endfacet
   facet normal 0.000000e+000 1.000000e+000 0.000000e+000
      outer loop
         vertex 1.182614e+002 1.000000e+001 -3.080815e+002
         vertex 1.148050e+002 1.000000e+001 -2.771638e+002
         vertex 1.342231e+002 1.000000e+001 -3.014700e+002
      endloop
   endfacet
   facet normal 0.000000e+000 1.000000e+000 0.000000e+000
      outer loop
         vertex 1.342231e+002 1.000000e+001 -3.014700e+002
         vertex 1.148050e+002 1.000000e+001 -2.771638e+002
         vertex 1.301651e+002 1.000000e+001 -2.702907e+002
      endloop
   endfacet
   facet normal 0.000000e+000 1.000000e+000 0.000000e+000
      outer loop
         vertex 2.121320e+002 1.000000e+001 -2.121320e+002
         vertex 2.333452e+002 1.000000e+001 -2.333452e+002
         vertex 1.999040e+002 1.000000e+001 -2.236927e+002
      endloop
   endfacet
   facet normal 0.000000e+000 1.000000e+000 0.000000e+000
      outer loop
         vertex 1.999040e+002 1.000000e+001 -2.236927e+002
         vertex 2.333452e+002 1.000000e+001 -2.333452e+002
         vertex 2.208131e+002 1.000000e+001 -2.452378e+002
      endloop
   endfacet
   facet normal 0.000000e+000 1.000000e+000 0.000000e+000
      outer loop
         vertex 1.999040e+002 1.000000e+001 -2.236927e+002
         vertex 2.208131e+002 1.000000e+001 -2.452378e+002
         vertex 1.870470e+002 1.000000e+001 -2.345495e+002
      endloop
   endfacet
   facet normal 0.000000e+000 1.000000e+000 0.000000e+000
      outer loop
         vertex 1.870470e+002 1.000000e+001 -2.345495e+002
         vertex 2.208131e+002 1.000000e+001 -2.452378e+002
         vertex 2.076757e+002 1.000000e+001 -2.564582e+002
      endloop
   endfacet
   facet normal 0.000000e+000 1.000000e+000 0.000000e+000
      outer loop
         vertex 1.870470e+002 1.000000e+001 -2.345495e+002
         vertex 2.076757e+002 1.000000e+001 -2.564582e+002
         vertex 1.736014e+002 1.000000e+001 -2.446683e+002
      endloop
   endfacet
   facet normal 0.000000e+000 1.000000e+000 0.000000e+000
      outer loop
         vertex 1.736014e+002 1.000000e+001 -2.446683e+002
         vertex 2.076757e+002 1.000000e+001 -2.564582e+002
         vertex 1.939691e+002 1.000000e+001 -2.669756e+002
      endloop
   endfacet
   facet normal 0.000000e+000 1.000000e+000 0.000000e+000
      outer loop
         vertex 1.736014e+002 1.000000e+001 -2.446683e+002
         vertex 1.939691e+002 1.000000e+001 -2.669756e+002
         vertex 1.596096e+002 1.000000e+001 -2.540173e+002
      endloop
   endfacet
   facet normal 0.000000e+000 1.000000e+000 0.000000e+000
      outer loop
         vertex 1.596096e+002 1.000000e+001 -2.540173e+002
         vertex 1.939691e+002 1.000000e+001 -2.669756e+002
         vertex 1.797309e+002 1.000000e+001 -2.767613e+002
      endloop
   endfacet
   facet normal 0.000000e+000 1.000000e+000 0.000000e+000
      outer loop
         vertex 1.596096e+002 1.000000e+001 -2.540173e+002
         vertex 1.797309e+002 1.000000e+001 -2.767613e+002
         vertex 1.451157e+002 1.000000e+001 -2.625670e+002
      endloop
   endfacet
   facet normal 0.000000e+000 1.000000e+000 0.000000e+000
      outer loop
         vertex 1.451157e+002 1.000000e+001 -2.625670e+002
         vertex 1.797309e+002 1.000000e+001 -2.767613e+002
         vertex 1.650000e+002 1.000000e+001 -2.857884e+002
      endloop
   endfacet
   facet normal 0.000000e+000 1.000000e+000 0.000000e+000
      outer loop
         vertex 1.451157e+002 1.000000e+001 -2.625670e+002
         vertex 1.650000e+002 1.000000e+001 -2.857884e+002
         vertex 1.301651e+002 1.000000e+001 -2.702907e+002
      endloop
   endfacet
   facet normal 0.000000e+000 1.000000e+000 0.000000e+000
      outer loop
         vertex 1.301651e+002 1.000000e+001 -2.702907e+002
         vertex 1.650000e+002 1.000000e+001 -2.857884e+002
         vertex 1.498169e+002 1.000000e+001 -2.940322e+002
      endloop
   endfacet
   facet normal 0.000000e+000 1.000000e+000 0.000000e+000
      outer loop
         vertex 1.301651e+002 1.000000e+001 -2.702907e+002
         vertex 1.498169e+002 1.000000e+001 -2.940322e+002
         vertex 1.342231e+002 1.000000e+001 -3.014700e+002
      endloop
   endfacet
   facet normal 0.000000e+000 -1.000000e+000 0.000000e+000
      outer loop
         vertex 0.000000e+000 0.000000e+000 -3.000000e+002
         vertex 0.000000e+000 0.000000e+000 -3.300000e+002
         vertex 1.682113e+001 0.000000e+000 -2.995280e+002
      endloop
   endfacet
   facet normal 0.000000e+000 -1.000000e+000 0.000000e+000
      outer loop
         vertex 1.682113e+001 0.000000e+000 -2.995280e+002
         vertex 0.000000e+000 0.000000e+000 -3.300000e+002
         vertex 1.727086e+001 0.000000e+000 -3.295477e+002
      endloop
   endfacet
   facet normal 0.000000e+000 -1.000000e+000 0.000000e+000
      outer loop
         vertex 1.682113e+001 0.000000e+000 -2.995280e+002
         vertex 1.727086e+001 0.000000e+000 -3.295477e+002
         vertex 3.358934e+001 0.000000e+000 -2.981137e+002
      endloop
   endfacet
   facet normal 0.000000e+000 -1.000000e+000 0.000000e+000
      outer loop
         vertex 3.358934e+001 0.000000e+000 -2.981137e+002
         vertex 1.727086e+001 0.000000e+000 -3.295477e+002
         vertex 3.449439e+001 0.000000e+000 -3.281922e+002
      endloop
   endfacet
   facet normal 0.000000e+000 -1.000000e+000 0.000000e+000
      outer loop
         vertex 3.358934e+001 0.000000e+000 -2.981137e+002
         vertex 3.449439e+001 0.000000e+000 -3.281922e+002
         vertex 5.025187e+001 0.000000e+000 -2.957613e+002
      endloop
   endfacet
   facet normal 0.000000e+000 -1.000000e+000 0.000000e+000
      outer loop
         vertex 5.025187e+001 0.000000e+000 -2.957613e+002
         vertex 3.449439e+001 0.000000e+000 -3.281922e+002
         vertex 5.162337e+001 0.000000e+000 -3.259372e+002
      endloop
   endfacet
   facet normal 0.000000e+000 -1.000000e+000 0.000000e+000
      outer loop
         vertex 5.025187e+001 0.000000e+000 -2.957613e+002
         vertex 5.162337e+001 0.000000e+000 -3.259372e+002
         vertex 6.675628e+001 0.000000e+000 -2.924784e+002
      endloop
   endfacet
   facet normal 0.000000e+000 -1.000000e+000 0.000000e+000
      outer loop
         vertex 6.675628e+001 0.000000e+000 -2.924784e+002
         vertex 5.162337e+001 0.000000e+000 -3.259372e+002
         vertex 6.861086e+001 0.000000e+000 -3.227887e+002
      endloop
   endfacet
   facet normal 0.000000e+000 -1.000000e+000 0.000000e+000
      outer loop
         vertex 6.675628e+001 0.000000e+000 -2.924784e+002
         vertex 6.861086e+001 0.000000e+000 -3.227887e+002
         vertex 8.305065e+001 0.000000e+000 -2.882752e+002
      endloop
   endfacet
   facet normal 0.000000e+000 -1.000000e+000 0.000000e+000
      outer loop
         vertex 8.305065e+001 0.000000e+000 -2.882752e+002
         vertex 6.861086e+001 0.000000e+000 -3.227887e+002
         vertex 8.541028e+001 0.000000e+000 -3.187555e+002
      endloop
   endfacet
   facet normal 0.000000e+000 -1.000000e+000 0.000000e+000
      outer loop
         vertex 8.305065e+001 0.000000e+000 -2.882752e+002
         vertex 8.541028e+001 0.000000e+000 -3.187555e+002
         vertex 9.908372e+001 0.000000e+000 -2.831650e+002
      endloop
   endfacet
   facet normal 0.000000e+000 -1.000000e+000 0.000000e+000
      outer loop
         vertex 9.908372e+001 0.000000e+000 -2.831650e+002
         vertex 8.541028e+001 0.000000e+000 -3.187555e+002
         vertex 1.019756e+002 0.000000e+000 -3.138486e+002
      endloop
   endfacet
   facet normal 0.000000e+000 -1.000000e+000 0.000000e+000
      outer loop
         vertex 9.908372e+001 0.000000e+000 -2.831650e+002
         vertex 1.019756e+002 0.000000e+000 -3.138486e+002
         vertex 1.148050e+002 0.000000e+000 -2.771638e+002
      endloop
   endfacet
   facet normal 0.000000e+000 -1.000000e+000 0.000000e+000
      outer loop
         vertex 2.333452e+002 0.000000e+000 -2.333452e+002
         vertex 2.121320e+002 0.000000e+000 -2.121320e+002
         vertex 2.208131e+002 0.000000e+000 -2.452378e+002
      endloop
   endfacet
   facet normal 0.000000e+000 -1.000000e+000 0.000000e+000
      outer loop
         vertex 2.208131e+002 0.000000e+000 -2.452378e+002
         vertex 2.121320e+002 0.000000e+000 -2.121320e+002
         vertex 1.999040e+002 0.000000e+000 -2.236927e+002
      endloop
   endfacet
   facet normal 0.000000e+000 -1.000000e+000 0.000000e+000
      outer loop
         vertex 2.208131e+002 0.000000e+000 -2.452378e+002
         vertex 1.999040e+002 0.000000e+000 -2.236927e+002
         vertex 2.076757e+002 0.000000e+000 -2.564582e+002
      endloop
   endfacet
   facet normal 0.000000e+000 -1.000000e+000 0.000000e+000
      outer loop
         vertex 2.076757e+002 0.000000e+000 -2.564582e+002
         vertex 1.999040e+002 0.000000e+000 -2.236927e+002
         vertex 1.870470e+002 0.000000e+000 -2.345495e+002
      endloop
   endfacet
   facet normal 0.000000e+000 -1.000000e+000 0.000000e+000
      outer loop
         vertex 2.076757e+002 0.000000e+000 -2.564582e+002
         vertex 1.870470e+002 0.000000e+000 -2.345495e+002
         vertex 1.939691e+002 0.000000e+000 -2.669756e+002
      endloop
   endfacet
   facet normal 0.000000e+000 -1.000000e+000 0.000000e+000
      outer loop
         vertex 1.939691e+002 0.000000e+000 -2.669756e+002
         vertex 1.870470e+002 0.000000e+000 -2.345495e+002
         vertex 1.736014e+002 0.000000e+000 -2.446683e+002
      endloop
   endfacet
   facet normal 0.000000e+000 -1.000000e+000 0.000000e+000
      outer loop
         vertex 1.939691e+002 0.000000e+000 -2.669756e+002
         vertex 1.736014e+002 0.000000e+000 -2.446683e+002
         vertex 1.797309e+002 0.000000e+000 -2.767613e+002
      endloop
   endfacet
   facet normal 0.000000e+000 -1.000000e+000 0.000000e+000
      outer loop
         vertex 1.797309e+002 0.000000e+000 -2.767613e+002
         vertex 1.736014e+002 0.000000e+000 -2.446683e+002
         vertex 1.596096e+002 0.000000e+000 -2.540173e+002
      endloop
   endfacet
   facet normal 0.000000e+000 -1.000000e+000 0.000000e+000
      outer loop
         vertex 1.797309e+002 0.000000e+000 -2.767613e+002
         vertex 1.596096e+002 0.000000e+000 -2.540173e+002
         vertex 1.650000e+002 0.000000e+000 -2.857884e+002
      endloop
   endfacet
   facet normal 0.000000e+000 -1.000000e+000 0.000000e+000
      outer loop
         vertex 1.650000e+002 0.000000e+000 -2.857884e+002
         vertex 1.596096e+002 0.000000e+000 -2.540173e+002
         vertex 1.451157e+002 0.000000e+000 -2.625670e+002
      endloop
   endfacet
   facet normal 0.000000e+000 -1.000000e+000 0.000000e+000
      outer loop
         vertex 1.650000e+002 0.000000e+000 -2.857884e+002
         vertex 1.451157e+002 0.000000e+000 -2.625670e+002
         vertex 1.498169e+002 0.000000e+000 -2.940322e+002
      endloop
   endfacet
   facet normal 0.000000e+000 -1.000000e+000 0.000000e+000
      outer loop
         vertex 1.498169e+002 0.000000e+000 -2.940322e+002
         vertex 1.451157e+002 0.000000e+000 -2.625670e+002
         vertex 1.301651e+002 0.000000e+000 -2.702907e+002
      endloop
   endfacet
   facet normal 0.000000e+000 -1.000000e+000 0.000000e+000
      outer loop
         vertex 1.498169e+002 0.000000e+000 -2.940322e+002
         vertex 1.301651e+002 0.000000e+000 -2.702907e+002
         vertex 1.342231e+002 0.000000e+000 -3.014700e+002
      endloop
   endfacet
   facet normal 0.000000e+000 -1.000000e+000 0.000000e+000
      outer loop
         vertex 1.342231e+002 0.000000e+000 -3.014700e+002
         vertex 1.301651e+002 0.000000e+000 -2.702907e+002
         vertex 1.148050e+002 0.000000e+000 -2.771638e+002
      endloop
   endfacet
   facet normal 0.000000e+000 -1.000000e+000 0.000000e+000
      outer loop
         vertex 1.342231e+002 0.000000e+000 -3.014700e+002
         vertex 1.148050e+002 0.000000e+000 -2.771638e+002
         vertex 1.182614e+002 0.000000e+000 -3.080815e+002
      endloop
   endfacet
   facet normal 0.000000e+000 -1.000000e+000 0.000000e+000
      outer loop
         vertex 1.182614e+002 0.000000e+000 -3.080815e+002
         vertex 1.148050e+002 0.000000e+000 -2.771638e+002
         vertex 1.019756e+002 0.000000e+000 -3.138486e+002
      endloop
   endfacet
endsolid