solid InnerWhiteCurve450_Default_sldprt
   facet normal 6.946597e-001 0.000000e+000 -7.193386e-001
      outer loop
         vertex 3.394113e+002 1.000000e+001 -3.394113e+002
         vertex 3.394113e+002 0.000000e+000 -3.394113e+002
         vertex 3.211827e+002 0.000000e+000 -3.567095e+002
      endloop
   endfacet
   facet normal 6.819971e-001 0.000000e+000 -7.313549e-001
      outer loop
         vertex 3.394113e+002 1.000000e+001 -3.394113e+002
         vertex 3.211827e+002 0.000000e+000 -3.567095e+002
         vertex 3.211827e+002 1.000000e+001 -3.567095e+002
      endloop
   endfacet
   facet normal 6.560604e-001 0.000000e+000 -7.547084e-001
      outer loop
         vertex 3.211827e+002 1.000000e+001 -3.567095e+002
         vertex 3.211827e+002 0.000000e+000 -3.567095e+002
         vertex 3.020738e+002 0.000000e+000 -3.730301e+002
      endloop
   endfacet
   facet normal 6.427863e-001 0.000000e+000 -7.660456e-001
      outer loop
         vertex 3.211827e+002 1.000000e+001 -3.567095e+002
         vertex 3.020738e+002 0.000000e+000 -3.730301e+002
         vertex 3.020738e+002 1.000000e+001 -3.730301e+002
      endloop
   endfacet
   facet normal 6.156629e-001 0.000000e+000 -7.880096e-001
      outer loop
         vertex 3.020738e+002 1.000000e+001 -3.730301e+002
         vertex 3.020738e+002 0.000000e+000 -3.730301e+002
         vertex 2.821369e+002 0.000000e+000 -3.883282e+002
      endloop
   endfacet
   facet normal 6.018136e-001 0.000000e+000 -7.986366e-001
      outer loop
         vertex 3.020738e+002 1.000000e+001 -3.730301e+002
         vertex 2.821369e+002 0.000000e+000 -3.883282e+002
         vertex 2.821369e+002 1.000000e+001 -3.883282e+002
      endloop
   endfacet
   facet normal 5.735779e-001 0.000000e+000 -8.191510e-001
      outer loop
         vertex 2.821369e+002 1.000000e+001 -3.883282e+002
         vertex 2.821369e+002 0.000000e+000 -3.883282e+002
         vertex 2.614268e+002 0.000000e+000 -4.025619e+002
      endloop
   endfacet
   facet normal 5.591915e-001 0.000000e+000 -8.290386e-001
      outer loop
         vertex 2.821369e+002 1.000000e+001 -3.883282e+002
         vertex 2.614268e+002 0.000000e+000 -4.025619e+002
         vertex 2.614268e+002 1.000000e+001 -4.025619e+002
      endloop
   endfacet
   facet normal 5.299208e-001 0.000000e+000 -8.480471e-001
      outer loop
         vertex 2.614268e+002 1.000000e+001 -4.025619e+002
         vertex 2.614268e+002 0.000000e+000 -4.025619e+002
         vertex 2.400000e+002 0.000000e+000 -4.156922e+002
      endloop
   endfacet
   facet normal 5.150366e-001 0.000000e+000 -8.571682e-001
      outer loop
         vertex 2.614268e+002 1.000000e+001 -4.025619e+002
         vertex 2.400000e+002 0.000000e+000 -4.156922e+002
         vertex 2.400000e+002 1.000000e+001 -4.156922e+002
      endloop
   endfacet
   facet normal 4.848112e-001 0.000000e+000 -8.746188e-001
      outer loop
         vertex 2.400000e+002 1.000000e+001 -4.156922e+002
         vertex 2.400000e+002 0.000000e+000 -4.156922e+002
         vertex 2.179155e+002 0.000000e+000 -4.276831e+002
      endloop
   endfacet
   facet normal 4.694700e-001 0.000000e+000 -8.829485e-001
      outer loop
         vertex 2.400000e+002 1.000000e+001 -4.156922e+002
         vertex 2.179155e+002 0.000000e+000 -4.276831e+002
         vertex 2.179155e+002 1.000000e+001 -4.276831e+002
      endloop
   endfacet
   facet normal 4.383727e-001 0.000000e+000 -8.987933e-001
      outer loop
         vertex 2.179155e+002 1.000000e+001 -4.276831e+002
         vertex 2.179155e+002 0.000000e+000 -4.276831e+002
         vertex 1.952336e+002 0.000000e+000 -4.385018e+002
      endloop
   endfacet
   facet normal 4.226167e-001 0.000000e+000 -9.063085e-001
      outer loop
         vertex 2.179155e+002 1.000000e+001 -4.276831e+002
         vertex 1.952336e+002 0.000000e+000 -4.385018e+002
         vertex 1.952336e+002 1.000000e+001 -4.385018e+002
      endloop
   endfacet
   facet normal 3.907328e-001 0.000000e+000 -9.205042e-001
      outer loop
         vertex 1.952336e+002 1.000000e+001 -4.385018e+002
         vertex 1.952336e+002 0.000000e+000 -4.385018e+002
         vertex 1.720166e+002 0.000000e+000 -4.481186e+002
      endloop
   endfacet
   facet normal 3.746050e-001 0.000000e+000 -9.271845e-001
      outer loop
         vertex 1.952336e+002 1.000000e+001 -4.385018e+002
         vertex 1.720166e+002 0.000000e+000 -4.481186e+002
         vertex 1.720166e+002 1.000000e+001 -4.481186e+002
      endloop
   endfacet
   facet normal 3.420218e-001 0.000000e+000 -9.396920e-001
      outer loop
         vertex 1.720166e+002 1.000000e+001 -4.481186e+002
         vertex 1.720166e+002 0.000000e+000 -4.481186e+002
         vertex 1.483282e+002 0.000000e+000 -4.565071e+002
      endloop
   endfacet
   facet normal 3.255665e-001 0.000000e+000 -9.455192e-001
      outer loop
         vertex 1.720166e+002 1.000000e+001 -4.481186e+002
         vertex 1.483282e+002 0.000000e+000 -4.565071e+002
         vertex 1.483282e+002 1.000000e+001 -4.565071e+002
      endloop
   endfacet
   facet normal 2.923734e-001 0.000000e+000 -9.563043e-001
      outer loop
         vertex 1.483282e+002 1.000000e+001 -4.565071e+002
         vertex 1.483282e+002 0.000000e+000 -4.565071e+002
         vertex 1.242331e+002 0.000000e+000 -4.636444e+002
      endloop
   endfacet
   facet normal 2.756356e-001 0.000000e+000 -9.612622e-001
      outer loop
         vertex 1.483282e+002 1.000000e+001 -4.565071e+002
         vertex 1.242331e+002 0.000000e+000 -4.636444e+002
         vertex 1.242331e+002 1.000000e+001 -4.636444e+002
      endloop
   endfacet
   facet normal 2.419236e-001 0.000000e+000 -9.702953e-001
      outer loop
         vertex 1.242331e+002 1.000000e+001 -4.636444e+002
         vertex 1.242331e+002 0.000000e+000 -4.636444e+002
         vertex 9.979762e+001 0.000000e+000 -4.695109e+002
      endloop
   endfacet
   facet normal 2.249493e-001 0.000000e+000 -9.743705e-001
      outer loop
         vertex 1.242331e+002 1.000000e+001 -4.636444e+002
         vertex 9.979762e+001 0.000000e+000 -4.695109e+002
         vertex 9.979762e+001 1.000000e+001 -4.695109e+002
      endloop
   endfacet
   facet normal 1.908107e-001 0.000000e+000 -9.816269e-001
      outer loop
         vertex 9.979762e+001 1.000000e+001 -4.695109e+002
         vertex 9.979762e+001 0.000000e+000 -4.695109e+002
         vertex 7.508855e+001 0.000000e+000 -4.740904e+002
      endloop
   endfacet
   facet normal 1.736464e-001 0.000000e+000 -9.848080e-001
      outer loop
         vertex 9.979762e+001 1.000000e+001 -4.695109e+002
         vertex 7.508855e+001 0.000000e+000 -4.740904e+002
         vertex 7.508855e+001 1.000000e+001 -4.740904e+002
      endloop
   endfacet
   facet normal 1.391748e-001 0.000000e+000 -9.902678e-001
      outer loop
         vertex 7.508855e+001 1.000000e+001 -4.740904e+002
         vertex 7.508855e+001 0.000000e+000 -4.740904e+002
         vertex 5.017366e+001 0.000000e+000 -4.773705e+002
      endloop
   endfacet
   facet normal 1.218676e-001 0.000000e+000 -9.925464e-001
      outer loop
         vertex 7.508855e+001 1.000000e+001 -4.740904e+002
         vertex 5.017366e+001 0.000000e+000 -4.773705e+002
         vertex 5.017366e+001 1.000000e+001 -4.773705e+002
      endloop
   endfacet
   facet normal 8.715752e-002 0.000000e+000 -9.961946e-001
      outer loop
         vertex 5.017366e+001 1.000000e+001 -4.773705e+002
         vertex 5.017366e+001 0.000000e+000 -4.773705e+002
         vertex 2.512126e+001 0.000000e+000 -4.793422e+002
      endloop
   endfacet
   facet normal 6.975471e-002 0.000000e+000 -9.975642e-001
      outer loop
         vertex 5.017366e+001 1.000000e+001 -4.773705e+002
         vertex 2.512126e+001 0.000000e+000 -4.793422e+002
         vertex 2.512126e+001 1.000000e+001 -4.793422e+002
      endloop
   endfacet
   facet normal 3.490127e-002 0.000000e+000 -9.993908e-001
      outer loop
         vertex 2.512126e+001 1.000000e+001 -4.793422e+002
         vertex 2.512126e+001 0.000000e+000 -4.793422e+002
         vertex 0.000000e+000 0.000000e+000 -4.800000e+002
      endloop
   endfacet
   facet normal 1.745063e-002 0.000000e+000 -9.998477e-001
      outer loop
         vertex 2.512126e+001 1.000000e+001 -4.793422e+002
         vertex 0.000000e+000 0.000000e+000 -4.800000e+002
         vertex 0.000000e+000 1.000000e+001 -4.800000e+002
      endloop
   endfacet
   facet normal -1.000000e+000 0.000000e+000 0.000000e+000
      outer loop
         vertex 0.000000e+000 1.000000e+001 -4.500000e+002
         vertex 0.000000e+000 1.000000e+001 -4.800000e+002
         vertex 0.000000e+000 0.000000e+000 -4.500000e+002
      endloop
   endfacet
   facet normal -1.000000e+000 0.000000e+000 0.000000e+000
      outer loop
         vertex 0.000000e+000 0.000000e+000 -4.500000e+002
         vertex 0.000000e+000 1.000000e+001 -4.800000e+002
         vertex 0.000000e+000 0.000000e+000 -4.800000e+002
      endloop
   endfacet
   facet normal -1.869668e-002 0.000000e+000 9.998252e-001
      outer loop
         vertex 0.000000e+000 1.000000e+001 -4.500000e+002
         vertex 0.000000e+000 0.000000e+000 -4.500000e+002
         vertex 2.523170e+001 1.000000e+001 -4.492921e+002
      endloop
   endfacet
   facet normal -3.739337e-002 0.000000e+000 9.993007e-001
      outer loop
         vertex 2.523170e+001 1.000000e+001 -4.492921e+002
         vertex 0.000000e+000 0.000000e+000 -4.500000e+002
         vertex 2.523170e+001 0.000000e+000 -4.492921e+002
      endloop
   endfacet
   facet normal -7.472792e-002 0.000000e+000 9.972040e-001
      outer loop
         vertex 2.523170e+001 1.000000e+001 -4.492921e+002
         vertex 2.523170e+001 0.000000e+000 -4.492921e+002
         vertex 5.038401e+001 1.000000e+001 -4.471705e+002
      endloop
   endfacet
   facet normal -9.336577e-002 0.000000e+000 9.956319e-001
      outer loop
         vertex 5.038401e+001 1.000000e+001 -4.471705e+002
         vertex 2.523170e+001 0.000000e+000 -4.492921e+002
         vertex 5.038401e+001 0.000000e+000 -4.471705e+002
      endloop
   endfacet
   facet normal -1.305240e-001 0.000000e+000 9.914452e-001
      outer loop
         vertex 5.038401e+001 1.000000e+001 -4.471705e+002
         vertex 5.038401e+001 0.000000e+000 -4.471705e+002
         vertex 7.537780e+001 1.000000e+001 -4.436420e+002
      endloop
   endfacet
   facet normal -1.490444e-001 0.000000e+000 9.888305e-001
      outer loop
         vertex 7.537780e+001 1.000000e+001 -4.436420e+002
         vertex 5.038401e+001 0.000000e+000 -4.471705e+002
         vertex 7.537780e+001 0.000000e+000 -4.436420e+002
      endloop
   endfacet
   facet normal -1.859095e-001 0.000000e+000 9.825669e-001
      outer loop
         vertex 7.537780e+001 1.000000e+001 -4.436420e+002
         vertex 7.537780e+001 0.000000e+000 -4.436420e+002
         vertex 1.001344e+002 1.000000e+001 -4.387176e+002
      endloop
   endfacet
   facet normal -2.042541e-001 0.000000e+000 9.789179e-001
      outer loop
         vertex 1.001344e+002 1.000000e+001 -4.387176e+002
         vertex 7.537780e+001 0.000000e+000 -4.436420e+002
         vertex 1.001344e+002 0.000000e+000 -4.387176e+002
      endloop
   endfacet
   facet normal -2.407100e-001 0.000000e+000 9.705971e-001
      outer loop
         vertex 1.001344e+002 1.000000e+001 -4.387176e+002
         vertex 1.001344e+002 0.000000e+000 -4.387176e+002
         vertex 1.245760e+002 1.000000e+001 -4.324128e+002
      endloop
   endfacet
   facet normal -2.588212e-001 0.000000e+000 9.659253e-001
      outer loop
         vertex 1.245760e+002 1.000000e+001 -4.324128e+002
         vertex 1.001344e+002 0.000000e+000 -4.387176e+002
         vertex 1.245760e+002 0.000000e+000 -4.324128e+002
      endloop
   endfacet
   facet normal -2.947531e-001 0.000000e+000 9.555734e-001
      outer loop
         vertex 1.245760e+002 1.000000e+001 -4.324128e+002
         vertex 1.245760e+002 0.000000e+000 -4.324128e+002
         vertex 1.486256e+002 1.000000e+001 -4.247475e+002
      endloop
   endfacet
   facet normal -3.125738e-001 0.000000e+000 9.498935e-001
      outer loop
         vertex 1.486256e+002 1.000000e+001 -4.247475e+002
         vertex 1.245760e+002 0.000000e+000 -4.324128e+002
         vertex 1.486256e+002 0.000000e+000 -4.247475e+002
      endloop
   endfacet
   facet normal -3.478688e-001 0.000000e+000 9.375433e-001
      outer loop
         vertex 1.486256e+002 1.000000e+001 -4.247475e+002
         vertex 1.486256e+002 0.000000e+000 -4.247475e+002
         vertex 1.722076e+002 1.000000e+001 -4.157458e+002
      endloop
   endfacet
   facet normal -3.653431e-001 0.000000e+000 9.308729e-001
      outer loop
         vertex 1.722076e+002 1.000000e+001 -4.157458e+002
         vertex 1.486256e+002 0.000000e+000 -4.247475e+002
         vertex 1.722076e+002 0.000000e+000 -4.157458e+002
      endloop
   endfacet
   facet normal -3.998900e-001 0.000000e+000 9.165631e-001
      outer loop
         vertex 1.722076e+002 1.000000e+001 -4.157458e+002
         vertex 1.722076e+002 0.000000e+000 -4.157458e+002
         vertex 1.952477e+002 1.000000e+001 -4.054360e+002
      endloop
   endfacet
   facet normal -4.169627e-001 0.000000e+000 9.089236e-001
      outer loop
         vertex 1.952477e+002 1.000000e+001 -4.054360e+002
         vertex 1.722076e+002 0.000000e+000 -4.157458e+002
         vertex 1.952477e+002 0.000000e+000 -4.054360e+002
      endloop
   endfacet
   facet normal -4.506530e-001 0.000000e+000 8.926992e-001
      outer loop
         vertex 1.952477e+002 1.000000e+001 -4.054360e+002
         vertex 1.952477e+002 0.000000e+000 -4.054360e+002
         vertex 2.176735e+002 1.000000e+001 -3.938505e+002
      endloop
   endfacet
   facet normal -4.672706e-001 0.000000e+000 8.841144e-001
      outer loop
         vertex 2.176735e+002 1.000000e+001 -3.938505e+002
         vertex 1.952477e+002 0.000000e+000 -4.054360e+002
         vertex 2.176735e+002 0.000000e+000 -3.938505e+002
      endloop
   endfacet
   facet normal -4.999982e-001 0.000000e+000 8.660265e-001
      outer loop
         vertex 2.176735e+002 1.000000e+001 -3.938505e+002
         vertex 2.176735e+002 0.000000e+000 -3.938505e+002
         vertex 2.394144e+002 1.000000e+001 -3.810259e+002
      endloop
   endfacet
   facet normal -5.161082e-001 0.000000e+000 8.565235e-001
      outer loop
         vertex 2.394144e+002 1.000000e+001 -3.810259e+002
         vertex 2.176735e+002 0.000000e+000 -3.938505e+002
         vertex 2.394144e+002 0.000000e+000 -3.810259e+002
      endloop
   endfacet
   facet normal -5.477700e-001 0.000000e+000 8.366290e-001
      outer loop
         vertex 2.394144e+002 1.000000e+001 -3.810259e+002
         vertex 2.394144e+002 0.000000e+000 -3.810259e+002
         vertex 2.604021e+002 1.000000e+001 -3.670024e+002
      endloop
   endfacet
   facet normal -5.633218e-001 0.000000e+000 8.262376e-001
      outer loop
         vertex 2.604021e+002 1.000000e+001 -3.670024e+002
         vertex 2.394144e+002 0.000000e+000 -3.810259e+002
         vertex 2.604021e+002 0.000000e+000 -3.670024e+002
      endloop
   endfacet
   facet normal -5.938184e-001 0.000000e+000 8.045991e-001
      outer loop
         vertex 2.604021e+002 1.000000e+001 -3.670024e+002
         vertex 2.604021e+002 0.000000e+000 -3.670024e+002
         vertex 2.805704e+002 1.000000e+001 -3.518242e+002
      endloop
   endfacet
   facet normal -6.087632e-001 0.000000e+000 7.933520e-001
      outer loop
         vertex 2.805704e+002 1.000000e+001 -3.518242e+002
         vertex 2.604021e+002 0.000000e+000 -3.670024e+002
         vertex 2.805704e+002 0.000000e+000 -3.518242e+002
      endloop
   endfacet
   facet normal -6.379984e-001 0.000000e+000 7.700377e-001
      outer loop
         vertex 2.805704e+002 1.000000e+001 -3.518242e+002
         vertex 2.805704e+002 0.000000e+000 -3.518242e+002
         vertex 2.998560e+002 1.000000e+001 -3.355390e+002
      endloop
   endfacet
   facet normal -6.522890e-001 0.000000e+000 7.579703e-001
      outer loop
         vertex 2.998560e+002 1.000000e+001 -3.355390e+002
         vertex 2.805704e+002 0.000000e+000 -3.518242e+002
         vertex 2.998560e+002 0.000000e+000 -3.355390e+002
      endloop
   endfacet
   facet normal -6.801711e-001 0.000000e+000 7.330534e-001
      outer loop
         vertex 2.998560e+002 1.000000e+001 -3.355390e+002
         vertex 2.998560e+002 0.000000e+000 -3.355390e+002
         vertex 3.181981e+002 1.000000e+001 -3.181981e+002
      endloop
   endfacet
   facet normal -6.937627e-001 0.000000e+000 7.202038e-001
      outer loop
         vertex 3.181981e+002 1.000000e+001 -3.181981e+002
         vertex 2.998560e+002 0.000000e+000 -3.355390e+002
         vertex 3.181981e+002 0.000000e+000 -3.181981e+002
      endloop
   endfacet
   facet normal 7.071068e-001 0.000000e+000 7.071068e-001
      outer loop
         vertex 3.394113e+002 1.000000e+001 -3.394113e+002
         vertex 3.181981e+002 1.000000e+001 -3.181981e+002
         vertex 3.394113e+002 0.000000e+000 -3.394113e+002
      endloop
   endfacet
   facet normal 7.071068e-001 0.000000e+000 7.071068e-001
      outer loop
         vertex 3.394113e+002 0.000000e+000 -3.394113e+002
         vertex 3.181981e+002 1.000000e+001 -3.181981e+002
         vertex 3.181981e+002 0.000000e+000 -3.181981e+002
      endloop
   endfacet
   facet normal 0.000000e+000 1.000000e+000 0.000000e+000
      outer loop
         vertex 3.181981e+002 1.000000e+001 -3.181981e+002
         vertex 3.394113e+002 1.000000e+001 -3.394113e+002
         vertex 2.998560e+002 1.000000e+001 -3.355390e+002
      endloop
   endfacet
   facet normal 0.000000e+000 1.000000e+000 0.000000e+000
      outer loop
         vertex 2.998560e+002 1.000000e+001 -3.355390e+002
         vertex 3.394113e+002 1.000000e+001 -3.394113e+002
         vertex 3.211827e+002 1.000000e+001 -3.567095e+002
      endloop
   endfacet
   facet normal 0.000000e+000 1.000000e+000 0.000000e+000
      outer loop
         vertex 2.998560e+002 1.000000e+001 -3.355390e+002
         vertex 3.211827e+002 1.000000e+001 -3.567095e+002
         vertex 2.805704e+002 1.000000e+001 -3.518242e+002
      endloop
   endfacet
   facet normal 0.000000e+000 1.000000e+000 0.000000e+000
      outer loop
         vertex 2.805704e+002 1.000000e+001 -3.518242e+002
         vertex 3.211827e+002 1.000000e+001 -3.567095e+002
         vertex 3.020738e+002 1.000000e+001 -3.730301e+002
      endloop
   endfacet
   facet normal 0.000000e+000 1.000000e+000 0.000000e+000
      outer loop
         vertex 2.805704e+002 1.000000e+001 -3.518242e+002
         vertex 3.020738e+002 1.000000e+001 -3.730301e+002
         vertex 2.604021e+002 1.000000e+001 -3.670024e+002
      endloop
   endfacet
   facet normal 0.000000e+000 1.000000e+000 0.000000e+000
      outer loop
         vertex 2.604021e+002 1.000000e+001 -3.670024e+002
         vertex 3.020738e+002 1.000000e+001 -3.730301e+002
         vertex 2.821369e+002 1.000000e+001 -3.883282e+002
      endloop
   endfacet
   facet normal 0.000000e+000 1.000000e+000 0.000000e+000
      outer loop
         vertex 2.604021e+002 1.000000e+001 -3.670024e+002
         vertex 2.821369e+002 1.000000e+001 -3.883282e+002
         vertex 2.394144e+002 1.000000e+001 -3.810259e+002
      endloop
   endfacet
   facet normal 0.000000e+000 1.000000e+000 0.000000e+000
      outer loop
         vertex 2.394144e+002 1.000000e+001 -3.810259e+002
         vertex 2.821369e+002 1.000000e+001 -3.883282e+002
         vertex 2.614268e+002 1.000000e+001 -4.025619e+002
      endloop
   endfacet
   facet normal 0.000000e+000 1.000000e+000 0.000000e+000
      outer loop
         vertex 2.394144e+002 1.000000e+001 -3.810259e+002
         vertex 2.614268e+002 1.000000e+001 -4.025619e+002
         vertex 2.176735e+002 1.000000e+001 -3.938505e+002
      endloop
   endfacet
   facet normal 0.000000e+000 1.000000e+000 0.000000e+000
      outer loop
         vertex 2.176735e+002 1.000000e+001 -3.938505e+002
         vertex 2.614268e+002 1.000000e+001 -4.025619e+002
         vertex 2.400000e+002 1.000000e+001 -4.156922e+002
      endloop
   endfacet
   facet normal 0.000000e+000 1.000000e+000 0.000000e+000
      outer loop
         vertex 2.176735e+002 1.000000e+001 -3.938505e+002
         vertex 2.400000e+002 1.000000e+001 -4.156922e+002
         vertex 1.952477e+002 1.000000e+001 -4.054360e+002
      endloop
   endfacet
   facet normal 0.000000e+000 1.000000e+000 0.000000e+000
      outer loop
         vertex 2.400000e+002 1.000000e+001 -4.156922e+002
         vertex 2.179155e+002 1.000000e+001 -4.276831e+002
         vertex 1.952477e+002 1.000000e+001 -4.054360e+002
      endloop
   endfacet
   facet normal 0.000000e+000 1.000000e+000 0.000000e+000
      outer loop
         vertex 1.952477e+002 1.000000e+001 -4.054360e+002
         vertex 2.179155e+002 1.000000e+001 -4.276831e+002
         vertex 1.952336e+002 1.000000e+001 -4.385018e+002
      endloop
   endfacet
   facet normal 0.000000e+000 1.000000e+000 0.000000e+000
      outer loop
         vertex 1.952477e+002 1.000000e+001 -4.054360e+002
         vertex 1.952336e+002 1.000000e+001 -4.385018e+002
         vertex 1.722076e+002 1.000000e+001 -4.157458e+002
      endloop
   endfacet
   facet normal 0.000000e+000 1.000000e+000 0.000000e+000
      outer loop
         vertex 1.722076e+002 1.000000e+001 -4.157458e+002
         vertex 1.952336e+002 1.000000e+001 -4.385018e+002
         vertex 1.720166e+002 1.000000e+001 -4.481186e+002
      endloop
   endfacet
   facet normal 0.000000e+000 1.000000e+000 0.000000e+000
      outer loop
         vertex 1.722076e+002 1.000000e+001 -4.157458e+002
         vertex 1.720166e+002 1.000000e+001 -4.481186e+002
         vertex 1.486256e+002 1.000000e+001 -4.247475e+002
      endloop
   endfacet
   facet normal 0.000000e+000 1.000000e+000 0.000000e+000
      outer loop
         vertex 1.486256e+002 1.000000e+001 -4.247475e+002
         vertex 1.720166e+002 1.000000e+001 -4.481186e+002
         vertex 1.483282e+002 1.000000e+001 -4.565071e+002
      endloop
   endfacet
   facet normal 0.000000e+000 1.000000e+000 0.000000e+000
      outer loop
         vertex 1.486256e+002 1.000000e+001 -4.247475e+002
         vertex 1.483282e+002 1.000000e+001 -4.565071e+002
         vertex 1.245760e+002 1.000000e+001 -4.324128e+002
      endloop
   endfacet
   facet normal 0.000000e+000 1.000000e+000 0.000000e+000
      outer loop
         vertex 1.245760e+002 1.000000e+001 -4.324128e+002
         vertex 1.483282e+002 1.000000e+001 -4.565071e+002
         vertex 1.242331e+002 1.000000e+001 -4.636444e+002
      endloop
   endfacet
   facet normal 0.000000e+000 1.000000e+000 0.000000e+000
      outer loop
         vertex 1.245760e+002 1.000000e+001 -4.324128e+002
         vertex 1.242331e+002 1.000000e+001 -4.636444e+002
         vertex 1.001344e+002 1.000000e+001 -4.387176e+002
      endloop
   endfacet
   facet normal 0.000000e+000 1.000000e+000 0.000000e+000
      outer loop
         vertex 1.001344e+002 1.000000e+001 -4.387176e+002
         vertex 1.242331e+002 1.000000e+001 -4.636444e+002
         vertex 9.979762e+001 1.000000e+001 -4.695109e+002
      endloop
   endfacet
   facet normal 0.000000e+000 1.000000e+000 0.000000e+000
      outer loop
         vertex 1.001344e+002 1.000000e+001 -4.387176e+002
         vertex 9.979762e+001 1.000000e+001 -4.695109e+002
         vertex 7.537780e+001 1.000000e+001 -4.436420e+002
      endloop
   endfacet
   facet normal 0.000000e+000 1.000000e+000 0.000000e+000
      outer loop
         vertex 7.537780e+001 1.000000e+001 -4.436420e+002
         vertex 9.979762e+001 1.000000e+001 -4.695109e+002
         vertex 7.508855e+001 1.000000e+001 -4.740904e+002
      endloop
   endfacet
   facet normal 0.000000e+000 1.000000e+000 0.000000e+000
      outer loop
         vertex 7.537780e+001 1.000000e+001 -4.436420e+002
         vertex 7.508855e+001 1.000000e+001 -4.740904e+002
         vertex 5.038401e+001 1.000000e+001 -4.471705e+002
      endloop
   endfacet
   facet normal 0.000000e+000 1.000000e+000 0.000000e+000
      outer loop
         vertex 5.038401e+001 1.000000e+001 -4.471705e+002
         vertex 7.508855e+001 1.000000e+001 -4.740904e+002
         vertex 5.017366e+001 1.000000e+001 -4.773705e+002
      endloop
   endfacet
   facet normal 0.000000e+000 1.000000e+000 0.000000e+000
      outer loop
         vertex 5.038401e+001 1.000000e+001 -4.471705e+002
         vertex 5.017366e+001 1.000000e+001 -4.773705e+002
         vertex 2.523170e+001 1.000000e+001 -4.492921e+002
      endloop
   endfacet
   facet normal 0.000000e+000 1.000000e+000 0.000000e+000
      outer loop
         vertex 2.523170e+001 1.000000e+001 -4.492921e+002
         vertex 5.017366e+001 1.000000e+001 -4.773705e+002
         vertex 2.512126e+001 1.000000e+001 -4.793422e+002
      endloop
   endfacet
   facet normal 0.000000e+000 1.000000e+000 0.000000e+000
      outer loop
         vertex 2.523170e+001 1.000000e+001 -4.492921e+002
         vertex 2.512126e+001 1.000000e+001 -4.793422e+002
         vertex 0.000000e+000 1.000000e+001 -4.500000e+002
      endloop
   endfacet
   facet normal 0.000000e+000 1.000000e+000 0.000000e+000
      outer loop
         vertex 0.000000e+000 1.000000e+001 -4.500000e+002
         vertex 2.512126e+001 1.000000e+001 -4.793422e+002
         vertex 0.000000e+000 1.000000e+001 -4.800000e+002
      endloop
   endfacet
   facet normal 0.000000e+000 -1.000000e+000 0.000000e+000
      outer loop
         vertex 1.486256e+002 0.000000e+000 -4.247475e+002
         vertex 1.720166e+002 0.000000e+000 -4.481186e+002
         vertex 1.722076e+002 0.000000e+000 -4.157458e+002
      endloop
   endfacet
   facet normal 0.000000e+000 -1.000000e+000 0.000000e+000
      outer loop
         vertex 1.722076e+002 0.000000e+000 -4.157458e+002
         vertex 1.720166e+002 0.000000e+000 -4.481186e+002
         vertex 1.952336e+002 0.000000e+000 -4.385018e+002
      endloop
   endfacet
   facet normal 0.000000e+000 -1.000000e+000 0.000000e+000
      outer loop
         vertex 1.722076e+002 0.000000e+000 -4.157458e+002
         vertex 1.952336e+002 0.000000e+000 -4.385018e+002
         vertex 1.952477e+002 0.000000e+000 -4.054360e+002
      endloop
   endfacet
   facet normal 0.000000e+000 -1.000000e+000 0.000000e+000
      outer loop
         vertex 1.952477e+002 0.000000e+000 -4.054360e+002
         vertex 1.952336e+002 0.000000e+000 -4.385018e+002
         vertex 2.179155e+002 0.000000e+000 -4.276831e+002
      endloop
   endfacet
   facet normal 0.000000e+000 -1.000000e+000 0.000000e+000
      outer loop
         vertex 1.952477e+002 0.000000e+000 -4.054360e+002
         vertex 2.179155e+002 0.000000e+000 -4.276831e+002
         vertex 2.176735e+002 0.000000e+000 -3.938505e+002
      endloop
   endfacet
   facet normal 0.000000e+000 -1.000000e+000 0.000000e+000
      outer loop
         vertex 2.176735e+002 0.000000e+000 -3.938505e+002
         vertex 2.179155e+002 0.000000e+000 -4.276831e+002
         vertex 2.400000e+002 0.000000e+000 -4.156922e+002
      endloop
   endfacet
   facet normal 0.000000e+000 -1.000000e+000 0.000000e+000
      outer loop
         vertex 2.176735e+002 0.000000e+000 -3.938505e+002
         vertex 2.400000e+002 0.000000e+000 -4.156922e+002
         vertex 2.394144e+002 0.000000e+000 -3.810259e+002
      endloop
   endfacet
   facet normal 0.000000e+000 -1.000000e+000 0.000000e+000
      outer loop
         vertex 2.394144e+002 0.000000e+000 -3.810259e+002
         vertex 2.400000e+002 0.000000e+000 -4.156922e+002
         vertex 2.614268e+002 0.000000e+000 -4.025619e+002
      endloop
   endfacet
   facet normal 0.000000e+000 -1.000000e+000 0.000000e+000
      outer loop
         vertex 2.394144e+002 0.000000e+000 -3.810259e+002
         vertex 2.614268e+002 0.000000e+000 -4.025619e+002
         vertex 2.604021e+002 0.000000e+000 -3.670024e+002
      endloop
   endfacet
   facet normal 0.000000e+000 -1.000000e+000 0.000000e+000
      outer loop
         vertex 2.604021e+002 0.000000e+000 -3.670024e+002
         vertex 2.614268e+002 0.000000e+000 -4.025619e+002
         vertex 2.821369e+002 0.000000e+000 -3.883282e+002
      endloop
   endfacet
   facet normal 0.000000e+000 -1.000000e+000 0.000000e+000
      outer loop
         vertex 2.604021e+002 0.000000e+000 -3.670024e+002
         vertex 2.821369e+002 0.000000e+000 -3.883282e+002
         vertex 2.805704e+002 0.000000e+000 -3.518242e+002
      endloop
   endfacet
   facet normal 0.000000e+000 -1.000000e+000 0.000000e+000
      outer loop
         vertex 2.805704e+002 0.000000e+000 -3.518242e+002
         vertex 2.821369e+002 0.000000e+000 -3.883282e+002
         vertex 3.020738e+002 0.000000e+000 -3.730301e+002
      endloop
   endfacet
   facet normal 0.000000e+000 -1.000000e+000 0.000000e+000
      outer loop
         vertex 2.805704e+002 0.000000e+000 -3.518242e+002
         vertex 3.020738e+002 0.000000e+000 -3.730301e+002
         vertex 2.998560e+002 0.000000e+000 -3.355390e+002
      endloop
   endfacet
   facet normal 0.000000e+000 -1.000000e+000 0.000000e+000
      outer loop
         vertex 2.998560e+002 0.000000e+000 -3.355390e+002
         vertex 3.020738e+002 0.000000e+000 -3.730301e+002
         vertex 3.211827e+002 0.000000e+000 -3.567095e+002
      endloop
   endfacet
   facet normal 0.000000e+000 -1.000000e+000 0.000000e+000
      outer loop
         vertex 2.998560e+002 0.000000e+000 -3.355390e+002
         vertex 3.211827e+002 0.000000e+000 -3.567095e+002
         vertex 3.181981e+002 0.000000e+000 -3.181981e+002
      endloop
   endfacet
   facet normal 0.000000e+000 -1.000000e+000 0.000000e+000
      outer loop
         vertex 3.181981e+002 0.000000e+000 -3.181981e+002
         vertex 3.211827e+002 0.000000e+000 -3.567095e+002
         vertex 3.394113e+002 0.000000e+000 -3.394113e+002
      endloop
   endfacet
   facet normal 0.000000e+000 -1.000000e+000 0.000000e+000
      outer loop
         vertex 0.000000e+000 0.000000e+000 -4.500000e+002
         vertex 0.000000e+000 0.000000e+000 -4.800000e+002
         vertex 2.523170e+001 0.000000e+000 -4.492921e+002
      endloop
   endfacet
   facet normal 0.000000e+000 -1.000000e+000 0.000000e+000
      outer loop
         vertex 2.523170e+001 0.000000e+000 -4.492921e+002
         vertex 0.000000e+000 0.000000e+000 -4.800000e+002
         vertex 2.512126e+001 0.000000e+000 -4.793422e+002
      endloop
   endfacet
   facet normal 0.000000e+000 -1.000000e+000 0.000000e+000
      outer loop
         vertex 2.523170e+001 0.000000e+000 -4.492921e+002
         vertex 2.512126e+001 0.000000e+000 -4.793422e+002
         vertex 5.038401e+001 0.000000e+000 -4.471705e+002
      endloop
   endfacet
   facet normal 0.000000e+000 -1.000000e+000 0.000000e+000
      outer loop
         vertex 5.038401e+001 0.000000e+000 -4.471705e+002
         vertex 2.512126e+001 0.000000e+000 -4.793422e+002
         vertex 5.017366e+001 0.000000e+000 -4.773705e+002
      endloop
   endfacet
   facet normal 0.000000e+000 -1.000000e+000 0.000000e+000
      outer loop
         vertex 5.038401e+001 0.000000e+000 -4.471705e+002
         vertex 5.017366e+001 0.000000e+000 -4.773705e+002
         vertex 7.537780e+001 0.000000e+000 -4.436420e+002
      endloop
   endfacet
   facet normal 0.000000e+000 -1.000000e+000 0.000000e+000
      outer loop
         vertex 7.537780e+001 0.000000e+000 -4.436420e+002
         vertex 5.017366e+001 0.000000e+000 -4.773705e+002
         vertex 7.508855e+001 0.000000e+000 -4.740904e+002
      endloop
   endfacet
   facet normal 0.000000e+000 -1.000000e+000 0.000000e+000
      outer loop
         vertex 7.537780e+001 0.000000e+000 -4.436420e+002
         vertex 7.508855e+001 0.000000e+000 -4.740904e+002
         vertex 1.001344e+002 0.000000e+000 -4.387176e+002
      endloop
   endfacet
   facet normal 0.000000e+000 -1.000000e+000 0.000000e+000
      outer loop
         vertex 1.001344e+002 0.000000e+000 -4.387176e+002
         vertex 7.508855e+001 0.000000e+000 -4.740904e+002
         vertex 9.979762e+001 0.000000e+000 -4.695109e+002
      endloop
   endfacet
   facet normal 0.000000e+000 -1.000000e+000 0.000000e+000
      outer loop
         vertex 1.001344e+002 0.000000e+000 -4.387176e+002
         vertex 9.979762e+001 0.000000e+000 -4.695109e+002
         vertex 1.245760e+002 0.000000e+000 -4.324128e+002
      endloop
   endfacet
   facet normal 0.000000e+000 -1.000000e+000 0.000000e+000
      outer loop
         vertex 1.245760e+002 0.000000e+000 -4.324128e+002
         vertex 9.979762e+001 0.000000e+000 -4.695109e+002
         vertex 1.242331e+002 0.000000e+000 -4.636444e+002
      endloop
   endfacet
   facet normal 0.000000e+000 -1.000000e+000 0.000000e+000
      outer loop
         vertex 1.245760e+002 0.000000e+000 -4.324128e+002
         vertex 1.242331e+002 0.000000e+000 -4.636444e+002
         vertex 1.486256e+002 0.000000e+000 -4.247475e+002
      endloop
   endfacet
   facet normal 0.000000e+000 -1.000000e+000 0.000000e+000
      outer loop
         vertex 1.486256e+002 0.000000e+000 -4.247475e+002
         vertex 1.242331e+002 0.000000e+000 -4.636444e+002
         vertex 1.483282e+002 0.000000e+000 -4.565071e+002
      endloop
   endfacet
   facet normal 0.000000e+000 -1.000000e+000 0.000000e+000
      outer loop
         vertex 1.486256e+002 0.000000e+000 -4.247475e+002
         vertex 1.483282e+002 0.000000e+000 -4.565071e+002
         vertex 1.720166e+002 0.000000e+000 -4.481186e+002
      endloop
   endfacet
endsolid