solid InnerGreyRightAngle_Default_sldprt
   facet normal 1.000000e+000 0.000000e+000 -1.982541e-016
      outer loop
         vertex 7.000000e+001 1.000000e+001 -7.000000e+001
         vertex 7.000000e+001 1.000000e+001 7.000000e+001
         vertex 7.000000e+001 0.000000e+000 -7.000000e+001
      endloop
   endfacet
   facet normal 1.000000e+000 0.000000e+000 -1.982541e-016
      outer loop
         vertex 7.000000e+001 0.000000e+000 -7.000000e+001
         vertex 7.000000e+001 1.000000e+001 7.000000e+001
         vertex 7.000000e+001 0.000000e+000 7.000000e+001
      endloop
   endfacet
   facet normal 0.000000e+000 0.000000e+000 -1.000000e+000
      outer loop
         vertex 6.000000e+001 1.000000e+001 -7.000000e+001
         vertex 7.000000e+001 1.000000e+001 -7.000000e+001
         vertex 6.000000e+001 0.000000e+000 -7.000000e+001
      endloop
   endfacet
   facet normal 0.000000e+000 0.000000e+000 -1.000000e+000
      outer loop
         vertex 6.000000e+001 0.000000e+000 -7.000000e+001
         vertex 7.000000e+001 1.000000e+001 -7.000000e+001
         vertex 7.000000e+001 0.000000e+000 -7.000000e+001
      endloop
   endfacet
   facet normal -1.000000e+000 0.000000e+000 5.337611e-017
      outer loop
         vertex 6.000000e+001 1.000000e+001 6.000000e+001
         vertex 6.000000e+001 1.000000e+001 -7.000000e+001
         vertex 6.000000e+001 0.000000e+000 6.000000e+001
      endloop
   endfacet
   facet normal -1.000000e+000 0.000000e+000 5.337611e-017
      outer loop
         vertex 6.000000e+001 0.000000e+000 6.000000e+001
         vertex 6.000000e+001 1.000000e+001 -7.000000e+001
         vertex 6.000000e+001 0.000000e+000 -7.000000e+001
      endloop
   endfacet
   facet normal -1.067522e-016 0.000000e+000 -1.000000e+000
      outer loop
         vertex -7.000000e+001 1.000000e+001 6.000000e+001
         vertex 6.000000e+001 1.000000e+001 6.000000e+001
         vertex -7.000000e+001 0.000000e+000 6.000000e+001
      endloop
   endfacet
   facet normal -1.067522e-016 0.000000e+000 -1.000000e+000
      outer loop
         vertex -7.000000e+001 0.000000e+000 6.000000e+001
         vertex 6.000000e+001 1.000000e+001 6.000000e+001
         vertex 6.000000e+001 0.000000e+000 6.000000e+001
      endloop
   endfacet
   facet normal -1.000000e+000 0.000000e+000 0.000000e+000
      outer loop
         vertex -7.000000e+001 1.000000e+001 7.000000e+001
         vertex -7.000000e+001 1.000000e+001 6.000000e+001
         vertex -7.000000e+001 0.000000e+000 7.000000e+001
      endloop
   endfacet
   facet normal -1.000000e+000 0.000000e+000 0.000000e+000
      outer loop
         vertex -7.000000e+001 0.000000e+000 7.000000e+001
         vertex -7.000000e+001 1.000000e+001 6.000000e+001
         vertex -7.000000e+001 0.000000e+000 6.000000e+001
      endloop
   endfacet
   facet normal 0.000000e+000 0.000000e+000 1.000000e+000
      outer loop
         vertex 7.000000e+001 1.000000e+001 7.000000e+001
         vertex -7.000000e+001 1.000000e+001 7.000000e+001
         vertex 7.000000e+001 0.000000e+000 7.000000e+001
      endloop
   endfacet
   facet normal 0.000000e+000 0.000000e+000 1.000000e+000
      outer loop
         vertex 7.000000e+001 0.000000e+000 7.000000e+001
         vertex -7.000000e+001 1.000000e+001 7.000000e+001
         vertex -7.000000e+001 0.000000e+000 7.000000e+001
      endloop
   endfacet
   facet normal 0.000000e+000 1.000000e+000 0.000000e+000
      outer loop
         vertex -7.000000e+001 1.000000e+001 6.000000e+001
         vertex -7.000000e+001 1.000000e+001 7.000000e+001
         vertex 6.000000e+001 1.000000e+001 6.000000e+001
      endloop
   endfacet
   facet normal 0.000000e+000 1.000000e+000 0.000000e+000
      outer loop
         vertex 6.000000e+001 1.000000e+001 6.000000e+001
         vertex -7.000000e+001 1.000000e+001 7.000000e+001
         vertex 7.000000e+001 1.000000e+001 7.000000e+001
      endloop
   endfacet
   facet normal 0.000000e+000 1.000000e+000 0.000000e+000
      outer loop
         vertex 6.000000e+001 1.000000e+001 6.000000e+001
         vertex 7.000000e+001 1.000000e+001 7.000000e+001
         vertex 6.000000e+001 1.000000e+001 -7.000000e+001
      endloop
   endfacet
   facet normal 0.000000e+000 1.000000e+000 0.000000e+000
      outer loop
         vertex 6.000000e+001 1.000000e+001 -7.000000e+001
         vertex 7.000000e+001 1.000000e+001 7.000000e+001
         vertex 7.000000e+001 1.000000e+001 -7.000000e+001
      endloop
   endfacet
   facet normal 0.000000e+000 -1.000000e+000 0.000000e+000
      outer loop
         vertex 6.000000e+001 0.000000e+000 -7.000000e+001
         vertex 7.000000e+001 0.000000e+000 -7.000000e+001
         vertex 6.000000e+001 0.000000e+000 6.000000e+001
      endloop
   endfacet
   facet normal 0.000000e+000 -1.000000e+000 0.000000e+000
      outer loop
         vertex 6.000000e+001 0.000000e+000 6.000000e+001
         vertex 7.000000e+001 0.000000e+000 -7.000000e+001
         vertex 7.000000e+001 0.000000e+000 7.000000e+001
      endloop
   endfacet
   facet normal 0.000000e+000 -1.000000e+000 0.000000e+000
      outer loop
         vertex 6.000000e+001 0.000000e+000 6.000000e+001
         vertex 7.000000e+001 0.000000e+000 7.000000e+001
         vertex -7.000000e+001 0.000000e+000 6.000000e+001
      endloop
   endfacet
   facet normal 0.000000e+000 -1.000000e+000 0.000000e+000
      outer loop
         vertex -7.000000e+001 0.000000e+000 6.000000e+001
         vertex 7.000000e+001 0.000000e+000 7.000000e+001
         vertex -7.000000e+001 0.000000e+000 7.000000e+001
      endloop
   endfacet
endsolid