solid InnerBlackCurve300_Default_sldprt
   facet normal 6.937627e-001 0.000000e+000 -7.202038e-001
      outer loop
         vertex 3.040559e+002 1.000000e+001 -3.040559e+002
         vertex 3.040559e+002 0.000000e+000 -3.040559e+002
         vertex 2.865290e+002 0.000000e+000 -3.206261e+002
      endloop
   endfacet
   facet normal 6.801711e-001 0.000000e+000 -7.330534e-001
      outer loop
         vertex 3.040559e+002 1.000000e+001 -3.040559e+002
         vertex 2.865290e+002 0.000000e+000 -3.206261e+002
         vertex 2.865290e+002 1.000000e+001 -3.206261e+002
      endloop
   endfacet
   facet normal 6.522890e-001 0.000000e+000 -7.579703e-001
      outer loop
         vertex 2.865290e+002 1.000000e+001 -3.206261e+002
         vertex 2.865290e+002 0.000000e+000 -3.206261e+002
         vertex 2.681006e+002 0.000000e+000 -3.361875e+002
      endloop
   endfacet
   facet normal 6.379985e-001 0.000000e+000 -7.700377e-001
      outer loop
         vertex 2.865290e+002 1.000000e+001 -3.206261e+002
         vertex 2.681006e+002 0.000000e+000 -3.361875e+002
         vertex 2.681006e+002 1.000000e+001 -3.361875e+002
      endloop
   endfacet
   facet normal 6.087632e-001 0.000000e+000 -7.933520e-001
      outer loop
         vertex 2.681006e+002 1.000000e+001 -3.361875e+002
         vertex 2.681006e+002 0.000000e+000 -3.361875e+002
         vertex 2.488287e+002 0.000000e+000 -3.506912e+002
      endloop
   endfacet
   facet normal 5.938184e-001 0.000000e+000 -8.045991e-001
      outer loop
         vertex 2.681006e+002 1.000000e+001 -3.361875e+002
         vertex 2.488287e+002 0.000000e+000 -3.506912e+002
         vertex 2.488287e+002 1.000000e+001 -3.506912e+002
      endloop
   endfacet
   facet normal 5.633218e-001 0.000000e+000 -8.262376e-001
      outer loop
         vertex 2.488287e+002 1.000000e+001 -3.506912e+002
         vertex 2.488287e+002 0.000000e+000 -3.506912e+002
         vertex 2.287738e+002 0.000000e+000 -3.640914e+002
      endloop
   endfacet
   facet normal 5.477700e-001 0.000000e+000 -8.366290e-001
      outer loop
         vertex 2.488287e+002 1.000000e+001 -3.506912e+002
         vertex 2.287738e+002 0.000000e+000 -3.640914e+002
         vertex 2.287738e+002 1.000000e+001 -3.640914e+002
      endloop
   endfacet
   facet normal 5.161082e-001 0.000000e+000 -8.565235e-001
      outer loop
         vertex 2.287738e+002 1.000000e+001 -3.640914e+002
         vertex 2.287738e+002 0.000000e+000 -3.640914e+002
         vertex 2.079991e+002 0.000000e+000 -3.763461e+002
      endloop
   endfacet
   facet normal 4.999982e-001 0.000000e+000 -8.660265e-001
      outer loop
         vertex 2.287738e+002 1.000000e+001 -3.640914e+002
         vertex 2.079991e+002 0.000000e+000 -3.763461e+002
         vertex 2.079991e+002 1.000000e+001 -3.763461e+002
      endloop
   endfacet
   facet normal 4.672706e-001 0.000000e+000 -8.841144e-001
      outer loop
         vertex 2.079991e+002 1.000000e+001 -3.763461e+002
         vertex 2.079991e+002 0.000000e+000 -3.763461e+002
         vertex 1.865700e+002 0.000000e+000 -3.874166e+002
      endloop
   endfacet
   facet normal 4.506531e-001 0.000000e+000 -8.926991e-001
      outer loop
         vertex 2.079991e+002 1.000000e+001 -3.763461e+002
         vertex 1.865700e+002 0.000000e+000 -3.874166e+002
         vertex 1.865700e+002 1.000000e+001 -3.874166e+002
      endloop
   endfacet
   facet normal 4.169627e-001 0.000000e+000 -9.089236e-001
      outer loop
         vertex 1.865700e+002 1.000000e+001 -3.874166e+002
         vertex 1.865700e+002 0.000000e+000 -3.874166e+002
         vertex 1.645539e+002 0.000000e+000 -3.972682e+002
      endloop
   endfacet
   facet normal 3.998900e-001 0.000000e+000 -9.165631e-001
      outer loop
         vertex 1.865700e+002 1.000000e+001 -3.874166e+002
         vertex 1.645539e+002 0.000000e+000 -3.972682e+002
         vertex 1.645539e+002 1.000000e+001 -3.972682e+002
      endloop
   endfacet
   facet normal 3.653431e-001 0.000000e+000 -9.308730e-001
      outer loop
         vertex 1.645539e+002 1.000000e+001 -3.972682e+002
         vertex 1.645539e+002 0.000000e+000 -3.972682e+002
         vertex 1.420200e+002 0.000000e+000 -4.058698e+002
      endloop
   endfacet
   facet normal 3.478688e-001 0.000000e+000 -9.375433e-001
      outer loop
         vertex 1.645539e+002 1.000000e+001 -3.972682e+002
         vertex 1.420200e+002 0.000000e+000 -4.058698e+002
         vertex 1.420200e+002 1.000000e+001 -4.058698e+002
      endloop
   endfacet
   facet normal 3.125738e-001 0.000000e+000 -9.498935e-001
      outer loop
         vertex 1.420200e+002 1.000000e+001 -4.058698e+002
         vertex 1.420200e+002 0.000000e+000 -4.058698e+002
         vertex 1.190393e+002 0.000000e+000 -4.131945e+002
      endloop
   endfacet
   facet normal 2.947531e-001 0.000000e+000 -9.555734e-001
      outer loop
         vertex 1.420200e+002 1.000000e+001 -4.058698e+002
         vertex 1.190393e+002 0.000000e+000 -4.131945e+002
         vertex 1.190393e+002 1.000000e+001 -4.131945e+002
      endloop
   endfacet
   facet normal 2.588212e-001 0.000000e+000 -9.659253e-001
      outer loop
         vertex 1.190393e+002 1.000000e+001 -4.131945e+002
         vertex 1.190393e+002 0.000000e+000 -4.131945e+002
         vertex 9.568400e+001 0.000000e+000 -4.192190e+002
      endloop
   endfacet
   facet normal 2.407100e-001 0.000000e+000 -9.705971e-001
      outer loop
         vertex 1.190393e+002 1.000000e+001 -4.131945e+002
         vertex 9.568400e+001 0.000000e+000 -4.192190e+002
         vertex 9.568400e+001 1.000000e+001 -4.192190e+002
      endloop
   endfacet
   facet normal 2.042541e-001 0.000000e+000 -9.789179e-001
      outer loop
         vertex 9.568400e+001 1.000000e+001 -4.192190e+002
         vertex 9.568400e+001 0.000000e+000 -4.192190e+002
         vertex 7.202768e+001 0.000000e+000 -4.239245e+002
      endloop
   endfacet
   facet normal 1.859095e-001 0.000000e+000 -9.825669e-001
      outer loop
         vertex 9.568400e+001 1.000000e+001 -4.192190e+002
         vertex 7.202768e+001 0.000000e+000 -4.239245e+002
         vertex 7.202768e+001 1.000000e+001 -4.239245e+002
      endloop
   endfacet
   facet normal 1.490444e-001 0.000000e+000 -9.888305e-001
      outer loop
         vertex 7.202768e+001 1.000000e+001 -4.239245e+002
         vertex 7.202768e+001 0.000000e+000 -4.239245e+002
         vertex 4.814473e+001 0.000000e+000 -4.272963e+002
      endloop
   endfacet
   facet normal 1.305240e-001 0.000000e+000 -9.914452e-001
      outer loop
         vertex 7.202768e+001 1.000000e+001 -4.239245e+002
         vertex 4.814473e+001 0.000000e+000 -4.272963e+002
         vertex 4.814473e+001 1.000000e+001 -4.272963e+002
      endloop
   endfacet
   facet normal 9.336577e-002 0.000000e+000 -9.956319e-001
      outer loop
         vertex 4.814473e+001 1.000000e+001 -4.272963e+002
         vertex 4.814473e+001 0.000000e+000 -4.272963e+002
         vertex 2.411029e+001 0.000000e+000 -4.293235e+002
      endloop
   endfacet
   facet normal 7.472792e-002 0.000000e+000 -9.972040e-001
      outer loop
         vertex 4.814473e+001 1.000000e+001 -4.272963e+002
         vertex 2.411029e+001 0.000000e+000 -4.293235e+002
         vertex 2.411029e+001 1.000000e+001 -4.293235e+002
      endloop
   endfacet
   facet normal 3.739337e-002 0.000000e+000 -9.993007e-001
      outer loop
         vertex 2.411029e+001 1.000000e+001 -4.293235e+002
         vertex 2.411029e+001 0.000000e+000 -4.293235e+002
         vertex 0.000000e+000 0.000000e+000 -4.300000e+002
      endloop
   endfacet
   facet normal 1.869668e-002 0.000000e+000 -9.998252e-001
      outer loop
         vertex 2.411029e+001 1.000000e+001 -4.293235e+002
         vertex 0.000000e+000 0.000000e+000 -4.300000e+002
         vertex 0.000000e+000 1.000000e+001 -4.300000e+002
      endloop
   endfacet
   facet normal -1.000000e+000 0.000000e+000 0.000000e+000
      outer loop
         vertex 0.000000e+000 1.000000e+001 -3.300000e+002
         vertex 0.000000e+000 1.000000e+001 -4.300000e+002
         vertex 0.000000e+000 0.000000e+000 -3.300000e+002
      endloop
   endfacet
   facet normal -1.000000e+000 0.000000e+000 0.000000e+000
      outer loop
         vertex 0.000000e+000 0.000000e+000 -3.300000e+002
         vertex 0.000000e+000 1.000000e+001 -4.300000e+002
         vertex 0.000000e+000 0.000000e+000 -4.300000e+002
      endloop
   endfacet
   facet normal -2.013433e-002 0.000000e+000 9.997973e-001
      outer loop
         vertex 0.000000e+000 1.000000e+001 -3.300000e+002
         vertex 0.000000e+000 0.000000e+000 -3.300000e+002
         vertex 1.992490e+001 1.000000e+001 -3.293979e+002
      endloop
   endfacet
   facet normal -4.026866e-002 0.000000e+000 9.991888e-001
      outer loop
         vertex 1.992490e+001 1.000000e+001 -3.293979e+002
         vertex 0.000000e+000 0.000000e+000 -3.300000e+002
         vertex 1.992490e+001 0.000000e+000 -3.293979e+002
      endloop
   endfacet
   facet normal -8.046385e-002 0.000000e+000 9.967575e-001
      outer loop
         vertex 1.992490e+001 1.000000e+001 -3.293979e+002
         vertex 1.992490e+001 0.000000e+000 -3.293979e+002
         vertex 3.977710e+001 1.000000e+001 -3.275939e+002
      endloop
   endfacet
   facet normal -1.005247e-001 0.000000e+000 9.949346e-001
      outer loop
         vertex 3.977710e+001 1.000000e+001 -3.275939e+002
         vertex 1.992490e+001 0.000000e+000 -3.293979e+002
         vertex 3.977710e+001 0.000000e+000 -3.275939e+002
      endloop
   endfacet
   facet normal -1.404998e-001 0.000000e+000 9.900807e-001
      outer loop
         vertex 3.977710e+001 1.000000e+001 -3.275939e+002
         vertex 3.977710e+001 0.000000e+000 -3.275939e+002
         vertex 5.948416e+001 1.000000e+001 -3.245945e+002
      endloop
   endfacet
   facet normal -1.604140e-001 0.000000e+000 9.870498e-001
      outer loop
         vertex 5.948416e+001 1.000000e+001 -3.245945e+002
         vertex 3.977710e+001 0.000000e+000 -3.275939e+002
         vertex 5.948416e+001 0.000000e+000 -3.245945e+002
      endloop
   endfacet
   facet normal -2.000230e-001 0.000000e+000 9.797912e-001
      outer loop
         vertex 5.948416e+001 1.000000e+001 -3.245945e+002
         vertex 5.948416e+001 0.000000e+000 -3.245945e+002
         vertex 7.897417e+001 1.000000e+001 -3.204108e+002
      endloop
   endfacet
   facet normal -2.197179e-001 0.000000e+000 9.755635e-001
      outer loop
         vertex 7.897417e+001 1.000000e+001 -3.204108e+002
         vertex 5.948416e+001 0.000000e+000 -3.245945e+002
         vertex 7.897417e+001 0.000000e+000 -3.204108e+002
      endloop
   endfacet
   facet normal -2.588164e-001 0.000000e+000 9.659265e-001
      outer loop
         vertex 7.897417e+001 1.000000e+001 -3.204108e+002
         vertex 7.897417e+001 0.000000e+000 -3.204108e+002
         vertex 9.817601e+001 1.000000e+001 -3.150579e+002
      endloop
   endfacet
   facet normal -2.782201e-001 0.000000e+000 9.605173e-001
      outer loop
         vertex 9.817601e+001 1.000000e+001 -3.150579e+002
         vertex 7.897417e+001 0.000000e+000 -3.204108e+002
         vertex 9.817601e+001 0.000000e+000 -3.150579e+002
      endloop
   endfacet
   facet normal -3.166654e-001 0.000000e+000 9.485373e-001
      outer loop
         vertex 9.817601e+001 1.000000e+001 -3.150579e+002
         vertex 9.817601e+001 0.000000e+000 -3.150579e+002
         vertex 1.170196e+002 1.000000e+001 -3.085554e+002
      endloop
   endfacet
   facet normal -3.357071e-001 0.000000e+000 9.419664e-001
      outer loop
         vertex 1.170196e+002 1.000000e+001 -3.085554e+002
         vertex 9.817601e+001 0.000000e+000 -3.150579e+002
         vertex 1.170196e+002 0.000000e+000 -3.085554e+002
      endloop
   endfacet
   facet normal -3.733589e-001 0.000000e+000 9.276869e-001
      outer loop
         vertex 1.170196e+002 1.000000e+001 -3.085554e+002
         vertex 1.170196e+002 0.000000e+000 -3.085554e+002
         vertex 1.354362e+002 1.000000e+001 -3.009269e+002
      endloop
   endfacet
   facet normal -3.919691e-001 0.000000e+000 9.199784e-001
      outer loop
         vertex 1.354362e+002 1.000000e+001 -3.009269e+002
         vertex 1.170196e+002 0.000000e+000 -3.085554e+002
         vertex 1.354362e+002 0.000000e+000 -3.009269e+002
      endloop
   endfacet
   facet normal -4.286901e-001 0.000000e+000 9.034516e-001
      outer loop
         vertex 1.354362e+002 1.000000e+001 -3.009269e+002
         vertex 1.354362e+002 0.000000e+000 -3.009269e+002
         vertex 1.533587e+002 1.000000e+001 -2.922005e+002
      endloop
   endfacet
   facet normal -4.468009e-001 0.000000e+000 8.946334e-001
      outer loop
         vertex 1.533587e+002 1.000000e+001 -2.922005e+002
         vertex 1.354362e+002 0.000000e+000 -3.009269e+002
         vertex 1.533587e+002 0.000000e+000 -2.922005e+002
      endloop
   endfacet
   facet normal -4.824570e-001 0.000000e+000 8.759196e-001
      outer loop
         vertex 1.533587e+002 1.000000e+001 -2.922005e+002
         vertex 1.533587e+002 0.000000e+000 -2.922005e+002
         vertex 1.707215e+002 1.000000e+001 -2.824078e+002
      endloop
   endfacet
   facet normal -5.000024e-001 0.000000e+000 8.660240e-001
      outer loop
         vertex 1.707215e+002 1.000000e+001 -2.824078e+002
         vertex 1.533587e+002 0.000000e+000 -2.922005e+002
         vertex 1.707215e+002 0.000000e+000 -2.824078e+002
      endloop
   endfacet
   facet normal -5.344635e-001 0.000000e+000 8.451916e-001
      outer loop
         vertex 1.707215e+002 1.000000e+001 -2.824078e+002
         vertex 1.707215e+002 0.000000e+000 -2.824078e+002
         vertex 1.874614e+002 1.000000e+001 -2.715847e+002
      endloop
   endfacet
   facet normal -5.513793e-001 0.000000e+000 8.342546e-001
      outer loop
         vertex 1.874614e+002 1.000000e+001 -2.715847e+002
         vertex 1.707215e+002 0.000000e+000 -2.824078e+002
         vertex 1.874614e+002 0.000000e+000 -2.715847e+002
      endloop
   endfacet
   facet normal -5.845198e-001 0.000000e+000 8.113794e-001
      outer loop
         vertex 1.874614e+002 1.000000e+001 -2.715847e+002
         vertex 1.874614e+002 0.000000e+000 -2.715847e+002
         vertex 2.035172e+002 1.000000e+001 -2.597705e+002
      endloop
   endfacet
   facet normal -6.007445e-001 0.000000e+000 7.994411e-001
      outer loop
         vertex 2.035172e+002 1.000000e+001 -2.597705e+002
         vertex 1.874614e+002 0.000000e+000 -2.715847e+002
         vertex 2.035172e+002 0.000000e+000 -2.597705e+002
      endloop
   endfacet
   facet normal -6.324433e-001 0.000000e+000 7.746066e-001
      outer loop
         vertex 2.035172e+002 1.000000e+001 -2.597705e+002
         vertex 2.035172e+002 0.000000e+000 -2.597705e+002
         vertex 2.188305e+002 1.000000e+001 -2.470085e+002
      endloop
   endfacet
   facet normal -6.479174e-001 0.000000e+000 7.617105e-001
      outer loop
         vertex 2.188305e+002 1.000000e+001 -2.470085e+002
         vertex 2.035172e+002 0.000000e+000 -2.597705e+002
         vertex 2.188305e+002 0.000000e+000 -2.470085e+002
      endloop
   endfacet
   facet normal -6.780590e-001 0.000000e+000 7.350075e-001
      outer loop
         vertex 2.188305e+002 1.000000e+001 -2.470085e+002
         vertex 2.188305e+002 0.000000e+000 -2.470085e+002
         vertex 2.333452e+002 1.000000e+001 -2.333452e+002
      endloop
   endfacet
   facet normal -6.927263e-001 0.000000e+000 7.212005e-001
      outer loop
         vertex 2.333452e+002 1.000000e+001 -2.333452e+002
         vertex 2.188305e+002 0.000000e+000 -2.470085e+002
         vertex 2.333452e+002 0.000000e+000 -2.333452e+002
      endloop
   endfacet
   facet normal 7.071068e-001 0.000000e+000 7.071068e-001
      outer loop
         vertex 3.040559e+002 1.000000e+001 -3.040559e+002
         vertex 2.333452e+002 1.000000e+001 -2.333452e+002
         vertex 3.040559e+002 0.000000e+000 -3.040559e+002
      endloop
   endfacet
   facet normal 7.071068e-001 0.000000e+000 7.071068e-001
      outer loop
         vertex 3.040559e+002 0.000000e+000 -3.040559e+002
         vertex 2.333452e+002 1.000000e+001 -2.333452e+002
         vertex 2.333452e+002 0.000000e+000 -2.333452e+002
      endloop
   endfacet
   facet normal 0.000000e+000 1.000000e+000 0.000000e+000
      outer loop
         vertex 2.333452e+002 1.000000e+001 -2.333452e+002
         vertex 3.040559e+002 1.000000e+001 -3.040559e+002
         vertex 2.188305e+002 1.000000e+001 -2.470085e+002
      endloop
   endfacet
   facet normal 0.000000e+000 1.000000e+000 0.000000e+000
      outer loop
         vertex 2.188305e+002 1.000000e+001 -2.470085e+002
         vertex 3.040559e+002 1.000000e+001 -3.040559e+002
         vertex 2.865290e+002 1.000000e+001 -3.206261e+002
      endloop
   endfacet
   facet normal 0.000000e+000 1.000000e+000 0.000000e+000
      outer loop
         vertex 2.188305e+002 1.000000e+001 -2.470085e+002
         vertex 2.865290e+002 1.000000e+001 -3.206261e+002
         vertex 2.035172e+002 1.000000e+001 -2.597705e+002
      endloop
   endfacet
   facet normal 0.000000e+000 1.000000e+000 0.000000e+000
      outer loop
         vertex 2.035172e+002 1.000000e+001 -2.597705e+002
         vertex 2.865290e+002 1.000000e+001 -3.206261e+002
         vertex 2.681006e+002 1.000000e+001 -3.361875e+002
      endloop
   endfacet
   facet normal 0.000000e+000 1.000000e+000 0.000000e+000
      outer loop
         vertex 2.035172e+002 1.000000e+001 -2.597705e+002
         vertex 2.681006e+002 1.000000e+001 -3.361875e+002
         vertex 1.874614e+002 1.000000e+001 -2.715847e+002
      endloop
   endfacet
   facet normal 0.000000e+000 1.000000e+000 0.000000e+000
      outer loop
         vertex 1.874614e+002 1.000000e+001 -2.715847e+002
         vertex 2.681006e+002 1.000000e+001 -3.361875e+002
         vertex 2.488287e+002 1.000000e+001 -3.506912e+002
      endloop
   endfacet
   facet normal 0.000000e+000 1.000000e+000 0.000000e+000
      outer loop
         vertex 1.874614e+002 1.000000e+001 -2.715847e+002
         vertex 2.488287e+002 1.000000e+001 -3.506912e+002
         vertex 1.707215e+002 1.000000e+001 -2.824078e+002
      endloop
   endfacet
   facet normal 0.000000e+000 1.000000e+000 0.000000e+000
      outer loop
         vertex 1.707215e+002 1.000000e+001 -2.824078e+002
         vertex 2.488287e+002 1.000000e+001 -3.506912e+002
         vertex 2.287738e+002 1.000000e+001 -3.640914e+002
      endloop
   endfacet
   facet normal 0.000000e+000 1.000000e+000 0.000000e+000
      outer loop
         vertex 1.707215e+002 1.000000e+001 -2.824078e+002
         vertex 2.287738e+002 1.000000e+001 -3.640914e+002
         vertex 1.533587e+002 1.000000e+001 -2.922005e+002
      endloop
   endfacet
   facet normal 0.000000e+000 1.000000e+000 0.000000e+000
      outer loop
         vertex 1.533587e+002 1.000000e+001 -2.922005e+002
         vertex 2.287738e+002 1.000000e+001 -3.640914e+002
         vertex 2.079991e+002 1.000000e+001 -3.763461e+002
      endloop
   endfacet
   facet normal 0.000000e+000 1.000000e+000 0.000000e+000
      outer loop
         vertex 1.533587e+002 1.000000e+001 -2.922005e+002
         vertex 2.079991e+002 1.000000e+001 -3.763461e+002
         vertex 1.354362e+002 1.000000e+001 -3.009269e+002
      endloop
   endfacet
   facet normal 0.000000e+000 1.000000e+000 0.000000e+000
      outer loop
         vertex 0.000000e+000 1.000000e+001 -4.300000e+002
         vertex 0.000000e+000 1.000000e+001 -3.300000e+002
         vertex 2.411029e+001 1.000000e+001 -4.293235e+002
      endloop
   endfacet
   facet normal 0.000000e+000 1.000000e+000 0.000000e+000
      outer loop
         vertex 2.411029e+001 1.000000e+001 -4.293235e+002
         vertex 0.000000e+000 1.000000e+001 -3.300000e+002
         vertex 1.992490e+001 1.000000e+001 -3.293979e+002
      endloop
   endfacet
   facet normal 0.000000e+000 1.000000e+000 0.000000e+000
      outer loop
         vertex 2.411029e+001 1.000000e+001 -4.293235e+002
         vertex 1.992490e+001 1.000000e+001 -3.293979e+002
         vertex 4.814473e+001 1.000000e+001 -4.272963e+002
      endloop
   endfacet
   facet normal 0.000000e+000 1.000000e+000 0.000000e+000
      outer loop
         vertex 4.814473e+001 1.000000e+001 -4.272963e+002
         vertex 1.992490e+001 1.000000e+001 -3.293979e+002
         vertex 3.977710e+001 1.000000e+001 -3.275939e+002
      endloop
   endfacet
   facet normal 0.000000e+000 1.000000e+000 0.000000e+000
      outer loop
         vertex 4.814473e+001 1.000000e+001 -4.272963e+002
         vertex 3.977710e+001 1.000000e+001 -3.275939e+002
         vertex 7.202768e+001 1.000000e+001 -4.239245e+002
      endloop
   endfacet
   facet normal 0.000000e+000 1.000000e+000 0.000000e+000
      outer loop
         vertex 7.202768e+001 1.000000e+001 -4.239245e+002
         vertex 3.977710e+001 1.000000e+001 -3.275939e+002
         vertex 5.948416e+001 1.000000e+001 -3.245945e+002
      endloop
   endfacet
   facet normal 0.000000e+000 1.000000e+000 0.000000e+000
      outer loop
         vertex 7.202768e+001 1.000000e+001 -4.239245e+002
         vertex 5.948416e+001 1.000000e+001 -3.245945e+002
         vertex 9.568400e+001 1.000000e+001 -4.192190e+002
      endloop
   endfacet
   facet normal 0.000000e+000 1.000000e+000 0.000000e+000
      outer loop
         vertex 9.568400e+001 1.000000e+001 -4.192190e+002
         vertex 5.948416e+001 1.000000e+001 -3.245945e+002
         vertex 7.897417e+001 1.000000e+001 -3.204108e+002
      endloop
   endfacet
   facet normal 0.000000e+000 1.000000e+000 0.000000e+000
      outer loop
         vertex 9.568400e+001 1.000000e+001 -4.192190e+002
         vertex 7.897417e+001 1.000000e+001 -3.204108e+002
         vertex 1.190393e+002 1.000000e+001 -4.131945e+002
      endloop
   endfacet
   facet normal 0.000000e+000 1.000000e+000 0.000000e+000
      outer loop
         vertex 1.190393e+002 1.000000e+001 -4.131945e+002
         vertex 7.897417e+001 1.000000e+001 -3.204108e+002
         vertex 9.817601e+001 1.000000e+001 -3.150579e+002
      endloop
   endfacet
   facet normal 0.000000e+000 1.000000e+000 0.000000e+000
      outer loop
         vertex 1.190393e+002 1.000000e+001 -4.131945e+002
         vertex 9.817601e+001 1.000000e+001 -3.150579e+002
         vertex 1.420200e+002 1.000000e+001 -4.058698e+002
      endloop
   endfacet
   facet normal 0.000000e+000 1.000000e+000 0.000000e+000
      outer loop
         vertex 1.420200e+002 1.000000e+001 -4.058698e+002
         vertex 9.817601e+001 1.000000e+001 -3.150579e+002
         vertex 1.170196e+002 1.000000e+001 -3.085554e+002
      endloop
   endfacet
   facet normal 0.000000e+000 1.000000e+000 0.000000e+000
      outer loop
         vertex 1.420200e+002 1.000000e+001 -4.058698e+002
         vertex 1.170196e+002 1.000000e+001 -3.085554e+002
         vertex 1.645539e+002 1.000000e+001 -3.972682e+002
      endloop
   endfacet
   facet normal 0.000000e+000 1.000000e+000 0.000000e+000
      outer loop
         vertex 1.645539e+002 1.000000e+001 -3.972682e+002
         vertex 1.170196e+002 1.000000e+001 -3.085554e+002
         vertex 1.354362e+002 1.000000e+001 -3.009269e+002
      endloop
   endfacet
   facet normal 0.000000e+000 1.000000e+000 0.000000e+000
      outer loop
         vertex 1.645539e+002 1.000000e+001 -3.972682e+002
         vertex 1.354362e+002 1.000000e+001 -3.009269e+002
         vertex 1.865700e+002 1.000000e+001 -3.874166e+002
      endloop
   endfacet
   facet normal 0.000000e+000 1.000000e+000 0.000000e+000
      outer loop
         vertex 1.865700e+002 1.000000e+001 -3.874166e+002
         vertex 1.354362e+002 1.000000e+001 -3.009269e+002
         vertex 2.079991e+002 1.000000e+001 -3.763461e+002
      endloop
   endfacet
   facet normal 0.000000e+000 -1.000000e+000 0.000000e+000
      outer loop
         vertex 0.000000e+000 0.000000e+000 -3.300000e+002
         vertex 0.000000e+000 0.000000e+000 -4.300000e+002
         vertex 1.992490e+001 0.000000e+000 -3.293979e+002
      endloop
   endfacet
   facet normal 0.000000e+000 -1.000000e+000 0.000000e+000
      outer loop
         vertex 1.992490e+001 0.000000e+000 -3.293979e+002
         vertex 0.000000e+000 0.000000e+000 -4.300000e+002
         vertex 2.411029e+001 0.000000e+000 -4.293235e+002
      endloop
   endfacet
   facet normal 0.000000e+000 -1.000000e+000 0.000000e+000
      outer loop
         vertex 1.992490e+001 0.000000e+000 -3.293979e+002
         vertex 2.411029e+001 0.000000e+000 -4.293235e+002
         vertex 3.977710e+001 0.000000e+000 -3.275939e+002
      endloop
   endfacet
   facet normal 0.000000e+000 -1.000000e+000 0.000000e+000
      outer loop
         vertex 3.977710e+001 0.000000e+000 -3.275939e+002
         vertex 2.411029e+001 0.000000e+000 -4.293235e+002
         vertex 4.814473e+001 0.000000e+000 -4.272963e+002
      endloop
   endfacet
   facet normal 0.000000e+000 -1.000000e+000 0.000000e+000
      outer loop
         vertex 3.977710e+001 0.000000e+000 -3.275939e+002
         vertex 4.814473e+001 0.000000e+000 -4.272963e+002
         vertex 5.948416e+001 0.000000e+000 -3.245945e+002
      endloop
   endfacet
   facet normal 0.000000e+000 -1.000000e+000 0.000000e+000
      outer loop
         vertex 5.948416e+001 0.000000e+000 -3.245945e+002
         vertex 4.814473e+001 0.000000e+000 -4.272963e+002
         vertex 7.202768e+001 0.000000e+000 -4.239245e+002
      endloop
   endfacet
   facet normal 0.000000e+000 -1.000000e+000 0.000000e+000
      outer loop
         vertex 5.948416e+001 0.000000e+000 -3.245945e+002
         vertex 7.202768e+001 0.000000e+000 -4.239245e+002
         vertex 7.897417e+001 0.000000e+000 -3.204108e+002
      endloop
   endfacet
   facet normal 0.000000e+000 -1.000000e+000 0.000000e+000
      outer loop
         vertex 7.897417e+001 0.000000e+000 -3.204108e+002
         vertex 7.202768e+001 0.000000e+000 -4.239245e+002
         vertex 9.568400e+001 0.000000e+000 -4.192190e+002
      endloop
   endfacet
   facet normal 0.000000e+000 -1.000000e+000 0.000000e+000
      outer loop
         vertex 7.897417e+001 0.000000e+000 -3.204108e+002
         vertex 9.568400e+001 0.000000e+000 -4.192190e+002
         vertex 9.817601e+001 0.000000e+000 -3.150579e+002
      endloop
   endfacet
   facet normal 0.000000e+000 -1.000000e+000 0.000000e+000
      outer loop
         vertex 9.817601e+001 0.000000e+000 -3.150579e+002
         vertex 9.568400e+001 0.000000e+000 -4.192190e+002
         vertex 1.190393e+002 0.000000e+000 -4.131945e+002
      endloop
   endfacet
   facet normal 0.000000e+000 -1.000000e+000 0.000000e+000
      outer loop
         vertex 9.817601e+001 0.000000e+000 -3.150579e+002
         vertex 1.190393e+002 0.000000e+000 -4.131945e+002
         vertex 1.170196e+002 0.000000e+000 -3.085554e+002
      endloop
   endfacet
   facet normal 0.000000e+000 -1.000000e+000 0.000000e+000
      outer loop
         vertex 3.040559e+002 0.000000e+000 -3.040559e+002
         vertex 2.333452e+002 0.000000e+000 -2.333452e+002
         vertex 2.865290e+002 0.000000e+000 -3.206261e+002
      endloop
   endfacet
   facet normal 0.000000e+000 -1.000000e+000 0.000000e+000
      outer loop
         vertex 2.865290e+002 0.000000e+000 -3.206261e+002
         vertex 2.333452e+002 0.000000e+000 -2.333452e+002
         vertex 2.188305e+002 0.000000e+000 -2.470085e+002
      endloop
   endfacet
   facet normal 0.000000e+000 -1.000000e+000 0.000000e+000
      outer loop
         vertex 2.865290e+002 0.000000e+000 -3.206261e+002
         vertex 2.188305e+002 0.000000e+000 -2.470085e+002
         vertex 2.681006e+002 0.000000e+000 -3.361875e+002
      endloop
   endfacet
   facet normal 0.000000e+000 -1.000000e+000 0.000000e+000
      outer loop
         vertex 2.681006e+002 0.000000e+000 -3.361875e+002
         vertex 2.188305e+002 0.000000e+000 -2.470085e+002
         vertex 2.035172e+002 0.000000e+000 -2.597705e+002
      endloop
   endfacet
   facet normal 0.000000e+000 -1.000000e+000 0.000000e+000
      outer loop
         vertex 2.681006e+002 0.000000e+000 -3.361875e+002
         vertex 2.035172e+002 0.000000e+000 -2.597705e+002
         vertex 2.488287e+002 0.000000e+000 -3.506912e+002
      endloop
   endfacet
   facet normal 0.000000e+000 -1.000000e+000 0.000000e+000
      outer loop
         vertex 2.488287e+002 0.000000e+000 -3.506912e+002
         vertex 2.035172e+002 0.000000e+000 -2.597705e+002
         vertex 1.874614e+002 0.000000e+000 -2.715847e+002
      endloop
   endfacet
   facet normal 0.000000e+000 -1.000000e+000 0.000000e+000
      outer loop
         vertex 2.488287e+002 0.000000e+000 -3.506912e+002
         vertex 1.874614e+002 0.000000e+000 -2.715847e+002
         vertex 2.287738e+002 0.000000e+000 -3.640914e+002
      endloop
   endfacet
   facet normal 0.000000e+000 -1.000000e+000 0.000000e+000
      outer loop
         vertex 2.287738e+002 0.000000e+000 -3.640914e+002
         vertex 1.874614e+002 0.000000e+000 -2.715847e+002
         vertex 1.707215e+002 0.000000e+000 -2.824078e+002
      endloop
   endfacet
   facet normal 0.000000e+000 -1.000000e+000 0.000000e+000
      outer loop
         vertex 2.287738e+002 0.000000e+000 -3.640914e+002
         vertex 1.707215e+002 0.000000e+000 -2.824078e+002
         vertex 2.079991e+002 0.000000e+000 -3.763461e+002
      endloop
   endfacet
   facet normal 0.000000e+000 -1.000000e+000 0.000000e+000
      outer loop
         vertex 2.079991e+002 0.000000e+000 -3.763461e+002
         vertex 1.707215e+002 0.000000e+000 -2.824078e+002
         vertex 1.533587e+002 0.000000e+000 -2.922005e+002
      endloop
   endfacet
   facet normal 0.000000e+000 -1.000000e+000 0.000000e+000
      outer loop
         vertex 2.079991e+002 0.000000e+000 -3.763461e+002
         vertex 1.533587e+002 0.000000e+000 -2.922005e+002
         vertex 1.865700e+002 0.000000e+000 -3.874166e+002
      endloop
   endfacet
   facet normal 0.000000e+000 -1.000000e+000 0.000000e+000
      outer loop
         vertex 1.865700e+002 0.000000e+000 -3.874166e+002
         vertex 1.533587e+002 0.000000e+000 -2.922005e+002
         vertex 1.354362e+002 0.000000e+000 -3.009269e+002
      endloop
   endfacet
   facet normal 0.000000e+000 -1.000000e+000 0.000000e+000
      outer loop
         vertex 1.865700e+002 0.000000e+000 -3.874166e+002
         vertex 1.354362e+002 0.000000e+000 -3.009269e+002
         vertex 1.645539e+002 0.000000e+000 -3.972682e+002
      endloop
   endfacet
   facet normal 0.000000e+000 -1.000000e+000 0.000000e+000
      outer loop
         vertex 1.645539e+002 0.000000e+000 -3.972682e+002
         vertex 1.354362e+002 0.000000e+000 -3.009269e+002
         vertex 1.170196e+002 0.000000e+000 -3.085554e+002
      endloop
   endfacet
   facet normal 0.000000e+000 -1.000000e+000 0.000000e+000
      outer loop
         vertex 1.645539e+002 0.000000e+000 -3.972682e+002
         vertex 1.170196e+002 0.000000e+000 -3.085554e+002
         vertex 1.420200e+002 0.000000e+000 -4.058698e+002
      endloop
   endfacet
   facet normal 0.000000e+000 -1.000000e+000 0.000000e+000
      outer loop
         vertex 1.420200e+002 0.000000e+000 -4.058698e+002
         vertex 1.170196e+002 0.000000e+000 -3.085554e+002
         vertex 1.190393e+002 0.000000e+000 -4.131945e+002
      endloop
   endfacet
endsolid