solid OuterBlackRightAngle_Default_sldprt
   facet normal 1.000000e+000 0.000000e+000 -2.055969e-016
      outer loop
         vertex 1.350000e+002 1.000000e+001 -1.350000e+002
         vertex 1.350000e+002 1.000000e+001 1.350000e+002
         vertex 1.350000e+002 0.000000e+000 -1.350000e+002
      endloop
   endfacet
   facet normal 1.000000e+000 0.000000e+000 -2.055969e-016
      outer loop
         vertex 1.350000e+002 0.000000e+000 -1.350000e+002
         vertex 1.350000e+002 1.000000e+001 1.350000e+002
         vertex 1.350000e+002 0.000000e+000 1.350000e+002
      endloop
   endfacet
   facet normal 0.000000e+000 0.000000e+000 -1.000000e+000
      outer loop
         vertex 3.500000e+001 1.000000e+001 -1.350000e+002
         vertex 1.350000e+002 1.000000e+001 -1.350000e+002
         vertex 3.500000e+001 0.000000e+000 -1.350000e+002
      endloop
   endfacet
   facet normal 0.000000e+000 0.000000e+000 -1.000000e+000
      outer loop
         vertex 3.500000e+001 0.000000e+000 -1.350000e+002
         vertex 1.350000e+002 1.000000e+001 -1.350000e+002
         vertex 1.350000e+002 0.000000e+000 -1.350000e+002
      endloop
   endfacet
   facet normal -1.000000e+000 0.000000e+000 1.224511e-016
      outer loop
         vertex 3.500000e+001 1.000000e+001 3.500000e+001
         vertex 3.500000e+001 1.000000e+001 -1.350000e+002
         vertex 3.500000e+001 0.000000e+000 3.500000e+001
      endloop
   endfacet
   facet normal -1.000000e+000 0.000000e+000 1.224511e-016
      outer loop
         vertex 3.500000e+001 0.000000e+000 3.500000e+001
         vertex 3.500000e+001 1.000000e+001 -1.350000e+002
         vertex 3.500000e+001 0.000000e+000 -1.350000e+002
      endloop
   endfacet
   facet normal -1.224511e-016 0.000000e+000 -1.000000e+000
      outer loop
         vertex -1.350000e+002 1.000000e+001 3.500000e+001
         vertex 3.500000e+001 1.000000e+001 3.500000e+001
         vertex -1.350000e+002 0.000000e+000 3.500000e+001
      endloop
   endfacet
   facet normal -1.224511e-016 0.000000e+000 -1.000000e+000
      outer loop
         vertex -1.350000e+002 0.000000e+000 3.500000e+001
         vertex 3.500000e+001 1.000000e+001 3.500000e+001
         vertex 3.500000e+001 0.000000e+000 3.500000e+001
      endloop
   endfacet
   facet normal -1.000000e+000 0.000000e+000 0.000000e+000
      outer loop
         vertex -1.350000e+002 1.000000e+001 1.350000e+002
         vertex -1.350000e+002 1.000000e+001 3.500000e+001
         vertex -1.350000e+002 0.000000e+000 1.350000e+002
      endloop
   endfacet
   facet normal -1.000000e+000 0.000000e+000 0.000000e+000
      outer loop
         vertex -1.350000e+002 0.000000e+000 1.350000e+002
         vertex -1.350000e+002 1.000000e+001 3.500000e+001
         vertex -1.350000e+002 0.000000e+000 3.500000e+001
      endloop
   endfacet
   facet normal 0.000000e+000 0.000000e+000 1.000000e+000
      outer loop
         vertex 1.350000e+002 1.000000e+001 1.350000e+002
         vertex -1.350000e+002 1.000000e+001 1.350000e+002
         vertex 1.350000e+002 0.000000e+000 1.350000e+002
      endloop
   endfacet
   facet normal 0.000000e+000 0.000000e+000 1.000000e+000
      outer loop
         vertex 1.350000e+002 0.000000e+000 1.350000e+002
         vertex -1.350000e+002 1.000000e+001 1.350000e+002
         vertex -1.350000e+002 0.000000e+000 1.350000e+002
      endloop
   endfacet
   facet normal 0.000000e+000 1.000000e+000 0.000000e+000
      outer loop
         vertex -1.350000e+002 1.000000e+001 3.500000e+001
         vertex -1.350000e+002 1.000000e+001 1.350000e+002
         vertex 3.500000e+001 1.000000e+001 3.500000e+001
      endloop
   endfacet
   facet normal 0.000000e+000 1.000000e+000 0.000000e+000
      outer loop
         vertex 3.500000e+001 1.000000e+001 3.500000e+001
         vertex -1.350000e+002 1.000000e+001 1.350000e+002
         vertex 1.350000e+002 1.000000e+001 1.350000e+002
      endloop
   endfacet
   facet normal 0.000000e+000 1.000000e+000 0.000000e+000
      outer loop
         vertex 3.500000e+001 1.000000e+001 3.500000e+001
         vertex 1.350000e+002 1.000000e+001 1.350000e+002
         vertex 3.500000e+001 1.000000e+001 -1.350000e+002
      endloop
   endfacet
   facet normal 0.000000e+000 1.000000e+000 0.000000e+000
      outer loop
         vertex 3.500000e+001 1.000000e+001 -1.350000e+002
         vertex 1.350000e+002 1.000000e+001 1.350000e+002
         vertex 1.350000e+002 1.000000e+001 -1.350000e+002
      endloop
   endfacet
   facet normal 0.000000e+000 -1.000000e+000 0.000000e+000
      outer loop
         vertex 3.500000e+001 0.000000e+000 -1.350000e+002
         vertex 1.350000e+002 0.000000e+000 -1.350000e+002
         vertex 3.500000e+001 0.000000e+000 3.500000e+001
      endloop
   endfacet
   facet normal 0.000000e+000 -1.000000e+000 0.000000e+000
      outer loop
         vertex 3.500000e+001 0.000000e+000 3.500000e+001
         vertex 1.350000e+002 0.000000e+000 -1.350000e+002
         vertex 1.350000e+002 0.000000e+000 1.350000e+002
      endloop
   endfacet
   facet normal 0.000000e+000 -1.000000e+000 0.000000e+000
      outer loop
         vertex 3.500000e+001 0.000000e+000 3.500000e+001
         vertex 1.350000e+002 0.000000e+000 1.350000e+002
         vertex -1.350000e+002 0.000000e+000 3.500000e+001
      endloop
   endfacet
   facet normal 0.000000e+000 -1.000000e+000 0.000000e+000
      outer loop
         vertex -1.350000e+002 0.000000e+000 3.500000e+001
         vertex 1.350000e+002 0.000000e+000 1.350000e+002
         vertex -1.350000e+002 0.000000e+000 1.350000e+002
      endloop
   endfacet
endsolid