solid OuterWhiteRightAngle_Default_sldprt
   facet normal 1.000000e+000 0.000000e+000 0.000000e+000
      outer loop
         vertex 1.500000e+002 1.000000e+001 -1.500000e+002
         vertex 1.500000e+002 1.000000e+001 1.500000e+002
         vertex 1.500000e+002 0.000000e+000 -1.500000e+002
      endloop
   endfacet
   facet normal 1.000000e+000 0.000000e+000 0.000000e+000
      outer loop
         vertex 1.500000e+002 0.000000e+000 -1.500000e+002
         vertex 1.500000e+002 1.000000e+001 1.500000e+002
         vertex 1.500000e+002 0.000000e+000 1.500000e+002
      endloop
   endfacet
   facet normal 0.000000e+000 0.000000e+000 -1.000000e+000
      outer loop
         vertex 1.200000e+002 1.000000e+001 -1.500000e+002
         vertex 1.500000e+002 1.000000e+001 -1.500000e+002
         vertex 1.200000e+002 0.000000e+000 -1.500000e+002
      endloop
   endfacet
   facet normal 0.000000e+000 0.000000e+000 -1.000000e+000
      outer loop
         vertex 1.200000e+002 0.000000e+000 -1.500000e+002
         vertex 1.500000e+002 1.000000e+001 -1.500000e+002
         vertex 1.500000e+002 0.000000e+000 -1.500000e+002
      endloop
   endfacet
   facet normal -1.000000e+000 0.000000e+000 1.027984e-016
      outer loop
         vertex 1.200000e+002 1.000000e+001 1.200000e+002
         vertex 1.200000e+002 1.000000e+001 -1.500000e+002
         vertex 1.200000e+002 0.000000e+000 1.200000e+002
      endloop
   endfacet
   facet normal -1.000000e+000 0.000000e+000 1.027984e-016
      outer loop
         vertex 1.200000e+002 0.000000e+000 1.200000e+002
         vertex 1.200000e+002 1.000000e+001 -1.500000e+002
         vertex 1.200000e+002 0.000000e+000 -1.500000e+002
      endloop
   endfacet
   facet normal -1.027984e-016 0.000000e+000 -1.000000e+000
      outer loop
         vertex -1.500000e+002 1.000000e+001 1.200000e+002
         vertex 1.200000e+002 1.000000e+001 1.200000e+002
         vertex -1.500000e+002 0.000000e+000 1.200000e+002
      endloop
   endfacet
   facet normal -1.027984e-016 0.000000e+000 -1.000000e+000
      outer loop
         vertex -1.500000e+002 0.000000e+000 1.200000e+002
         vertex 1.200000e+002 1.000000e+001 1.200000e+002
         vertex 1.200000e+002 0.000000e+000 1.200000e+002
      endloop
   endfacet
   facet normal -1.000000e+000 0.000000e+000 0.000000e+000
      outer loop
         vertex -1.500000e+002 1.000000e+001 1.500000e+002
         vertex -1.500000e+002 1.000000e+001 1.200000e+002
         vertex -1.500000e+002 0.000000e+000 1.500000e+002
      endloop
   endfacet
   facet normal -1.000000e+000 0.000000e+000 0.000000e+000
      outer loop
         vertex -1.500000e+002 0.000000e+000 1.500000e+002
         vertex -1.500000e+002 1.000000e+001 1.200000e+002
         vertex -1.500000e+002 0.000000e+000 1.200000e+002
      endloop
   endfacet
   facet normal 0.000000e+000 0.000000e+000 1.000000e+000
      outer loop
         vertex 1.500000e+002 1.000000e+001 1.500000e+002
         vertex -1.500000e+002 1.000000e+001 1.500000e+002
         vertex 1.500000e+002 0.000000e+000 1.500000e+002
      endloop
   endfacet
   facet normal 0.000000e+000 0.000000e+000 1.000000e+000
      outer loop
         vertex 1.500000e+002 0.000000e+000 1.500000e+002
         vertex -1.500000e+002 1.000000e+001 1.500000e+002
         vertex -1.500000e+002 0.000000e+000 1.500000e+002
      endloop
   endfacet
   facet normal 0.000000e+000 1.000000e+000 0.000000e+000
      outer loop
         vertex -1.500000e+002 1.000000e+001 1.200000e+002
         vertex -1.500000e+002 1.000000e+001 1.500000e+002
         vertex 1.200000e+002 1.000000e+001 1.200000e+002
      endloop
   endfacet
   facet normal 0.000000e+000 1.000000e+000 0.000000e+000
      outer loop
         vertex 1.200000e+002 1.000000e+001 1.200000e+002
         vertex -1.500000e+002 1.000000e+001 1.500000e+002
         vertex 1.500000e+002 1.000000e+001 1.500000e+002
      endloop
   endfacet
   facet normal 0.000000e+000 1.000000e+000 0.000000e+000
      outer loop
         vertex 1.200000e+002 1.000000e+001 1.200000e+002
         vertex 1.500000e+002 1.000000e+001 1.500000e+002
         vertex 1.200000e+002 1.000000e+001 -1.500000e+002
      endloop
   endfacet
   facet normal 0.000000e+000 1.000000e+000 0.000000e+000
      outer loop
         vertex 1.200000e+002 1.000000e+001 -1.500000e+002
         vertex 1.500000e+002 1.000000e+001 1.500000e+002
         vertex 1.500000e+002 1.000000e+001 -1.500000e+002
      endloop
   endfacet
   facet normal 0.000000e+000 -1.000000e+000 0.000000e+000
      outer loop
         vertex 1.200000e+002 0.000000e+000 -1.500000e+002
         vertex 1.500000e+002 0.000000e+000 -1.500000e+002
         vertex 1.200000e+002 0.000000e+000 1.200000e+002
      endloop
   endfacet
   facet normal 0.000000e+000 -1.000000e+000 0.000000e+000
      outer loop
         vertex 1.200000e+002 0.000000e+000 1.200000e+002
         vertex 1.500000e+002 0.000000e+000 -1.500000e+002
         vertex 1.500000e+002 0.000000e+000 1.500000e+002
      endloop
   endfacet
   facet normal 0.000000e+000 -1.000000e+000 0.000000e+000
      outer loop
         vertex 1.200000e+002 0.000000e+000 1.200000e+002
         vertex 1.500000e+002 0.000000e+000 1.500000e+002
         vertex -1.500000e+002 0.000000e+000 1.200000e+002
      endloop
   endfacet
   facet normal 0.000000e+000 -1.000000e+000 0.000000e+000
      outer loop
         vertex -1.500000e+002 0.000000e+000 1.200000e+002
         vertex 1.500000e+002 0.000000e+000 1.500000e+002
         vertex -1.500000e+002 0.000000e+000 1.500000e+002
      endloop
   endfacet
endsolid