solid OuterGreyCurve300_Default_sldprt
   facet normal 6.946597e-001 0.000000e+000 -7.193386e-001
      outer loop
         vertex 3.323402e+002 1.000000e+001 -3.323402e+002
         vertex 3.323402e+002 0.000000e+000 -3.323402e+002
         vertex 3.144914e+002 0.000000e+000 -3.492781e+002
      endloop
   endfacet
   facet normal 6.819971e-001 0.000000e+000 -7.313549e-001
      outer loop
         vertex 3.323402e+002 1.000000e+001 -3.323402e+002
         vertex 3.144914e+002 0.000000e+000 -3.492781e+002
         vertex 3.144914e+002 1.000000e+001 -3.492781e+002
      endloop
   endfacet
   facet normal 6.560604e-001 0.000000e+000 -7.547084e-001
      outer loop
         vertex 3.144914e+002 1.000000e+001 -3.492781e+002
         vertex 3.144914e+002 0.000000e+000 -3.492781e+002
         vertex 2.957806e+002 0.000000e+000 -3.652586e+002
      endloop
   endfacet
   facet normal 6.427863e-001 0.000000e+000 -7.660456e-001
      outer loop
         vertex 3.144914e+002 1.000000e+001 -3.492781e+002
         vertex 2.957806e+002 0.000000e+000 -3.652586e+002
         vertex 2.957806e+002 1.000000e+001 -3.652586e+002
      endloop
   endfacet
   facet normal 6.156629e-001 0.000000e+000 -7.880096e-001
      outer loop
         vertex 2.957806e+002 1.000000e+001 -3.652586e+002
         vertex 2.957806e+002 0.000000e+000 -3.652586e+002
         vertex 2.762591e+002 0.000000e+000 -3.802380e+002
      endloop
   endfacet
   facet normal 6.018136e-001 0.000000e+000 -7.986366e-001
      outer loop
         vertex 2.957806e+002 1.000000e+001 -3.652586e+002
         vertex 2.762591e+002 0.000000e+000 -3.802380e+002
         vertex 2.762591e+002 1.000000e+001 -3.802380e+002
      endloop
   endfacet
   facet normal 5.735779e-001 0.000000e+000 -8.191510e-001
      outer loop
         vertex 2.762591e+002 1.000000e+001 -3.802380e+002
         vertex 2.762591e+002 0.000000e+000 -3.802380e+002
         vertex 2.559803e+002 0.000000e+000 -3.941752e+002
      endloop
   endfacet
   facet normal 5.591915e-001 0.000000e+000 -8.290386e-001
      outer loop
         vertex 2.762591e+002 1.000000e+001 -3.802380e+002
         vertex 2.559803e+002 0.000000e+000 -3.941752e+002
         vertex 2.559803e+002 1.000000e+001 -3.941752e+002
      endloop
   endfacet
   facet normal 5.299208e-001 0.000000e+000 -8.480471e-001
      outer loop
         vertex 2.559803e+002 1.000000e+001 -3.941752e+002
         vertex 2.559803e+002 0.000000e+000 -3.941752e+002
         vertex 2.350000e+002 0.000000e+000 -4.070320e+002
      endloop
   endfacet
   facet normal 5.150366e-001 0.000000e+000 -8.571682e-001
      outer loop
         vertex 2.559803e+002 1.000000e+001 -3.941752e+002
         vertex 2.350000e+002 0.000000e+000 -4.070320e+002
         vertex 2.350000e+002 1.000000e+001 -4.070320e+002
      endloop
   endfacet
   facet normal 4.848112e-001 0.000000e+000 -8.746188e-001
      outer loop
         vertex 2.350000e+002 1.000000e+001 -4.070320e+002
         vertex 2.350000e+002 0.000000e+000 -4.070320e+002
         vertex 2.133755e+002 0.000000e+000 -4.187730e+002
      endloop
   endfacet
   facet normal 4.694700e-001 0.000000e+000 -8.829485e-001
      outer loop
         vertex 2.350000e+002 1.000000e+001 -4.070320e+002
         vertex 2.133755e+002 0.000000e+000 -4.187730e+002
         vertex 2.133755e+002 1.000000e+001 -4.187730e+002
      endloop
   endfacet
   facet normal 4.383727e-001 0.000000e+000 -8.987933e-001
      outer loop
         vertex 2.133755e+002 1.000000e+001 -4.187730e+002
         vertex 2.133755e+002 0.000000e+000 -4.187730e+002
         vertex 1.911662e+002 0.000000e+000 -4.293664e+002
      endloop
   endfacet
   facet normal 4.226167e-001 0.000000e+000 -9.063085e-001
      outer loop
         vertex 2.133755e+002 1.000000e+001 -4.187730e+002
         vertex 1.911662e+002 0.000000e+000 -4.293664e+002
         vertex 1.911662e+002 1.000000e+001 -4.293664e+002
      endloop
   endfacet
   facet normal 3.907328e-001 0.000000e+000 -9.205042e-001
      outer loop
         vertex 1.911662e+002 1.000000e+001 -4.293664e+002
         vertex 1.911662e+002 0.000000e+000 -4.293664e+002
         vertex 1.684329e+002 0.000000e+000 -4.387828e+002
      endloop
   endfacet
   facet normal 3.746050e-001 0.000000e+000 -9.271845e-001
      outer loop
         vertex 1.911662e+002 1.000000e+001 -4.293664e+002
         vertex 1.684329e+002 0.000000e+000 -4.387828e+002
         vertex 1.684329e+002 1.000000e+001 -4.387828e+002
      endloop
   endfacet
   facet normal 3.420218e-001 0.000000e+000 -9.396920e-001
      outer loop
         vertex 1.684329e+002 1.000000e+001 -4.387828e+002
         vertex 1.684329e+002 0.000000e+000 -4.387828e+002
         vertex 1.452380e+002 0.000000e+000 -4.469966e+002
      endloop
   endfacet
   facet normal 3.255665e-001 0.000000e+000 -9.455192e-001
      outer loop
         vertex 1.684329e+002 1.000000e+001 -4.387828e+002
         vertex 1.452380e+002 0.000000e+000 -4.469966e+002
         vertex 1.452380e+002 1.000000e+001 -4.469966e+002
      endloop
   endfacet
   facet normal 2.923734e-001 0.000000e+000 -9.563043e-001
      outer loop
         vertex 1.452380e+002 1.000000e+001 -4.469966e+002
         vertex 1.452380e+002 0.000000e+000 -4.469966e+002
         vertex 1.216450e+002 0.000000e+000 -4.539851e+002
      endloop
   endfacet
   facet normal 2.756356e-001 0.000000e+000 -9.612622e-001
      outer loop
         vertex 1.452380e+002 1.000000e+001 -4.469966e+002
         vertex 1.216450e+002 0.000000e+000 -4.539851e+002
         vertex 1.216450e+002 1.000000e+001 -4.539851e+002
      endloop
   endfacet
   facet normal 2.419236e-001 0.000000e+000 -9.702953e-001
      outer loop
         vertex 1.216450e+002 1.000000e+001 -4.539851e+002
         vertex 1.216450e+002 0.000000e+000 -4.539851e+002
         vertex 9.771849e+001 0.000000e+000 -4.597294e+002
      endloop
   endfacet
   facet normal 2.249493e-001 0.000000e+000 -9.743705e-001
      outer loop
         vertex 1.216450e+002 1.000000e+001 -4.539851e+002
         vertex 9.771849e+001 0.000000e+000 -4.597294e+002
         vertex 9.771849e+001 1.000000e+001 -4.597294e+002
      endloop
   endfacet
   facet normal 1.908107e-001 0.000000e+000 -9.816269e-001
      outer loop
         vertex 9.771849e+001 1.000000e+001 -4.597294e+002
         vertex 9.771849e+001 0.000000e+000 -4.597294e+002
         vertex 7.352420e+001 0.000000e+000 -4.642135e+002
      endloop
   endfacet
   facet normal 1.736464e-001 0.000000e+000 -9.848080e-001
      outer loop
         vertex 9.771849e+001 1.000000e+001 -4.597294e+002
         vertex 7.352420e+001 0.000000e+000 -4.642135e+002
         vertex 7.352420e+001 1.000000e+001 -4.642135e+002
      endloop
   endfacet
   facet normal 1.391748e-001 0.000000e+000 -9.902678e-001
      outer loop
         vertex 7.352420e+001 1.000000e+001 -4.642135e+002
         vertex 7.352420e+001 0.000000e+000 -4.642135e+002
         vertex 4.912838e+001 0.000000e+000 -4.674253e+002
      endloop
   endfacet
   facet normal 1.218676e-001 0.000000e+000 -9.925464e-001
      outer loop
         vertex 7.352420e+001 1.000000e+001 -4.642135e+002
         vertex 4.912838e+001 0.000000e+000 -4.674253e+002
         vertex 4.912838e+001 1.000000e+001 -4.674253e+002
      endloop
   endfacet
   facet normal 8.715752e-002 0.000000e+000 -9.961946e-001
      outer loop
         vertex 4.912838e+001 1.000000e+001 -4.674253e+002
         vertex 4.912838e+001 0.000000e+000 -4.674253e+002
         vertex 2.459790e+001 0.000000e+000 -4.693559e+002
      endloop
   endfacet
   facet normal 6.975471e-002 0.000000e+000 -9.975642e-001
      outer loop
         vertex 4.912838e+001 1.000000e+001 -4.674253e+002
         vertex 2.459790e+001 0.000000e+000 -4.693559e+002
         vertex 2.459790e+001 1.000000e+001 -4.693559e+002
      endloop
   endfacet
   facet normal 3.490127e-002 0.000000e+000 -9.993908e-001
      outer loop
         vertex 2.459790e+001 1.000000e+001 -4.693559e+002
         vertex 2.459790e+001 0.000000e+000 -4.693559e+002
         vertex 0.000000e+000 0.000000e+000 -4.700000e+002
      endloop
   endfacet
   facet normal 1.745063e-002 0.000000e+000 -9.998477e-001
      outer loop
         vertex 2.459790e+001 1.000000e+001 -4.693559e+002
         vertex 0.000000e+000 0.000000e+000 -4.700000e+002
         vertex 0.000000e+000 1.000000e+001 -4.700000e+002
      endloop
   endfacet
   facet normal -1.000000e+000 0.000000e+000 0.000000e+000
      outer loop
         vertex 0.000000e+000 1.000000e+001 -4.600000e+002
         vertex 0.000000e+000 1.000000e+001 -4.700000e+002
         vertex 0.000000e+000 0.000000e+000 -4.600000e+002
      endloop
   endfacet
   facet normal -1.000000e+000 0.000000e+000 0.000000e+000
      outer loop
         vertex 0.000000e+000 0.000000e+000 -4.600000e+002
         vertex 0.000000e+000 1.000000e+001 -4.700000e+002
         vertex 0.000000e+000 0.000000e+000 -4.700000e+002
      endloop
   endfacet
   facet normal -1.745063e-002 0.000000e+000 9.998477e-001
      outer loop
         vertex 0.000000e+000 1.000000e+001 -4.600000e+002
         vertex 0.000000e+000 0.000000e+000 -4.600000e+002
         vertex 2.407454e+001 1.000000e+001 -4.593696e+002
      endloop
   endfacet
   facet normal -3.490127e-002 0.000000e+000 9.993908e-001
      outer loop
         vertex 2.407454e+001 1.000000e+001 -4.593696e+002
         vertex 0.000000e+000 0.000000e+000 -4.600000e+002
         vertex 2.407454e+001 0.000000e+000 -4.593696e+002
      endloop
   endfacet
   facet normal -6.975471e-002 0.000000e+000 9.975642e-001
      outer loop
         vertex 2.407454e+001 1.000000e+001 -4.593696e+002
         vertex 2.407454e+001 0.000000e+000 -4.593696e+002
         vertex 4.808309e+001 1.000000e+001 -4.574801e+002
      endloop
   endfacet
   facet normal -8.715752e-002 0.000000e+000 9.961946e-001
      outer loop
         vertex 4.808309e+001 1.000000e+001 -4.574801e+002
         vertex 2.407454e+001 0.000000e+000 -4.593696e+002
         vertex 4.808309e+001 0.000000e+000 -4.574801e+002
      endloop
   endfacet
   facet normal -1.218676e-001 0.000000e+000 9.925464e-001
      outer loop
         vertex 4.808309e+001 1.000000e+001 -4.574801e+002
         vertex 4.808309e+001 0.000000e+000 -4.574801e+002
         vertex 7.195985e+001 1.000000e+001 -4.543366e+002
      endloop
   endfacet
   facet normal -1.391748e-001 0.000000e+000 9.902678e-001
      outer loop
         vertex 7.195985e+001 1.000000e+001 -4.543366e+002
         vertex 4.808309e+001 0.000000e+000 -4.574801e+002
         vertex 7.195985e+001 0.000000e+000 -4.543366e+002
      endloop
   endfacet
   facet normal -1.736464e-001 0.000000e+000 9.848080e-001
      outer loop
         vertex 7.195985e+001 1.000000e+001 -4.543366e+002
         vertex 7.195985e+001 0.000000e+000 -4.543366e+002
         vertex 9.563938e+001 1.000000e+001 -4.499479e+002
      endloop
   endfacet
   facet normal -1.908107e-001 0.000000e+000 9.816269e-001
      outer loop
         vertex 9.563938e+001 1.000000e+001 -4.499479e+002
         vertex 7.195985e+001 0.000000e+000 -4.543366e+002
         vertex 9.563938e+001 0.000000e+000 -4.499479e+002
      endloop
   endfacet
   facet normal -2.249493e-001 0.000000e+000 9.743705e-001
      outer loop
         vertex 9.563938e+001 1.000000e+001 -4.499479e+002
         vertex 9.563938e+001 0.000000e+000 -4.499479e+002
         vertex 1.190568e+002 1.000000e+001 -4.443259e+002
      endloop
   endfacet
   facet normal -2.419236e-001 0.000000e+000 9.702953e-001
      outer loop
         vertex 1.190568e+002 1.000000e+001 -4.443259e+002
         vertex 9.563938e+001 0.000000e+000 -4.499479e+002
         vertex 1.190568e+002 0.000000e+000 -4.443259e+002
      endloop
   endfacet
   facet normal -2.756357e-001 0.000000e+000 9.612622e-001
      outer loop
         vertex 1.190568e+002 1.000000e+001 -4.443259e+002
         vertex 1.190568e+002 0.000000e+000 -4.443259e+002
         vertex 1.421478e+002 1.000000e+001 -4.374860e+002
      endloop
   endfacet
   facet normal -2.923734e-001 0.000000e+000 9.563043e-001
      outer loop
         vertex 1.421478e+002 1.000000e+001 -4.374860e+002
         vertex 1.190568e+002 0.000000e+000 -4.443259e+002
         vertex 1.421478e+002 0.000000e+000 -4.374860e+002
      endloop
   endfacet
   facet normal -3.255665e-001 0.000000e+000 9.455192e-001
      outer loop
         vertex 1.421478e+002 1.000000e+001 -4.374860e+002
         vertex 1.421478e+002 0.000000e+000 -4.374860e+002
         vertex 1.648493e+002 1.000000e+001 -4.294470e+002
      endloop
   endfacet
   facet normal -3.420218e-001 0.000000e+000 9.396920e-001
      outer loop
         vertex 1.648493e+002 1.000000e+001 -4.294470e+002
         vertex 1.421478e+002 0.000000e+000 -4.374860e+002
         vertex 1.648493e+002 0.000000e+000 -4.294470e+002
      endloop
   endfacet
   facet normal -3.746050e-001 0.000000e+000 9.271845e-001
      outer loop
         vertex 1.648493e+002 1.000000e+001 -4.294470e+002
         vertex 1.648493e+002 0.000000e+000 -4.294470e+002
         vertex 1.870989e+002 1.000000e+001 -4.202309e+002
      endloop
   endfacet
   facet normal -3.907328e-001 0.000000e+000 9.205042e-001
      outer loop
         vertex 1.870989e+002 1.000000e+001 -4.202309e+002
         vertex 1.648493e+002 0.000000e+000 -4.294470e+002
         vertex 1.870989e+002 0.000000e+000 -4.202309e+002
      endloop
   endfacet
   facet normal -4.226167e-001 0.000000e+000 9.063085e-001
      outer loop
         vertex 1.870989e+002 1.000000e+001 -4.202309e+002
         vertex 1.870989e+002 0.000000e+000 -4.202309e+002
         vertex 2.088356e+002 1.000000e+001 -4.098630e+002
      endloop
   endfacet
   facet normal -4.383727e-001 0.000000e+000 8.987933e-001
      outer loop
         vertex 2.088356e+002 1.000000e+001 -4.098630e+002
         vertex 1.870989e+002 0.000000e+000 -4.202309e+002
         vertex 2.088356e+002 0.000000e+000 -4.098630e+002
      endloop
   endfacet
   facet normal -4.694700e-001 0.000000e+000 8.829485e-001
      outer loop
         vertex 2.088356e+002 1.000000e+001 -4.098630e+002
         vertex 2.088356e+002 0.000000e+000 -4.098630e+002
         vertex 2.300000e+002 1.000000e+001 -3.983717e+002
      endloop
   endfacet
   facet normal -4.848112e-001 0.000000e+000 8.746188e-001
      outer loop
         vertex 2.300000e+002 1.000000e+001 -3.983717e+002
         vertex 2.088356e+002 0.000000e+000 -4.098630e+002
         vertex 2.300000e+002 0.000000e+000 -3.983717e+002
      endloop
   endfacet
   facet normal -5.150366e-001 0.000000e+000 8.571682e-001
      outer loop
         vertex 2.300000e+002 1.000000e+001 -3.983717e+002
         vertex 2.300000e+002 0.000000e+000 -3.983717e+002
         vertex 2.505340e+002 1.000000e+001 -3.857885e+002
      endloop
   endfacet
   facet normal -5.299208e-001 0.000000e+000 8.480471e-001
      outer loop
         vertex 2.505340e+002 1.000000e+001 -3.857885e+002
         vertex 2.300000e+002 0.000000e+000 -3.983717e+002
         vertex 2.505340e+002 0.000000e+000 -3.857885e+002
      endloop
   endfacet
   facet normal -5.591914e-001 0.000000e+000 8.290386e-001
      outer loop
         vertex 2.505340e+002 1.000000e+001 -3.857885e+002
         vertex 2.505340e+002 0.000000e+000 -3.857885e+002
         vertex 2.703812e+002 1.000000e+001 -3.721478e+002
      endloop
   endfacet
   facet normal -5.735779e-001 0.000000e+000 8.191510e-001
      outer loop
         vertex 2.703812e+002 1.000000e+001 -3.721478e+002
         vertex 2.505340e+002 0.000000e+000 -3.857885e+002
         vertex 2.703812e+002 0.000000e+000 -3.721478e+002
      endloop
   endfacet
   facet normal -6.018136e-001 0.000000e+000 7.986366e-001
      outer loop
         vertex 2.703812e+002 1.000000e+001 -3.721478e+002
         vertex 2.703812e+002 0.000000e+000 -3.721478e+002
         vertex 2.894874e+002 1.000000e+001 -3.574872e+002
      endloop
   endfacet
   facet normal -6.156629e-001 0.000000e+000 7.880096e-001
      outer loop
         vertex 2.894874e+002 1.000000e+001 -3.574872e+002
         vertex 2.703812e+002 0.000000e+000 -3.721478e+002
         vertex 2.894874e+002 0.000000e+000 -3.574872e+002
      endloop
   endfacet
   facet normal -6.427863e-001 0.000000e+000 7.660456e-001
      outer loop
         vertex 2.894874e+002 1.000000e+001 -3.574872e+002
         vertex 2.894874e+002 0.000000e+000 -3.574872e+002
         vertex 3.078001e+002 1.000000e+001 -3.418466e+002
      endloop
   endfacet
   facet normal -6.560603e-001 0.000000e+000 7.547084e-001
      outer loop
         vertex 3.078001e+002 1.000000e+001 -3.418466e+002
         vertex 2.894874e+002 0.000000e+000 -3.574872e+002
         vertex 3.078001e+002 0.000000e+000 -3.418466e+002
      endloop
   endfacet
   facet normal -6.819971e-001 0.000000e+000 7.313549e-001
      outer loop
         vertex 3.078001e+002 1.000000e+001 -3.418466e+002
         vertex 3.078001e+002 0.000000e+000 -3.418466e+002
         vertex 3.252691e+002 1.000000e+001 -3.252691e+002
      endloop
   endfacet
   facet normal -6.946597e-001 0.000000e+000 7.193386e-001
      outer loop
         vertex 3.252691e+002 1.000000e+001 -3.252691e+002
         vertex 3.078001e+002 0.000000e+000 -3.418466e+002
         vertex 3.252691e+002 0.000000e+000 -3.252691e+002
      endloop
   endfacet
   facet normal 7.071068e-001 0.000000e+000 7.071068e-001
      outer loop
         vertex 3.323402e+002 1.000000e+001 -3.323402e+002
         vertex 3.252691e+002 1.000000e+001 -3.252691e+002
         vertex 3.323402e+002 -3.469447e-015 -3.323402e+002
      endloop
   endfacet
   facet normal 7.071068e-001 0.000000e+000 7.071068e-001
      outer loop
         vertex 3.323402e+002 -3.469447e-015 -3.323402e+002
         vertex 3.252691e+002 1.000000e+001 -3.252691e+002
         vertex 3.252691e+002 -3.469447e-015 -3.252691e+002
      endloop
   endfacet
   facet normal 0.000000e+000 1.000000e+000 0.000000e+000
      outer loop
         vertex 3.252691e+002 1.000000e+001 -3.252691e+002
         vertex 3.323402e+002 1.000000e+001 -3.323402e+002
         vertex 3.078001e+002 1.000000e+001 -3.418466e+002
      endloop
   endfacet
   facet normal 0.000000e+000 1.000000e+000 0.000000e+000
      outer loop
         vertex 3.078001e+002 1.000000e+001 -3.418466e+002
         vertex 3.323402e+002 1.000000e+001 -3.323402e+002
         vertex 3.144914e+002 1.000000e+001 -3.492781e+002
      endloop
   endfacet
   facet normal 0.000000e+000 1.000000e+000 0.000000e+000
      outer loop
         vertex 3.078001e+002 1.000000e+001 -3.418466e+002
         vertex 3.144914e+002 1.000000e+001 -3.492781e+002
         vertex 2.894874e+002 1.000000e+001 -3.574872e+002
      endloop
   endfacet
   facet normal 0.000000e+000 1.000000e+000 0.000000e+000
      outer loop
         vertex 2.894874e+002 1.000000e+001 -3.574872e+002
         vertex 3.144914e+002 1.000000e+001 -3.492781e+002
         vertex 2.957806e+002 1.000000e+001 -3.652586e+002
      endloop
   endfacet
   facet normal 0.000000e+000 1.000000e+000 0.000000e+000
      outer loop
         vertex 2.894874e+002 1.000000e+001 -3.574872e+002
         vertex 2.957806e+002 1.000000e+001 -3.652586e+002
         vertex 2.703812e+002 1.000000e+001 -3.721478e+002
      endloop
   endfacet
   facet normal 0.000000e+000 1.000000e+000 0.000000e+000
      outer loop
         vertex 2.703812e+002 1.000000e+001 -3.721478e+002
         vertex 2.957806e+002 1.000000e+001 -3.652586e+002
         vertex 2.762591e+002 1.000000e+001 -3.802380e+002
      endloop
   endfacet
   facet normal 0.000000e+000 1.000000e+000 0.000000e+000
      outer loop
         vertex 2.703812e+002 1.000000e+001 -3.721478e+002
         vertex 2.762591e+002 1.000000e+001 -3.802380e+002
         vertex 2.505340e+002 1.000000e+001 -3.857885e+002
      endloop
   endfacet
   facet normal 0.000000e+000 1.000000e+000 0.000000e+000
      outer loop
         vertex 2.505340e+002 1.000000e+001 -3.857885e+002
         vertex 2.762591e+002 1.000000e+001 -3.802380e+002
         vertex 2.559803e+002 1.000000e+001 -3.941752e+002
      endloop
   endfacet
   facet normal 0.000000e+000 1.000000e+000 0.000000e+000
      outer loop
         vertex 2.505340e+002 1.000000e+001 -3.857885e+002
         vertex 2.559803e+002 1.000000e+001 -3.941752e+002
         vertex 2.300000e+002 1.000000e+001 -3.983717e+002
      endloop
   endfacet
   facet normal 0.000000e+000 1.000000e+000 0.000000e+000
      outer loop
         vertex 2.300000e+002 1.000000e+001 -3.983717e+002
         vertex 2.559803e+002 1.000000e+001 -3.941752e+002
         vertex 2.350000e+002 1.000000e+001 -4.070320e+002
      endloop
   endfacet
   facet normal 0.000000e+000 1.000000e+000 0.000000e+000
      outer loop
         vertex 2.300000e+002 1.000000e+001 -3.983717e+002
         vertex 2.350000e+002 1.000000e+001 -4.070320e+002
         vertex 2.088356e+002 1.000000e+001 -4.098630e+002
      endloop
   endfacet
   facet normal 0.000000e+000 1.000000e+000 0.000000e+000
      outer loop
         vertex 2.088356e+002 1.000000e+001 -4.098630e+002
         vertex 2.350000e+002 1.000000e+001 -4.070320e+002
         vertex 2.133755e+002 1.000000e+001 -4.187730e+002
      endloop
   endfacet
   facet normal 0.000000e+000 1.000000e+000 0.000000e+000
      outer loop
         vertex 2.088356e+002 1.000000e+001 -4.098630e+002
         vertex 2.133755e+002 1.000000e+001 -4.187730e+002
         vertex 1.870989e+002 1.000000e+001 -4.202309e+002
      endloop
   endfacet
   facet normal 0.000000e+000 1.000000e+000 0.000000e+000
      outer loop
         vertex 1.870989e+002 1.000000e+001 -4.202309e+002
         vertex 2.133755e+002 1.000000e+001 -4.187730e+002
         vertex 1.911662e+002 1.000000e+001 -4.293664e+002
      endloop
   endfacet
   facet normal 0.000000e+000 1.000000e+000 0.000000e+000
      outer loop
         vertex 1.870989e+002 1.000000e+001 -4.202309e+002
         vertex 1.911662e+002 1.000000e+001 -4.293664e+002
         vertex 1.648493e+002 1.000000e+001 -4.294470e+002
      endloop
   endfacet
   facet normal 0.000000e+000 1.000000e+000 0.000000e+000
      outer loop
         vertex 1.648493e+002 1.000000e+001 -4.294470e+002
         vertex 1.911662e+002 1.000000e+001 -4.293664e+002
         vertex 1.684329e+002 1.000000e+001 -4.387828e+002
      endloop
   endfacet
   facet normal 0.000000e+000 1.000000e+000 0.000000e+000
      outer loop
         vertex 1.648493e+002 1.000000e+001 -4.294470e+002
         vertex 1.684329e+002 1.000000e+001 -4.387828e+002
         vertex 1.421478e+002 1.000000e+001 -4.374860e+002
      endloop
   endfacet
   facet normal 0.000000e+000 1.000000e+000 0.000000e+000
      outer loop
         vertex 1.421478e+002 1.000000e+001 -4.374860e+002
         vertex 1.684329e+002 1.000000e+001 -4.387828e+002
         vertex 1.452380e+002 1.000000e+001 -4.469966e+002
      endloop
   endfacet
   facet normal 0.000000e+000 1.000000e+000 0.000000e+000
      outer loop
         vertex 1.421478e+002 1.000000e+001 -4.374860e+002
         vertex 1.452380e+002 1.000000e+001 -4.469966e+002
         vertex 1.190568e+002 1.000000e+001 -4.443259e+002
      endloop
   endfacet
   facet normal 0.000000e+000 1.000000e+000 0.000000e+000
      outer loop
         vertex 1.190568e+002 1.000000e+001 -4.443259e+002
         vertex 1.452380e+002 1.000000e+001 -4.469966e+002
         vertex 1.216450e+002 1.000000e+001 -4.539851e+002
      endloop
   endfacet
   facet normal 0.000000e+000 1.000000e+000 0.000000e+000
      outer loop
         vertex 1.190568e+002 1.000000e+001 -4.443259e+002
         vertex 1.216450e+002 1.000000e+001 -4.539851e+002
         vertex 9.563938e+001 1.000000e+001 -4.499479e+002
      endloop
   endfacet
   facet normal 0.000000e+000 1.000000e+000 0.000000e+000
      outer loop
         vertex 9.563938e+001 1.000000e+001 -4.499479e+002
         vertex 1.216450e+002 1.000000e+001 -4.539851e+002
         vertex 9.771849e+001 1.000000e+001 -4.597294e+002
      endloop
   endfacet
   facet normal 0.000000e+000 1.000000e+000 0.000000e+000
      outer loop
         vertex 9.563938e+001 1.000000e+001 -4.499479e+002
         vertex 9.771849e+001 1.000000e+001 -4.597294e+002
         vertex 7.195985e+001 1.000000e+001 -4.543366e+002
      endloop
   endfacet
   facet normal 0.000000e+000 1.000000e+000 0.000000e+000
      outer loop
         vertex 7.195985e+001 1.000000e+001 -4.543366e+002
         vertex 9.771849e+001 1.000000e+001 -4.597294e+002
         vertex 7.352420e+001 1.000000e+001 -4.642135e+002
      endloop
   endfacet
   facet normal 0.000000e+000 1.000000e+000 0.000000e+000
      outer loop
         vertex 7.195985e+001 1.000000e+001 -4.543366e+002
         vertex 7.352420e+001 1.000000e+001 -4.642135e+002
         vertex 4.808309e+001 1.000000e+001 -4.574801e+002
      endloop
   endfacet
   facet normal 0.000000e+000 1.000000e+000 0.000000e+000
      outer loop
         vertex 4.808309e+001 1.000000e+001 -4.574801e+002
         vertex 7.352420e+001 1.000000e+001 -4.642135e+002
         vertex 4.912838e+001 1.000000e+001 -4.674253e+002
      endloop
   endfacet
   facet normal 0.000000e+000 1.000000e+000 0.000000e+000
      outer loop
         vertex 4.808309e+001 1.000000e+001 -4.574801e+002
         vertex 4.912838e+001 1.000000e+001 -4.674253e+002
         vertex 2.407454e+001 1.000000e+001 -4.593696e+002
      endloop
   endfacet
   facet normal 0.000000e+000 1.000000e+000 0.000000e+000
      outer loop
         vertex 2.407454e+001 1.000000e+001 -4.593696e+002
         vertex 4.912838e+001 1.000000e+001 -4.674253e+002
         vertex 2.459790e+001 1.000000e+001 -4.693559e+002
      endloop
   endfacet
   facet normal 0.000000e+000 1.000000e+000 0.000000e+000
      outer loop
         vertex 2.407454e+001 1.000000e+001 -4.593696e+002
         vertex 2.459790e+001 1.000000e+001 -4.693559e+002
         vertex 0.000000e+000 1.000000e+001 -4.600000e+002
      endloop
   endfacet
   facet normal 0.000000e+000 1.000000e+000 0.000000e+000
      outer loop
         vertex 0.000000e+000 1.000000e+001 -4.600000e+002
         vertex 2.459790e+001 1.000000e+001 -4.693559e+002
         vertex 0.000000e+000 1.000000e+001 -4.700000e+002
      endloop
   endfacet
   facet normal 0.000000e+000 -1.000000e+000 0.000000e+000
      outer loop
         vertex 0.000000e+000 0.000000e+000 -4.600000e+002
         vertex 0.000000e+000 0.000000e+000 -4.700000e+002
         vertex 2.407454e+001 0.000000e+000 -4.593696e+002
      endloop
   endfacet
   facet normal 0.000000e+000 -1.000000e+000 0.000000e+000
      outer loop
         vertex 2.407454e+001 0.000000e+000 -4.593696e+002
         vertex 0.000000e+000 0.000000e+000 -4.700000e+002
         vertex 2.459790e+001 0.000000e+000 -4.693559e+002
      endloop
   endfacet
   facet normal 0.000000e+000 -1.000000e+000 0.000000e+000
      outer loop
         vertex 2.407454e+001 0.000000e+000 -4.593696e+002
         vertex 2.459790e+001 0.000000e+000 -4.693559e+002
         vertex 4.808309e+001 0.000000e+000 -4.574801e+002
      endloop
   endfacet
   facet normal 0.000000e+000 -1.000000e+000 0.000000e+000
      outer loop
         vertex 4.808309e+001 0.000000e+000 -4.574801e+002
         vertex 2.459790e+001 0.000000e+000 -4.693559e+002
         vertex 4.912838e+001 0.000000e+000 -4.674253e+002
      endloop
   endfacet
   facet normal 0.000000e+000 -1.000000e+000 0.000000e+000
      outer loop
         vertex 4.808309e+001 0.000000e+000 -4.574801e+002
         vertex 4.912838e+001 0.000000e+000 -4.674253e+002
         vertex 7.195985e+001 0.000000e+000 -4.543366e+002
      endloop
   endfacet
   facet normal 0.000000e+000 -1.000000e+000 0.000000e+000
      outer loop
         vertex 7.195985e+001 0.000000e+000 -4.543366e+002
         vertex 4.912838e+001 0.000000e+000 -4.674253e+002
         vertex 7.352420e+001 0.000000e+000 -4.642135e+002
      endloop
   endfacet
   facet normal 0.000000e+000 -1.000000e+000 0.000000e+000
      outer loop
         vertex 7.195985e+001 0.000000e+000 -4.543366e+002
         vertex 7.352420e+001 0.000000e+000 -4.642135e+002
         vertex 9.563938e+001 0.000000e+000 -4.499479e+002
      endloop
   endfacet
   facet normal 0.000000e+000 -1.000000e+000 0.000000e+000
      outer loop
         vertex 9.563938e+001 0.000000e+000 -4.499479e+002
         vertex 7.352420e+001 0.000000e+000 -4.642135e+002
         vertex 9.771849e+001 0.000000e+000 -4.597294e+002
      endloop
   endfacet
   facet normal 0.000000e+000 -1.000000e+000 0.000000e+000
      outer loop
         vertex 9.563938e+001 0.000000e+000 -4.499479e+002
         vertex 9.771849e+001 0.000000e+000 -4.597294e+002
         vertex 1.190568e+002 0.000000e+000 -4.443259e+002
      endloop
   endfacet
   facet normal 0.000000e+000 -1.000000e+000 0.000000e+000
      outer loop
         vertex 1.190568e+002 0.000000e+000 -4.443259e+002
         vertex 9.771849e+001 0.000000e+000 -4.597294e+002
         vertex 1.216450e+002 0.000000e+000 -4.539851e+002
      endloop
   endfacet
   facet normal 0.000000e+000 -1.000000e+000 0.000000e+000
      outer loop
         vertex 1.190568e+002 0.000000e+000 -4.443259e+002
         vertex 1.216450e+002 0.000000e+000 -4.539851e+002
         vertex 1.421478e+002 0.000000e+000 -4.374860e+002
      endloop
   endfacet
   facet normal 0.000000e+000 -1.000000e+000 0.000000e+000
      outer loop
         vertex 1.421478e+002 0.000000e+000 -4.374860e+002
         vertex 1.216450e+002 0.000000e+000 -4.539851e+002
         vertex 1.452380e+002 0.000000e+000 -4.469966e+002
      endloop
   endfacet
   facet normal 0.000000e+000 -1.000000e+000 0.000000e+000
      outer loop
         vertex 1.421478e+002 0.000000e+000 -4.374860e+002
         vertex 1.452380e+002 0.000000e+000 -4.469966e+002
         vertex 1.648493e+002 0.000000e+000 -4.294470e+002
      endloop
   endfacet
   facet normal 0.000000e+000 -1.000000e+000 0.000000e+000
      outer loop
         vertex 1.648493e+002 0.000000e+000 -4.294470e+002
         vertex 1.452380e+002 0.000000e+000 -4.469966e+002
         vertex 1.684329e+002 0.000000e+000 -4.387828e+002
      endloop
   endfacet
   facet normal 0.000000e+000 -1.000000e+000 0.000000e+000
      outer loop
         vertex 1.648493e+002 0.000000e+000 -4.294470e+002
         vertex 1.684329e+002 0.000000e+000 -4.387828e+002
         vertex 1.870989e+002 0.000000e+000 -4.202309e+002
      endloop
   endfacet
   facet normal 0.000000e+000 -1.000000e+000 0.000000e+000
      outer loop
         vertex 1.870989e+002 0.000000e+000 -4.202309e+002
         vertex 1.684329e+002 0.000000e+000 -4.387828e+002
         vertex 1.911662e+002 0.000000e+000 -4.293664e+002
      endloop
   endfacet
   facet normal 0.000000e+000 -1.000000e+000 0.000000e+000
      outer loop
         vertex 1.870989e+002 0.000000e+000 -4.202309e+002
         vertex 1.911662e+002 0.000000e+000 -4.293664e+002
         vertex 2.088356e+002 0.000000e+000 -4.098630e+002
      endloop
   endfacet
   facet normal 0.000000e+000 -1.000000e+000 0.000000e+000
      outer loop
         vertex 2.088356e+002 0.000000e+000 -4.098630e+002
         vertex 1.911662e+002 0.000000e+000 -4.293664e+002
         vertex 2.133755e+002 0.000000e+000 -4.187730e+002
      endloop
   endfacet
   facet normal 0.000000e+000 -1.000000e+000 0.000000e+000
      outer loop
         vertex 2.088356e+002 0.000000e+000 -4.098630e+002
         vertex 2.133755e+002 0.000000e+000 -4.187730e+002
         vertex 2.300000e+002 0.000000e+000 -3.983717e+002
      endloop
   endfacet
   facet normal 0.000000e+000 -1.000000e+000 0.000000e+000
      outer loop
         vertex 2.300000e+002 0.000000e+000 -3.983717e+002
         vertex 2.133755e+002 0.000000e+000 -4.187730e+002
         vertex 2.350000e+002 0.000000e+000 -4.070320e+002
      endloop
   endfacet
   facet normal 0.000000e+000 -1.000000e+000 0.000000e+000
      outer loop
         vertex 2.300000e+002 0.000000e+000 -3.983717e+002
         vertex 2.350000e+002 0.000000e+000 -4.070320e+002
         vertex 2.505340e+002 0.000000e+000 -3.857885e+002
      endloop
   endfacet
   facet normal 0.000000e+000 -1.000000e+000 0.000000e+000
      outer loop
         vertex 2.505340e+002 0.000000e+000 -3.857885e+002
         vertex 2.350000e+002 0.000000e+000 -4.070320e+002
         vertex 2.559803e+002 0.000000e+000 -3.941752e+002
      endloop
   endfacet
   facet normal 0.000000e+000 -1.000000e+000 0.000000e+000
      outer loop
         vertex 2.505340e+002 0.000000e+000 -3.857885e+002
         vertex 2.559803e+002 0.000000e+000 -3.941752e+002
         vertex 2.703812e+002 0.000000e+000 -3.721478e+002
      endloop
   endfacet
   facet normal 0.000000e+000 -1.000000e+000 0.000000e+000
      outer loop
         vertex 2.703812e+002 0.000000e+000 -3.721478e+002
         vertex 2.559803e+002 0.000000e+000 -3.941752e+002
         vertex 2.762591e+002 0.000000e+000 -3.802380e+002
      endloop
   endfacet
   facet normal 0.000000e+000 -1.000000e+000 0.000000e+000
      outer loop
         vertex 2.703812e+002 0.000000e+000 -3.721478e+002
         vertex 2.762591e+002 0.000000e+000 -3.802380e+002
         vertex 2.894874e+002 0.000000e+000 -3.574872e+002
      endloop
   endfacet
   facet normal 0.000000e+000 -1.000000e+000 0.000000e+000
      outer loop
         vertex 2.894874e+002 0.000000e+000 -3.574872e+002
         vertex 2.762591e+002 0.000000e+000 -3.802380e+002
         vertex 2.957806e+002 0.000000e+000 -3.652586e+002
      endloop
   endfacet
   facet normal 0.000000e+000 -1.000000e+000 0.000000e+000
      outer loop
         vertex 2.894874e+002 0.000000e+000 -3.574872e+002
         vertex 2.957806e+002 0.000000e+000 -3.652586e+002
         vertex 3.078001e+002 0.000000e+000 -3.418466e+002
      endloop
   endfacet
   facet normal 0.000000e+000 -1.000000e+000 0.000000e+000
      outer loop
         vertex 3.078001e+002 0.000000e+000 -3.418466e+002
         vertex 2.957806e+002 0.000000e+000 -3.652586e+002
         vertex 3.144914e+002 0.000000e+000 -3.492781e+002
      endloop
   endfacet
   facet normal 0.000000e+000 -1.000000e+000 0.000000e+000
      outer loop
         vertex 3.078001e+002 0.000000e+000 -3.418466e+002
         vertex 3.144914e+002 0.000000e+000 -3.492781e+002
         vertex 3.252691e+002 0.000000e+000 -3.252691e+002
      endloop
   endfacet
   facet normal 0.000000e+000 -1.000000e+000 0.000000e+000
      outer loop
         vertex 3.252691e+002 0.000000e+000 -3.252691e+002
         vertex 3.144914e+002 0.000000e+000 -3.492781e+002
         vertex 3.323402e+002 0.000000e+000 -3.323402e+002
      endloop
   endfacet
endsolid