solid OuterWhiteCurve450_Default_sldprt
   facet normal -1.745063e-002 0.000000e+000 9.998477e-001
      outer loop
         vertex 0.000000e+000 1.000000e+001 -7.200000e+002
         vertex 0.000000e+000 0.000000e+000 -7.200000e+002
         vertex 3.768189e+001 1.000000e+001 -7.190132e+002
      endloop
   endfacet
   facet normal -3.490127e-002 0.000000e+000 9.993908e-001
      outer loop
         vertex 3.768189e+001 1.000000e+001 -7.190132e+002
         vertex 0.000000e+000 0.000000e+000 -7.200000e+002
         vertex 3.768189e+001 0.000000e+000 -7.190132e+002
      endloop
   endfacet
   facet normal -6.975471e-002 0.000000e+000 9.975642e-001
      outer loop
         vertex 3.768189e+001 1.000000e+001 -7.190132e+002
         vertex 3.768189e+001 0.000000e+000 -7.190132e+002
         vertex 7.526049e+001 1.000000e+001 -7.160557e+002
      endloop
   endfacet
   facet normal -8.715752e-002 0.000000e+000 9.961946e-001
      outer loop
         vertex 7.526049e+001 1.000000e+001 -7.160557e+002
         vertex 3.768189e+001 0.000000e+000 -7.190132e+002
         vertex 7.526049e+001 0.000000e+000 -7.160557e+002
      endloop
   endfacet
   facet normal -1.218676e-001 0.000000e+000 9.925464e-001
      outer loop
         vertex 7.526049e+001 1.000000e+001 -7.160557e+002
         vertex 7.526049e+001 0.000000e+000 -7.160557e+002
         vertex 1.126328e+002 1.000000e+001 -7.111356e+002
      endloop
   endfacet
   facet normal -1.391748e-001 0.000000e+000 9.902678e-001
      outer loop
         vertex 1.126328e+002 1.000000e+001 -7.111356e+002
         vertex 7.526049e+001 0.000000e+000 -7.160557e+002
         vertex 1.126328e+002 0.000000e+000 -7.111356e+002
      endloop
   endfacet
   facet normal -1.736464e-001 0.000000e+000 9.848080e-001
      outer loop
         vertex 1.126328e+002 1.000000e+001 -7.111356e+002
         vertex 1.126328e+002 0.000000e+000 -7.111356e+002
         vertex 1.496964e+002 1.000000e+001 -7.042662e+002
      endloop
   endfacet
   facet normal -1.908107e-001 0.000000e+000 9.816269e-001
      outer loop
         vertex 1.496964e+002 1.000000e+001 -7.042662e+002
         vertex 1.126328e+002 0.000000e+000 -7.111356e+002
         vertex 1.496964e+002 0.000000e+000 -7.042662e+002
      endloop
   endfacet
   facet normal -2.249493e-001 0.000000e+000 9.743705e-001
      outer loop
         vertex 1.496964e+002 1.000000e+001 -7.042662e+002
         vertex 1.496964e+002 0.000000e+000 -7.042662e+002
         vertex 1.863497e+002 1.000000e+001 -6.954666e+002
      endloop
   endfacet
   facet normal -2.419236e-001 0.000000e+000 9.702953e-001
      outer loop
         vertex 1.863497e+002 1.000000e+001 -6.954666e+002
         vertex 1.496964e+002 0.000000e+000 -7.042662e+002
         vertex 1.863497e+002 0.000000e+000 -6.954666e+002
      endloop
   endfacet
   facet normal -2.756357e-001 0.000000e+000 9.612622e-001
      outer loop
         vertex 1.863497e+002 1.000000e+001 -6.954666e+002
         vertex 1.863497e+002 0.000000e+000 -6.954666e+002
         vertex 2.224922e+002 1.000000e+001 -6.847607e+002
      endloop
   endfacet
   facet normal -2.923734e-001 0.000000e+000 9.563043e-001
      outer loop
         vertex 2.224922e+002 1.000000e+001 -6.847607e+002
         vertex 1.863497e+002 0.000000e+000 -6.954666e+002
         vertex 2.224922e+002 0.000000e+000 -6.847607e+002
      endloop
   endfacet
   facet normal -3.255665e-001 0.000000e+000 9.455192e-001
      outer loop
         vertex 2.224922e+002 1.000000e+001 -6.847607e+002
         vertex 2.224922e+002 0.000000e+000 -6.847607e+002
         vertex 2.580249e+002 1.000000e+001 -6.721779e+002
      endloop
   endfacet
   facet normal -3.420218e-001 0.000000e+000 9.396920e-001
      outer loop
         vertex 2.580249e+002 1.000000e+001 -6.721779e+002
         vertex 2.224922e+002 0.000000e+000 -6.847607e+002
         vertex 2.580249e+002 0.000000e+000 -6.721779e+002
      endloop
   endfacet
   facet normal -3.746050e-001 0.000000e+000 9.271845e-001
      outer loop
         vertex 2.580249e+002 1.000000e+001 -6.721779e+002
         vertex 2.580249e+002 0.000000e+000 -6.721779e+002
         vertex 2.928504e+002 1.000000e+001 -6.577527e+002
      endloop
   endfacet
   facet normal -3.907328e-001 0.000000e+000 9.205042e-001
      outer loop
         vertex 2.928504e+002 1.000000e+001 -6.577527e+002
         vertex 2.580249e+002 0.000000e+000 -6.721779e+002
         vertex 2.928504e+002 0.000000e+000 -6.577527e+002
      endloop
   endfacet
   facet normal -4.226167e-001 0.000000e+000 9.063085e-001
      outer loop
         vertex 2.928504e+002 1.000000e+001 -6.577527e+002
         vertex 2.928504e+002 0.000000e+000 -6.577527e+002
         vertex 3.268731e+002 1.000000e+001 -6.415247e+002
      endloop
   endfacet
   facet normal -4.383727e-001 0.000000e+000 8.987933e-001
      outer loop
         vertex 3.268731e+002 1.000000e+001 -6.415247e+002
         vertex 2.928504e+002 0.000000e+000 -6.577527e+002
         vertex 3.268731e+002 0.000000e+000 -6.415247e+002
      endloop
   endfacet
   facet normal -4.694700e-001 0.000000e+000 8.829485e-001
      outer loop
         vertex 3.268731e+002 1.000000e+001 -6.415247e+002
         vertex 3.268731e+002 0.000000e+000 -6.415247e+002
         vertex 3.600000e+002 1.000000e+001 -6.235383e+002
      endloop
   endfacet
   facet normal -4.848112e-001 0.000000e+000 8.746188e-001
      outer loop
         vertex 3.600000e+002 1.000000e+001 -6.235383e+002
         vertex 3.268731e+002 0.000000e+000 -6.415247e+002
         vertex 3.600000e+002 0.000000e+000 -6.235383e+002
      endloop
   endfacet
   facet normal -5.150366e-001 0.000000e+000 8.571682e-001
      outer loop
         vertex 3.600000e+002 1.000000e+001 -6.235383e+002
         vertex 3.600000e+002 0.000000e+000 -6.235383e+002
         vertex 3.921401e+002 1.000000e+001 -6.038428e+002
      endloop
   endfacet
   facet normal -5.299208e-001 0.000000e+000 8.480471e-001
      outer loop
         vertex 3.921401e+002 1.000000e+001 -6.038428e+002
         vertex 3.600000e+002 0.000000e+000 -6.235383e+002
         vertex 3.921401e+002 0.000000e+000 -6.038428e+002
      endloop
   endfacet
   facet normal -5.591914e-001 0.000000e+000 8.290386e-001
      outer loop
         vertex 3.921401e+002 1.000000e+001 -6.038428e+002
         vertex 3.921401e+002 0.000000e+000 -6.038428e+002
         vertex 4.232054e+002 1.000000e+001 -5.824922e+002
      endloop
   endfacet
   facet normal -5.735779e-001 0.000000e+000 8.191510e-001
      outer loop
         vertex 4.232054e+002 1.000000e+001 -5.824922e+002
         vertex 3.921401e+002 0.000000e+000 -6.038428e+002
         vertex 4.232054e+002 0.000000e+000 -5.824922e+002
      endloop
   endfacet
   facet normal -6.018136e-001 0.000000e+000 7.986366e-001
      outer loop
         vertex 4.232054e+002 1.000000e+001 -5.824922e+002
         vertex 4.232054e+002 0.000000e+000 -5.824922e+002
         vertex 4.531107e+002 1.000000e+001 -5.595451e+002
      endloop
   endfacet
   facet normal -6.156629e-001 0.000000e+000 7.880096e-001
      outer loop
         vertex 4.531107e+002 1.000000e+001 -5.595451e+002
         vertex 4.232054e+002 0.000000e+000 -5.824922e+002
         vertex 4.531107e+002 0.000000e+000 -5.595451e+002
      endloop
   endfacet
   facet normal -6.427863e-001 0.000000e+000 7.660456e-001
      outer loop
         vertex 4.531107e+002 1.000000e+001 -5.595451e+002
         vertex 4.531107e+002 0.000000e+000 -5.595451e+002
         vertex 4.817740e+002 1.000000e+001 -5.350643e+002
      endloop
   endfacet
   facet normal -6.560603e-001 0.000000e+000 7.547084e-001
      outer loop
         vertex 4.817740e+002 1.000000e+001 -5.350643e+002
         vertex 4.531107e+002 0.000000e+000 -5.595451e+002
         vertex 4.817740e+002 0.000000e+000 -5.350643e+002
      endloop
   endfacet
   facet normal -6.819971e-001 0.000000e+000 7.313549e-001
      outer loop
         vertex 4.817740e+002 1.000000e+001 -5.350643e+002
         vertex 4.817740e+002 0.000000e+000 -5.350643e+002
         vertex 5.091169e+002 1.000000e+001 -5.091169e+002
      endloop
   endfacet
   facet normal -6.946597e-001 0.000000e+000 7.193386e-001
      outer loop
         vertex 5.091169e+002 1.000000e+001 -5.091169e+002
         vertex 4.817740e+002 0.000000e+000 -5.350643e+002
         vertex 5.091169e+002 0.000000e+000 -5.091169e+002
      endloop
   endfacet
   facet normal 7.071068e-001 0.000000e+000 7.071068e-001
      outer loop
         vertex 5.303301e+002 1.000000e+001 -5.303301e+002
         vertex 5.091169e+002 1.000000e+001 -5.091169e+002
         vertex 5.303301e+002 -3.469447e-015 -5.303301e+002
      endloop
   endfacet
   facet normal 7.071068e-001 0.000000e+000 7.071068e-001
      outer loop
         vertex 5.303301e+002 -3.469447e-015 -5.303301e+002
         vertex 5.091169e+002 1.000000e+001 -5.091169e+002
         vertex 5.091169e+002 -3.469447e-015 -5.091169e+002
      endloop
   endfacet
   facet normal 6.946597e-001 0.000000e+000 -7.193386e-001
      outer loop
         vertex 5.303301e+002 1.000000e+001 -5.303301e+002
         vertex 5.303301e+002 0.000000e+000 -5.303301e+002
         vertex 5.018480e+002 0.000000e+000 -5.573586e+002
      endloop
   endfacet
   facet normal 6.819971e-001 0.000000e+000 -7.313549e-001
      outer loop
         vertex 5.303301e+002 1.000000e+001 -5.303301e+002
         vertex 5.018480e+002 0.000000e+000 -5.573586e+002
         vertex 5.018480e+002 1.000000e+001 -5.573586e+002
      endloop
   endfacet
   facet normal 6.560604e-001 0.000000e+000 -7.547084e-001
      outer loop
         vertex 5.018480e+002 1.000000e+001 -5.573586e+002
         vertex 5.018480e+002 0.000000e+000 -5.573586e+002
         vertex 4.719903e+002 0.000000e+000 -5.828594e+002
      endloop
   endfacet
   facet normal 6.427863e-001 0.000000e+000 -7.660456e-001
      outer loop
         vertex 5.018480e+002 1.000000e+001 -5.573586e+002
         vertex 4.719903e+002 0.000000e+000 -5.828594e+002
         vertex 4.719903e+002 1.000000e+001 -5.828594e+002
      endloop
   endfacet
   facet normal 6.156629e-001 0.000000e+000 -7.880096e-001
      outer loop
         vertex 4.719903e+002 1.000000e+001 -5.828594e+002
         vertex 4.719903e+002 0.000000e+000 -5.828594e+002
         vertex 4.408389e+002 0.000000e+000 -6.067628e+002
      endloop
   endfacet
   facet normal 6.018136e-001 0.000000e+000 -7.986366e-001
      outer loop
         vertex 4.719903e+002 1.000000e+001 -5.828594e+002
         vertex 4.408389e+002 0.000000e+000 -6.067628e+002
         vertex 4.408389e+002 1.000000e+001 -6.067628e+002
      endloop
   endfacet
   facet normal 5.735779e-001 0.000000e+000 -8.191510e-001
      outer loop
         vertex 4.408389e+002 1.000000e+001 -6.067628e+002
         vertex 4.408389e+002 0.000000e+000 -6.067628e+002
         vertex 4.084793e+002 0.000000e+000 -6.290029e+002
      endloop
   endfacet
   facet normal 5.591915e-001 0.000000e+000 -8.290386e-001
      outer loop
         vertex 4.408389e+002 1.000000e+001 -6.067628e+002
         vertex 4.084793e+002 0.000000e+000 -6.290029e+002
         vertex 4.084793e+002 1.000000e+001 -6.290029e+002
      endloop
   endfacet
   facet normal 5.299208e-001 0.000000e+000 -8.480471e-001
      outer loop
         vertex 4.084793e+002 1.000000e+001 -6.290029e+002
         vertex 4.084793e+002 0.000000e+000 -6.290029e+002
         vertex 3.750000e+002 0.000000e+000 -6.495190e+002
      endloop
   endfacet
   facet normal 5.150366e-001 0.000000e+000 -8.571682e-001
      outer loop
         vertex 4.084793e+002 1.000000e+001 -6.290029e+002
         vertex 3.750000e+002 0.000000e+000 -6.495190e+002
         vertex 3.750000e+002 1.000000e+001 -6.495190e+002
      endloop
   endfacet
   facet normal 4.848112e-001 0.000000e+000 -8.746188e-001
      outer loop
         vertex 3.750000e+002 1.000000e+001 -6.495190e+002
         vertex 3.750000e+002 0.000000e+000 -6.495190e+002
         vertex 3.404929e+002 0.000000e+000 -6.682549e+002
      endloop
   endfacet
   facet normal 4.694700e-001 0.000000e+000 -8.829485e-001
      outer loop
         vertex 3.750000e+002 1.000000e+001 -6.495190e+002
         vertex 3.404929e+002 0.000000e+000 -6.682549e+002
         vertex 3.404929e+002 1.000000e+001 -6.682549e+002
      endloop
   endfacet
   facet normal 4.383727e-001 0.000000e+000 -8.987933e-001
      outer loop
         vertex 3.404929e+002 1.000000e+001 -6.682549e+002
         vertex 3.404929e+002 0.000000e+000 -6.682549e+002
         vertex 3.050525e+002 0.000000e+000 -6.851591e+002
      endloop
   endfacet
   facet normal 4.226167e-001 0.000000e+000 -9.063085e-001
      outer loop
         vertex 3.404929e+002 1.000000e+001 -6.682549e+002
         vertex 3.050525e+002 0.000000e+000 -6.851591e+002
         vertex 3.050525e+002 1.000000e+001 -6.851591e+002
      endloop
   endfacet
   facet normal 3.907328e-001 0.000000e+000 -9.205042e-001
      outer loop
         vertex 3.050525e+002 1.000000e+001 -6.851591e+002
         vertex 3.050525e+002 0.000000e+000 -6.851591e+002
         vertex 2.687760e+002 0.000000e+000 -7.001853e+002
      endloop
   endfacet
   facet normal 3.746050e-001 0.000000e+000 -9.271845e-001
      outer loop
         vertex 3.050525e+002 1.000000e+001 -6.851591e+002
         vertex 2.687760e+002 0.000000e+000 -7.001853e+002
         vertex 2.687760e+002 1.000000e+001 -7.001853e+002
      endloop
   endfacet
   facet normal 3.420218e-001 0.000000e+000 -9.396920e-001
      outer loop
         vertex 2.687760e+002 1.000000e+001 -7.001853e+002
         vertex 2.687760e+002 0.000000e+000 -7.001853e+002
         vertex 2.317628e+002 0.000000e+000 -7.132924e+002
      endloop
   endfacet
   facet normal 3.255665e-001 0.000000e+000 -9.455192e-001
      outer loop
         vertex 2.687760e+002 1.000000e+001 -7.001853e+002
         vertex 2.317628e+002 0.000000e+000 -7.132924e+002
         vertex 2.317628e+002 1.000000e+001 -7.132924e+002
      endloop
   endfacet
   facet normal 2.923734e-001 0.000000e+000 -9.563043e-001
      outer loop
         vertex 2.317628e+002 1.000000e+001 -7.132924e+002
         vertex 2.317628e+002 0.000000e+000 -7.132924e+002
         vertex 1.941143e+002 0.000000e+000 -7.244444e+002
      endloop
   endfacet
   facet normal 2.756356e-001 0.000000e+000 -9.612622e-001
      outer loop
         vertex 2.317628e+002 1.000000e+001 -7.132924e+002
         vertex 1.941143e+002 0.000000e+000 -7.244444e+002
         vertex 1.941143e+002 1.000000e+001 -7.244444e+002
      endloop
   endfacet
   facet normal 2.419236e-001 0.000000e+000 -9.702953e-001
      outer loop
         vertex 1.941143e+002 1.000000e+001 -7.244444e+002
         vertex 1.941143e+002 0.000000e+000 -7.244444e+002
         vertex 1.559338e+002 0.000000e+000 -7.336107e+002
      endloop
   endfacet
   facet normal 2.249493e-001 0.000000e+000 -9.743705e-001
      outer loop
         vertex 1.941143e+002 1.000000e+001 -7.244444e+002
         vertex 1.559338e+002 0.000000e+000 -7.336107e+002
         vertex 1.559338e+002 1.000000e+001 -7.336107e+002
      endloop
   endfacet
   facet normal 1.908107e-001 0.000000e+000 -9.816269e-001
      outer loop
         vertex 1.559338e+002 1.000000e+001 -7.336107e+002
         vertex 1.559338e+002 0.000000e+000 -7.336107e+002
         vertex 1.173259e+002 0.000000e+000 -7.407662e+002
      endloop
   endfacet
   facet normal 1.736464e-001 0.000000e+000 -9.848080e-001
      outer loop
         vertex 1.559338e+002 1.000000e+001 -7.336107e+002
         vertex 1.173259e+002 0.000000e+000 -7.407662e+002
         vertex 1.173259e+002 1.000000e+001 -7.407662e+002
      endloop
   endfacet
   facet normal 1.391748e-001 0.000000e+000 -9.902678e-001
      outer loop
         vertex 1.173259e+002 1.000000e+001 -7.407662e+002
         vertex 1.173259e+002 0.000000e+000 -7.407662e+002
         vertex 7.839635e+001 0.000000e+000 -7.458914e+002
      endloop
   endfacet
   facet normal 1.218676e-001 0.000000e+000 -9.925464e-001
      outer loop
         vertex 1.173259e+002 1.000000e+001 -7.407662e+002
         vertex 7.839635e+001 0.000000e+000 -7.458914e+002
         vertex 7.839635e+001 1.000000e+001 -7.458914e+002
      endloop
   endfacet
   facet normal 8.715752e-002 0.000000e+000 -9.961946e-001
      outer loop
         vertex 7.839635e+001 1.000000e+001 -7.458914e+002
         vertex 7.839635e+001 0.000000e+000 -7.458914e+002
         vertex 3.925197e+001 0.000000e+000 -7.489722e+002
      endloop
   endfacet
   facet normal 6.975471e-002 0.000000e+000 -9.975642e-001
      outer loop
         vertex 7.839635e+001 1.000000e+001 -7.458914e+002
         vertex 3.925197e+001 0.000000e+000 -7.489722e+002
         vertex 3.925197e+001 1.000000e+001 -7.489722e+002
      endloop
   endfacet
   facet normal 3.490127e-002 0.000000e+000 -9.993908e-001
      outer loop
         vertex 3.925197e+001 1.000000e+001 -7.489722e+002
         vertex 3.925197e+001 0.000000e+000 -7.489722e+002
         vertex 0.000000e+000 0.000000e+000 -7.500000e+002
      endloop
   endfacet
   facet normal 1.745063e-002 0.000000e+000 -9.998477e-001
      outer loop
         vertex 3.925197e+001 1.000000e+001 -7.489722e+002
         vertex 0.000000e+000 0.000000e+000 -7.500000e+002
         vertex 0.000000e+000 1.000000e+001 -7.500000e+002
      endloop
   endfacet
   facet normal -1.000000e+000 0.000000e+000 0.000000e+000
      outer loop
         vertex 0.000000e+000 1.000000e+001 -7.200000e+002
         vertex 0.000000e+000 1.000000e+001 -7.500000e+002
         vertex 0.000000e+000 0.000000e+000 -7.200000e+002
      endloop
   endfacet
   facet normal -1.000000e+000 0.000000e+000 0.000000e+000
      outer loop
         vertex 0.000000e+000 0.000000e+000 -7.200000e+002
         vertex 0.000000e+000 1.000000e+001 -7.500000e+002
         vertex 0.000000e+000 0.000000e+000 -7.500000e+002
      endloop
   endfacet
   facet normal 0.000000e+000 1.000000e+000 0.000000e+000
      outer loop
         vertex 5.091169e+002 1.000000e+001 -5.091169e+002
         vertex 5.303301e+002 1.000000e+001 -5.303301e+002
         vertex 4.817740e+002 1.000000e+001 -5.350643e+002
      endloop
   endfacet
   facet normal 0.000000e+000 1.000000e+000 0.000000e+000
      outer loop
         vertex 4.817740e+002 1.000000e+001 -5.350643e+002
         vertex 5.303301e+002 1.000000e+001 -5.303301e+002
         vertex 5.018480e+002 1.000000e+001 -5.573586e+002
      endloop
   endfacet
   facet normal 0.000000e+000 1.000000e+000 0.000000e+000
      outer loop
         vertex 4.817740e+002 1.000000e+001 -5.350643e+002
         vertex 5.018480e+002 1.000000e+001 -5.573586e+002
         vertex 4.531107e+002 1.000000e+001 -5.595451e+002
      endloop
   endfacet
   facet normal 0.000000e+000 1.000000e+000 0.000000e+000
      outer loop
         vertex 4.531107e+002 1.000000e+001 -5.595451e+002
         vertex 5.018480e+002 1.000000e+001 -5.573586e+002
         vertex 4.719903e+002 1.000000e+001 -5.828594e+002
      endloop
   endfacet
   facet normal 0.000000e+000 1.000000e+000 0.000000e+000
      outer loop
         vertex 4.531107e+002 1.000000e+001 -5.595451e+002
         vertex 4.719903e+002 1.000000e+001 -5.828594e+002
         vertex 4.232054e+002 1.000000e+001 -5.824922e+002
      endloop
   endfacet
   facet normal 0.000000e+000 1.000000e+000 0.000000e+000
      outer loop
         vertex 4.232054e+002 1.000000e+001 -5.824922e+002
         vertex 4.719903e+002 1.000000e+001 -5.828594e+002
         vertex 4.408389e+002 1.000000e+001 -6.067628e+002
      endloop
   endfacet
   facet normal 0.000000e+000 1.000000e+000 0.000000e+000
      outer loop
         vertex 4.232054e+002 1.000000e+001 -5.824922e+002
         vertex 4.408389e+002 1.000000e+001 -6.067628e+002
         vertex 3.921401e+002 1.000000e+001 -6.038428e+002
      endloop
   endfacet
   facet normal 0.000000e+000 1.000000e+000 0.000000e+000
      outer loop
         vertex 3.921401e+002 1.000000e+001 -6.038428e+002
         vertex 4.408389e+002 1.000000e+001 -6.067628e+002
         vertex 4.084793e+002 1.000000e+001 -6.290029e+002
      endloop
   endfacet
   facet normal 0.000000e+000 1.000000e+000 0.000000e+000
      outer loop
         vertex 3.921401e+002 1.000000e+001 -6.038428e+002
         vertex 4.084793e+002 1.000000e+001 -6.290029e+002
         vertex 3.600000e+002 1.000000e+001 -6.235383e+002
      endloop
   endfacet
   facet normal 0.000000e+000 1.000000e+000 0.000000e+000
      outer loop
         vertex 3.600000e+002 1.000000e+001 -6.235383e+002
         vertex 4.084793e+002 1.000000e+001 -6.290029e+002
         vertex 3.750000e+002 1.000000e+001 -6.495190e+002
      endloop
   endfacet
   facet normal 0.000000e+000 1.000000e+000 0.000000e+000
      outer loop
         vertex 3.600000e+002 1.000000e+001 -6.235383e+002
         vertex 3.750000e+002 1.000000e+001 -6.495190e+002
         vertex 3.268731e+002 1.000000e+001 -6.415247e+002
      endloop
   endfacet
   facet normal 0.000000e+000 1.000000e+000 0.000000e+000
      outer loop
         vertex 3.268731e+002 1.000000e+001 -6.415247e+002
         vertex 3.750000e+002 1.000000e+001 -6.495190e+002
         vertex 3.404929e+002 1.000000e+001 -6.682549e+002
      endloop
   endfacet
   facet normal 0.000000e+000 1.000000e+000 0.000000e+000
      outer loop
         vertex 3.268731e+002 1.000000e+001 -6.415247e+002
         vertex 3.404929e+002 1.000000e+001 -6.682549e+002
         vertex 2.928504e+002 1.000000e+001 -6.577527e+002
      endloop
   endfacet
   facet normal 0.000000e+000 1.000000e+000 0.000000e+000
      outer loop
         vertex 2.928504e+002 1.000000e+001 -6.577527e+002
         vertex 3.404929e+002 1.000000e+001 -6.682549e+002
         vertex 3.050525e+002 1.000000e+001 -6.851591e+002
      endloop
   endfacet
   facet normal 0.000000e+000 1.000000e+000 0.000000e+000
      outer loop
         vertex 2.928504e+002 1.000000e+001 -6.577527e+002
         vertex 3.050525e+002 1.000000e+001 -6.851591e+002
         vertex 2.580249e+002 1.000000e+001 -6.721779e+002
      endloop
   endfacet
   facet normal 0.000000e+000 1.000000e+000 0.000000e+000
      outer loop
         vertex 2.580249e+002 1.000000e+001 -6.721779e+002
         vertex 3.050525e+002 1.000000e+001 -6.851591e+002
         vertex 2.687760e+002 1.000000e+001 -7.001853e+002
      endloop
   endfacet
   facet normal 0.000000e+000 1.000000e+000 0.000000e+000
      outer loop
         vertex 2.580249e+002 1.000000e+001 -6.721779e+002
         vertex 2.687760e+002 1.000000e+001 -7.001853e+002
         vertex 2.224922e+002 1.000000e+001 -6.847607e+002
      endloop
   endfacet
   facet normal 0.000000e+000 1.000000e+000 0.000000e+000
      outer loop
         vertex 2.224922e+002 1.000000e+001 -6.847607e+002
         vertex 2.687760e+002 1.000000e+001 -7.001853e+002
         vertex 2.317628e+002 1.000000e+001 -7.132924e+002
      endloop
   endfacet
   facet normal 0.000000e+000 1.000000e+000 0.000000e+000
      outer loop
         vertex 2.224922e+002 1.000000e+001 -6.847607e+002
         vertex 2.317628e+002 1.000000e+001 -7.132924e+002
         vertex 1.863497e+002 1.000000e+001 -6.954666e+002
      endloop
   endfacet
   facet normal 0.000000e+000 1.000000e+000 0.000000e+000
      outer loop
         vertex 1.863497e+002 1.000000e+001 -6.954666e+002
         vertex 2.317628e+002 1.000000e+001 -7.132924e+002
         vertex 1.941143e+002 1.000000e+001 -7.244444e+002
      endloop
   endfacet
   facet normal 0.000000e+000 1.000000e+000 0.000000e+000
      outer loop
         vertex 1.863497e+002 1.000000e+001 -6.954666e+002
         vertex 1.941143e+002 1.000000e+001 -7.244444e+002
         vertex 1.496964e+002 1.000000e+001 -7.042662e+002
      endloop
   endfacet
   facet normal 0.000000e+000 1.000000e+000 0.000000e+000
      outer loop
         vertex 1.496964e+002 1.000000e+001 -7.042662e+002
         vertex 1.941143e+002 1.000000e+001 -7.244444e+002
         vertex 1.559338e+002 1.000000e+001 -7.336107e+002
      endloop
   endfacet
   facet normal 0.000000e+000 1.000000e+000 0.000000e+000
      outer loop
         vertex 1.496964e+002 1.000000e+001 -7.042662e+002
         vertex 1.559338e+002 1.000000e+001 -7.336107e+002
         vertex 1.126328e+002 1.000000e+001 -7.111356e+002
      endloop
   endfacet
   facet normal 0.000000e+000 1.000000e+000 0.000000e+000
      outer loop
         vertex 1.126328e+002 1.000000e+001 -7.111356e+002
         vertex 1.559338e+002 1.000000e+001 -7.336107e+002
         vertex 1.173259e+002 1.000000e+001 -7.407662e+002
      endloop
   endfacet
   facet normal 0.000000e+000 1.000000e+000 0.000000e+000
      outer loop
         vertex 1.126328e+002 1.000000e+001 -7.111356e+002
         vertex 1.173259e+002 1.000000e+001 -7.407662e+002
         vertex 7.526049e+001 1.000000e+001 -7.160557e+002
      endloop
   endfacet
   facet normal 0.000000e+000 1.000000e+000 0.000000e+000
      outer loop
         vertex 7.526049e+001 1.000000e+001 -7.160557e+002
         vertex 1.173259e+002 1.000000e+001 -7.407662e+002
         vertex 7.839635e+001 1.000000e+001 -7.458914e+002
      endloop
   endfacet
   facet normal 0.000000e+000 1.000000e+000 0.000000e+000
      outer loop
         vertex 7.526049e+001 1.000000e+001 -7.160557e+002
         vertex 7.839635e+001 1.000000e+001 -7.458914e+002
         vertex 3.768189e+001 1.000000e+001 -7.190132e+002
      endloop
   endfacet
   facet normal 0.000000e+000 1.000000e+000 0.000000e+000
      outer loop
         vertex 3.768189e+001 1.000000e+001 -7.190132e+002
         vertex 7.839635e+001 1.000000e+001 -7.458914e+002
         vertex 3.925197e+001 1.000000e+001 -7.489722e+002
      endloop
   endfacet
   facet normal 0.000000e+000 1.000000e+000 0.000000e+000
      outer loop
         vertex 3.768189e+001 1.000000e+001 -7.190132e+002
         vertex 3.925197e+001 1.000000e+001 -7.489722e+002
         vertex 0.000000e+000 1.000000e+001 -7.200000e+002
      endloop
   endfacet
   facet normal 0.000000e+000 1.000000e+000 0.000000e+000
      outer loop
         vertex 0.000000e+000 1.000000e+001 -7.200000e+002
         vertex 3.925197e+001 1.000000e+001 -7.489722e+002
         vertex 0.000000e+000 1.000000e+001 -7.500000e+002
      endloop
   endfacet
   facet normal 0.000000e+000 -1.000000e+000 0.000000e+000
      outer loop
         vertex 0.000000e+000 0.000000e+000 -7.200000e+002
         vertex 0.000000e+000 0.000000e+000 -7.500000e+002
         vertex 3.768189e+001 0.000000e+000 -7.190132e+002
      endloop
   endfacet
   facet normal 0.000000e+000 -1.000000e+000 0.000000e+000
      outer loop
         vertex 3.768189e+001 0.000000e+000 -7.190132e+002
         vertex 0.000000e+000 0.000000e+000 -7.500000e+002
         vertex 3.925197e+001 0.000000e+000 -7.489722e+002
      endloop
   endfacet
   facet normal 0.000000e+000 -1.000000e+000 0.000000e+000
      outer loop
         vertex 3.768189e+001 0.000000e+000 -7.190132e+002
         vertex 3.925197e+001 0.000000e+000 -7.489722e+002
         vertex 7.526049e+001 0.000000e+000 -7.160557e+002
      endloop
   endfacet
   facet normal 0.000000e+000 -1.000000e+000 0.000000e+000
      outer loop
         vertex 7.526049e+001 0.000000e+000 -7.160557e+002
         vertex 3.925197e+001 0.000000e+000 -7.489722e+002
         vertex 7.839635e+001 0.000000e+000 -7.458914e+002
      endloop
   endfacet
   facet normal 0.000000e+000 -1.000000e+000 0.000000e+000
      outer loop
         vertex 7.526049e+001 0.000000e+000 -7.160557e+002
         vertex 7.839635e+001 0.000000e+000 -7.458914e+002
         vertex 1.126328e+002 0.000000e+000 -7.111356e+002
      endloop
   endfacet
   facet normal 0.000000e+000 -1.000000e+000 0.000000e+000
      outer loop
         vertex 1.126328e+002 0.000000e+000 -7.111356e+002
         vertex 7.839635e+001 0.000000e+000 -7.458914e+002
         vertex 1.173259e+002 0.000000e+000 -7.407662e+002
      endloop
   endfacet
   facet normal 0.000000e+000 -1.000000e+000 0.000000e+000
      outer loop
         vertex 1.126328e+002 0.000000e+000 -7.111356e+002
         vertex 1.173259e+002 0.000000e+000 -7.407662e+002
         vertex 1.496964e+002 0.000000e+000 -7.042662e+002
      endloop
   endfacet
   facet normal 0.000000e+000 -1.000000e+000 0.000000e+000
      outer loop
         vertex 1.496964e+002 0.000000e+000 -7.042662e+002
         vertex 1.173259e+002 0.000000e+000 -7.407662e+002
         vertex 1.559338e+002 0.000000e+000 -7.336107e+002
      endloop
   endfacet
   facet normal 0.000000e+000 -1.000000e+000 0.000000e+000
      outer loop
         vertex 1.496964e+002 0.000000e+000 -7.042662e+002
         vertex 1.559338e+002 0.000000e+000 -7.336107e+002
         vertex 1.863497e+002 0.000000e+000 -6.954666e+002
      endloop
   endfacet
   facet normal 0.000000e+000 -1.000000e+000 0.000000e+000
      outer loop
         vertex 1.863497e+002 0.000000e+000 -6.954666e+002
         vertex 1.559338e+002 0.000000e+000 -7.336107e+002
         vertex 1.941143e+002 0.000000e+000 -7.244444e+002
      endloop
   endfacet
   facet normal 0.000000e+000 -1.000000e+000 0.000000e+000
      outer loop
         vertex 1.863497e+002 0.000000e+000 -6.954666e+002
         vertex 1.941143e+002 0.000000e+000 -7.244444e+002
         vertex 2.224922e+002 0.000000e+000 -6.847607e+002
      endloop
   endfacet
   facet normal 0.000000e+000 -1.000000e+000 0.000000e+000
      outer loop
         vertex 2.224922e+002 0.000000e+000 -6.847607e+002
         vertex 1.941143e+002 0.000000e+000 -7.244444e+002
         vertex 2.317628e+002 0.000000e+000 -7.132924e+002
      endloop
   endfacet
   facet normal 0.000000e+000 -1.000000e+000 0.000000e+000
      outer loop
         vertex 2.224922e+002 0.000000e+000 -6.847607e+002
         vertex 2.317628e+002 0.000000e+000 -7.132924e+002
         vertex 2.580249e+002 0.000000e+000 -6.721779e+002
      endloop
   endfacet
   facet normal 0.000000e+000 -1.000000e+000 0.000000e+000
      outer loop
         vertex 2.580249e+002 0.000000e+000 -6.721779e+002
         vertex 2.317628e+002 0.000000e+000 -7.132924e+002
         vertex 2.687760e+002 0.000000e+000 -7.001853e+002
      endloop
   endfacet
   facet normal 0.000000e+000 -1.000000e+000 0.000000e+000
      outer loop
         vertex 2.580249e+002 0.000000e+000 -6.721779e+002
         vertex 2.687760e+002 0.000000e+000 -7.001853e+002
         vertex 2.928504e+002 0.000000e+000 -6.577527e+002
      endloop
   endfacet
   facet normal 0.000000e+000 -1.000000e+000 0.000000e+000
      outer loop
         vertex 2.928504e+002 0.000000e+000 -6.577527e+002
         vertex 2.687760e+002 0.000000e+000 -7.001853e+002
         vertex 3.050525e+002 0.000000e+000 -6.851591e+002
      endloop
   endfacet
   facet normal 0.000000e+000 -1.000000e+000 0.000000e+000
      outer loop
         vertex 2.928504e+002 0.000000e+000 -6.577527e+002
         vertex 3.050525e+002 0.000000e+000 -6.851591e+002
         vertex 3.268731e+002 0.000000e+000 -6.415247e+002
      endloop
   endfacet
   facet normal 0.000000e+000 -1.000000e+000 0.000000e+000
      outer loop
         vertex 3.268731e+002 0.000000e+000 -6.415247e+002
         vertex 3.050525e+002 0.000000e+000 -6.851591e+002
         vertex 3.404929e+002 0.000000e+000 -6.682549e+002
      endloop
   endfacet
   facet normal 0.000000e+000 -1.000000e+000 0.000000e+000
      outer loop
         vertex 3.268731e+002 0.000000e+000 -6.415247e+002
         vertex 3.404929e+002 0.000000e+000 -6.682549e+002
         vertex 3.600000e+002 0.000000e+000 -6.235383e+002
      endloop
   endfacet
   facet normal 0.000000e+000 -1.000000e+000 0.000000e+000
      outer loop
         vertex 3.600000e+002 0.000000e+000 -6.235383e+002
         vertex 3.404929e+002 0.000000e+000 -6.682549e+002
         vertex 3.750000e+002 0.000000e+000 -6.495190e+002
      endloop
   endfacet
   facet normal 0.000000e+000 -1.000000e+000 0.000000e+000
      outer loop
         vertex 3.600000e+002 0.000000e+000 -6.235383e+002
         vertex 3.750000e+002 0.000000e+000 -6.495190e+002
         vertex 3.921401e+002 0.000000e+000 -6.038428e+002
      endloop
   endfacet
   facet normal 0.000000e+000 -1.000000e+000 0.000000e+000
      outer loop
         vertex 3.921401e+002 0.000000e+000 -6.038428e+002
         vertex 3.750000e+002 0.000000e+000 -6.495190e+002
         vertex 4.084793e+002 0.000000e+000 -6.290029e+002
      endloop
   endfacet
   facet normal 0.000000e+000 -1.000000e+000 0.000000e+000
      outer loop
         vertex 3.921401e+002 0.000000e+000 -6.038428e+002
         vertex 4.084793e+002 0.000000e+000 -6.290029e+002
         vertex 4.232054e+002 0.000000e+000 -5.824922e+002
      endloop
   endfacet
   facet normal 0.000000e+000 -1.000000e+000 0.000000e+000
      outer loop
         vertex 4.232054e+002 0.000000e+000 -5.824922e+002
         vertex 4.084793e+002 0.000000e+000 -6.290029e+002
         vertex 4.408389e+002 0.000000e+000 -6.067628e+002
      endloop
   endfacet
   facet normal 0.000000e+000 -1.000000e+000 0.000000e+000
      outer loop
         vertex 4.232054e+002 0.000000e+000 -5.824922e+002
         vertex 4.408389e+002 0.000000e+000 -6.067628e+002
         vertex 4.531107e+002 0.000000e+000 -5.595451e+002
      endloop
   endfacet
   facet normal 0.000000e+000 -1.000000e+000 0.000000e+000
      outer loop
         vertex 4.531107e+002 0.000000e+000 -5.595451e+002
         vertex 4.408389e+002 0.000000e+000 -6.067628e+002
         vertex 4.719903e+002 0.000000e+000 -5.828594e+002
      endloop
   endfacet
   facet normal 0.000000e+000 -1.000000e+000 0.000000e+000
      outer loop
         vertex 4.531107e+002 0.000000e+000 -5.595451e+002
         vertex 4.719903e+002 0.000000e+000 -5.828594e+002
         vertex 4.817740e+002 0.000000e+000 -5.350643e+002
      endloop
   endfacet
   facet normal 0.000000e+000 -1.000000e+000 0.000000e+000
      outer loop
         vertex 4.817740e+002 0.000000e+000 -5.350643e+002
         vertex 4.719903e+002 0.000000e+000 -5.828594e+002
         vertex 5.018480e+002 0.000000e+000 -5.573586e+002
      endloop
   endfacet
   facet normal 0.000000e+000 -1.000000e+000 0.000000e+000
      outer loop
         vertex 4.817740e+002 0.000000e+000 -5.350643e+002
         vertex 5.018480e+002 0.000000e+000 -5.573586e+002
         vertex 5.091169e+002 0.000000e+000 -5.091169e+002
      endloop
   endfacet
   facet normal 0.000000e+000 -1.000000e+000 0.000000e+000
      outer loop
         vertex 5.091169e+002 0.000000e+000 -5.091169e+002
         vertex 5.018480e+002 0.000000e+000 -5.573586e+002
         vertex 5.303301e+002 0.000000e+000 -5.303301e+002
      endloop
   endfacet
endsolid