solid OuterGreyRightAngle_Default_sldprt
   facet normal 1.000000e+000 0.000000e+000 -8.163404e-017
      outer loop
         vertex 8.500000e+001 1.000000e+001 -8.500000e+001
         vertex 8.500000e+001 1.000000e+001 8.500000e+001
         vertex 8.500000e+001 0.000000e+000 -8.500000e+001
      endloop
   endfacet
   facet normal 1.000000e+000 0.000000e+000 -8.163404e-017
      outer loop
         vertex 8.500000e+001 0.000000e+000 -8.500000e+001
         vertex 8.500000e+001 1.000000e+001 8.500000e+001
         vertex 8.500000e+001 0.000000e+000 8.500000e+001
      endloop
   endfacet
   facet normal 0.000000e+000 0.000000e+000 -1.000000e+000
      outer loop
         vertex 7.500000e+001 1.000000e+001 -8.500000e+001
         vertex 8.500000e+001 1.000000e+001 -8.500000e+001
         vertex 7.500000e+001 0.000000e+000 -8.500000e+001
      endloop
   endfacet
   facet normal 0.000000e+000 0.000000e+000 -1.000000e+000
      outer loop
         vertex 7.500000e+001 0.000000e+000 -8.500000e+001
         vertex 8.500000e+001 1.000000e+001 -8.500000e+001
         vertex 8.500000e+001 0.000000e+000 -8.500000e+001
      endloop
   endfacet
   facet normal -1.000000e+000 0.000000e+000 1.734723e-016
      outer loop
         vertex 7.500000e+001 1.000000e+001 7.500000e+001
         vertex 7.500000e+001 1.000000e+001 -8.500000e+001
         vertex 7.500000e+001 0.000000e+000 7.500000e+001
      endloop
   endfacet
   facet normal -1.000000e+000 0.000000e+000 1.734723e-016
      outer loop
         vertex 7.500000e+001 0.000000e+000 7.500000e+001
         vertex 7.500000e+001 1.000000e+001 -8.500000e+001
         vertex 7.500000e+001 0.000000e+000 -8.500000e+001
      endloop
   endfacet
   facet normal -8.673617e-017 0.000000e+000 -1.000000e+000
      outer loop
         vertex -8.500000e+001 1.000000e+001 7.500000e+001
         vertex 7.500000e+001 1.000000e+001 7.500000e+001
         vertex -8.500000e+001 0.000000e+000 7.500000e+001
      endloop
   endfacet
   facet normal -8.673617e-017 0.000000e+000 -1.000000e+000
      outer loop
         vertex -8.500000e+001 0.000000e+000 7.500000e+001
         vertex 7.500000e+001 1.000000e+001 7.500000e+001
         vertex 7.500000e+001 0.000000e+000 7.500000e+001
      endloop
   endfacet
   facet normal -1.000000e+000 0.000000e+000 1.387779e-015
      outer loop
         vertex -8.500000e+001 1.000000e+001 8.500000e+001
         vertex -8.500000e+001 1.000000e+001 7.500000e+001
         vertex -8.500000e+001 0.000000e+000 8.500000e+001
      endloop
   endfacet
   facet normal -1.000000e+000 0.000000e+000 1.387779e-015
      outer loop
         vertex -8.500000e+001 0.000000e+000 8.500000e+001
         vertex -8.500000e+001 1.000000e+001 7.500000e+001
         vertex -8.500000e+001 0.000000e+000 7.500000e+001
      endloop
   endfacet
   facet normal 0.000000e+000 0.000000e+000 1.000000e+000
      outer loop
         vertex 8.500000e+001 1.000000e+001 8.500000e+001
         vertex -8.500000e+001 1.000000e+001 8.500000e+001
         vertex 8.500000e+001 0.000000e+000 8.500000e+001
      endloop
   endfacet
   facet normal 0.000000e+000 0.000000e+000 1.000000e+000
      outer loop
         vertex 8.500000e+001 0.000000e+000 8.500000e+001
         vertex -8.500000e+001 1.000000e+001 8.500000e+001
         vertex -8.500000e+001 0.000000e+000 8.500000e+001
      endloop
   endfacet
   facet normal 0.000000e+000 1.000000e+000 0.000000e+000
      outer loop
         vertex -8.500000e+001 1.000000e+001 7.500000e+001
         vertex -8.500000e+001 1.000000e+001 8.500000e+001
         vertex 7.500000e+001 1.000000e+001 7.500000e+001
      endloop
   endfacet
   facet normal 0.000000e+000 1.000000e+000 0.000000e+000
      outer loop
         vertex 7.500000e+001 1.000000e+001 7.500000e+001
         vertex -8.500000e+001 1.000000e+001 8.500000e+001
         vertex 8.500000e+001 1.000000e+001 8.500000e+001
      endloop
   endfacet
   facet normal 0.000000e+000 1.000000e+000 0.000000e+000
      outer loop
         vertex 7.500000e+001 1.000000e+001 7.500000e+001
         vertex 8.500000e+001 1.000000e+001 8.500000e+001
         vertex 7.500000e+001 1.000000e+001 -8.500000e+001
      endloop
   endfacet
   facet normal 0.000000e+000 1.000000e+000 0.000000e+000
      outer loop
         vertex 7.500000e+001 1.000000e+001 -8.500000e+001
         vertex 8.500000e+001 1.000000e+001 8.500000e+001
         vertex 8.500000e+001 1.000000e+001 -8.500000e+001
      endloop
   endfacet
   facet normal 0.000000e+000 -1.000000e+000 0.000000e+000
      outer loop
         vertex 7.500000e+001 0.000000e+000 -8.500000e+001
         vertex 8.500000e+001 0.000000e+000 -8.500000e+001
         vertex 7.500000e+001 0.000000e+000 7.500000e+001
      endloop
   endfacet
   facet normal 0.000000e+000 -1.000000e+000 0.000000e+000
      outer loop
         vertex 7.500000e+001 0.000000e+000 7.500000e+001
         vertex 8.500000e+001 0.000000e+000 -8.500000e+001
         vertex 8.500000e+001 0.000000e+000 8.500000e+001
      endloop
   endfacet
   facet normal 0.000000e+000 -1.000000e+000 0.000000e+000
      outer loop
         vertex 7.500000e+001 0.000000e+000 7.500000e+001
         vertex 8.500000e+001 0.000000e+000 8.500000e+001
         vertex -8.500000e+001 0.000000e+000 7.500000e+001
      endloop
   endfacet
   facet normal 0.000000e+000 -1.000000e+000 0.000000e+000
      outer loop
         vertex -8.500000e+001 0.000000e+000 7.500000e+001
         vertex 8.500000e+001 0.000000e+000 8.500000e+001
         vertex -8.500000e+001 0.000000e+000 8.500000e+001
      endloop
   endfacet
endsolid