solid 1-1-1_Default_sldprt
   facet normal 0.000000e+000 1.000000e+000 0.000000e+000
      outer loop
         vertex -1.500000e+000 1.000000e+001 -3.200000e+000
         vertex -1.500000e+000 1.000000e+001 -4.000000e+000
         vertex -9.200000e+000 1.000000e+001 -3.200000e+000
      endloop
   endfacet
   facet normal 0.000000e+000 1.000000e+000 0.000000e+000
      outer loop
         vertex -9.200000e+000 1.000000e+001 -3.200000e+000
         vertex -1.500000e+000 1.000000e+001 -4.000000e+000
         vertex -1.000000e+001 1.000000e+001 -4.000000e+000
      endloop
   endfacet
   facet normal 0.000000e+000 1.000000e+000 0.000000e+000
      outer loop
         vertex -9.200000e+000 1.000000e+001 -3.200000e+000
         vertex -1.000000e+001 1.000000e+001 -4.000000e+000
         vertex -9.200000e+000 1.000000e+001 3.200000e+000
      endloop
   endfacet
   facet normal 0.000000e+000 1.000000e+000 0.000000e+000
      outer loop
         vertex -9.200000e+000 1.000000e+001 3.200000e+000
         vertex -1.000000e+001 1.000000e+001 -4.000000e+000
         vertex -1.000000e+001 1.000000e+001 4.000000e+000
      endloop
   endfacet
   facet normal 0.000000e+000 1.000000e+000 0.000000e+000
      outer loop
         vertex -9.200000e+000 1.000000e+001 3.200000e+000
         vertex -1.000000e+001 1.000000e+001 4.000000e+000
         vertex 9.200000e+000 1.000000e+001 3.200000e+000
      endloop
   endfacet
   facet normal 0.000000e+000 1.000000e+000 0.000000e+000
      outer loop
         vertex 9.200000e+000 1.000000e+001 3.200000e+000
         vertex -1.000000e+001 1.000000e+001 4.000000e+000
         vertex 1.000000e+001 1.000000e+001 4.000000e+000
      endloop
   endfacet
   facet normal 0.000000e+000 1.000000e+000 0.000000e+000
      outer loop
         vertex 9.200000e+000 1.000000e+001 3.200000e+000
         vertex 1.000000e+001 1.000000e+001 4.000000e+000
         vertex 9.200000e+000 1.000000e+001 -3.200000e+000
      endloop
   endfacet
   facet normal 0.000000e+000 1.000000e+000 0.000000e+000
      outer loop
         vertex 9.200000e+000 1.000000e+001 -3.200000e+000
         vertex 1.000000e+001 1.000000e+001 4.000000e+000
         vertex 1.000000e+001 1.000000e+001 -4.000000e+000
      endloop
   endfacet
   facet normal 0.000000e+000 1.000000e+000 0.000000e+000
      outer loop
         vertex 9.200000e+000 1.000000e+001 -3.200000e+000
         vertex 1.000000e+001 1.000000e+001 -4.000000e+000
         vertex 1.500000e+000 1.000000e+001 -3.200000e+000
      endloop
   endfacet
   facet normal 0.000000e+000 1.000000e+000 0.000000e+000
      outer loop
         vertex 1.500000e+000 1.000000e+001 -3.200000e+000
         vertex 1.000000e+001 1.000000e+001 -4.000000e+000
         vertex 1.500000e+000 1.000000e+001 -4.000000e+000
      endloop
   endfacet
   facet normal 0.000000e+000 0.000000e+000 -1.000000e+000
      outer loop
         vertex 1.500000e+000 1.000000e+001 -4.000000e+000
         vertex 1.000000e+001 1.000000e+001 -4.000000e+000
         vertex 1.500000e+000 2.000000e+000 -4.000000e+000
      endloop
   endfacet
   facet normal 0.000000e+000 0.000000e+000 -1.000000e+000
      outer loop
         vertex 1.500000e+000 2.000000e+000 -4.000000e+000
         vertex 1.000000e+001 1.000000e+001 -4.000000e+000
         vertex 1.000000e+001 0.000000e+000 -4.000000e+000
      endloop
   endfacet
   facet normal 0.000000e+000 0.000000e+000 -1.000000e+000
      outer loop
         vertex 1.500000e+000 2.000000e+000 -4.000000e+000
         vertex 1.000000e+001 0.000000e+000 -4.000000e+000
         vertex -1.500000e+000 2.000000e+000 -4.000000e+000
      endloop
   endfacet
   facet normal 0.000000e+000 0.000000e+000 -1.000000e+000
      outer loop
         vertex -1.500000e+000 2.000000e+000 -4.000000e+000
         vertex 1.000000e+001 0.000000e+000 -4.000000e+000
         vertex -1.000000e+001 0.000000e+000 -4.000000e+000
      endloop
   endfacet
   facet normal 0.000000e+000 0.000000e+000 -1.000000e+000
      outer loop
         vertex -1.500000e+000 2.000000e+000 -4.000000e+000
         vertex -1.000000e+001 0.000000e+000 -4.000000e+000
         vertex -1.500000e+000 1.000000e+001 -4.000000e+000
      endloop
   endfacet
   facet normal 0.000000e+000 0.000000e+000 -1.000000e+000
      outer loop
         vertex -1.500000e+000 1.000000e+001 -4.000000e+000
         vertex -1.000000e+001 0.000000e+000 -4.000000e+000
         vertex -1.000000e+001 1.000000e+001 -4.000000e+000
      endloop
   endfacet
   facet normal 0.000000e+000 0.000000e+000 1.000000e+000
      outer loop
         vertex -1.500000e+000 2.000000e+000 -3.200000e+000
         vertex -1.500000e+000 1.000000e+001 -3.200000e+000
         vertex -9.200000e+000 1.000000e+001 -3.200000e+000
      endloop
   endfacet
   facet normal 0.000000e+000 0.000000e+000 1.000000e+000
      outer loop
         vertex 9.200000e+000 8.000000e-001 -3.200000e+000
         vertex 9.200000e+000 1.000000e+001 -3.200000e+000
         vertex 1.500000e+000 1.000000e+001 -3.200000e+000
      endloop
   endfacet
   facet normal 0.000000e+000 0.000000e+000 1.000000e+000
      outer loop
         vertex 1.500000e+000 1.000000e+001 -3.200000e+000
         vertex 1.500000e+000 2.000000e+000 -3.200000e+000
         vertex 9.200000e+000 8.000000e-001 -3.200000e+000
      endloop
   endfacet
   facet normal 0.000000e+000 0.000000e+000 1.000000e+000
      outer loop
         vertex 9.200000e+000 8.000000e-001 -3.200000e+000
         vertex 1.500000e+000 2.000000e+000 -3.200000e+000
         vertex -1.500000e+000 2.000000e+000 -3.200000e+000
      endloop
   endfacet
   facet normal 0.000000e+000 0.000000e+000 1.000000e+000
      outer loop
         vertex 9.200000e+000 8.000000e-001 -3.200000e+000
         vertex -1.500000e+000 2.000000e+000 -3.200000e+000
         vertex -9.200000e+000 8.000000e-001 -3.200000e+000
      endloop
   endfacet
   facet normal 0.000000e+000 0.000000e+000 1.000000e+000
      outer loop
         vertex -9.200000e+000 8.000000e-001 -3.200000e+000
         vertex -1.500000e+000 2.000000e+000 -3.200000e+000
         vertex -9.200000e+000 1.000000e+001 -3.200000e+000
      endloop
   endfacet
   facet normal 0.000000e+000 -1.000000e+000 0.000000e+000
      outer loop
         vertex 1.000000e+001 0.000000e+000 -4.000000e+000
         vertex 1.000000e+001 0.000000e+000 4.000000e+000
         vertex -1.000000e+001 0.000000e+000 -4.000000e+000
      endloop
   endfacet
   facet normal 0.000000e+000 -1.000000e+000 0.000000e+000
      outer loop
         vertex -1.000000e+001 0.000000e+000 -4.000000e+000
         vertex 1.000000e+001 0.000000e+000 4.000000e+000
         vertex -1.000000e+001 0.000000e+000 4.000000e+000
      endloop
   endfacet
   facet normal -1.000000e+000 0.000000e+000 2.168404e-016
      outer loop
         vertex -1.000000e+001 1.000000e+001 4.000000e+000
         vertex -1.000000e+001 1.000000e+001 -4.000000e+000
         vertex -1.000000e+001 0.000000e+000 4.000000e+000
      endloop
   endfacet
   facet normal -1.000000e+000 0.000000e+000 2.168404e-016
      outer loop
         vertex -1.000000e+001 0.000000e+000 4.000000e+000
         vertex -1.000000e+001 1.000000e+001 -4.000000e+000
         vertex -1.000000e+001 0.000000e+000 -4.000000e+000
      endloop
   endfacet
   facet normal -4.336809e-017 0.000000e+000 1.000000e+000
      outer loop
         vertex 1.000000e+001 1.000000e+001 4.000000e+000
         vertex -1.000000e+001 1.000000e+001 4.000000e+000
         vertex 1.000000e+001 0.000000e+000 4.000000e+000
      endloop
   endfacet
   facet normal -4.336809e-017 0.000000e+000 1.000000e+000
      outer loop
         vertex 1.000000e+001 0.000000e+000 4.000000e+000
         vertex -1.000000e+001 1.000000e+001 4.000000e+000
         vertex -1.000000e+001 0.000000e+000 4.000000e+000
      endloop
   endfacet
   facet normal 1.000000e+000 0.000000e+000 0.000000e+000
      outer loop
         vertex 1.000000e+001 1.000000e+001 -4.000000e+000
         vertex 1.000000e+001 1.000000e+001 4.000000e+000
         vertex 1.000000e+001 0.000000e+000 -4.000000e+000
      endloop
   endfacet
   facet normal 1.000000e+000 0.000000e+000 0.000000e+000
      outer loop
         vertex 1.000000e+001 0.000000e+000 -4.000000e+000
         vertex 1.000000e+001 1.000000e+001 4.000000e+000
         vertex 1.000000e+001 0.000000e+000 4.000000e+000
      endloop
   endfacet
   facet normal -1.000000e+000 0.000000e+000 0.000000e+000
      outer loop
         vertex 9.200000e+000 1.000000e+001 3.200000e+000
         vertex 9.200000e+000 1.000000e+001 -3.200000e+000
         vertex 9.200000e+000 8.000000e-001 3.200000e+000
      endloop
   endfacet
   facet normal -1.000000e+000 0.000000e+000 0.000000e+000
      outer loop
         vertex 9.200000e+000 8.000000e-001 3.200000e+000
         vertex 9.200000e+000 1.000000e+001 -3.200000e+000
         vertex 9.200000e+000 8.000000e-001 -3.200000e+000
      endloop
   endfacet
   facet normal 1.000000e+000 0.000000e+000 0.000000e+000
      outer loop
         vertex -9.200000e+000 1.000000e+001 -3.200000e+000
         vertex -9.200000e+000 1.000000e+001 3.200000e+000
         vertex -9.200000e+000 8.000000e-001 -3.200000e+000
      endloop
   endfacet
   facet normal 1.000000e+000 0.000000e+000 0.000000e+000
      outer loop
         vertex -9.200000e+000 8.000000e-001 -3.200000e+000
         vertex -9.200000e+000 1.000000e+001 3.200000e+000
         vertex -9.200000e+000 8.000000e-001 3.200000e+000
      endloop
   endfacet
   facet normal 0.000000e+000 0.000000e+000 -1.000000e+000
      outer loop
         vertex -9.200000e+000 1.000000e+001 3.200000e+000
         vertex 9.200000e+000 1.000000e+001 3.200000e+000
         vertex -9.200000e+000 8.000000e-001 3.200000e+000
      endloop
   endfacet
   facet normal 0.000000e+000 0.000000e+000 -1.000000e+000
      outer loop
         vertex -9.200000e+000 8.000000e-001 3.200000e+000
         vertex 9.200000e+000 1.000000e+001 3.200000e+000
         vertex 9.200000e+000 8.000000e-001 3.200000e+000
      endloop
   endfacet
   facet normal 0.000000e+000 1.000000e+000 0.000000e+000
      outer loop
         vertex 9.200000e+000 8.000000e-001 3.200000e+000
         vertex 9.200000e+000 8.000000e-001 -3.200000e+000
         vertex -9.200000e+000 8.000000e-001 3.200000e+000
      endloop
   endfacet
   facet normal 0.000000e+000 1.000000e+000 0.000000e+000
      outer loop
         vertex -9.200000e+000 8.000000e-001 3.200000e+000
         vertex 9.200000e+000 8.000000e-001 -3.200000e+000
         vertex -9.200000e+000 8.000000e-001 -3.200000e+000
      endloop
   endfacet
   facet normal -5.782412e-016 1.000000e+000 0.000000e+000
      outer loop
         vertex 1.500000e+000 2.000000e+000 -4.000000e+000
         vertex -1.500000e+000 2.000000e+000 -4.000000e+000
         vertex 1.500000e+000 2.000000e+000 -3.200000e+000
      endloop
   endfacet
   facet normal -5.782412e-016 1.000000e+000 0.000000e+000
      outer loop
         vertex 1.500000e+000 2.000000e+000 -3.200000e+000
         vertex -1.500000e+000 2.000000e+000 -4.000000e+000
         vertex -1.500000e+000 2.000000e+000 -3.200000e+000
      endloop
   endfacet
   facet normal -1.000000e+000 0.000000e+000 0.000000e+000
      outer loop
         vertex 1.500000e+000 1.000000e+001 -4.000000e+000
         vertex 1.500000e+000 2.000000e+000 -4.000000e+000
         vertex 1.500000e+000 1.000000e+001 -3.200000e+000
      endloop
   endfacet
   facet normal -1.000000e+000 0.000000e+000 0.000000e+000
      outer loop
         vertex 1.500000e+000 1.000000e+001 -3.200000e+000
         vertex 1.500000e+000 2.000000e+000 -4.000000e+000
         vertex 1.500000e+000 2.000000e+000 -3.200000e+000
      endloop
   endfacet
   facet normal 1.000000e+000 0.000000e+000 0.000000e+000
      outer loop
         vertex -1.500000e+000 2.000000e+000 -4.000000e+000
         vertex -1.500000e+000 1.000000e+001 -4.000000e+000
         vertex -1.500000e+000 2.000000e+000 -3.200000e+000
      endloop
   endfacet
   facet normal 1.000000e+000 0.000000e+000 0.000000e+000
      outer loop
         vertex -1.500000e+000 2.000000e+000 -3.200000e+000
         vertex -1.500000e+000 1.000000e+001 -4.000000e+000
         vertex -1.500000e+000 1.000000e+001 -3.200000e+000
      endloop
   endfacet
endsolid