solid Part1_Default_sldprt
   facet normal 0.000000e+000 1.000000e+000 0.000000e+000
      outer loop
         vertex 5.000000e+001 1.000000e+001 0.000000e+000
         vertex 2.996198e+001 1.000000e+001 -1.505060e+001
         vertex 2.978322e+001 1.000000e+001 -1.422116e+001
      endloop
   endfacet
   facet normal 0.000000e+000 1.000000e+000 0.000000e+000
      outer loop
         vertex 2.373948e+001 1.000000e+001 -1.084492e+001
         vertex 2.293946e+001 1.000000e+001 -1.112758e+001
         vertex 0.000000e+000 1.000000e+001 0.000000e+000
      endloop
   endfacet
   facet normal 0.000000e+000 1.000000e+000 0.000000e+000
      outer loop
         vertex 0.000000e+000 1.000000e+001 0.000000e+000
         vertex 2.293946e+001 1.000000e+001 -1.112758e+001
         vertex 2.219872e+001 1.000000e+001 -1.154138e+001
      endloop
   endfacet
   facet normal 0.000000e+000 1.000000e+000 0.000000e+000
      outer loop
         vertex 2.074023e+001 1.000000e+001 -1.830885e+001
         vertex 0.000000e+000 1.000000e+001 -3.137201e+001
         vertex 2.035823e+001 1.000000e+001 -1.755122e+001
      endloop
   endfacet
   facet normal 0.000000e+000 1.000000e+000 0.000000e+000
      outer loop
         vertex 2.035823e+001 1.000000e+001 -1.755122e+001
         vertex 0.000000e+000 1.000000e+001 -3.137201e+001
         vertex 2.010978e+001 1.000000e+001 -1.673993e+001
      endloop
   endfacet
   facet normal 0.000000e+000 1.000000e+000 0.000000e+000
      outer loop
         vertex 2.978322e+001 1.000000e+001 -1.422116e+001
         vertex 2.946686e+001 1.000000e+001 -1.343386e+001
         vertex 5.000000e+001 1.000000e+001 0.000000e+000
      endloop
   endfacet
   facet normal 0.000000e+000 1.000000e+000 0.000000e+000
      outer loop
         vertex 5.000000e+001 1.000000e+001 0.000000e+000
         vertex 2.946686e+001 1.000000e+001 -1.343386e+001
         vertex 2.902200e+001 1.000000e+001 -1.271135e+001
      endloop
   endfacet
   facet normal 0.000000e+000 1.000000e+000 0.000000e+000
      outer loop
         vertex 5.000000e+001 1.000000e+001 0.000000e+000
         vertex 2.902200e+001 1.000000e+001 -1.271135e+001
         vertex 2.846142e+001 1.000000e+001 -1.207442e+001
      endloop
   endfacet
   facet normal 0.000000e+000 1.000000e+000 0.000000e+000
      outer loop
         vertex 2.219872e+001 1.000000e+001 -1.154138e+001
         vertex 2.153858e+001 1.000000e+001 -1.207442e+001
         vertex 0.000000e+000 1.000000e+001 0.000000e+000
      endloop
   endfacet
   facet normal 0.000000e+000 1.000000e+000 0.000000e+000
      outer loop
         vertex 0.000000e+000 1.000000e+001 0.000000e+000
         vertex 2.153858e+001 1.000000e+001 -1.207442e+001
         vertex 2.097800e+001 1.000000e+001 -1.271135e+001
      endloop
   endfacet
   facet normal 0.000000e+000 1.000000e+000 0.000000e+000
      outer loop
         vertex 0.000000e+000 1.000000e+001 0.000000e+000
         vertex 2.097800e+001 1.000000e+001 -1.271135e+001
         vertex 2.053314e+001 1.000000e+001 -1.343386e+001
      endloop
   endfacet
   facet normal 0.000000e+000 1.000000e+000 0.000000e+000
      outer loop
         vertex 2.053314e+001 1.000000e+001 -1.343386e+001
         vertex 2.021678e+001 1.000000e+001 -1.422116e+001
         vertex 0.000000e+000 1.000000e+001 0.000000e+000
      endloop
   endfacet
   facet normal 0.000000e+000 1.000000e+000 0.000000e+000
      outer loop
         vertex 0.000000e+000 1.000000e+001 0.000000e+000
         vertex 2.021678e+001 1.000000e+001 -1.422116e+001
         vertex 2.003802e+001 1.000000e+001 -1.505060e+001
      endloop
   endfacet
   facet normal 0.000000e+000 1.000000e+000 0.000000e+000
      outer loop
         vertex 0.000000e+000 1.000000e+001 0.000000e+000
         vertex 2.003802e+001 1.000000e+001 -1.505060e+001
         vertex 0.000000e+000 1.000000e+001 -3.137201e+001
      endloop
   endfacet
   facet normal 0.000000e+000 1.000000e+000 0.000000e+000
      outer loop
         vertex 0.000000e+000 1.000000e+001 -3.137201e+001
         vertex 2.003802e+001 1.000000e+001 -1.505060e+001
         vertex 2.000201e+001 1.000000e+001 -1.589832e+001
      endloop
   endfacet
   facet normal 0.000000e+000 1.000000e+000 0.000000e+000
      outer loop
         vertex 0.000000e+000 1.000000e+001 -3.137201e+001
         vertex 2.000201e+001 1.000000e+001 -1.589832e+001
         vertex 2.010978e+001 1.000000e+001 -1.673993e+001
      endloop
   endfacet
   facet normal 0.000000e+000 1.000000e+000 0.000000e+000
      outer loop
         vertex 2.996198e+001 1.000000e+001 -1.505060e+001
         vertex 5.000000e+001 1.000000e+001 0.000000e+000
         vertex 2.999799e+001 1.000000e+001 -1.589832e+001
      endloop
   endfacet
   facet normal 0.000000e+000 1.000000e+000 0.000000e+000
      outer loop
         vertex 2.999799e+001 1.000000e+001 -1.589832e+001
         vertex 5.000000e+001 1.000000e+001 0.000000e+000
         vertex 5.000000e+001 1.000000e+001 -3.137201e+001
      endloop
   endfacet
   facet normal 0.000000e+000 1.000000e+000 0.000000e+000
      outer loop
         vertex 2.999799e+001 1.000000e+001 -1.589832e+001
         vertex 5.000000e+001 1.000000e+001 -3.137201e+001
         vertex 2.989022e+001 1.000000e+001 -1.673993e+001
      endloop
   endfacet
   facet normal 0.000000e+000 1.000000e+000 0.000000e+000
      outer loop
         vertex 2.846142e+001 1.000000e+001 -1.207442e+001
         vertex 2.780127e+001 1.000000e+001 -1.154138e+001
         vertex 5.000000e+001 1.000000e+001 0.000000e+000
      endloop
   endfacet
   facet normal 0.000000e+000 1.000000e+000 0.000000e+000
      outer loop
         vertex 5.000000e+001 1.000000e+001 0.000000e+000
         vertex 2.780127e+001 1.000000e+001 -1.154138e+001
         vertex 2.706054e+001 1.000000e+001 -1.112758e+001
      endloop
   endfacet
   facet normal 0.000000e+000 1.000000e+000 0.000000e+000
      outer loop
         vertex 5.000000e+001 1.000000e+001 0.000000e+000
         vertex 2.706054e+001 1.000000e+001 -1.112758e+001
         vertex 2.626052e+001 1.000000e+001 -1.084492e+001
      endloop
   endfacet
   facet normal 0.000000e+000 1.000000e+000 0.000000e+000
      outer loop
         vertex 2.626052e+001 1.000000e+001 -1.084492e+001
         vertex 2.542424e+001 1.000000e+001 -1.070152e+001
         vertex 5.000000e+001 1.000000e+001 0.000000e+000
      endloop
   endfacet
   facet normal 0.000000e+000 1.000000e+000 0.000000e+000
      outer loop
         vertex 5.000000e+001 1.000000e+001 0.000000e+000
         vertex 2.542424e+001 1.000000e+001 -1.070152e+001
         vertex 2.500000e+001 1.000000e+001 -1.068350e+001
      endloop
   endfacet
   facet normal 0.000000e+000 1.000000e+000 0.000000e+000
      outer loop
         vertex 5.000000e+001 1.000000e+001 0.000000e+000
         vertex 2.500000e+001 1.000000e+001 -1.068350e+001
         vertex 0.000000e+000 1.000000e+001 0.000000e+000
      endloop
   endfacet
   facet normal 0.000000e+000 1.000000e+000 0.000000e+000
      outer loop
         vertex 0.000000e+000 1.000000e+001 0.000000e+000
         vertex 2.500000e+001 1.000000e+001 -1.068350e+001
         vertex 2.457576e+001 1.000000e+001 -1.070152e+001
      endloop
   endfacet
   facet normal 0.000000e+000 1.000000e+000 0.000000e+000
      outer loop
         vertex 0.000000e+000 1.000000e+001 0.000000e+000
         vertex 2.457576e+001 1.000000e+001 -1.070152e+001
         vertex 2.373948e+001 1.000000e+001 -1.084492e+001
      endloop
   endfacet
   facet normal 0.000000e+000 1.000000e+000 0.000000e+000
      outer loop
         vertex 2.074023e+001 1.000000e+001 -1.830885e+001
         vertex 2.124476e+001 1.000000e+001 -1.899103e+001
         vertex 0.000000e+000 1.000000e+001 -3.137201e+001
      endloop
   endfacet
   facet normal 0.000000e+000 1.000000e+000 0.000000e+000
      outer loop
         vertex 0.000000e+000 1.000000e+001 -3.137201e+001
         vertex 2.124476e+001 1.000000e+001 -1.899103e+001
         vertex 2.185733e+001 1.000000e+001 -1.957813e+001
      endloop
   endfacet
   facet normal 0.000000e+000 1.000000e+000 0.000000e+000
      outer loop
         vertex 0.000000e+000 1.000000e+001 -3.137201e+001
         vertex 2.185733e+001 1.000000e+001 -1.957813e+001
         vertex 2.256031e+001 1.000000e+001 -2.005326e+001
      endloop
   endfacet
   facet normal 0.000000e+000 1.000000e+000 0.000000e+000
      outer loop
         vertex 2.256031e+001 1.000000e+001 -2.005326e+001
         vertex 2.333347e+001 1.000000e+001 -2.040275e+001
         vertex 0.000000e+000 1.000000e+001 -3.137201e+001
      endloop
   endfacet
   facet normal 0.000000e+000 1.000000e+000 0.000000e+000
      outer loop
         vertex 0.000000e+000 1.000000e+001 -3.137201e+001
         vertex 2.333347e+001 1.000000e+001 -2.040275e+001
         vertex 2.415457e+001 1.000000e+001 -2.061655e+001
      endloop
   endfacet
   facet normal 0.000000e+000 1.000000e+000 0.000000e+000
      outer loop
         vertex 0.000000e+000 1.000000e+001 -3.137201e+001
         vertex 2.415457e+001 1.000000e+001 -2.061655e+001
         vertex 5.000000e+001 1.000000e+001 -3.137201e+001
      endloop
   endfacet
   facet normal 0.000000e+000 1.000000e+000 0.000000e+000
      outer loop
         vertex 5.000000e+001 1.000000e+001 -3.137201e+001
         vertex 2.415457e+001 1.000000e+001 -2.061655e+001
         vertex 2.500000e+001 1.000000e+001 -2.068850e+001
      endloop
   endfacet
   facet normal 0.000000e+000 1.000000e+000 0.000000e+000
      outer loop
         vertex 5.000000e+001 1.000000e+001 -3.137201e+001
         vertex 2.500000e+001 1.000000e+001 -2.068850e+001
         vertex 2.584543e+001 1.000000e+001 -2.061655e+001
      endloop
   endfacet
   facet normal 0.000000e+000 1.000000e+000 0.000000e+000
      outer loop
         vertex 5.000000e+001 1.000000e+001 -3.137201e+001
         vertex 2.814267e+001 1.000000e+001 -1.957813e+001
         vertex 2.875524e+001 1.000000e+001 -1.899103e+001
      endloop
   endfacet
   facet normal 0.000000e+000 1.000000e+000 0.000000e+000
      outer loop
         vertex 2.584543e+001 1.000000e+001 -2.061655e+001
         vertex 2.666653e+001 1.000000e+001 -2.040275e+001
         vertex 5.000000e+001 1.000000e+001 -3.137201e+001
      endloop
   endfacet
   facet normal 0.000000e+000 1.000000e+000 0.000000e+000
      outer loop
         vertex 5.000000e+001 1.000000e+001 -3.137201e+001
         vertex 2.666653e+001 1.000000e+001 -2.040275e+001
         vertex 2.743970e+001 1.000000e+001 -2.005326e+001
      endloop
   endfacet
   facet normal 0.000000e+000 1.000000e+000 0.000000e+000
      outer loop
         vertex 5.000000e+001 1.000000e+001 -3.137201e+001
         vertex 2.743970e+001 1.000000e+001 -2.005326e+001
         vertex 2.814267e+001 1.000000e+001 -1.957813e+001
      endloop
   endfacet
   facet normal 0.000000e+000 1.000000e+000 0.000000e+000
      outer loop
         vertex 2.875524e+001 1.000000e+001 -1.899103e+001
         vertex 2.925978e+001 1.000000e+001 -1.830885e+001
         vertex 5.000000e+001 1.000000e+001 -3.137201e+001
      endloop
   endfacet
   facet normal 0.000000e+000 1.000000e+000 0.000000e+000
      outer loop
         vertex 5.000000e+001 1.000000e+001 -3.137201e+001
         vertex 2.925978e+001 1.000000e+001 -1.830885e+001
         vertex 2.964176e+001 1.000000e+001 -1.755122e+001
      endloop
   endfacet
   facet normal 0.000000e+000 1.000000e+000 0.000000e+000
      outer loop
         vertex 5.000000e+001 1.000000e+001 -3.137201e+001
         vertex 2.964176e+001 1.000000e+001 -1.755122e+001
         vertex 2.989022e+001 1.000000e+001 -1.673993e+001
      endloop
   endfacet
   facet normal 0.000000e+000 -1.000000e+000 0.000000e+000
      outer loop
         vertex 2.902200e+001 0.000000e+000 -1.271135e+001
         vertex 2.946686e+001 0.000000e+000 -1.343386e+001
         vertex 5.000000e+001 0.000000e+000 0.000000e+000
      endloop
   endfacet
   facet normal 0.000000e+000 -1.000000e+000 0.000000e+000
      outer loop
         vertex 2.124476e+001 0.000000e+000 -1.899103e+001
         vertex 2.074023e+001 0.000000e+000 -1.830885e+001
         vertex 0.000000e+000 0.000000e+000 -3.137201e+001
      endloop
   endfacet
   facet normal 0.000000e+000 -1.000000e+000 0.000000e+000
      outer loop
         vertex 0.000000e+000 0.000000e+000 -3.137201e+001
         vertex 2.074023e+001 0.000000e+000 -1.830885e+001
         vertex 2.035823e+001 0.000000e+000 -1.755122e+001
      endloop
   endfacet
   facet normal 0.000000e+000 -1.000000e+000 0.000000e+000
      outer loop
         vertex 2.999799e+001 0.000000e+000 -1.589832e+001
         vertex 5.000000e+001 0.000000e+000 -3.137201e+001
         vertex 2.996198e+001 0.000000e+000 -1.505060e+001
      endloop
   endfacet
   facet normal 0.000000e+000 -1.000000e+000 0.000000e+000
      outer loop
         vertex 2.996198e+001 0.000000e+000 -1.505060e+001
         vertex 5.000000e+001 0.000000e+000 -3.137201e+001
         vertex 5.000000e+001 0.000000e+000 0.000000e+000
      endloop
   endfacet
   facet normal 0.000000e+000 -1.000000e+000 0.000000e+000
      outer loop
         vertex 2.996198e+001 0.000000e+000 -1.505060e+001
         vertex 5.000000e+001 0.000000e+000 0.000000e+000
         vertex 2.978322e+001 0.000000e+000 -1.422116e+001
      endloop
   endfacet
   facet normal 0.000000e+000 -1.000000e+000 0.000000e+000
      outer loop
         vertex 2.978322e+001 0.000000e+000 -1.422116e+001
         vertex 5.000000e+001 0.000000e+000 0.000000e+000
         vertex 2.946686e+001 0.000000e+000 -1.343386e+001
      endloop
   endfacet
   facet normal 0.000000e+000 -1.000000e+000 0.000000e+000
      outer loop
         vertex 2.999799e+001 0.000000e+000 -1.589832e+001
         vertex 2.989022e+001 0.000000e+000 -1.673993e+001
         vertex 5.000000e+001 0.000000e+000 -3.137201e+001
      endloop
   endfacet
   facet normal 0.000000e+000 -1.000000e+000 0.000000e+000
      outer loop
         vertex 5.000000e+001 0.000000e+000 -3.137201e+001
         vertex 2.989022e+001 0.000000e+000 -1.673993e+001
         vertex 2.964176e+001 0.000000e+000 -1.755122e+001
      endloop
   endfacet
   facet normal 0.000000e+000 -1.000000e+000 0.000000e+000
      outer loop
         vertex 5.000000e+001 0.000000e+000 -3.137201e+001
         vertex 2.964176e+001 0.000000e+000 -1.755122e+001
         vertex 2.925978e+001 0.000000e+000 -1.830885e+001
      endloop
   endfacet
   facet normal 0.000000e+000 -1.000000e+000 0.000000e+000
      outer loop
         vertex 0.000000e+000 0.000000e+000 -3.137201e+001
         vertex 2.415457e+001 0.000000e+000 -2.061655e+001
         vertex 2.333347e+001 0.000000e+000 -2.040275e+001
      endloop
   endfacet
   facet normal 0.000000e+000 -1.000000e+000 0.000000e+000
      outer loop
         vertex 2.035823e+001 0.000000e+000 -1.755122e+001
         vertex 2.010978e+001 0.000000e+000 -1.673993e+001
         vertex 0.000000e+000 0.000000e+000 -3.137201e+001
      endloop
   endfacet
   facet normal 0.000000e+000 -1.000000e+000 0.000000e+000
      outer loop
         vertex 0.000000e+000 0.000000e+000 -3.137201e+001
         vertex 2.010978e+001 0.000000e+000 -1.673993e+001
         vertex 2.000201e+001 0.000000e+000 -1.589832e+001
      endloop
   endfacet
   facet normal 0.000000e+000 -1.000000e+000 0.000000e+000
      outer loop
         vertex 0.000000e+000 0.000000e+000 -3.137201e+001
         vertex 2.000201e+001 0.000000e+000 -1.589832e+001
         vertex 0.000000e+000 0.000000e+000 0.000000e+000
      endloop
   endfacet
   facet normal 0.000000e+000 -1.000000e+000 0.000000e+000
      outer loop
         vertex 0.000000e+000 0.000000e+000 0.000000e+000
         vertex 2.000201e+001 0.000000e+000 -1.589832e+001
         vertex 2.003802e+001 0.000000e+000 -1.505060e+001
      endloop
   endfacet
   facet normal 0.000000e+000 -1.000000e+000 0.000000e+000
      outer loop
         vertex 0.000000e+000 0.000000e+000 0.000000e+000
         vertex 2.003802e+001 0.000000e+000 -1.505060e+001
         vertex 2.021678e+001 0.000000e+000 -1.422116e+001
      endloop
   endfacet
   facet normal 0.000000e+000 -1.000000e+000 0.000000e+000
      outer loop
         vertex 2.021678e+001 0.000000e+000 -1.422116e+001
         vertex 2.053314e+001 0.000000e+000 -1.343386e+001
         vertex 0.000000e+000 0.000000e+000 0.000000e+000
      endloop
   endfacet
   facet normal 0.000000e+000 -1.000000e+000 0.000000e+000
      outer loop
         vertex 0.000000e+000 0.000000e+000 0.000000e+000
         vertex 2.053314e+001 0.000000e+000 -1.343386e+001
         vertex 2.097800e+001 0.000000e+000 -1.271135e+001
      endloop
   endfacet
   facet normal 0.000000e+000 -1.000000e+000 0.000000e+000
      outer loop
         vertex 0.000000e+000 0.000000e+000 0.000000e+000
         vertex 2.097800e+001 0.000000e+000 -1.271135e+001
         vertex 2.153858e+001 0.000000e+000 -1.207442e+001
      endloop
   endfacet
   facet normal 0.000000e+000 -1.000000e+000 0.000000e+000
      outer loop
         vertex 2.626052e+001 0.000000e+000 -1.084492e+001
         vertex 2.706054e+001 0.000000e+000 -1.112758e+001
         vertex 5.000000e+001 0.000000e+000 0.000000e+000
      endloop
   endfacet
   facet normal 0.000000e+000 -1.000000e+000 0.000000e+000
      outer loop
         vertex 2.925978e+001 0.000000e+000 -1.830885e+001
         vertex 2.875524e+001 0.000000e+000 -1.899103e+001
         vertex 5.000000e+001 0.000000e+000 -3.137201e+001
      endloop
   endfacet
   facet normal 0.000000e+000 -1.000000e+000 0.000000e+000
      outer loop
         vertex 5.000000e+001 0.000000e+000 -3.137201e+001
         vertex 2.875524e+001 0.000000e+000 -1.899103e+001
         vertex 2.814267e+001 0.000000e+000 -1.957813e+001
      endloop
   endfacet
   facet normal 0.000000e+000 -1.000000e+000 0.000000e+000
      outer loop
         vertex 5.000000e+001 0.000000e+000 -3.137201e+001
         vertex 2.814267e+001 0.000000e+000 -1.957813e+001
         vertex 2.743970e+001 0.000000e+000 -2.005326e+001
      endloop
   endfacet
   facet normal 0.000000e+000 -1.000000e+000 0.000000e+000
      outer loop
         vertex 2.333347e+001 0.000000e+000 -2.040275e+001
         vertex 2.256031e+001 0.000000e+000 -2.005326e+001
         vertex 0.000000e+000 0.000000e+000 -3.137201e+001
      endloop
   endfacet
   facet normal 0.000000e+000 -1.000000e+000 0.000000e+000
      outer loop
         vertex 0.000000e+000 0.000000e+000 -3.137201e+001
         vertex 2.256031e+001 0.000000e+000 -2.005326e+001
         vertex 2.185733e+001 0.000000e+000 -1.957813e+001
      endloop
   endfacet
   facet normal 0.000000e+000 -1.000000e+000 0.000000e+000
      outer loop
         vertex 0.000000e+000 0.000000e+000 -3.137201e+001
         vertex 2.185733e+001 0.000000e+000 -1.957813e+001
         vertex 2.124476e+001 0.000000e+000 -1.899103e+001
      endloop
   endfacet
   facet normal 0.000000e+000 -1.000000e+000 0.000000e+000
      outer loop
         vertex 2.153858e+001 0.000000e+000 -1.207442e+001
         vertex 2.219872e+001 0.000000e+000 -1.154138e+001
         vertex 0.000000e+000 0.000000e+000 0.000000e+000
      endloop
   endfacet
   facet normal 0.000000e+000 -1.000000e+000 0.000000e+000
      outer loop
         vertex 0.000000e+000 0.000000e+000 0.000000e+000
         vertex 2.219872e+001 0.000000e+000 -1.154138e+001
         vertex 2.293946e+001 0.000000e+000 -1.112758e+001
      endloop
   endfacet
   facet normal 0.000000e+000 -1.000000e+000 0.000000e+000
      outer loop
         vertex 0.000000e+000 0.000000e+000 0.000000e+000
         vertex 2.293946e+001 0.000000e+000 -1.112758e+001
         vertex 2.373948e+001 0.000000e+000 -1.084492e+001
      endloop
   endfacet
   facet normal 0.000000e+000 -1.000000e+000 0.000000e+000
      outer loop
         vertex 2.743970e+001 0.000000e+000 -2.005326e+001
         vertex 2.666653e+001 0.000000e+000 -2.040275e+001
         vertex 5.000000e+001 0.000000e+000 -3.137201e+001
      endloop
   endfacet
   facet normal 0.000000e+000 -1.000000e+000 0.000000e+000
      outer loop
         vertex 5.000000e+001 0.000000e+000 -3.137201e+001
         vertex 2.666653e+001 0.000000e+000 -2.040275e+001
         vertex 2.584543e+001 0.000000e+000 -2.061655e+001
      endloop
   endfacet
   facet normal 0.000000e+000 -1.000000e+000 0.000000e+000
      outer loop
         vertex 5.000000e+001 0.000000e+000 -3.137201e+001
         vertex 2.584543e+001 0.000000e+000 -2.061655e+001
         vertex 0.000000e+000 0.000000e+000 -3.137201e+001
      endloop
   endfacet
   facet normal 0.000000e+000 -1.000000e+000 0.000000e+000
      outer loop
         vertex 0.000000e+000 0.000000e+000 -3.137201e+001
         vertex 2.584543e+001 0.000000e+000 -2.061655e+001
         vertex 2.500000e+001 0.000000e+000 -2.068850e+001
      endloop
   endfacet
   facet normal 0.000000e+000 -1.000000e+000 0.000000e+000
      outer loop
         vertex 0.000000e+000 0.000000e+000 -3.137201e+001
         vertex 2.500000e+001 0.000000e+000 -2.068850e+001
         vertex 2.415457e+001 0.000000e+000 -2.061655e+001
      endloop
   endfacet
   facet normal 0.000000e+000 -1.000000e+000 0.000000e+000
      outer loop
         vertex 2.706054e+001 0.000000e+000 -1.112758e+001
         vertex 2.780127e+001 0.000000e+000 -1.154138e+001
         vertex 5.000000e+001 0.000000e+000 0.000000e+000
      endloop
   endfacet
   facet normal 0.000000e+000 -1.000000e+000 0.000000e+000
      outer loop
         vertex 5.000000e+001 0.000000e+000 0.000000e+000
         vertex 2.780127e+001 0.000000e+000 -1.154138e+001
         vertex 2.846142e+001 0.000000e+000 -1.207442e+001
      endloop
   endfacet
   facet normal 0.000000e+000 -1.000000e+000 0.000000e+000
      outer loop
         vertex 5.000000e+001 0.000000e+000 0.000000e+000
         vertex 2.846142e+001 0.000000e+000 -1.207442e+001
         vertex 2.902200e+001 0.000000e+000 -1.271135e+001
      endloop
   endfacet
   facet normal 0.000000e+000 -1.000000e+000 0.000000e+000
      outer loop
         vertex 2.373948e+001 0.000000e+000 -1.084492e+001
         vertex 2.457576e+001 0.000000e+000 -1.070152e+001
         vertex 0.000000e+000 0.000000e+000 0.000000e+000
      endloop
   endfacet
   facet normal 0.000000e+000 -1.000000e+000 0.000000e+000
      outer loop
         vertex 0.000000e+000 0.000000e+000 0.000000e+000
         vertex 2.457576e+001 0.000000e+000 -1.070152e+001
         vertex 2.500000e+001 0.000000e+000 -1.068350e+001
      endloop
   endfacet
   facet normal 0.000000e+000 -1.000000e+000 0.000000e+000
      outer loop
         vertex 0.000000e+000 0.000000e+000 0.000000e+000
         vertex 2.500000e+001 0.000000e+000 -1.068350e+001
         vertex 5.000000e+001 0.000000e+000 0.000000e+000
      endloop
   endfacet
   facet normal 0.000000e+000 -1.000000e+000 0.000000e+000
      outer loop
         vertex 5.000000e+001 0.000000e+000 0.000000e+000
         vertex 2.500000e+001 0.000000e+000 -1.068350e+001
         vertex 2.542424e+001 0.000000e+000 -1.070152e+001
      endloop
   endfacet
   facet normal 0.000000e+000 -1.000000e+000 0.000000e+000
      outer loop
         vertex 5.000000e+001 0.000000e+000 0.000000e+000
         vertex 2.542424e+001 0.000000e+000 -1.070152e+001
         vertex 2.626052e+001 0.000000e+000 -1.084492e+001
      endloop
   endfacet
   facet normal -1.000000e+000 0.000000e+000 0.000000e+000
      outer loop
         vertex 0.000000e+000 1.000000e+001 0.000000e+000
         vertex 0.000000e+000 1.000000e+001 -3.137201e+001
         vertex 0.000000e+000 0.000000e+000 0.000000e+000
      endloop
   endfacet
   facet normal -1.000000e+000 0.000000e+000 0.000000e+000
      outer loop
         vertex 0.000000e+000 0.000000e+000 0.000000e+000
         vertex 0.000000e+000 1.000000e+001 -3.137201e+001
         vertex 0.000000e+000 0.000000e+000 -3.137201e+001
      endloop
   endfacet
   facet normal 0.000000e+000 0.000000e+000 1.000000e+000
      outer loop
         vertex 5.000000e+001 1.000000e+001 0.000000e+000
         vertex 0.000000e+000 1.000000e+001 0.000000e+000
         vertex 5.000000e+001 0.000000e+000 0.000000e+000
      endloop
   endfacet
   facet normal 0.000000e+000 0.000000e+000 1.000000e+000
      outer loop
         vertex 5.000000e+001 0.000000e+000 0.000000e+000
         vertex 0.000000e+000 1.000000e+001 0.000000e+000
         vertex 0.000000e+000 0.000000e+000 0.000000e+000
      endloop
   endfacet
   facet normal 1.000000e+000 0.000000e+000 0.000000e+000
      outer loop
         vertex 5.000000e+001 1.000000e+001 -3.137201e+001
         vertex 5.000000e+001 1.000000e+001 0.000000e+000
         vertex 5.000000e+001 0.000000e+000 -3.137201e+001
      endloop
   endfacet
   facet normal 1.000000e+000 0.000000e+000 0.000000e+000
      outer loop
         vertex 5.000000e+001 0.000000e+000 -3.137201e+001
         vertex 5.000000e+001 1.000000e+001 0.000000e+000
         vertex 5.000000e+001 0.000000e+000 0.000000e+000
      endloop
   endfacet
   facet normal 0.000000e+000 0.000000e+000 -1.000000e+000
      outer loop
         vertex 0.000000e+000 1.000000e+001 -3.137201e+001
         vertex 5.000000e+001 1.000000e+001 -3.137201e+001
         vertex 0.000000e+000 0.000000e+000 -3.137201e+001
      endloop
   endfacet
   facet normal 0.000000e+000 0.000000e+000 -1.000000e+000
      outer loop
         vertex 0.000000e+000 0.000000e+000 -3.137201e+001
         vertex 5.000000e+001 1.000000e+001 -3.137201e+001
         vertex 5.000000e+001 0.000000e+000 -3.137201e+001
      endloop
   endfacet
   facet normal -5.651454e-002 0.000000e+000 9.984018e-001
      outer loop
         vertex 2.500000e+001 1.000000e+001 -2.068850e+001
         vertex 2.500000e+001 0.000000e+000 -2.068850e+001
         vertex 2.584543e+001 1.000000e+001 -2.061655e+001
      endloop
   endfacet
   facet normal -1.130291e-001 0.000000e+000 9.935917e-001
      outer loop
         vertex 2.584543e+001 1.000000e+001 -2.061655e+001
         vertex 2.500000e+001 0.000000e+000 -2.068850e+001
         vertex 2.584543e+001 0.000000e+000 -2.061655e+001
      endloop
   endfacet
   facet normal -2.244324e-001 0.000000e+000 9.744897e-001
      outer loop
         vertex 2.584543e+001 1.000000e+001 -2.061655e+001
         vertex 2.584543e+001 0.000000e+000 -2.061655e+001
         vertex 2.666653e+001 1.000000e+001 -2.040275e+001
      endloop
   endfacet
   facet normal -2.793211e-001 0.000000e+000 9.601977e-001
      outer loop
         vertex 2.666653e+001 1.000000e+001 -2.040275e+001
         vertex 2.584543e+001 0.000000e+000 -2.061655e+001
         vertex 2.666653e+001 0.000000e+000 -2.040275e+001
      endloop
   endfacet
   facet normal -3.858936e-001 0.000000e+000 9.225433e-001
      outer loop
         vertex 2.666653e+001 1.000000e+001 -2.040275e+001
         vertex 2.666653e+001 0.000000e+000 -2.040275e+001
         vertex 2.743970e+001 1.000000e+001 -2.005326e+001
      endloop
   endfacet
   facet normal -4.375775e-001 0.000000e+000 8.991807e-001
      outer loop
         vertex 2.743970e+001 1.000000e+001 -2.005326e+001
         vertex 2.666653e+001 0.000000e+000 -2.040275e+001
         vertex 2.743970e+001 0.000000e+000 -2.005326e+001
      endloop
   endfacet
   facet normal -5.362535e-001 0.000000e+000 8.440570e-001
      outer loop
         vertex 2.743970e+001 1.000000e+001 -2.005326e+001
         vertex 2.743970e+001 0.000000e+000 -2.005326e+001
         vertex 2.814267e+001 1.000000e+001 -1.957813e+001
      endloop
   endfacet
   facet normal -5.832456e-001 0.000000e+000 8.122959e-001
      outer loop
         vertex 2.814267e+001 1.000000e+001 -1.957813e+001
         vertex 2.743970e+001 0.000000e+000 -2.005326e+001
         vertex 2.814267e+001 0.000000e+000 -1.957813e+001
      endloop
   endfacet
   facet normal -6.711863e-001 0.000000e+000 7.412888e-001
      outer loop
         vertex 2.814267e+001 1.000000e+001 -1.957813e+001
         vertex 2.814267e+001 0.000000e+000 -1.957813e+001
         vertex 2.875524e+001 1.000000e+001 -1.899103e+001
      endloop
   endfacet
   facet normal -7.121348e-001 0.000000e+000 7.020428e-001
      outer loop
         vertex 2.875524e+001 1.000000e+001 -1.899103e+001
         vertex 2.814267e+001 0.000000e+000 -1.957813e+001
         vertex 2.875524e+001 0.000000e+000 -1.899103e+001
      endloop
   endfacet
   facet normal -7.868103e-001 0.000000e+000 6.171949e-001
      outer loop
         vertex 2.875524e+001 1.000000e+001 -1.899103e+001
         vertex 2.875524e+001 0.000000e+000 -1.899103e+001
         vertex 2.925978e+001 1.000000e+001 -1.830885e+001
      endloop
   endfacet
   facet normal -8.205372e-001 0.000000e+000 5.715931e-001
      outer loop
         vertex 2.925978e+001 1.000000e+001 -1.830885e+001
         vertex 2.875524e+001 0.000000e+000 -1.899103e+001
         vertex 2.925978e+001 0.000000e+000 -1.830885e+001
      endloop
   endfacet
   facet normal -8.797992e-001 0.000000e+000 4.753455e-001
      outer loop
         vertex 2.925978e+001 1.000000e+001 -1.830885e+001
         vertex 2.925978e+001 0.000000e+000 -1.830885e+001
         vertex 2.964176e+001 1.000000e+001 -1.755122e+001
      endloop
   endfacet
   facet normal -9.053342e-001 0.000000e+000 4.246998e-001
      outer loop
         vertex 2.964176e+001 1.000000e+001 -1.755122e+001
         vertex 2.925978e+001 0.000000e+000 -1.830885e+001
         vertex 2.964176e+001 0.000000e+000 -1.755122e+001
      endloop
   endfacet
   facet normal -9.474779e-001 0.000000e+000 3.198213e-001
      outer loop
         vertex 2.964176e+001 1.000000e+001 -1.755122e+001
         vertex 2.964176e+001 0.000000e+000 -1.755122e+001
         vertex 2.989022e+001 1.000000e+001 -1.673993e+001
      endloop
   endfacet
   facet normal -9.640865e-001 0.000000e+000 2.655886e-001
      outer loop
         vertex 2.989022e+001 1.000000e+001 -1.673993e+001
         vertex 2.964176e+001 0.000000e+000 -1.755122e+001
         vertex 2.989022e+001 0.000000e+000 -1.673993e+001
      endloop
   endfacet
   facet normal -9.878993e-001 0.000000e+000 1.550965e-001
      outer loop
         vertex 2.989022e+001 1.000000e+001 -1.673993e+001
         vertex 2.989022e+001 0.000000e+000 -1.673993e+001
         vertex 2.999799e+001 1.000000e+001 -1.589832e+001
      endloop
   endfacet
   facet normal -9.951036e-001 0.000000e+000 9.883699e-002
      outer loop
         vertex 2.999799e+001 1.000000e+001 -1.589832e+001
         vertex 2.989022e+001 0.000000e+000 -1.673993e+001
         vertex 2.999799e+001 0.000000e+000 -1.589832e+001
      endloop
   endfacet
   facet normal -9.999007e-001 0.000000e+000 -1.409025e-002
      outer loop
         vertex 2.999799e+001 1.000000e+001 -1.589832e+001
         vertex 2.999799e+001 0.000000e+000 -1.589832e+001
         vertex 2.996198e+001 1.000000e+001 -1.505060e+001
      endloop
   endfacet
   facet normal -9.974935e-001 0.000000e+000 -7.075802e-002
      outer loop
         vertex 2.996198e+001 1.000000e+001 -1.505060e+001
         vertex 2.999799e+001 0.000000e+000 -1.589832e+001
         vertex 2.996198e+001 0.000000e+000 -1.505060e+001
      endloop
   endfacet
   facet normal -9.831368e-001 0.000000e+000 -1.828716e-001
      outer loop
         vertex 2.996198e+001 1.000000e+001 -1.505060e+001
         vertex 2.996198e+001 0.000000e+000 -1.505060e+001
         vertex 2.978322e+001 1.000000e+001 -1.422116e+001
      endloop
   endfacet
   facet normal -9.711873e-001 0.000000e+000 -2.383175e-001
      outer loop
         vertex 2.978322e+001 1.000000e+001 -1.422116e+001
         vertex 2.996198e+001 0.000000e+000 -1.505060e+001
         vertex 2.978322e+001 0.000000e+000 -1.422116e+001
      endloop
   endfacet
   facet normal -9.380898e-001 0.000000e+000 -3.463921e-001
      outer loop
         vertex 2.978322e+001 1.000000e+001 -1.422116e+001
         vertex 2.978322e+001 0.000000e+000 -1.422116e+001
         vertex 2.946686e+001 1.000000e+001 -1.343386e+001
      endloop
   endfacet
   facet normal -9.169418e-001 0.000000e+000 -3.990209e-001
      outer loop
         vertex 2.946686e+001 1.000000e+001 -1.343386e+001
         vertex 2.978322e+001 0.000000e+000 -1.422116e+001
         vertex 2.946686e+001 0.000000e+000 -1.343386e+001
      endloop
   endfacet
   facet normal -8.660557e-001 0.000000e+000 -4.999475e-001
      outer loop
         vertex 2.946686e+001 1.000000e+001 -1.343386e+001
         vertex 2.946686e+001 0.000000e+000 -1.343386e+001
         vertex 2.902200e+001 1.000000e+001 -1.271135e+001
      endloop
   endfacet
   facet normal -8.363176e-001 0.000000e+000 -5.482453e-001
      outer loop
         vertex 2.902200e+001 1.000000e+001 -1.271135e+001
         vertex 2.946686e+001 0.000000e+000 -1.343386e+001
         vertex 2.902200e+001 0.000000e+000 -1.271135e+001
      endloop
   endfacet
   facet normal -7.691067e-001 0.000000e+000 -6.391203e-001
      outer loop
         vertex 2.902200e+001 1.000000e+001 -1.271135e+001
         vertex 2.902200e+001 0.000000e+000 -1.271135e+001
         vertex 2.846142e+001 1.000000e+001 -1.207442e+001
      endloop
   endfacet
   facet normal -7.316340e-001 0.000000e+000 -6.816977e-001
      outer loop
         vertex 2.846142e+001 1.000000e+001 -1.207442e+001
         vertex 2.902200e+001 0.000000e+000 -1.271135e+001
         vertex 2.846142e+001 0.000000e+000 -1.207442e+001
      endloop
   endfacet
   facet normal -6.500320e-001 0.000000e+000 -7.599069e-001
      outer loop
         vertex 2.846142e+001 1.000000e+001 -1.207442e+001
         vertex 2.846142e+001 0.000000e+000 -1.207442e+001
         vertex 2.780127e+001 1.000000e+001 -1.154138e+001
      endloop
   endfacet
   facet normal -6.059027e-001 0.000000e+000 -7.955388e-001
      outer loop
         vertex 2.780127e+001 1.000000e+001 -1.154138e+001
         vertex 2.846142e+001 0.000000e+000 -1.207442e+001
         vertex 2.780127e+001 0.000000e+000 -1.154138e+001
      endloop
   endfacet
   facet normal -5.122570e-001 0.000000e+000 -8.588322e-001
      outer loop
         vertex 2.780127e+001 1.000000e+001 -1.154138e+001
         vertex 2.780127e+001 0.000000e+000 -1.154138e+001
         vertex 2.706054e+001 1.000000e+001 -1.112758e+001
      endloop
   endfacet
   facet normal -4.627406e-001 0.000000e+000 -8.864937e-001
      outer loop
         vertex 2.706054e+001 1.000000e+001 -1.112758e+001
         vertex 2.780127e+001 0.000000e+000 -1.154138e+001
         vertex 2.706054e+001 0.000000e+000 -1.112758e+001
      endloop
   endfacet
   facet normal -3.597453e-001 0.000000e+000 -9.330506e-001
      outer loop
         vertex 2.706054e+001 1.000000e+001 -1.112758e+001
         vertex 2.706054e+001 0.000000e+000 -1.112758e+001
         vertex 2.626052e+001 1.000000e+001 -1.084492e+001
      endloop
   endfacet
   facet normal -3.062663e-001 0.000000e+000 -9.519458e-001
      outer loop
         vertex 2.626052e+001 1.000000e+001 -1.084492e+001
         vertex 2.706054e+001 0.000000e+000 -1.112758e+001
         vertex 2.626052e+001 0.000000e+000 -1.084492e+001
      endloop
   endfacet
   facet normal -1.968844e-001 0.000000e+000 -9.804267e-001
      outer loop
         vertex 2.626052e+001 1.000000e+001 -1.084492e+001
         vertex 2.626052e+001 0.000000e+000 -1.084492e+001
         vertex 2.542424e+001 1.000000e+001 -1.070152e+001
      endloop
   endfacet
   facet normal -1.409813e-001 0.000000e+000 -9.900123e-001
      outer loop
         vertex 2.542424e+001 1.000000e+001 -1.070152e+001
         vertex 2.626052e+001 0.000000e+000 -1.084492e+001
         vertex 2.542424e+001 0.000000e+000 -1.070152e+001
      endloop
   endfacet
   facet normal -5.658260e-002 0.000000e+000 -9.983979e-001
      outer loop
         vertex 2.542424e+001 1.000000e+001 -1.070152e+001
         vertex 2.542424e+001 0.000000e+000 -1.070152e+001
         vertex 2.500000e+001 1.000000e+001 -1.068350e+001
      endloop
   endfacet
   facet normal -2.829130e-002 0.000000e+000 -9.995998e-001
      outer loop
         vertex 2.500000e+001 1.000000e+001 -1.068350e+001
         vertex 2.542424e+001 0.000000e+000 -1.070152e+001
         vertex 2.500000e+001 0.000000e+000 -1.068350e+001
      endloop
   endfacet
   facet normal 2.829130e-002 0.000000e+000 -9.995998e-001
      outer loop
         vertex 2.500000e+001 1.000000e+001 -1.068350e+001
         vertex 2.500000e+001 0.000000e+000 -1.068350e+001
         vertex 2.457576e+001 1.000000e+001 -1.070152e+001
      endloop
   endfacet
   facet normal 5.658260e-002 0.000000e+000 -9.983979e-001
      outer loop
         vertex 2.457576e+001 1.000000e+001 -1.070152e+001
         vertex 2.500000e+001 0.000000e+000 -1.068350e+001
         vertex 2.457576e+001 0.000000e+000 -1.070152e+001
      endloop
   endfacet
   facet normal 1.409813e-001 0.000000e+000 -9.900123e-001
      outer loop
         vertex 2.457576e+001 1.000000e+001 -1.070152e+001
         vertex 2.457576e+001 0.000000e+000 -1.070152e+001
         vertex 2.373948e+001 1.000000e+001 -1.084492e+001
      endloop
   endfacet
   facet normal 1.968844e-001 0.000000e+000 -9.804267e-001
      outer loop
         vertex 2.373948e+001 1.000000e+001 -1.084492e+001
         vertex 2.457576e+001 0.000000e+000 -1.070152e+001
         vertex 2.373948e+001 0.000000e+000 -1.084492e+001
      endloop
   endfacet
   facet normal 3.062663e-001 0.000000e+000 -9.519458e-001
      outer loop
         vertex 2.373948e+001 1.000000e+001 -1.084492e+001
         vertex 2.373948e+001 0.000000e+000 -1.084492e+001
         vertex 2.293946e+001 1.000000e+001 -1.112758e+001
      endloop
   endfacet
   facet normal 3.597453e-001 0.000000e+000 -9.330506e-001
      outer loop
         vertex 2.293946e+001 1.000000e+001 -1.112758e+001
         vertex 2.373948e+001 0.000000e+000 -1.084492e+001
         vertex 2.293946e+001 0.000000e+000 -1.112758e+001
      endloop
   endfacet
   facet normal 4.627406e-001 0.000000e+000 -8.864937e-001
      outer loop
         vertex 2.293946e+001 1.000000e+001 -1.112758e+001
         vertex 2.293946e+001 0.000000e+000 -1.112758e+001
         vertex 2.219872e+001 1.000000e+001 -1.154138e+001
      endloop
   endfacet
   facet normal 5.122570e-001 0.000000e+000 -8.588322e-001
      outer loop
         vertex 2.219872e+001 1.000000e+001 -1.154138e+001
         vertex 2.293946e+001 0.000000e+000 -1.112758e+001
         vertex 2.219872e+001 0.000000e+000 -1.154138e+001
      endloop
   endfacet
   facet normal 6.059027e-001 0.000000e+000 -7.955388e-001
      outer loop
         vertex 2.219872e+001 1.000000e+001 -1.154138e+001
         vertex 2.219872e+001 0.000000e+000 -1.154138e+001
         vertex 2.153858e+001 1.000000e+001 -1.207442e+001
      endloop
   endfacet
   facet normal 6.500320e-001 0.000000e+000 -7.599069e-001
      outer loop
         vertex 2.153858e+001 1.000000e+001 -1.207442e+001
         vertex 2.219872e+001 0.000000e+000 -1.154138e+001
         vertex 2.153858e+001 0.000000e+000 -1.207442e+001
      endloop
   endfacet
   facet normal 7.316340e-001 0.000000e+000 -6.816977e-001
      outer loop
         vertex 2.153858e+001 1.000000e+001 -1.207442e+001
         vertex 2.153858e+001 0.000000e+000 -1.207442e+001
         vertex 2.097800e+001 1.000000e+001 -1.271135e+001
      endloop
   endfacet
   facet normal 7.691067e-001 0.000000e+000 -6.391203e-001
      outer loop
         vertex 2.097800e+001 1.000000e+001 -1.271135e+001
         vertex 2.153858e+001 0.000000e+000 -1.207442e+001
         vertex 2.097800e+001 0.000000e+000 -1.271135e+001
      endloop
   endfacet
   facet normal 8.363176e-001 0.000000e+000 -5.482453e-001
      outer loop
         vertex 2.097800e+001 1.000000e+001 -1.271135e+001
         vertex 2.097800e+001 0.000000e+000 -1.271135e+001
         vertex 2.053314e+001 1.000000e+001 -1.343386e+001
      endloop
   endfacet
   facet normal 8.660557e-001 0.000000e+000 -4.999475e-001
      outer loop
         vertex 2.053314e+001 1.000000e+001 -1.343386e+001
         vertex 2.097800e+001 0.000000e+000 -1.271135e+001
         vertex 2.053314e+001 0.000000e+000 -1.343386e+001
      endloop
   endfacet
   facet normal 9.169418e-001 0.000000e+000 -3.990209e-001
      outer loop
         vertex 2.053314e+001 1.000000e+001 -1.343386e+001
         vertex 2.053314e+001 0.000000e+000 -1.343386e+001
         vertex 2.021678e+001 1.000000e+001 -1.422116e+001
      endloop
   endfacet
   facet normal 9.380898e-001 0.000000e+000 -3.463921e-001
      outer loop
         vertex 2.021678e+001 1.000000e+001 -1.422116e+001
         vertex 2.053314e+001 0.000000e+000 -1.343386e+001
         vertex 2.021678e+001 0.000000e+000 -1.422116e+001
      endloop
   endfacet
   facet normal 9.711873e-001 0.000000e+000 -2.383175e-001
      outer loop
         vertex 2.021678e+001 1.000000e+001 -1.422116e+001
         vertex 2.021678e+001 0.000000e+000 -1.422116e+001
         vertex 2.003802e+001 1.000000e+001 -1.505060e+001
      endloop
   endfacet
   facet normal 9.831368e-001 0.000000e+000 -1.828716e-001
      outer loop
         vertex 2.003802e+001 1.000000e+001 -1.505060e+001
         vertex 2.021678e+001 0.000000e+000 -1.422116e+001
         vertex 2.003802e+001 0.000000e+000 -1.505060e+001
      endloop
   endfacet
   facet normal 9.974935e-001 0.000000e+000 -7.075802e-002
      outer loop
         vertex 2.003802e+001 1.000000e+001 -1.505060e+001
         vertex 2.003802e+001 0.000000e+000 -1.505060e+001
         vertex 2.000201e+001 1.000000e+001 -1.589832e+001
      endloop
   endfacet
   facet normal 9.999007e-001 0.000000e+000 -1.409025e-002
      outer loop
         vertex 2.000201e+001 1.000000e+001 -1.589832e+001
         vertex 2.003802e+001 0.000000e+000 -1.505060e+001
         vertex 2.000201e+001 0.000000e+000 -1.589832e+001
      endloop
   endfacet
   facet normal 9.951036e-001 0.000000e+000 9.883699e-002
      outer loop
         vertex 2.000201e+001 1.000000e+001 -1.589832e+001
         vertex 2.000201e+001 0.000000e+000 -1.589832e+001
         vertex 2.010978e+001 1.000000e+001 -1.673993e+001
      endloop
   endfacet
   facet normal 9.878993e-001 0.000000e+000 1.550965e-001
      outer loop
         vertex 2.010978e+001 1.000000e+001 -1.673993e+001
         vertex 2.000201e+001 0.000000e+000 -1.589832e+001
         vertex 2.010978e+001 0.000000e+000 -1.673993e+001
      endloop
   endfacet
   facet normal 9.640865e-001 0.000000e+000 2.655886e-001
      outer loop
         vertex 2.010978e+001 1.000000e+001 -1.673993e+001
         vertex 2.010978e+001 0.000000e+000 -1.673993e+001
         vertex 2.035823e+001 1.000000e+001 -1.755122e+001
      endloop
   endfacet
   facet normal 9.474779e-001 0.000000e+000 3.198213e-001
      outer loop
         vertex 2.035823e+001 1.000000e+001 -1.755122e+001
         vertex 2.010978e+001 0.000000e+000 -1.673993e+001
         vertex 2.035823e+001 0.000000e+000 -1.755122e+001
      endloop
   endfacet
   facet normal 9.053342e-001 0.000000e+000 4.246998e-001
      outer loop
         vertex 2.035823e+001 1.000000e+001 -1.755122e+001
         vertex 2.035823e+001 0.000000e+000 -1.755122e+001
         vertex 2.074023e+001 1.000000e+001 -1.830885e+001
      endloop
   endfacet
   facet normal 8.797992e-001 0.000000e+000 4.753455e-001
      outer loop
         vertex 2.074023e+001 1.000000e+001 -1.830885e+001
         vertex 2.035823e+001 0.000000e+000 -1.755122e+001
         vertex 2.074023e+001 0.000000e+000 -1.830885e+001
      endloop
   endfacet
   facet normal 8.205372e-001 0.000000e+000 5.715931e-001
      outer loop
         vertex 2.074023e+001 1.000000e+001 -1.830885e+001
         vertex 2.074023e+001 0.000000e+000 -1.830885e+001
         vertex 2.124476e+001 1.000000e+001 -1.899103e+001
      endloop
   endfacet
   facet normal 7.868103e-001 0.000000e+000 6.171949e-001
      outer loop
         vertex 2.124476e+001 1.000000e+001 -1.899103e+001
         vertex 2.074023e+001 0.000000e+000 -1.830885e+001
         vertex 2.124476e+001 0.000000e+000 -1.899103e+001
      endloop
   endfacet
   facet normal 7.121348e-001 0.000000e+000 7.020428e-001
      outer loop
         vertex 2.124476e+001 1.000000e+001 -1.899103e+001
         vertex 2.124476e+001 0.000000e+000 -1.899103e+001
         vertex 2.185733e+001 1.000000e+001 -1.957813e+001
      endloop
   endfacet
   facet normal 6.711863e-001 0.000000e+000 7.412888e-001
      outer loop
         vertex 2.185733e+001 1.000000e+001 -1.957813e+001
         vertex 2.124476e+001 0.000000e+000 -1.899103e+001
         vertex 2.185733e+001 0.000000e+000 -1.957813e+001
      endloop
   endfacet
   facet normal 5.832456e-001 0.000000e+000 8.122959e-001
      outer loop
         vertex 2.185733e+001 1.000000e+001 -1.957813e+001
         vertex 2.185733e+001 0.000000e+000 -1.957813e+001
         vertex 2.256031e+001 1.000000e+001 -2.005326e+001
      endloop
   endfacet
   facet normal 5.362535e-001 0.000000e+000 8.440570e-001
      outer loop
         vertex 2.256031e+001 1.000000e+001 -2.005326e+001
         vertex 2.185733e+001 0.000000e+000 -1.957813e+001
         vertex 2.256031e+001 0.000000e+000 -2.005326e+001
      endloop
   endfacet
   facet normal 4.375775e-001 0.000000e+000 8.991807e-001
      outer loop
         vertex 2.256031e+001 1.000000e+001 -2.005326e+001
         vertex 2.256031e+001 0.000000e+000 -2.005326e+001
         vertex 2.333347e+001 1.000000e+001 -2.040275e+001
      endloop
   endfacet
   facet normal 3.858936e-001 0.000000e+000 9.225433e-001
      outer loop
         vertex 2.333347e+001 1.000000e+001 -2.040275e+001
         vertex 2.256031e+001 0.000000e+000 -2.005326e+001
         vertex 2.333347e+001 0.000000e+000 -2.040275e+001
      endloop
   endfacet
   facet normal 2.793211e-001 0.000000e+000 9.601977e-001
      outer loop
         vertex 2.333347e+001 1.000000e+001 -2.040275e+001
         vertex 2.333347e+001 0.000000e+000 -2.040275e+001
         vertex 2.415457e+001 1.000000e+001 -2.061655e+001
      endloop
   endfacet
   facet normal 2.244324e-001 0.000000e+000 9.744897e-001
      outer loop
         vertex 2.415457e+001 1.000000e+001 -2.061655e+001
         vertex 2.333347e+001 0.000000e+000 -2.040275e+001
         vertex 2.415457e+001 0.000000e+000 -2.061655e+001
      endloop
   endfacet
   facet normal 1.130291e-001 0.000000e+000 9.935917e-001
      outer loop
         vertex 2.415457e+001 1.000000e+001 -2.061655e+001
         vertex 2.415457e+001 0.000000e+000 -2.061655e+001
         vertex 2.500000e+001 1.000000e+001 -2.068850e+001
      endloop
   endfacet
   facet normal 5.651454e-002 0.000000e+000 9.984018e-001
      outer loop
         vertex 2.500000e+001 1.000000e+001 -2.068850e+001
         vertex 2.415457e+001 0.000000e+000 -2.061655e+001
         vertex 2.500000e+001 0.000000e+000 -2.068850e+001
      endloop
   endfacet
endsolid