solid 5-0-1_Default_sldprt
   facet normal 1.000000e+000 0.000000e+000 0.000000e+000
      outer loop
         vertex 2.500000e+000 3.100000e+001 -1.443376e+000
         vertex 2.500000e+000 3.100000e+001 1.443376e+000
         vertex 2.500000e+000 0.000000e+000 -1.443376e+000
      endloop
   endfacet
   facet normal 1.000000e+000 0.000000e+000 0.000000e+000
      outer loop
         vertex 2.500000e+000 0.000000e+000 -1.443376e+000
         vertex 2.500000e+000 3.100000e+001 1.443376e+000
         vertex 2.500000e+000 0.000000e+000 1.443376e+000
      endloop
   endfacet
   facet normal 5.000000e-001 0.000000e+000 -8.660254e-001
      outer loop
         vertex 4.336809e-016 3.100000e+001 -2.886751e+000
         vertex 2.500000e+000 3.100000e+001 -1.443376e+000
         vertex 4.336809e-016 0.000000e+000 -2.886751e+000
      endloop
   endfacet
   facet normal 5.000000e-001 0.000000e+000 -8.660254e-001
      outer loop
         vertex 4.336809e-016 0.000000e+000 -2.886751e+000
         vertex 2.500000e+000 3.100000e+001 -1.443376e+000
         vertex 2.500000e+000 0.000000e+000 -1.443376e+000
      endloop
   endfacet
   facet normal -5.000000e-001 0.000000e+000 -8.660254e-001
      outer loop
         vertex -2.500000e+000 3.100000e+001 -1.443376e+000
         vertex 4.274884e-016 3.100000e+001 -2.886751e+000
         vertex -2.500000e+000 0.000000e+000 -1.443376e+000
      endloop
   endfacet
   facet normal -5.000000e-001 0.000000e+000 -8.660254e-001
      outer loop
         vertex -2.500000e+000 0.000000e+000 -1.443376e+000
         vertex 4.274884e-016 3.100000e+001 -2.886751e+000
         vertex 4.274884e-016 0.000000e+000 -2.886751e+000
      endloop
   endfacet
   facet normal -1.000000e+000 0.000000e+000 0.000000e+000
      outer loop
         vertex -2.500000e+000 3.100000e+001 1.443376e+000
         vertex -2.500000e+000 3.100000e+001 -1.443376e+000
         vertex -2.500000e+000 0.000000e+000 1.443376e+000
      endloop
   endfacet
   facet normal -1.000000e+000 0.000000e+000 0.000000e+000
      outer loop
         vertex -2.500000e+000 0.000000e+000 1.443376e+000
         vertex -2.500000e+000 3.100000e+001 -1.443376e+000
         vertex -2.500000e+000 0.000000e+000 -1.443376e+000
      endloop
   endfacet
   facet normal -5.000000e-001 0.000000e+000 8.660254e-001
      outer loop
         vertex 0.000000e+000 3.100000e+001 2.886751e+000
         vertex -2.500000e+000 3.100000e+001 1.443376e+000
         vertex 0.000000e+000 -1.387779e-014 2.886751e+000
      endloop
   endfacet
   facet normal -5.000000e-001 0.000000e+000 8.660254e-001
      outer loop
         vertex 0.000000e+000 -1.387779e-014 2.886751e+000
         vertex -2.500000e+000 3.100000e+001 1.443376e+000
         vertex -2.500000e+000 -1.387779e-014 1.443376e+000
      endloop
   endfacet
   facet normal 5.000000e-001 0.000000e+000 8.660254e-001
      outer loop
         vertex 2.500000e+000 3.100000e+001 1.443376e+000
         vertex -3.323954e-016 3.100000e+001 2.886751e+000
         vertex 2.500000e+000 0.000000e+000 1.443376e+000
      endloop
   endfacet
   facet normal 5.000000e-001 0.000000e+000 8.660254e-001
      outer loop
         vertex 2.500000e+000 0.000000e+000 1.443376e+000
         vertex -3.323954e-016 3.100000e+001 2.886751e+000
         vertex -3.323954e-016 0.000000e+000 2.886751e+000
      endloop
   endfacet
   facet normal 0.000000e+000 1.000000e+000 0.000000e+000
      outer loop
         vertex 1.208006e+000 3.100000e+001 -8.934364e-001
         vertex 1.341621e+000 3.100000e+001 -6.764311e-001
         vertex 2.500000e+000 3.100000e+001 -1.443376e+000
      endloop
   endfacet
   facet normal 0.000000e+000 1.000000e+000 0.000000e+000
      outer loop
         vertex -6.188816e-001 3.100000e+001 -1.369121e+000
         vertex 4.274884e-016 3.100000e+001 -2.886751e+000
         vertex -8.413621e-001 3.100000e+001 -1.244836e+000
      endloop
   endfacet
   facet normal 0.000000e+000 1.000000e+000 0.000000e+000
      outer loop
         vertex -8.413621e-001 3.100000e+001 -1.244836e+000
         vertex 4.274884e-016 3.100000e+001 -2.886751e+000
         vertex -2.500000e+000 3.100000e+001 -1.443376e+000
      endloop
   endfacet
   facet normal 0.000000e+000 1.000000e+000 0.000000e+000
      outer loop
         vertex 1.394153e+000 3.100000e+001 5.602168e-001
         vertex 1.279423e+000 3.100000e+001 7.877717e-001
         vertex 2.500000e+000 3.100000e+001 1.443376e+000
      endloop
   endfacet
   facet normal 0.000000e+000 1.000000e+000 0.000000e+000
      outer loop
         vertex -1.341621e+000 3.100000e+001 -6.764311e-001
         vertex -2.500000e+000 3.100000e+001 -1.443376e+000
         vertex -1.436641e+000 3.100000e+001 -4.399662e-001
      endloop
   endfacet
   facet normal 0.000000e+000 1.000000e+000 0.000000e+000
      outer loop
         vertex -1.436641e+000 3.100000e+001 -4.399662e-001
         vertex -2.500000e+000 3.100000e+001 -1.443376e+000
         vertex -1.490330e+000 3.100000e+001 -1.908443e-001
      endloop
   endfacet
   facet normal 0.000000e+000 1.000000e+000 0.000000e+000
      outer loop
         vertex -1.341621e+000 3.100000e+001 -6.764311e-001
         vertex -1.208006e+000 3.100000e+001 -8.934364e-001
         vertex -2.500000e+000 3.100000e+001 -1.443376e+000
      endloop
   endfacet
   facet normal 0.000000e+000 1.000000e+000 0.000000e+000
      outer loop
         vertex -2.500000e+000 3.100000e+001 -1.443376e+000
         vertex -1.208006e+000 3.100000e+001 -8.934364e-001
         vertex -1.039638e+000 3.100000e+001 -1.084739e+000
      endloop
   endfacet
   facet normal 0.000000e+000 1.000000e+000 0.000000e+000
      outer loop
         vertex -2.500000e+000 3.100000e+001 -1.443376e+000
         vertex -1.039638e+000 3.100000e+001 -1.084739e+000
         vertex -8.413621e-001 3.100000e+001 -1.244836e+000
      endloop
   endfacet
   facet normal 0.000000e+000 1.000000e+000 0.000000e+000
      outer loop
         vertex -2.539237e-001 3.100000e+001 1.480888e+000
         vertex -5.005425e-001 3.100000e+001 1.416673e+000
         vertex -3.323954e-016 3.100000e+001 2.886751e+000
      endloop
   endfacet
   facet normal 0.000000e+000 1.000000e+000 0.000000e+000
      outer loop
         vertex -3.323954e-016 3.100000e+001 2.886751e+000
         vertex -5.005425e-001 3.100000e+001 1.416673e+000
         vertex -7.327616e-001 3.100000e+001 1.311704e+000
      endloop
   endfacet
   facet normal 0.000000e+000 1.000000e+000 0.000000e+000
      outer loop
         vertex -3.323954e-016 3.100000e+001 2.886751e+000
         vertex -7.327616e-001 3.100000e+001 1.311704e+000
         vertex -2.500000e+000 3.100000e+001 1.443376e+000
      endloop
   endfacet
   facet normal 0.000000e+000 1.000000e+000 0.000000e+000
      outer loop
         vertex -2.500000e+000 3.100000e+001 1.443376e+000
         vertex -7.327616e-001 3.100000e+001 1.311704e+000
         vertex -9.439005e-001 3.100000e+001 1.168999e+000
      endloop
   endfacet
   facet normal 0.000000e+000 1.000000e+000 0.000000e+000
      outer loop
         vertex -2.500000e+000 3.100000e+001 1.443376e+000
         vertex -9.439005e-001 3.100000e+001 1.168999e+000
         vertex -1.127885e+000 3.100000e+001 9.926638e-001
      endloop
   endfacet
   facet normal 0.000000e+000 1.000000e+000 0.000000e+000
      outer loop
         vertex -1.490330e+000 3.100000e+001 -1.908443e-001
         vertex -2.500000e+000 3.100000e+001 -1.443376e+000
         vertex -1.501146e+000 3.100000e+001 6.376791e-002
      endloop
   endfacet
   facet normal 0.000000e+000 1.000000e+000 0.000000e+000
      outer loop
         vertex -1.501146e+000 3.100000e+001 6.376791e-002
         vertex -2.500000e+000 3.100000e+001 -1.443376e+000
         vertex -2.500000e+000 3.100000e+001 1.443376e+000
      endloop
   endfacet
   facet normal 0.000000e+000 1.000000e+000 0.000000e+000
      outer loop
         vertex -1.501146e+000 3.100000e+001 6.376791e-002
         vertex -2.500000e+000 3.100000e+001 1.443376e+000
         vertex -1.468777e+000 3.100000e+001 3.165456e-001
      endloop
   endfacet
   facet normal 0.000000e+000 1.000000e+000 0.000000e+000
      outer loop
         vertex 1.394153e+000 3.100000e+001 5.602168e-001
         vertex 2.500000e+000 3.100000e+001 1.443376e+000
         vertex 1.468777e+000 3.100000e+001 3.165456e-001
      endloop
   endfacet
   facet normal 0.000000e+000 1.000000e+000 0.000000e+000
      outer loop
         vertex 5.005425e-001 3.100000e+001 1.416673e+000
         vertex 2.539237e-001 3.100000e+001 1.480888e+000
         vertex -3.323954e-016 3.100000e+001 2.886751e+000
      endloop
   endfacet
   facet normal 0.000000e+000 1.000000e+000 0.000000e+000
      outer loop
         vertex -3.323954e-016 3.100000e+001 2.886751e+000
         vertex 2.539237e-001 3.100000e+001 1.480888e+000
         vertex 0.000000e+000 3.100000e+001 1.502500e+000
      endloop
   endfacet
   facet normal 0.000000e+000 1.000000e+000 0.000000e+000
      outer loop
         vertex -3.323954e-016 3.100000e+001 2.886751e+000
         vertex 0.000000e+000 3.100000e+001 1.502500e+000
         vertex -2.539237e-001 3.100000e+001 1.480888e+000
      endloop
   endfacet
   facet normal 0.000000e+000 1.000000e+000 0.000000e+000
      outer loop
         vertex -1.127885e+000 3.100000e+001 9.926638e-001
         vertex -1.279423e+000 3.100000e+001 7.877717e-001
         vertex -2.500000e+000 3.100000e+001 1.443376e+000
      endloop
   endfacet
   facet normal 0.000000e+000 1.000000e+000 0.000000e+000
      outer loop
         vertex -2.500000e+000 3.100000e+001 1.443376e+000
         vertex -1.279423e+000 3.100000e+001 7.877717e-001
         vertex -1.394153e+000 3.100000e+001 5.602168e-001
      endloop
   endfacet
   facet normal 0.000000e+000 1.000000e+000 0.000000e+000
      outer loop
         vertex -2.500000e+000 3.100000e+001 1.443376e+000
         vertex -1.394153e+000 3.100000e+001 5.602168e-001
         vertex -1.468777e+000 3.100000e+001 3.165456e-001
      endloop
   endfacet
   facet normal 0.000000e+000 1.000000e+000 0.000000e+000
      outer loop
         vertex -6.188816e-001 3.100000e+001 -1.369121e+000
         vertex -3.785970e-001 3.100000e+001 -1.454019e+000
         vertex 4.274884e-016 3.100000e+001 -2.886751e+000
      endloop
   endfacet
   facet normal 0.000000e+000 1.000000e+000 0.000000e+000
      outer loop
         vertex 4.274884e-016 3.100000e+001 -2.886751e+000
         vertex -3.785970e-001 3.100000e+001 -1.454019e+000
         vertex -1.274209e-001 3.100000e+001 -1.497087e+000
      endloop
   endfacet
   facet normal 0.000000e+000 1.000000e+000 0.000000e+000
      outer loop
         vertex 4.274884e-016 3.100000e+001 -2.886751e+000
         vertex -1.274209e-001 3.100000e+001 -1.497087e+000
         vertex 1.274209e-001 3.100000e+001 -1.497087e+000
      endloop
   endfacet
   facet normal 0.000000e+000 1.000000e+000 0.000000e+000
      outer loop
         vertex 1.208006e+000 3.100000e+001 -8.934364e-001
         vertex 2.500000e+000 3.100000e+001 -1.443376e+000
         vertex 1.039638e+000 3.100000e+001 -1.084739e+000
      endloop
   endfacet
   facet normal 0.000000e+000 1.000000e+000 0.000000e+000
      outer loop
         vertex 1.274209e-001 3.100000e+001 -1.497087e+000
         vertex 3.785970e-001 3.100000e+001 -1.454019e+000
         vertex 4.274884e-016 3.100000e+001 -2.886751e+000
      endloop
   endfacet
   facet normal 0.000000e+000 1.000000e+000 0.000000e+000
      outer loop
         vertex 4.274884e-016 3.100000e+001 -2.886751e+000
         vertex 3.785970e-001 3.100000e+001 -1.454019e+000
         vertex 6.188816e-001 3.100000e+001 -1.369121e+000
      endloop
   endfacet
   facet normal 0.000000e+000 1.000000e+000 0.000000e+000
      outer loop
         vertex 4.274884e-016 3.100000e+001 -2.886751e+000
         vertex 6.188816e-001 3.100000e+001 -1.369121e+000
         vertex 2.500000e+000 3.100000e+001 -1.443376e+000
      endloop
   endfacet
   facet normal 0.000000e+000 1.000000e+000 0.000000e+000
      outer loop
         vertex 2.500000e+000 3.100000e+001 -1.443376e+000
         vertex 6.188816e-001 3.100000e+001 -1.369121e+000
         vertex 8.413621e-001 3.100000e+001 -1.244836e+000
      endloop
   endfacet
   facet normal 0.000000e+000 1.000000e+000 0.000000e+000
      outer loop
         vertex 2.500000e+000 3.100000e+001 -1.443376e+000
         vertex 8.413621e-001 3.100000e+001 -1.244836e+000
         vertex 1.039638e+000 3.100000e+001 -1.084739e+000
      endloop
   endfacet
   facet normal 0.000000e+000 1.000000e+000 0.000000e+000
      outer loop
         vertex 1.341621e+000 3.100000e+001 -6.764311e-001
         vertex 1.436641e+000 3.100000e+001 -4.399662e-001
         vertex 2.500000e+000 3.100000e+001 -1.443376e+000
      endloop
   endfacet
   facet normal 0.000000e+000 1.000000e+000 0.000000e+000
      outer loop
         vertex 2.500000e+000 3.100000e+001 -1.443376e+000
         vertex 1.436641e+000 3.100000e+001 -4.399662e-001
         vertex 1.490330e+000 3.100000e+001 -1.908443e-001
      endloop
   endfacet
   facet normal 0.000000e+000 1.000000e+000 0.000000e+000
      outer loop
         vertex 2.500000e+000 3.100000e+001 -1.443376e+000
         vertex 1.490330e+000 3.100000e+001 -1.908443e-001
         vertex 2.500000e+000 3.100000e+001 1.443376e+000
      endloop
   endfacet
   facet normal 0.000000e+000 1.000000e+000 0.000000e+000
      outer loop
         vertex 2.500000e+000 3.100000e+001 1.443376e+000
         vertex 1.490330e+000 3.100000e+001 -1.908443e-001
         vertex 1.501146e+000 3.100000e+001 6.376791e-002
      endloop
   endfacet
   facet normal 0.000000e+000 1.000000e+000 0.000000e+000
      outer loop
         vertex 2.500000e+000 3.100000e+001 1.443376e+000
         vertex 1.501146e+000 3.100000e+001 6.376791e-002
         vertex 1.468777e+000 3.100000e+001 3.165456e-001
      endloop
   endfacet
   facet normal 0.000000e+000 1.000000e+000 0.000000e+000
      outer loop
         vertex 1.279423e+000 3.100000e+001 7.877717e-001
         vertex 1.127885e+000 3.100000e+001 9.926638e-001
         vertex 2.500000e+000 3.100000e+001 1.443376e+000
      endloop
   endfacet
   facet normal 0.000000e+000 1.000000e+000 0.000000e+000
      outer loop
         vertex 2.500000e+000 3.100000e+001 1.443376e+000
         vertex 1.127885e+000 3.100000e+001 9.926638e-001
         vertex 9.439005e-001 3.100000e+001 1.168999e+000
      endloop
   endfacet
   facet normal 0.000000e+000 1.000000e+000 0.000000e+000
      outer loop
         vertex 2.500000e+000 3.100000e+001 1.443376e+000
         vertex 9.439005e-001 3.100000e+001 1.168999e+000
         vertex -3.323954e-016 3.100000e+001 2.886751e+000
      endloop
   endfacet
   facet normal 0.000000e+000 1.000000e+000 0.000000e+000
      outer loop
         vertex -3.323954e-016 3.100000e+001 2.886751e+000
         vertex 9.439005e-001 3.100000e+001 1.168999e+000
         vertex 7.327616e-001 3.100000e+001 1.311704e+000
      endloop
   endfacet
   facet normal 0.000000e+000 1.000000e+000 0.000000e+000
      outer loop
         vertex -3.323954e-016 3.100000e+001 2.886751e+000
         vertex 7.327616e-001 3.100000e+001 1.311704e+000
         vertex 5.005425e-001 3.100000e+001 1.416673e+000
      endloop
   endfacet
   facet normal 0.000000e+000 -1.000000e+000 0.000000e+000
      outer loop
         vertex -3.323954e-016 0.000000e+000 2.886751e+000
         vertex -2.500000e+000 0.000000e+000 1.443376e+000
         vertex -8.413621e-001 0.000000e+000 1.244836e+000
      endloop
   endfacet
   facet normal 0.000000e+000 -1.000000e+000 0.000000e+000
      outer loop
         vertex -1.394153e+000 0.000000e+000 -5.602168e-001
         vertex -2.500000e+000 0.000000e+000 -1.443376e+000
         vertex -1.279423e+000 0.000000e+000 -7.877717e-001
      endloop
   endfacet
   facet normal 0.000000e+000 -1.000000e+000 0.000000e+000
      outer loop
         vertex -1.279423e+000 0.000000e+000 -7.877717e-001
         vertex -2.500000e+000 0.000000e+000 -1.443376e+000
         vertex -1.127885e+000 0.000000e+000 -9.926638e-001
      endloop
   endfacet
   facet normal 0.000000e+000 -1.000000e+000 0.000000e+000
      outer loop
         vertex -2.539237e-001 0.000000e+000 -1.480888e+000
         vertex -5.005425e-001 0.000000e+000 -1.416673e+000
         vertex 4.274884e-016 0.000000e+000 -2.886751e+000
      endloop
   endfacet
   facet normal 0.000000e+000 -1.000000e+000 0.000000e+000
      outer loop
         vertex 4.274884e-016 0.000000e+000 -2.886751e+000
         vertex -5.005425e-001 0.000000e+000 -1.416673e+000
         vertex -7.327616e-001 0.000000e+000 -1.311704e+000
      endloop
   endfacet
   facet normal 0.000000e+000 -1.000000e+000 0.000000e+000
      outer loop
         vertex 4.274884e-016 0.000000e+000 -2.886751e+000
         vertex -7.327616e-001 0.000000e+000 -1.311704e+000
         vertex -2.500000e+000 0.000000e+000 -1.443376e+000
      endloop
   endfacet
   facet normal 0.000000e+000 -1.000000e+000 0.000000e+000
      outer loop
         vertex -2.500000e+000 0.000000e+000 -1.443376e+000
         vertex -7.327616e-001 0.000000e+000 -1.311704e+000
         vertex -9.439005e-001 0.000000e+000 -1.168999e+000
      endloop
   endfacet
   facet normal 0.000000e+000 -1.000000e+000 0.000000e+000
      outer loop
         vertex -2.500000e+000 0.000000e+000 -1.443376e+000
         vertex -9.439005e-001 0.000000e+000 -1.168999e+000
         vertex -1.127885e+000 0.000000e+000 -9.926638e-001
      endloop
   endfacet
   facet normal 0.000000e+000 -1.000000e+000 0.000000e+000
      outer loop
         vertex -2.500000e+000 0.000000e+000 1.443376e+000
         vertex -1.436641e+000 0.000000e+000 4.399662e-001
         vertex -1.341621e+000 0.000000e+000 6.764311e-001
      endloop
   endfacet
   facet normal 0.000000e+000 -1.000000e+000 0.000000e+000
      outer loop
         vertex 1.468777e+000 0.000000e+000 -3.165456e-001
         vertex 1.394153e+000 0.000000e+000 -5.602168e-001
         vertex 2.500000e+000 0.000000e+000 -1.443376e+000
      endloop
   endfacet
   facet normal 0.000000e+000 -1.000000e+000 0.000000e+000
      outer loop
         vertex 2.500000e+000 0.000000e+000 -1.443376e+000
         vertex 1.394153e+000 0.000000e+000 -5.602168e-001
         vertex 1.279423e+000 0.000000e+000 -7.877717e-001
      endloop
   endfacet
   facet normal 0.000000e+000 -1.000000e+000 0.000000e+000
      outer loop
         vertex -1.394153e+000 0.000000e+000 -5.602168e-001
         vertex -1.468777e+000 0.000000e+000 -3.165456e-001
         vertex -2.500000e+000 0.000000e+000 -1.443376e+000
      endloop
   endfacet
   facet normal 0.000000e+000 -1.000000e+000 0.000000e+000
      outer loop
         vertex -2.500000e+000 0.000000e+000 -1.443376e+000
         vertex -1.468777e+000 0.000000e+000 -3.165456e-001
         vertex -1.501146e+000 0.000000e+000 -6.376791e-002
      endloop
   endfacet
   facet normal 0.000000e+000 -1.000000e+000 0.000000e+000
      outer loop
         vertex -2.500000e+000 0.000000e+000 -1.443376e+000
         vertex -1.501146e+000 0.000000e+000 -6.376791e-002
         vertex -2.500000e+000 0.000000e+000 1.443376e+000
      endloop
   endfacet
   facet normal 0.000000e+000 -1.000000e+000 0.000000e+000
      outer loop
         vertex -2.500000e+000 0.000000e+000 1.443376e+000
         vertex -1.501146e+000 0.000000e+000 -6.376791e-002
         vertex -1.490330e+000 0.000000e+000 1.908443e-001
      endloop
   endfacet
   facet normal 0.000000e+000 -1.000000e+000 0.000000e+000
      outer loop
         vertex -2.500000e+000 0.000000e+000 1.443376e+000
         vertex -1.490330e+000 0.000000e+000 1.908443e-001
         vertex -1.436641e+000 0.000000e+000 4.399662e-001
      endloop
   endfacet
   facet normal 0.000000e+000 -1.000000e+000 0.000000e+000
      outer loop
         vertex -1.341621e+000 0.000000e+000 6.764311e-001
         vertex -1.208006e+000 0.000000e+000 8.934364e-001
         vertex -2.500000e+000 0.000000e+000 1.443376e+000
      endloop
   endfacet
   facet normal 0.000000e+000 -1.000000e+000 0.000000e+000
      outer loop
         vertex -2.500000e+000 0.000000e+000 1.443376e+000
         vertex -1.208006e+000 0.000000e+000 8.934364e-001
         vertex -1.039638e+000 0.000000e+000 1.084739e+000
      endloop
   endfacet
   facet normal 0.000000e+000 -1.000000e+000 0.000000e+000
      outer loop
         vertex -2.500000e+000 0.000000e+000 1.443376e+000
         vertex -1.039638e+000 0.000000e+000 1.084739e+000
         vertex -8.413621e-001 0.000000e+000 1.244836e+000
      endloop
   endfacet
   facet normal 0.000000e+000 -1.000000e+000 0.000000e+000
      outer loop
         vertex -8.413621e-001 0.000000e+000 1.244836e+000
         vertex -6.188816e-001 0.000000e+000 1.369121e+000
         vertex -3.323954e-016 0.000000e+000 2.886751e+000
      endloop
   endfacet
   facet normal 0.000000e+000 -1.000000e+000 0.000000e+000
      outer loop
         vertex -3.323954e-016 0.000000e+000 2.886751e+000
         vertex -6.188816e-001 0.000000e+000 1.369121e+000
         vertex -3.785970e-001 0.000000e+000 1.454019e+000
      endloop
   endfacet
   facet normal 0.000000e+000 -1.000000e+000 0.000000e+000
      outer loop
         vertex -3.323954e-016 0.000000e+000 2.886751e+000
         vertex -3.785970e-001 0.000000e+000 1.454019e+000
         vertex -1.274209e-001 0.000000e+000 1.497087e+000
      endloop
   endfacet
   facet normal 0.000000e+000 -1.000000e+000 0.000000e+000
      outer loop
         vertex 8.413621e-001 0.000000e+000 1.244836e+000
         vertex 2.500000e+000 0.000000e+000 1.443376e+000
         vertex 6.188816e-001 0.000000e+000 1.369121e+000
      endloop
   endfacet
   facet normal 0.000000e+000 -1.000000e+000 0.000000e+000
      outer loop
         vertex 6.188816e-001 0.000000e+000 1.369121e+000
         vertex 2.500000e+000 0.000000e+000 1.443376e+000
         vertex -3.323954e-016 0.000000e+000 2.886751e+000
      endloop
   endfacet
   facet normal 0.000000e+000 -1.000000e+000 0.000000e+000
      outer loop
         vertex 6.188816e-001 0.000000e+000 1.369121e+000
         vertex -3.323954e-016 0.000000e+000 2.886751e+000
         vertex 3.785970e-001 0.000000e+000 1.454019e+000
      endloop
   endfacet
   facet normal 0.000000e+000 -1.000000e+000 0.000000e+000
      outer loop
         vertex 8.413621e-001 0.000000e+000 1.244836e+000
         vertex 1.039638e+000 0.000000e+000 1.084739e+000
         vertex 2.500000e+000 0.000000e+000 1.443376e+000
      endloop
   endfacet
   facet normal 0.000000e+000 -1.000000e+000 0.000000e+000
      outer loop
         vertex 2.500000e+000 0.000000e+000 1.443376e+000
         vertex 1.039638e+000 0.000000e+000 1.084739e+000
         vertex 1.208006e+000 0.000000e+000 8.934364e-001
      endloop
   endfacet
   facet normal 0.000000e+000 -1.000000e+000 0.000000e+000
      outer loop
         vertex 2.500000e+000 0.000000e+000 1.443376e+000
         vertex 1.208006e+000 0.000000e+000 8.934364e-001
         vertex 1.341621e+000 0.000000e+000 6.764311e-001
      endloop
   endfacet
   facet normal 0.000000e+000 -1.000000e+000 0.000000e+000
      outer loop
         vertex 1.341621e+000 0.000000e+000 6.764311e-001
         vertex 1.436641e+000 0.000000e+000 4.399662e-001
         vertex 2.500000e+000 0.000000e+000 1.443376e+000
      endloop
   endfacet
   facet normal 0.000000e+000 -1.000000e+000 0.000000e+000
      outer loop
         vertex 2.500000e+000 0.000000e+000 1.443376e+000
         vertex 1.436641e+000 0.000000e+000 4.399662e-001
         vertex 1.490330e+000 0.000000e+000 1.908443e-001
      endloop
   endfacet
   facet normal 0.000000e+000 -1.000000e+000 0.000000e+000
      outer loop
         vertex 2.500000e+000 0.000000e+000 1.443376e+000
         vertex 1.490330e+000 0.000000e+000 1.908443e-001
         vertex 2.500000e+000 0.000000e+000 -1.443376e+000
      endloop
   endfacet
   facet normal 0.000000e+000 -1.000000e+000 0.000000e+000
      outer loop
         vertex 2.500000e+000 0.000000e+000 -1.443376e+000
         vertex 1.490330e+000 0.000000e+000 1.908443e-001
         vertex 1.501146e+000 0.000000e+000 -6.376791e-002
      endloop
   endfacet
   facet normal 0.000000e+000 -1.000000e+000 0.000000e+000
      outer loop
         vertex 2.500000e+000 0.000000e+000 -1.443376e+000
         vertex 1.501146e+000 0.000000e+000 -6.376791e-002
         vertex 1.468777e+000 0.000000e+000 -3.165456e-001
      endloop
   endfacet
   facet normal 0.000000e+000 -1.000000e+000 0.000000e+000
      outer loop
         vertex 5.005425e-001 0.000000e+000 -1.416673e+000
         vertex 2.539237e-001 0.000000e+000 -1.480888e+000
         vertex 4.274884e-016 0.000000e+000 -2.886751e+000
      endloop
   endfacet
   facet normal 0.000000e+000 -1.000000e+000 0.000000e+000
      outer loop
         vertex 4.274884e-016 0.000000e+000 -2.886751e+000
         vertex 2.539237e-001 0.000000e+000 -1.480888e+000
         vertex 0.000000e+000 0.000000e+000 -1.502500e+000
      endloop
   endfacet
   facet normal 0.000000e+000 -1.000000e+000 0.000000e+000
      outer loop
         vertex 4.274884e-016 0.000000e+000 -2.886751e+000
         vertex 0.000000e+000 0.000000e+000 -1.502500e+000
         vertex -2.539237e-001 0.000000e+000 -1.480888e+000
      endloop
   endfacet
   facet normal 0.000000e+000 -1.000000e+000 0.000000e+000
      outer loop
         vertex -1.274209e-001 0.000000e+000 1.497087e+000
         vertex 1.840032e-016 0.000000e+000 1.502500e+000
         vertex -3.323954e-016 0.000000e+000 2.886751e+000
      endloop
   endfacet
   facet normal 0.000000e+000 -1.000000e+000 0.000000e+000
      outer loop
         vertex -3.323954e-016 0.000000e+000 2.886751e+000
         vertex 1.840032e-016 0.000000e+000 1.502500e+000
         vertex 1.274209e-001 0.000000e+000 1.497087e+000
      endloop
   endfacet
   facet normal 0.000000e+000 -1.000000e+000 0.000000e+000
      outer loop
         vertex -3.323954e-016 0.000000e+000 2.886751e+000
         vertex 1.274209e-001 0.000000e+000 1.497087e+000
         vertex 3.785970e-001 0.000000e+000 1.454019e+000
      endloop
   endfacet
   facet normal 0.000000e+000 -1.000000e+000 0.000000e+000
      outer loop
         vertex 1.279423e+000 0.000000e+000 -7.877717e-001
         vertex 1.127885e+000 0.000000e+000 -9.926638e-001
         vertex 2.500000e+000 0.000000e+000 -1.443376e+000
      endloop
   endfacet
   facet normal 0.000000e+000 -1.000000e+000 0.000000e+000
      outer loop
         vertex 2.500000e+000 0.000000e+000 -1.443376e+000
         vertex 1.127885e+000 0.000000e+000 -9.926638e-001
         vertex 9.439005e-001 0.000000e+000 -1.168999e+000
      endloop
   endfacet
   facet normal 0.000000e+000 -1.000000e+000 0.000000e+000
      outer loop
         vertex 2.500000e+000 0.000000e+000 -1.443376e+000
         vertex 9.439005e-001 0.000000e+000 -1.168999e+000
         vertex 4.274884e-016 0.000000e+000 -2.886751e+000
      endloop
   endfacet
   facet normal 0.000000e+000 -1.000000e+000 0.000000e+000
      outer loop
         vertex 4.274884e-016 0.000000e+000 -2.886751e+000
         vertex 9.439005e-001 0.000000e+000 -1.168999e+000
         vertex 7.327616e-001 0.000000e+000 -1.311704e+000
      endloop
   endfacet
   facet normal 0.000000e+000 -1.000000e+000 0.000000e+000
      outer loop
         vertex 4.274884e-016 0.000000e+000 -2.886751e+000
         vertex 7.327616e-001 0.000000e+000 -1.311704e+000
         vertex 5.005425e-001 0.000000e+000 -1.416673e+000
      endloop
   endfacet
   facet normal -5.651454e-002 0.000000e+000 9.984018e-001
      outer loop
         vertex -3.680064e-016 6.005000e+000 -1.502500e+000
         vertex -3.680064e-016 0.000000e+000 -1.502500e+000
         vertex 2.539237e-001 6.005000e+000 -1.480888e+000
      endloop
   endfacet
   facet normal -1.130291e-001 0.000000e+000 9.935917e-001
      outer loop
         vertex 2.539237e-001 6.005000e+000 -1.480888e+000
         vertex -3.680064e-016 0.000000e+000 -1.502500e+000
         vertex 2.539237e-001 0.000000e+000 -1.480888e+000
      endloop
   endfacet
   facet normal -2.244324e-001 0.000000e+000 9.744897e-001
      outer loop
         vertex 2.539237e-001 6.005000e+000 -1.480888e+000
         vertex 2.539237e-001 0.000000e+000 -1.480888e+000
         vertex 5.005425e-001 6.005000e+000 -1.416673e+000
      endloop
   endfacet
   facet normal -2.793211e-001 0.000000e+000 9.601977e-001
      outer loop
         vertex 5.005425e-001 6.005000e+000 -1.416673e+000
         vertex 2.539237e-001 0.000000e+000 -1.480888e+000
         vertex 5.005425e-001 0.000000e+000 -1.416673e+000
      endloop
   endfacet
   facet normal -3.858936e-001 0.000000e+000 9.225433e-001
      outer loop
         vertex 5.005425e-001 6.005000e+000 -1.416673e+000
         vertex 5.005425e-001 0.000000e+000 -1.416673e+000
         vertex 7.327616e-001 6.005000e+000 -1.311704e+000
      endloop
   endfacet
   facet normal -4.375775e-001 0.000000e+000 8.991807e-001
      outer loop
         vertex 7.327616e-001 6.005000e+000 -1.311704e+000
         vertex 5.005425e-001 0.000000e+000 -1.416673e+000
         vertex 7.327616e-001 0.000000e+000 -1.311704e+000
      endloop
   endfacet
   facet normal -5.362535e-001 0.000000e+000 8.440570e-001
      outer loop
         vertex 7.327616e-001 6.005000e+000 -1.311704e+000
         vertex 7.327616e-001 0.000000e+000 -1.311704e+000
         vertex 9.439005e-001 6.005000e+000 -1.168999e+000
      endloop
   endfacet
   facet normal -5.832456e-001 0.000000e+000 8.122959e-001
      outer loop
         vertex 9.439005e-001 6.005000e+000 -1.168999e+000
         vertex 7.327616e-001 0.000000e+000 -1.311704e+000
         vertex 9.439005e-001 0.000000e+000 -1.168999e+000
      endloop
   endfacet
   facet normal -6.711863e-001 0.000000e+000 7.412888e-001
      outer loop
         vertex 9.439005e-001 6.005000e+000 -1.168999e+000
         vertex 9.439005e-001 0.000000e+000 -1.168999e+000
         vertex 1.127885e+000 6.005000e+000 -9.926638e-001
      endloop
   endfacet
   facet normal -7.121348e-001 0.000000e+000 7.020428e-001
      outer loop
         vertex 1.127885e+000 6.005000e+000 -9.926638e-001
         vertex 9.439005e-001 0.000000e+000 -1.168999e+000
         vertex 1.127885e+000 0.000000e+000 -9.926638e-001
      endloop
   endfacet
   facet normal -7.868103e-001 0.000000e+000 6.171949e-001
      outer loop
         vertex 1.127885e+000 6.005000e+000 -9.926638e-001
         vertex 1.127885e+000 0.000000e+000 -9.926638e-001
         vertex 1.279423e+000 6.005000e+000 -7.877717e-001
      endloop
   endfacet
   facet normal -8.205372e-001 0.000000e+000 5.715931e-001
      outer loop
         vertex 1.279423e+000 6.005000e+000 -7.877717e-001
         vertex 1.127885e+000 0.000000e+000 -9.926638e-001
         vertex 1.279423e+000 0.000000e+000 -7.877717e-001
      endloop
   endfacet
   facet normal -8.797992e-001 0.000000e+000 4.753455e-001
      outer loop
         vertex 1.279423e+000 6.005000e+000 -7.877717e-001
         vertex 1.279423e+000 0.000000e+000 -7.877717e-001
         vertex 1.394153e+000 6.005000e+000 -5.602168e-001
      endloop
   endfacet
   facet normal -9.053342e-001 0.000000e+000 4.246998e-001
      outer loop
         vertex 1.394153e+000 6.005000e+000 -5.602168e-001
         vertex 1.279423e+000 0.000000e+000 -7.877717e-001
         vertex 1.394153e+000 0.000000e+000 -5.602168e-001
      endloop
   endfacet
   facet normal -9.474779e-001 0.000000e+000 3.198213e-001
      outer loop
         vertex 1.394153e+000 6.005000e+000 -5.602168e-001
         vertex 1.394153e+000 0.000000e+000 -5.602168e-001
         vertex 1.468777e+000 6.005000e+000 -3.165456e-001
      endloop
   endfacet
   facet normal -9.640865e-001 0.000000e+000 2.655886e-001
      outer loop
         vertex 1.468777e+000 6.005000e+000 -3.165456e-001
         vertex 1.394153e+000 0.000000e+000 -5.602168e-001
         vertex 1.468777e+000 0.000000e+000 -3.165456e-001
      endloop
   endfacet
   facet normal -9.878993e-001 0.000000e+000 1.550965e-001
      outer loop
         vertex 1.468777e+000 6.005000e+000 -3.165456e-001
         vertex 1.468777e+000 0.000000e+000 -3.165456e-001
         vertex 1.501146e+000 6.005000e+000 -6.376791e-002
      endloop
   endfacet
   facet normal -9.951036e-001 0.000000e+000 9.883699e-002
      outer loop
         vertex 1.501146e+000 6.005000e+000 -6.376791e-002
         vertex 1.468777e+000 0.000000e+000 -3.165456e-001
         vertex 1.501146e+000 0.000000e+000 -6.376791e-002
      endloop
   endfacet
   facet normal -9.999007e-001 0.000000e+000 -1.409025e-002
      outer loop
         vertex 1.501146e+000 6.005000e+000 -6.376791e-002
         vertex 1.501146e+000 0.000000e+000 -6.376791e-002
         vertex 1.490330e+000 6.005000e+000 1.908443e-001
      endloop
   endfacet
   facet normal -9.974935e-001 0.000000e+000 -7.075802e-002
      outer loop
         vertex 1.490330e+000 6.005000e+000 1.908443e-001
         vertex 1.501146e+000 0.000000e+000 -6.376791e-002
         vertex 1.490330e+000 0.000000e+000 1.908443e-001
      endloop
   endfacet
   facet normal -9.831368e-001 0.000000e+000 -1.828716e-001
      outer loop
         vertex 1.490330e+000 6.005000e+000 1.908443e-001
         vertex 1.490330e+000 0.000000e+000 1.908443e-001
         vertex 1.436641e+000 6.005000e+000 4.399662e-001
      endloop
   endfacet
   facet normal -9.711873e-001 0.000000e+000 -2.383175e-001
      outer loop
         vertex 1.436641e+000 6.005000e+000 4.399662e-001
         vertex 1.490330e+000 0.000000e+000 1.908443e-001
         vertex 1.436641e+000 0.000000e+000 4.399662e-001
      endloop
   endfacet
   facet normal -9.380898e-001 0.000000e+000 -3.463921e-001
      outer loop
         vertex 1.436641e+000 6.005000e+000 4.399662e-001
         vertex 1.436641e+000 0.000000e+000 4.399662e-001
         vertex 1.341621e+000 6.005000e+000 6.764311e-001
      endloop
   endfacet
   facet normal -9.169418e-001 0.000000e+000 -3.990209e-001
      outer loop
         vertex 1.341621e+000 6.005000e+000 6.764311e-001
         vertex 1.436641e+000 0.000000e+000 4.399662e-001
         vertex 1.341621e+000 0.000000e+000 6.764311e-001
      endloop
   endfacet
   facet normal -8.660557e-001 0.000000e+000 -4.999475e-001
      outer loop
         vertex 1.341621e+000 6.005000e+000 6.764311e-001
         vertex 1.341621e+000 0.000000e+000 6.764311e-001
         vertex 1.208006e+000 6.005000e+000 8.934364e-001
      endloop
   endfacet
   facet normal -8.363176e-001 0.000000e+000 -5.482453e-001
      outer loop
         vertex 1.208006e+000 6.005000e+000 8.934364e-001
         vertex 1.341621e+000 0.000000e+000 6.764311e-001
         vertex 1.208006e+000 0.000000e+000 8.934364e-001
      endloop
   endfacet
   facet normal -7.691067e-001 0.000000e+000 -6.391203e-001
      outer loop
         vertex 1.208006e+000 6.005000e+000 8.934364e-001
         vertex 1.208006e+000 0.000000e+000 8.934364e-001
         vertex 1.039638e+000 6.005000e+000 1.084739e+000
      endloop
   endfacet
   facet normal -7.316340e-001 0.000000e+000 -6.816977e-001
      outer loop
         vertex 1.039638e+000 6.005000e+000 1.084739e+000
         vertex 1.208006e+000 0.000000e+000 8.934364e-001
         vertex 1.039638e+000 0.000000e+000 1.084739e+000
      endloop
   endfacet
   facet normal -6.500320e-001 0.000000e+000 -7.599069e-001
      outer loop
         vertex 1.039638e+000 6.005000e+000 1.084739e+000
         vertex 1.039638e+000 0.000000e+000 1.084739e+000
         vertex 8.413621e-001 6.005000e+000 1.244836e+000
      endloop
   endfacet
   facet normal -6.059027e-001 0.000000e+000 -7.955388e-001
      outer loop
         vertex 8.413621e-001 6.005000e+000 1.244836e+000
         vertex 1.039638e+000 0.000000e+000 1.084739e+000
         vertex 8.413621e-001 0.000000e+000 1.244836e+000
      endloop
   endfacet
   facet normal -5.122570e-001 0.000000e+000 -8.588322e-001
      outer loop
         vertex 8.413621e-001 6.005000e+000 1.244836e+000
         vertex 8.413621e-001 0.000000e+000 1.244836e+000
         vertex 6.188816e-001 6.005000e+000 1.369121e+000
      endloop
   endfacet
   facet normal -4.627406e-001 0.000000e+000 -8.864937e-001
      outer loop
         vertex 6.188816e-001 6.005000e+000 1.369121e+000
         vertex 8.413621e-001 0.000000e+000 1.244836e+000
         vertex 6.188816e-001 0.000000e+000 1.369121e+000
      endloop
   endfacet
   facet normal -3.597453e-001 0.000000e+000 -9.330506e-001
      outer loop
         vertex 6.188816e-001 6.005000e+000 1.369121e+000
         vertex 6.188816e-001 0.000000e+000 1.369121e+000
         vertex 3.785970e-001 6.005000e+000 1.454019e+000
      endloop
   endfacet
   facet normal -3.062663e-001 0.000000e+000 -9.519458e-001
      outer loop
         vertex 3.785970e-001 6.005000e+000 1.454019e+000
         vertex 6.188816e-001 0.000000e+000 1.369121e+000
         vertex 3.785970e-001 0.000000e+000 1.454019e+000
      endloop
   endfacet
   facet normal -1.968844e-001 0.000000e+000 -9.804267e-001
      outer loop
         vertex 3.785970e-001 6.005000e+000 1.454019e+000
         vertex 3.785970e-001 0.000000e+000 1.454019e+000
         vertex 1.274209e-001 6.005000e+000 1.497087e+000
      endloop
   endfacet
   facet normal -1.409813e-001 0.000000e+000 -9.900123e-001
      outer loop
         vertex 1.274209e-001 6.005000e+000 1.497087e+000
         vertex 3.785970e-001 0.000000e+000 1.454019e+000
         vertex 1.274209e-001 0.000000e+000 1.497087e+000
      endloop
   endfacet
   facet normal -5.658260e-002 0.000000e+000 -9.983979e-001
      outer loop
         vertex 1.274209e-001 6.005000e+000 1.497087e+000
         vertex 1.274209e-001 0.000000e+000 1.497087e+000
         vertex 1.840032e-016 6.005000e+000 1.502500e+000
      endloop
   endfacet
   facet normal -2.829130e-002 0.000000e+000 -9.995998e-001
      outer loop
         vertex 1.840032e-016 6.005000e+000 1.502500e+000
         vertex 1.274209e-001 0.000000e+000 1.497087e+000
         vertex 5.520095e-016 0.000000e+000 1.502500e+000
      endloop
   endfacet
   facet normal 2.829130e-002 0.000000e+000 -9.995998e-001
      outer loop
         vertex 1.840032e-016 6.005000e+000 1.502500e+000
         vertex 5.520095e-016 0.000000e+000 1.502500e+000
         vertex -1.274209e-001 6.005000e+000 1.497087e+000
      endloop
   endfacet
   facet normal 5.658260e-002 0.000000e+000 -9.983979e-001
      outer loop
         vertex -1.274209e-001 6.005000e+000 1.497087e+000
         vertex 5.520095e-016 0.000000e+000 1.502500e+000
         vertex -1.274209e-001 0.000000e+000 1.497087e+000
      endloop
   endfacet
   facet normal 1.409813e-001 0.000000e+000 -9.900123e-001
      outer loop
         vertex -1.274209e-001 6.005000e+000 1.497087e+000
         vertex -1.274209e-001 0.000000e+000 1.497087e+000
         vertex -3.785970e-001 6.005000e+000 1.454019e+000
      endloop
   endfacet
   facet normal 1.968844e-001 0.000000e+000 -9.804267e-001
      outer loop
         vertex -3.785970e-001 6.005000e+000 1.454019e+000
         vertex -1.274209e-001 0.000000e+000 1.497087e+000
         vertex -3.785970e-001 0.000000e+000 1.454019e+000
      endloop
   endfacet
   facet normal 3.062663e-001 0.000000e+000 -9.519458e-001
      outer loop
         vertex -3.785970e-001 6.005000e+000 1.454019e+000
         vertex -3.785970e-001 0.000000e+000 1.454019e+000
         vertex -6.188816e-001 6.005000e+000 1.369121e+000
      endloop
   endfacet
   facet normal 3.597453e-001 0.000000e+000 -9.330506e-001
      outer loop
         vertex -6.188816e-001 6.005000e+000 1.369121e+000
         vertex -3.785970e-001 0.000000e+000 1.454019e+000
         vertex -6.188816e-001 0.000000e+000 1.369121e+000
      endloop
   endfacet
   facet normal 4.627406e-001 0.000000e+000 -8.864937e-001
      outer loop
         vertex -6.188816e-001 6.005000e+000 1.369121e+000
         vertex -6.188816e-001 0.000000e+000 1.369121e+000
         vertex -8.413621e-001 6.005000e+000 1.244836e+000
      endloop
   endfacet
   facet normal 5.122570e-001 0.000000e+000 -8.588322e-001
      outer loop
         vertex -8.413621e-001 6.005000e+000 1.244836e+000
         vertex -6.188816e-001 0.000000e+000 1.369121e+000
         vertex -8.413621e-001 0.000000e+000 1.244836e+000
      endloop
   endfacet
   facet normal 6.059027e-001 0.000000e+000 -7.955388e-001
      outer loop
         vertex -8.413621e-001 6.005000e+000 1.244836e+000
         vertex -8.413621e-001 0.000000e+000 1.244836e+000
         vertex -1.039638e+000 6.005000e+000 1.084739e+000
      endloop
   endfacet
   facet normal 6.500320e-001 0.000000e+000 -7.599069e-001
      outer loop
         vertex -1.039638e+000 6.005000e+000 1.084739e+000
         vertex -8.413621e-001 0.000000e+000 1.244836e+000
         vertex -1.039638e+000 0.000000e+000 1.084739e+000
      endloop
   endfacet
   facet normal 7.316340e-001 0.000000e+000 -6.816977e-001
      outer loop
         vertex -1.039638e+000 6.005000e+000 1.084739e+000
         vertex -1.039638e+000 0.000000e+000 1.084739e+000
         vertex -1.208006e+000 6.005000e+000 8.934364e-001
      endloop
   endfacet
   facet normal 7.691067e-001 0.000000e+000 -6.391203e-001
      outer loop
         vertex -1.208006e+000 6.005000e+000 8.934364e-001
         vertex -1.039638e+000 0.000000e+000 1.084739e+000
         vertex -1.208006e+000 0.000000e+000 8.934364e-001
      endloop
   endfacet
   facet normal 8.363176e-001 0.000000e+000 -5.482453e-001
      outer loop
         vertex -1.208006e+000 6.005000e+000 8.934364e-001
         vertex -1.208006e+000 0.000000e+000 8.934364e-001
         vertex -1.341621e+000 6.005000e+000 6.764311e-001
      endloop
   endfacet
   facet normal 8.660557e-001 0.000000e+000 -4.999475e-001
      outer loop
         vertex -1.341621e+000 6.005000e+000 6.764311e-001
         vertex -1.208006e+000 0.000000e+000 8.934364e-001
         vertex -1.341621e+000 0.000000e+000 6.764311e-001
      endloop
   endfacet
   facet normal 9.169418e-001 0.000000e+000 -3.990209e-001
      outer loop
         vertex -1.341621e+000 6.005000e+000 6.764311e-001
         vertex -1.341621e+000 0.000000e+000 6.764311e-001
         vertex -1.436641e+000 6.005000e+000 4.399662e-001
      endloop
   endfacet
   facet normal 9.380898e-001 0.000000e+000 -3.463921e-001
      outer loop
         vertex -1.436641e+000 6.005000e+000 4.399662e-001
         vertex -1.341621e+000 0.000000e+000 6.764311e-001
         vertex -1.436641e+000 0.000000e+000 4.399662e-001
      endloop
   endfacet
   facet normal 9.711873e-001 0.000000e+000 -2.383175e-001
      outer loop
         vertex -1.436641e+000 6.005000e+000 4.399662e-001
         vertex -1.436641e+000 0.000000e+000 4.399662e-001
         vertex -1.490330e+000 6.005000e+000 1.908443e-001
      endloop
   endfacet
   facet normal 9.831368e-001 0.000000e+000 -1.828716e-001
      outer loop
         vertex -1.490330e+000 6.005000e+000 1.908443e-001
         vertex -1.436641e+000 0.000000e+000 4.399662e-001
         vertex -1.490330e+000 0.000000e+000 1.908443e-001
      endloop
   endfacet
   facet normal 9.974935e-001 0.000000e+000 -7.075802e-002
      outer loop
         vertex -1.490330e+000 6.005000e+000 1.908443e-001
         vertex -1.490330e+000 0.000000e+000 1.908443e-001
         vertex -1.501146e+000 6.005000e+000 -6.376791e-002
      endloop
   endfacet
   facet normal 9.999007e-001 0.000000e+000 -1.409025e-002
      outer loop
         vertex -1.501146e+000 6.005000e+000 -6.376791e-002
         vertex -1.490330e+000 0.000000e+000 1.908443e-001
         vertex -1.501146e+000 0.000000e+000 -6.376791e-002
      endloop
   endfacet
   facet normal 9.951036e-001 0.000000e+000 9.883699e-002
      outer loop
         vertex -1.501146e+000 6.005000e+000 -6.376791e-002
         vertex -1.501146e+000 0.000000e+000 -6.376791e-002
         vertex -1.468777e+000 6.005000e+000 -3.165456e-001
      endloop
   endfacet
   facet normal 9.878993e-001 0.000000e+000 1.550965e-001
      outer loop
         vertex -1.468777e+000 6.005000e+000 -3.165456e-001
         vertex -1.501146e+000 0.000000e+000 -6.376791e-002
         vertex -1.468777e+000 0.000000e+000 -3.165456e-001
      endloop
   endfacet
   facet normal 9.640865e-001 0.000000e+000 2.655886e-001
      outer loop
         vertex -1.468777e+000 6.005000e+000 -3.165456e-001
         vertex -1.468777e+000 0.000000e+000 -3.165456e-001
         vertex -1.394153e+000 6.005000e+000 -5.602168e-001
      endloop
   endfacet
   facet normal 9.474779e-001 0.000000e+000 3.198213e-001
      outer loop
         vertex -1.394153e+000 6.005000e+000 -5.602168e-001
         vertex -1.468777e+000 0.000000e+000 -3.165456e-001
         vertex -1.394153e+000 0.000000e+000 -5.602168e-001
      endloop
   endfacet
   facet normal 9.053342e-001 0.000000e+000 4.246998e-001
      outer loop
         vertex -1.394153e+000 6.005000e+000 -5.602168e-001
         vertex -1.394153e+000 0.000000e+000 -5.602168e-001
         vertex -1.279423e+000 6.005000e+000 -7.877717e-001
      endloop
   endfacet
   facet normal 8.797992e-001 0.000000e+000 4.753455e-001
      outer loop
         vertex -1.279423e+000 6.005000e+000 -7.877717e-001
         vertex -1.394153e+000 0.000000e+000 -5.602168e-001
         vertex -1.279423e+000 0.000000e+000 -7.877717e-001
      endloop
   endfacet
   facet normal 8.205372e-001 0.000000e+000 5.715931e-001
      outer loop
         vertex -1.279423e+000 6.005000e+000 -7.877717e-001
         vertex -1.279423e+000 0.000000e+000 -7.877717e-001
         vertex -1.127885e+000 6.005000e+000 -9.926638e-001
      endloop
   endfacet
   facet normal 7.868103e-001 0.000000e+000 6.171949e-001
      outer loop
         vertex -1.127885e+000 6.005000e+000 -9.926638e-001
         vertex -1.279423e+000 0.000000e+000 -7.877717e-001
         vertex -1.127885e+000 0.000000e+000 -9.926638e-001
      endloop
   endfacet
   facet normal 7.121348e-001 0.000000e+000 7.020428e-001
      outer loop
         vertex -1.127885e+000 6.005000e+000 -9.926638e-001
         vertex -1.127885e+000 0.000000e+000 -9.926638e-001
         vertex -9.439005e-001 6.005000e+000 -1.168999e+000
      endloop
   endfacet
   facet normal 6.711863e-001 0.000000e+000 7.412888e-001
      outer loop
         vertex -9.439005e-001 6.005000e+000 -1.168999e+000
         vertex -1.127885e+000 0.000000e+000 -9.926638e-001
         vertex -9.439005e-001 0.000000e+000 -1.168999e+000
      endloop
   endfacet
   facet normal 5.832456e-001 0.000000e+000 8.122959e-001
      outer loop
         vertex -9.439005e-001 6.005000e+000 -1.168999e+000
         vertex -9.439005e-001 0.000000e+000 -1.168999e+000
         vertex -7.327616e-001 6.005000e+000 -1.311704e+000
      endloop
   endfacet
   facet normal 5.362535e-001 0.000000e+000 8.440570e-001
      outer loop
         vertex -7.327616e-001 6.005000e+000 -1.311704e+000
         vertex -9.439005e-001 0.000000e+000 -1.168999e+000
         vertex -7.327616e-001 0.000000e+000 -1.311704e+000
      endloop
   endfacet
   facet normal 4.375775e-001 0.000000e+000 8.991807e-001
      outer loop
         vertex -7.327616e-001 6.005000e+000 -1.311704e+000
         vertex -7.327616e-001 0.000000e+000 -1.311704e+000
         vertex -5.005425e-001 6.005000e+000 -1.416673e+000
      endloop
   endfacet
   facet normal 3.858936e-001 0.000000e+000 9.225433e-001
      outer loop
         vertex -5.005425e-001 6.005000e+000 -1.416673e+000
         vertex -7.327616e-001 0.000000e+000 -1.311704e+000
         vertex -5.005425e-001 0.000000e+000 -1.416673e+000
      endloop
   endfacet
   facet normal 2.793211e-001 0.000000e+000 9.601977e-001
      outer loop
         vertex -5.005425e-001 6.005000e+000 -1.416673e+000
         vertex -5.005425e-001 0.000000e+000 -1.416673e+000
         vertex -2.539237e-001 6.005000e+000 -1.480888e+000
      endloop
   endfacet
   facet normal 2.244324e-001 0.000000e+000 9.744897e-001
      outer loop
         vertex -2.539237e-001 6.005000e+000 -1.480888e+000
         vertex -5.005425e-001 0.000000e+000 -1.416673e+000
         vertex -2.539237e-001 0.000000e+000 -1.480888e+000
      endloop
   endfacet
   facet normal 1.130291e-001 0.000000e+000 9.935917e-001
      outer loop
         vertex -2.539237e-001 6.005000e+000 -1.480888e+000
         vertex -2.539237e-001 0.000000e+000 -1.480888e+000
         vertex -3.680064e-016 6.005000e+000 -1.502500e+000
      endloop
   endfacet
   facet normal 5.651454e-002 0.000000e+000 9.984018e-001
      outer loop
         vertex -3.680064e-016 6.005000e+000 -1.502500e+000
         vertex -2.539237e-001 0.000000e+000 -1.480888e+000
         vertex -3.680064e-016 0.000000e+000 -1.502500e+000
      endloop
   endfacet
   facet normal 0.000000e+000 -1.000000e+000 0.000000e+000
      outer loop
         vertex 5.520095e-016 6.005000e+000 1.502500e+000
         vertex -1.274209e-001 6.005000e+000 1.497087e+000
         vertex 0.000000e+000 6.005000e+000 0.000000e+000
      endloop
   endfacet
   facet normal 0.000000e+000 -1.000000e+000 0.000000e+000
      outer loop
         vertex 5.520095e-016 6.005000e+000 1.502500e+000
         vertex 0.000000e+000 6.005000e+000 0.000000e+000
         vertex 1.274209e-001 6.005000e+000 1.497087e+000
      endloop
   endfacet
   facet normal 0.000000e+000 -1.000000e+000 0.000000e+000
      outer loop
         vertex 8.413621e-001 6.005000e+000 1.244836e+000
         vertex 6.188816e-001 6.005000e+000 1.369121e+000
         vertex 0.000000e+000 6.005000e+000 0.000000e+000
      endloop
   endfacet
   facet normal 0.000000e+000 -1.000000e+000 0.000000e+000
      outer loop
         vertex 0.000000e+000 6.005000e+000 0.000000e+000
         vertex 6.188816e-001 6.005000e+000 1.369121e+000
         vertex 3.785970e-001 6.005000e+000 1.454019e+000
      endloop
   endfacet
   facet normal 0.000000e+000 -1.000000e+000 0.000000e+000
      outer loop
         vertex 0.000000e+000 6.005000e+000 0.000000e+000
         vertex 3.785970e-001 6.005000e+000 1.454019e+000
         vertex 1.274209e-001 6.005000e+000 1.497087e+000
      endloop
   endfacet
   facet normal 0.000000e+000 -1.000000e+000 0.000000e+000
      outer loop
         vertex 1.341621e+000 6.005000e+000 6.764311e-001
         vertex 1.208006e+000 6.005000e+000 8.934364e-001
         vertex 0.000000e+000 6.005000e+000 0.000000e+000
      endloop
   endfacet
   facet normal 0.000000e+000 -1.000000e+000 0.000000e+000
      outer loop
         vertex 0.000000e+000 6.005000e+000 0.000000e+000
         vertex 1.208006e+000 6.005000e+000 8.934364e-001
         vertex 1.039638e+000 6.005000e+000 1.084739e+000
      endloop
   endfacet
   facet normal 0.000000e+000 -1.000000e+000 0.000000e+000
      outer loop
         vertex 0.000000e+000 6.005000e+000 0.000000e+000
         vertex 1.039638e+000 6.005000e+000 1.084739e+000
         vertex 8.413621e-001 6.005000e+000 1.244836e+000
      endloop
   endfacet
   facet normal 0.000000e+000 -1.000000e+000 0.000000e+000
      outer loop
         vertex 1.501146e+000 6.005000e+000 -6.376791e-002
         vertex 1.490330e+000 6.005000e+000 1.908443e-001
         vertex 0.000000e+000 6.005000e+000 0.000000e+000
      endloop
   endfacet
   facet normal 0.000000e+000 -1.000000e+000 0.000000e+000
      outer loop
         vertex 0.000000e+000 6.005000e+000 0.000000e+000
         vertex 1.490330e+000 6.005000e+000 1.908443e-001
         vertex 1.436641e+000 6.005000e+000 4.399662e-001
      endloop
   endfacet
   facet normal 0.000000e+000 -1.000000e+000 0.000000e+000
      outer loop
         vertex 0.000000e+000 6.005000e+000 0.000000e+000
         vertex 1.436641e+000 6.005000e+000 4.399662e-001
         vertex 1.341621e+000 6.005000e+000 6.764311e-001
      endloop
   endfacet
   facet normal 0.000000e+000 -1.000000e+000 0.000000e+000
      outer loop
         vertex 1.279423e+000 6.005000e+000 -7.877717e-001
         vertex 1.394153e+000 6.005000e+000 -5.602168e-001
         vertex 0.000000e+000 6.005000e+000 0.000000e+000
      endloop
   endfacet
   facet normal 0.000000e+000 -1.000000e+000 0.000000e+000
      outer loop
         vertex 0.000000e+000 6.005000e+000 0.000000e+000
         vertex 1.394153e+000 6.005000e+000 -5.602168e-001
         vertex 1.468777e+000 6.005000e+000 -3.165456e-001
      endloop
   endfacet
   facet normal 0.000000e+000 -1.000000e+000 0.000000e+000
      outer loop
         vertex 0.000000e+000 6.005000e+000 0.000000e+000
         vertex 1.468777e+000 6.005000e+000 -3.165456e-001
         vertex 1.501146e+000 6.005000e+000 -6.376791e-002
      endloop
   endfacet
   facet normal 0.000000e+000 -1.000000e+000 0.000000e+000
      outer loop
         vertex 7.327616e-001 6.005000e+000 -1.311704e+000
         vertex 9.439005e-001 6.005000e+000 -1.168999e+000
         vertex 0.000000e+000 6.005000e+000 0.000000e+000
      endloop
   endfacet
   facet normal 0.000000e+000 -1.000000e+000 0.000000e+000
      outer loop
         vertex 0.000000e+000 6.005000e+000 0.000000e+000
         vertex 9.439005e-001 6.005000e+000 -1.168999e+000
         vertex 1.127885e+000 6.005000e+000 -9.926638e-001
      endloop
   endfacet
   facet normal 0.000000e+000 -1.000000e+000 0.000000e+000
      outer loop
         vertex 0.000000e+000 6.005000e+000 0.000000e+000
         vertex 1.127885e+000 6.005000e+000 -9.926638e-001
         vertex 1.279423e+000 6.005000e+000 -7.877717e-001
      endloop
   endfacet
   facet normal 0.000000e+000 -1.000000e+000 0.000000e+000
      outer loop
         vertex 0.000000e+000 6.005000e+000 -1.502500e+000
         vertex 2.539237e-001 6.005000e+000 -1.480888e+000
         vertex 0.000000e+000 6.005000e+000 0.000000e+000
      endloop
   endfacet
   facet normal 0.000000e+000 -1.000000e+000 0.000000e+000
      outer loop
         vertex 0.000000e+000 6.005000e+000 0.000000e+000
         vertex 2.539237e-001 6.005000e+000 -1.480888e+000
         vertex 5.005425e-001 6.005000e+000 -1.416673e+000
      endloop
   endfacet
   facet normal 0.000000e+000 -1.000000e+000 0.000000e+000
      outer loop
         vertex 0.000000e+000 6.005000e+000 0.000000e+000
         vertex 5.005425e-001 6.005000e+000 -1.416673e+000
         vertex 7.327616e-001 6.005000e+000 -1.311704e+000
      endloop
   endfacet
   facet normal 0.000000e+000 -1.000000e+000 0.000000e+000
      outer loop
         vertex -7.327616e-001 6.005000e+000 -1.311704e+000
         vertex -5.005425e-001 6.005000e+000 -1.416673e+000
         vertex 0.000000e+000 6.005000e+000 0.000000e+000
      endloop
   endfacet
   facet normal 0.000000e+000 -1.000000e+000 0.000000e+000
      outer loop
         vertex 0.000000e+000 6.005000e+000 0.000000e+000
         vertex -5.005425e-001 6.005000e+000 -1.416673e+000
         vertex -2.539237e-001 6.005000e+000 -1.480888e+000
      endloop
   endfacet
   facet normal 0.000000e+000 -1.000000e+000 0.000000e+000
      outer loop
         vertex 0.000000e+000 6.005000e+000 0.000000e+000
         vertex -2.539237e-001 6.005000e+000 -1.480888e+000
         vertex 0.000000e+000 6.005000e+000 -1.502500e+000
      endloop
   endfacet
   facet normal 0.000000e+000 -1.000000e+000 0.000000e+000
      outer loop
         vertex -1.279423e+000 6.005000e+000 -7.877717e-001
         vertex -1.127885e+000 6.005000e+000 -9.926638e-001
         vertex 0.000000e+000 6.005000e+000 0.000000e+000
      endloop
   endfacet
   facet normal 0.000000e+000 -1.000000e+000 0.000000e+000
      outer loop
         vertex 0.000000e+000 6.005000e+000 0.000000e+000
         vertex -1.127885e+000 6.005000e+000 -9.926638e-001
         vertex -9.439005e-001 6.005000e+000 -1.168999e+000
      endloop
   endfacet
   facet normal 0.000000e+000 -1.000000e+000 0.000000e+000
      outer loop
         vertex 0.000000e+000 6.005000e+000 0.000000e+000
         vertex -9.439005e-001 6.005000e+000 -1.168999e+000
         vertex -7.327616e-001 6.005000e+000 -1.311704e+000
      endloop
   endfacet
   facet normal 0.000000e+000 -1.000000e+000 0.000000e+000
      outer loop
         vertex -1.501146e+000 6.005000e+000 -6.376791e-002
         vertex -1.468777e+000 6.005000e+000 -3.165456e-001
         vertex 0.000000e+000 6.005000e+000 0.000000e+000
      endloop
   endfacet
   facet normal 0.000000e+000 -1.000000e+000 0.000000e+000
      outer loop
         vertex 0.000000e+000 6.005000e+000 0.000000e+000
         vertex -1.468777e+000 6.005000e+000 -3.165456e-001
         vertex -1.394153e+000 6.005000e+000 -5.602168e-001
      endloop
   endfacet
   facet normal 0.000000e+000 -1.000000e+000 0.000000e+000
      outer loop
         vertex 0.000000e+000 6.005000e+000 0.000000e+000
         vertex -1.394153e+000 6.005000e+000 -5.602168e-001
         vertex -1.279423e+000 6.005000e+000 -7.877717e-001
      endloop
   endfacet
   facet normal 0.000000e+000 -1.000000e+000 0.000000e+000
      outer loop
         vertex -1.341621e+000 6.005000e+000 6.764311e-001
         vertex -1.436641e+000 6.005000e+000 4.399662e-001
         vertex 0.000000e+000 6.005000e+000 0.000000e+000
      endloop
   endfacet
   facet normal 0.000000e+000 -1.000000e+000 0.000000e+000
      outer loop
         vertex 0.000000e+000 6.005000e+000 0.000000e+000
         vertex -1.436641e+000 6.005000e+000 4.399662e-001
         vertex -1.490330e+000 6.005000e+000 1.908443e-001
      endloop
   endfacet
   facet normal 0.000000e+000 -1.000000e+000 0.000000e+000
      outer loop
         vertex 0.000000e+000 6.005000e+000 0.000000e+000
         vertex -1.490330e+000 6.005000e+000 1.908443e-001
         vertex -1.501146e+000 6.005000e+000 -6.376791e-002
      endloop
   endfacet
   facet normal 0.000000e+000 -1.000000e+000 0.000000e+000
      outer loop
         vertex -8.413621e-001 6.005000e+000 1.244836e+000
         vertex -1.039638e+000 6.005000e+000 1.084739e+000
         vertex 0.000000e+000 6.005000e+000 0.000000e+000
      endloop
   endfacet
   facet normal 0.000000e+000 -1.000000e+000 0.000000e+000
      outer loop
         vertex 0.000000e+000 6.005000e+000 0.000000e+000
         vertex -1.039638e+000 6.005000e+000 1.084739e+000
         vertex -1.208006e+000 6.005000e+000 8.934364e-001
      endloop
   endfacet
   facet normal 0.000000e+000 -1.000000e+000 0.000000e+000
      outer loop
         vertex 0.000000e+000 6.005000e+000 0.000000e+000
         vertex -1.208006e+000 6.005000e+000 8.934364e-001
         vertex -1.341621e+000 6.005000e+000 6.764311e-001
      endloop
   endfacet
   facet normal 0.000000e+000 -1.000000e+000 0.000000e+000
      outer loop
         vertex -1.274209e-001 6.005000e+000 1.497087e+000
         vertex -3.785970e-001 6.005000e+000 1.454019e+000
         vertex 0.000000e+000 6.005000e+000 0.000000e+000
      endloop
   endfacet
   facet normal 0.000000e+000 -1.000000e+000 0.000000e+000
      outer loop
         vertex 0.000000e+000 6.005000e+000 0.000000e+000
         vertex -3.785970e-001 6.005000e+000 1.454019e+000
         vertex -6.188816e-001 6.005000e+000 1.369121e+000
      endloop
   endfacet
   facet normal 0.000000e+000 -1.000000e+000 0.000000e+000
      outer loop
         vertex 0.000000e+000 6.005000e+000 0.000000e+000
         vertex -6.188816e-001 6.005000e+000 1.369121e+000
         vertex -8.413621e-001 6.005000e+000 1.244836e+000
      endloop
   endfacet
   facet normal -5.651454e-002 0.000000e+000 -9.984018e-001
      outer loop
         vertex -3.680064e-016 2.799500e+001 1.502500e+000
         vertex -3.680064e-016 3.100000e+001 1.502500e+000
         vertex 2.539237e-001 2.799500e+001 1.480888e+000
      endloop
   endfacet
   facet normal -1.130291e-001 0.000000e+000 -9.935917e-001
      outer loop
         vertex 2.539237e-001 2.799500e+001 1.480888e+000
         vertex -3.680064e-016 3.100000e+001 1.502500e+000
         vertex 2.539237e-001 3.100000e+001 1.480888e+000
      endloop
   endfacet
   facet normal -2.244324e-001 0.000000e+000 -9.744897e-001
      outer loop
         vertex 2.539237e-001 2.799500e+001 1.480888e+000
         vertex 2.539237e-001 3.100000e+001 1.480888e+000
         vertex 5.005425e-001 2.799500e+001 1.416673e+000
      endloop
   endfacet
   facet normal -2.793211e-001 0.000000e+000 -9.601977e-001
      outer loop
         vertex 5.005425e-001 2.799500e+001 1.416673e+000
         vertex 2.539237e-001 3.100000e+001 1.480888e+000
         vertex 5.005425e-001 3.100000e+001 1.416673e+000
      endloop
   endfacet
   facet normal -3.858936e-001 0.000000e+000 -9.225433e-001
      outer loop
         vertex 5.005425e-001 2.799500e+001 1.416673e+000
         vertex 5.005425e-001 3.100000e+001 1.416673e+000
         vertex 7.327616e-001 2.799500e+001 1.311704e+000
      endloop
   endfacet
   facet normal -4.375775e-001 0.000000e+000 -8.991807e-001
      outer loop
         vertex 7.327616e-001 2.799500e+001 1.311704e+000
         vertex 5.005425e-001 3.100000e+001 1.416673e+000
         vertex 7.327616e-001 3.100000e+001 1.311704e+000
      endloop
   endfacet
   facet normal -5.362535e-001 0.000000e+000 -8.440570e-001
      outer loop
         vertex 7.327616e-001 2.799500e+001 1.311704e+000
         vertex 7.327616e-001 3.100000e+001 1.311704e+000
         vertex 9.439005e-001 2.799500e+001 1.168999e+000
      endloop
   endfacet
   facet normal -5.832456e-001 0.000000e+000 -8.122959e-001
      outer loop
         vertex 9.439005e-001 2.799500e+001 1.168999e+000
         vertex 7.327616e-001 3.100000e+001 1.311704e+000
         vertex 9.439005e-001 3.100000e+001 1.168999e+000
      endloop
   endfacet
   facet normal -6.711863e-001 0.000000e+000 -7.412888e-001
      outer loop
         vertex 9.439005e-001 2.799500e+001 1.168999e+000
         vertex 9.439005e-001 3.100000e+001 1.168999e+000
         vertex 1.127885e+000 2.799500e+001 9.926638e-001
      endloop
   endfacet
   facet normal -7.121348e-001 0.000000e+000 -7.020428e-001
      outer loop
         vertex 1.127885e+000 2.799500e+001 9.926638e-001
         vertex 9.439005e-001 3.100000e+001 1.168999e+000
         vertex 1.127885e+000 3.100000e+001 9.926638e-001
      endloop
   endfacet
   facet normal -7.868103e-001 0.000000e+000 -6.171949e-001
      outer loop
         vertex 1.127885e+000 2.799500e+001 9.926638e-001
         vertex 1.127885e+000 3.100000e+001 9.926638e-001
         vertex 1.279423e+000 2.799500e+001 7.877717e-001
      endloop
   endfacet
   facet normal -8.205372e-001 0.000000e+000 -5.715931e-001
      outer loop
         vertex 1.279423e+000 2.799500e+001 7.877717e-001
         vertex 1.127885e+000 3.100000e+001 9.926638e-001
         vertex 1.279423e+000 3.100000e+001 7.877717e-001
      endloop
   endfacet
   facet normal -8.797992e-001 0.000000e+000 -4.753455e-001
      outer loop
         vertex 1.279423e+000 2.799500e+001 7.877717e-001
         vertex 1.279423e+000 3.100000e+001 7.877717e-001
         vertex 1.394153e+000 2.799500e+001 5.602168e-001
      endloop
   endfacet
   facet normal -9.053342e-001 0.000000e+000 -4.246998e-001
      outer loop
         vertex 1.394153e+000 2.799500e+001 5.602168e-001
         vertex 1.279423e+000 3.100000e+001 7.877717e-001
         vertex 1.394153e+000 3.100000e+001 5.602168e-001
      endloop
   endfacet
   facet normal -9.474779e-001 0.000000e+000 -3.198213e-001
      outer loop
         vertex 1.394153e+000 2.799500e+001 5.602168e-001
         vertex 1.394153e+000 3.100000e+001 5.602168e-001
         vertex 1.468777e+000 2.799500e+001 3.165456e-001
      endloop
   endfacet
   facet normal -9.640865e-001 0.000000e+000 -2.655886e-001
      outer loop
         vertex 1.468777e+000 2.799500e+001 3.165456e-001
         vertex 1.394153e+000 3.100000e+001 5.602168e-001
         vertex 1.468777e+000 3.100000e+001 3.165456e-001
      endloop
   endfacet
   facet normal -9.878993e-001 0.000000e+000 -1.550965e-001
      outer loop
         vertex 1.468777e+000 2.799500e+001 3.165456e-001
         vertex 1.468777e+000 3.100000e+001 3.165456e-001
         vertex 1.501146e+000 2.799500e+001 6.376791e-002
      endloop
   endfacet
   facet normal -9.951036e-001 0.000000e+000 -9.883699e-002
      outer loop
         vertex 1.501146e+000 2.799500e+001 6.376791e-002
         vertex 1.468777e+000 3.100000e+001 3.165456e-001
         vertex 1.501146e+000 3.100000e+001 6.376791e-002
      endloop
   endfacet
   facet normal -9.999007e-001 0.000000e+000 1.409025e-002
      outer loop
         vertex 1.501146e+000 2.799500e+001 6.376791e-002
         vertex 1.501146e+000 3.100000e+001 6.376791e-002
         vertex 1.490330e+000 2.799500e+001 -1.908443e-001
      endloop
   endfacet
   facet normal -9.974935e-001 0.000000e+000 7.075802e-002
      outer loop
         vertex 1.490330e+000 2.799500e+001 -1.908443e-001
         vertex 1.501146e+000 3.100000e+001 6.376791e-002
         vertex 1.490330e+000 3.100000e+001 -1.908443e-001
      endloop
   endfacet
   facet normal -9.831368e-001 0.000000e+000 1.828716e-001
      outer loop
         vertex 1.490330e+000 2.799500e+001 -1.908443e-001
         vertex 1.490330e+000 3.100000e+001 -1.908443e-001
         vertex 1.436641e+000 2.799500e+001 -4.399662e-001
      endloop
   endfacet
   facet normal -9.711873e-001 0.000000e+000 2.383175e-001
      outer loop
         vertex 1.436641e+000 2.799500e+001 -4.399662e-001
         vertex 1.490330e+000 3.100000e+001 -1.908443e-001
         vertex 1.436641e+000 3.100000e+001 -4.399662e-001
      endloop
   endfacet
   facet normal -9.380898e-001 0.000000e+000 3.463921e-001
      outer loop
         vertex 1.436641e+000 2.799500e+001 -4.399662e-001
         vertex 1.436641e+000 3.100000e+001 -4.399662e-001
         vertex 1.341621e+000 2.799500e+001 -6.764311e-001
      endloop
   endfacet
   facet normal -9.169418e-001 0.000000e+000 3.990209e-001
      outer loop
         vertex 1.341621e+000 2.799500e+001 -6.764311e-001
         vertex 1.436641e+000 3.100000e+001 -4.399662e-001
         vertex 1.341621e+000 3.100000e+001 -6.764311e-001
      endloop
   endfacet
   facet normal -8.660557e-001 0.000000e+000 4.999475e-001
      outer loop
         vertex 1.341621e+000 2.799500e+001 -6.764311e-001
         vertex 1.341621e+000 3.100000e+001 -6.764311e-001
         vertex 1.208006e+000 2.799500e+001 -8.934364e-001
      endloop
   endfacet
   facet normal -8.363176e-001 0.000000e+000 5.482453e-001
      outer loop
         vertex 1.208006e+000 2.799500e+001 -8.934364e-001
         vertex 1.341621e+000 3.100000e+001 -6.764311e-001
         vertex 1.208006e+000 3.100000e+001 -8.934364e-001
      endloop
   endfacet
   facet normal -7.691067e-001 0.000000e+000 6.391203e-001
      outer loop
         vertex 1.208006e+000 2.799500e+001 -8.934364e-001
         vertex 1.208006e+000 3.100000e+001 -8.934364e-001
         vertex 1.039638e+000 2.799500e+001 -1.084739e+000
      endloop
   endfacet
   facet normal -7.316340e-001 0.000000e+000 6.816977e-001
      outer loop
         vertex 1.039638e+000 2.799500e+001 -1.084739e+000
         vertex 1.208006e+000 3.100000e+001 -8.934364e-001
         vertex 1.039638e+000 3.100000e+001 -1.084739e+000
      endloop
   endfacet
   facet normal -6.500320e-001 0.000000e+000 7.599069e-001
      outer loop
         vertex 1.039638e+000 2.799500e+001 -1.084739e+000
         vertex 1.039638e+000 3.100000e+001 -1.084739e+000
         vertex 8.413621e-001 2.799500e+001 -1.244836e+000
      endloop
   endfacet
   facet normal -6.059027e-001 0.000000e+000 7.955388e-001
      outer loop
         vertex 8.413621e-001 2.799500e+001 -1.244836e+000
         vertex 1.039638e+000 3.100000e+001 -1.084739e+000
         vertex 8.413621e-001 3.100000e+001 -1.244836e+000
      endloop
   endfacet
   facet normal -5.122570e-001 0.000000e+000 8.588322e-001
      outer loop
         vertex 8.413621e-001 2.799500e+001 -1.244836e+000
         vertex 8.413621e-001 3.100000e+001 -1.244836e+000
         vertex 6.188816e-001 2.799500e+001 -1.369121e+000
      endloop
   endfacet
   facet normal -4.627406e-001 0.000000e+000 8.864937e-001
      outer loop
         vertex 6.188816e-001 2.799500e+001 -1.369121e+000
         vertex 8.413621e-001 3.100000e+001 -1.244836e+000
         vertex 6.188816e-001 3.100000e+001 -1.369121e+000
      endloop
   endfacet
   facet normal -3.597453e-001 0.000000e+000 9.330506e-001
      outer loop
         vertex 6.188816e-001 2.799500e+001 -1.369121e+000
         vertex 6.188816e-001 3.100000e+001 -1.369121e+000
         vertex 3.785970e-001 2.799500e+001 -1.454019e+000
      endloop
   endfacet
   facet normal -3.062663e-001 0.000000e+000 9.519458e-001
      outer loop
         vertex 3.785970e-001 2.799500e+001 -1.454019e+000
         vertex 6.188816e-001 3.100000e+001 -1.369121e+000
         vertex 3.785970e-001 3.100000e+001 -1.454019e+000
      endloop
   endfacet
   facet normal -1.968844e-001 0.000000e+000 9.804267e-001
      outer loop
         vertex 3.785970e-001 2.799500e+001 -1.454019e+000
         vertex 3.785970e-001 3.100000e+001 -1.454019e+000
         vertex 1.274209e-001 2.799500e+001 -1.497087e+000
      endloop
   endfacet
   facet normal -1.409813e-001 0.000000e+000 9.900123e-001
      outer loop
         vertex 1.274209e-001 2.799500e+001 -1.497087e+000
         vertex 3.785970e-001 3.100000e+001 -1.454019e+000
         vertex 1.274209e-001 3.100000e+001 -1.497087e+000
      endloop
   endfacet
   facet normal -2.835944e-002 0.000000e+000 9.995977e-001
      outer loop
         vertex 1.274209e-001 2.799500e+001 -1.497087e+000
         vertex 1.274209e-001 3.100000e+001 -1.497087e+000
         vertex -1.274209e-001 2.799500e+001 -1.497087e+000
      endloop
   endfacet
   facet normal 2.835944e-002 0.000000e+000 9.995977e-001
      outer loop
         vertex -1.274209e-001 2.799500e+001 -1.497087e+000
         vertex 1.274209e-001 3.100000e+001 -1.497087e+000
         vertex -1.274209e-001 3.100000e+001 -1.497087e+000
      endloop
   endfacet
   facet normal 1.409813e-001 0.000000e+000 9.900123e-001
      outer loop
         vertex -1.274209e-001 2.799500e+001 -1.497087e+000
         vertex -1.274209e-001 3.100000e+001 -1.497087e+000
         vertex -3.785970e-001 2.799500e+001 -1.454019e+000
      endloop
   endfacet
   facet normal 1.968844e-001 0.000000e+000 9.804267e-001
      outer loop
         vertex -3.785970e-001 2.799500e+001 -1.454019e+000
         vertex -1.274209e-001 3.100000e+001 -1.497087e+000
         vertex -3.785970e-001 3.100000e+001 -1.454019e+000
      endloop
   endfacet
   facet normal 3.062663e-001 0.000000e+000 9.519458e-001
      outer loop
         vertex -3.785970e-001 2.799500e+001 -1.454019e+000
         vertex -3.785970e-001 3.100000e+001 -1.454019e+000
         vertex -6.188816e-001 2.799500e+001 -1.369121e+000
      endloop
   endfacet
   facet normal 3.597453e-001 0.000000e+000 9.330506e-001
      outer loop
         vertex -6.188816e-001 2.799500e+001 -1.369121e+000
         vertex -3.785970e-001 3.100000e+001 -1.454019e+000
         vertex -6.188816e-001 3.100000e+001 -1.369121e+000
      endloop
   endfacet
   facet normal 4.627406e-001 0.000000e+000 8.864937e-001
      outer loop
         vertex -6.188816e-001 2.799500e+001 -1.369121e+000
         vertex -6.188816e-001 3.100000e+001 -1.369121e+000
         vertex -8.413621e-001 2.799500e+001 -1.244836e+000
      endloop
   endfacet
   facet normal 5.122570e-001 0.000000e+000 8.588322e-001
      outer loop
         vertex -8.413621e-001 2.799500e+001 -1.244836e+000
         vertex -6.188816e-001 3.100000e+001 -1.369121e+000
         vertex -8.413621e-001 3.100000e+001 -1.244836e+000
      endloop
   endfacet
   facet normal 6.059027e-001 0.000000e+000 7.955388e-001
      outer loop
         vertex -8.413621e-001 2.799500e+001 -1.244836e+000
         vertex -8.413621e-001 3.100000e+001 -1.244836e+000
         vertex -1.039638e+000 2.799500e+001 -1.084739e+000
      endloop
   endfacet
   facet normal 6.500320e-001 0.000000e+000 7.599069e-001
      outer loop
         vertex -1.039638e+000 2.799500e+001 -1.084739e+000
         vertex -8.413621e-001 3.100000e+001 -1.244836e+000
         vertex -1.039638e+000 3.100000e+001 -1.084739e+000
      endloop
   endfacet
   facet normal 7.316340e-001 0.000000e+000 6.816977e-001
      outer loop
         vertex -1.039638e+000 2.799500e+001 -1.084739e+000
         vertex -1.039638e+000 3.100000e+001 -1.084739e+000
         vertex -1.208006e+000 2.799500e+001 -8.934364e-001
      endloop
   endfacet
   facet normal 7.691067e-001 0.000000e+000 6.391203e-001
      outer loop
         vertex -1.208006e+000 2.799500e+001 -8.934364e-001
         vertex -1.039638e+000 3.100000e+001 -1.084739e+000
         vertex -1.208006e+000 3.100000e+001 -8.934364e-001
      endloop
   endfacet
   facet normal 8.363176e-001 0.000000e+000 5.482453e-001
      outer loop
         vertex -1.208006e+000 2.799500e+001 -8.934364e-001
         vertex -1.208006e+000 3.100000e+001 -8.934364e-001
         vertex -1.341621e+000 2.799500e+001 -6.764311e-001
      endloop
   endfacet
   facet normal 8.660557e-001 0.000000e+000 4.999475e-001
      outer loop
         vertex -1.341621e+000 2.799500e+001 -6.764311e-001
         vertex -1.208006e+000 3.100000e+001 -8.934364e-001
         vertex -1.341621e+000 3.100000e+001 -6.764311e-001
      endloop
   endfacet
   facet normal 9.169418e-001 0.000000e+000 3.990209e-001
      outer loop
         vertex -1.341621e+000 2.799500e+001 -6.764311e-001
         vertex -1.341621e+000 3.100000e+001 -6.764311e-001
         vertex -1.436641e+000 2.799500e+001 -4.399662e-001
      endloop
   endfacet
   facet normal 9.380898e-001 0.000000e+000 3.463921e-001
      outer loop
         vertex -1.436641e+000 2.799500e+001 -4.399662e-001
         vertex -1.341621e+000 3.100000e+001 -6.764311e-001
         vertex -1.436641e+000 3.100000e+001 -4.399662e-001
      endloop
   endfacet
   facet normal 9.711873e-001 0.000000e+000 2.383175e-001
      outer loop
         vertex -1.436641e+000 2.799500e+001 -4.399662e-001
         vertex -1.436641e+000 3.100000e+001 -4.399662e-001
         vertex -1.490330e+000 2.799500e+001 -1.908443e-001
      endloop
   endfacet
   facet normal 9.831368e-001 0.000000e+000 1.828716e-001
      outer loop
         vertex -1.490330e+000 2.799500e+001 -1.908443e-001
         vertex -1.436641e+000 3.100000e+001 -4.399662e-001
         vertex -1.490330e+000 3.100000e+001 -1.908443e-001
      endloop
   endfacet
   facet normal 9.974935e-001 0.000000e+000 7.075802e-002
      outer loop
         vertex -1.490330e+000 2.799500e+001 -1.908443e-001
         vertex -1.490330e+000 3.100000e+001 -1.908443e-001
         vertex -1.501146e+000 2.799500e+001 6.376791e-002
      endloop
   endfacet
   facet normal 9.999007e-001 0.000000e+000 1.409025e-002
      outer loop
         vertex -1.501146e+000 2.799500e+001 6.376791e-002
         vertex -1.490330e+000 3.100000e+001 -1.908443e-001
         vertex -1.501146e+000 3.100000e+001 6.376791e-002
      endloop
   endfacet
   facet normal 9.951036e-001 0.000000e+000 -9.883699e-002
      outer loop
         vertex -1.501146e+000 2.799500e+001 6.376791e-002
         vertex -1.501146e+000 3.100000e+001 6.376791e-002
         vertex -1.468777e+000 2.799500e+001 3.165456e-001
      endloop
   endfacet
   facet normal 9.878993e-001 0.000000e+000 -1.550965e-001
      outer loop
         vertex -1.468777e+000 2.799500e+001 3.165456e-001
         vertex -1.501146e+000 3.100000e+001 6.376791e-002
         vertex -1.468777e+000 3.100000e+001 3.165456e-001
      endloop
   endfacet
   facet normal 9.640865e-001 0.000000e+000 -2.655886e-001
      outer loop
         vertex -1.468777e+000 2.799500e+001 3.165456e-001
         vertex -1.468777e+000 3.100000e+001 3.165456e-001
         vertex -1.394153e+000 2.799500e+001 5.602168e-001
      endloop
   endfacet
   facet normal 9.474779e-001 0.000000e+000 -3.198213e-001
      outer loop
         vertex -1.394153e+000 2.799500e+001 5.602168e-001
         vertex -1.468777e+000 3.100000e+001 3.165456e-001
         vertex -1.394153e+000 3.100000e+001 5.602168e-001
      endloop
   endfacet
   facet normal 9.053342e-001 0.000000e+000 -4.246998e-001
      outer loop
         vertex -1.394153e+000 2.799500e+001 5.602168e-001
         vertex -1.394153e+000 3.100000e+001 5.602168e-001
         vertex -1.279423e+000 2.799500e+001 7.877717e-001
      endloop
   endfacet
   facet normal 8.797992e-001 0.000000e+000 -4.753455e-001
      outer loop
         vertex -1.279423e+000 2.799500e+001 7.877717e-001
         vertex -1.394153e+000 3.100000e+001 5.602168e-001
         vertex -1.279423e+000 3.100000e+001 7.877717e-001
      endloop
   endfacet
   facet normal 8.205372e-001 0.000000e+000 -5.715931e-001
      outer loop
         vertex -1.279423e+000 2.799500e+001 7.877717e-001
         vertex -1.279423e+000 3.100000e+001 7.877717e-001
         vertex -1.127885e+000 2.799500e+001 9.926638e-001
      endloop
   endfacet
   facet normal 7.868103e-001 0.000000e+000 -6.171949e-001
      outer loop
         vertex -1.127885e+000 2.799500e+001 9.926638e-001
         vertex -1.279423e+000 3.100000e+001 7.877717e-001
         vertex -1.127885e+000 3.100000e+001 9.926638e-001
      endloop
   endfacet
   facet normal 7.121348e-001 0.000000e+000 -7.020428e-001
      outer loop
         vertex -1.127885e+000 2.799500e+001 9.926638e-001
         vertex -1.127885e+000 3.100000e+001 9.926638e-001
         vertex -9.439005e-001 2.799500e+001 1.168999e+000
      endloop
   endfacet
   facet normal 6.711863e-001 0.000000e+000 -7.412888e-001
      outer loop
         vertex -9.439005e-001 2.799500e+001 1.168999e+000
         vertex -1.127885e+000 3.100000e+001 9.926638e-001
         vertex -9.439005e-001 3.100000e+001 1.168999e+000
      endloop
   endfacet
   facet normal 5.832456e-001 0.000000e+000 -8.122959e-001
      outer loop
         vertex -9.439005e-001 2.799500e+001 1.168999e+000
         vertex -9.439005e-001 3.100000e+001 1.168999e+000
         vertex -7.327616e-001 2.799500e+001 1.311704e+000
      endloop
   endfacet
   facet normal 5.362535e-001 0.000000e+000 -8.440570e-001
      outer loop
         vertex -7.327616e-001 2.799500e+001 1.311704e+000
         vertex -9.439005e-001 3.100000e+001 1.168999e+000
         vertex -7.327616e-001 3.100000e+001 1.311704e+000
      endloop
   endfacet
   facet normal 4.375775e-001 0.000000e+000 -8.991807e-001
      outer loop
         vertex -7.327616e-001 2.799500e+001 1.311704e+000
         vertex -7.327616e-001 3.100000e+001 1.311704e+000
         vertex -5.005425e-001 2.799500e+001 1.416673e+000
      endloop
   endfacet
   facet normal 3.858936e-001 0.000000e+000 -9.225433e-001
      outer loop
         vertex -5.005425e-001 2.799500e+001 1.416673e+000
         vertex -7.327616e-001 3.100000e+001 1.311704e+000
         vertex -5.005425e-001 3.100000e+001 1.416673e+000
      endloop
   endfacet
   facet normal 2.793211e-001 0.000000e+000 -9.601977e-001
      outer loop
         vertex -5.005425e-001 2.799500e+001 1.416673e+000
         vertex -5.005425e-001 3.100000e+001 1.416673e+000
         vertex -2.539237e-001 2.799500e+001 1.480888e+000
      endloop
   endfacet
   facet normal 2.244324e-001 0.000000e+000 -9.744897e-001
      outer loop
         vertex -2.539237e-001 2.799500e+001 1.480888e+000
         vertex -5.005425e-001 3.100000e+001 1.416673e+000
         vertex -2.539237e-001 3.100000e+001 1.480888e+000
      endloop
   endfacet
   facet normal 1.130291e-001 0.000000e+000 -9.935917e-001
      outer loop
         vertex -2.539237e-001 2.799500e+001 1.480888e+000
         vertex -2.539237e-001 3.100000e+001 1.480888e+000
         vertex -3.680064e-016 2.799500e+001 1.502500e+000
      endloop
   endfacet
   facet normal 5.651454e-002 0.000000e+000 -9.984018e-001
      outer loop
         vertex -3.680064e-016 2.799500e+001 1.502500e+000
         vertex -2.539237e-001 3.100000e+001 1.480888e+000
         vertex -3.680064e-016 3.100000e+001 1.502500e+000
      endloop
   endfacet
   facet normal 0.000000e+000 1.000000e+000 0.000000e+000
      outer loop
         vertex -3.680064e-016 2.799500e+001 1.502500e+000
         vertex 2.539237e-001 2.799500e+001 1.480888e+000
         vertex 0.000000e+000 2.799500e+001 0.000000e+000
      endloop
   endfacet
   facet normal 0.000000e+000 1.000000e+000 0.000000e+000
      outer loop
         vertex -7.327616e-001 2.799500e+001 1.311704e+000
         vertex -5.005425e-001 2.799500e+001 1.416673e+000
         vertex 0.000000e+000 2.799500e+001 0.000000e+000
      endloop
   endfacet
   facet normal 0.000000e+000 1.000000e+000 0.000000e+000
      outer loop
         vertex 0.000000e+000 2.799500e+001 0.000000e+000
         vertex -5.005425e-001 2.799500e+001 1.416673e+000
         vertex -2.539237e-001 2.799500e+001 1.480888e+000
      endloop
   endfacet
   facet normal 0.000000e+000 1.000000e+000 0.000000e+000
      outer loop
         vertex 0.000000e+000 2.799500e+001 0.000000e+000
         vertex -2.539237e-001 2.799500e+001 1.480888e+000
         vertex -3.680064e-016 2.799500e+001 1.502500e+000
      endloop
   endfacet
   facet normal 0.000000e+000 1.000000e+000 0.000000e+000
      outer loop
         vertex -1.279423e+000 2.799500e+001 7.877717e-001
         vertex -1.127885e+000 2.799500e+001 9.926638e-001
         vertex 0.000000e+000 2.799500e+001 0.000000e+000
      endloop
   endfacet
   facet normal 0.000000e+000 1.000000e+000 0.000000e+000
      outer loop
         vertex 0.000000e+000 2.799500e+001 0.000000e+000
         vertex -1.127885e+000 2.799500e+001 9.926638e-001
         vertex -9.439005e-001 2.799500e+001 1.168999e+000
      endloop
   endfacet
   facet normal 0.000000e+000 1.000000e+000 0.000000e+000
      outer loop
         vertex 0.000000e+000 2.799500e+001 0.000000e+000
         vertex -9.439005e-001 2.799500e+001 1.168999e+000
         vertex -7.327616e-001 2.799500e+001 1.311704e+000
      endloop
   endfacet
   facet normal 0.000000e+000 1.000000e+000 0.000000e+000
      outer loop
         vertex -1.501146e+000 2.799500e+001 6.376791e-002
         vertex -1.468777e+000 2.799500e+001 3.165456e-001
         vertex 0.000000e+000 2.799500e+001 0.000000e+000
      endloop
   endfacet
   facet normal 0.000000e+000 1.000000e+000 0.000000e+000
      outer loop
         vertex 0.000000e+000 2.799500e+001 0.000000e+000
         vertex -1.468777e+000 2.799500e+001 3.165456e-001
         vertex -1.394153e+000 2.799500e+001 5.602168e-001
      endloop
   endfacet
   facet normal 0.000000e+000 1.000000e+000 0.000000e+000
      outer loop
         vertex 0.000000e+000 2.799500e+001 0.000000e+000
         vertex -1.394153e+000 2.799500e+001 5.602168e-001
         vertex -1.279423e+000 2.799500e+001 7.877717e-001
      endloop
   endfacet
   facet normal 0.000000e+000 1.000000e+000 0.000000e+000
      outer loop
         vertex -1.341621e+000 2.799500e+001 -6.764311e-001
         vertex -1.436641e+000 2.799500e+001 -4.399662e-001
         vertex 0.000000e+000 2.799500e+001 0.000000e+000
      endloop
   endfacet
   facet normal 0.000000e+000 1.000000e+000 0.000000e+000
      outer loop
         vertex 0.000000e+000 2.799500e+001 0.000000e+000
         vertex -1.436641e+000 2.799500e+001 -4.399662e-001
         vertex -1.490330e+000 2.799500e+001 -1.908443e-001
      endloop
   endfacet
   facet normal 0.000000e+000 1.000000e+000 0.000000e+000
      outer loop
         vertex 0.000000e+000 2.799500e+001 0.000000e+000
         vertex -1.490330e+000 2.799500e+001 -1.908443e-001
         vertex -1.501146e+000 2.799500e+001 6.376791e-002
      endloop
   endfacet
   facet normal 0.000000e+000 1.000000e+000 0.000000e+000
      outer loop
         vertex -8.413621e-001 2.799500e+001 -1.244836e+000
         vertex -1.039638e+000 2.799500e+001 -1.084739e+000
         vertex 0.000000e+000 2.799500e+001 0.000000e+000
      endloop
   endfacet
   facet normal 0.000000e+000 1.000000e+000 0.000000e+000
      outer loop
         vertex 0.000000e+000 2.799500e+001 0.000000e+000
         vertex -1.039638e+000 2.799500e+001 -1.084739e+000
         vertex -1.208006e+000 2.799500e+001 -8.934364e-001
      endloop
   endfacet
   facet normal 0.000000e+000 1.000000e+000 0.000000e+000
      outer loop
         vertex 0.000000e+000 2.799500e+001 0.000000e+000
         vertex -1.208006e+000 2.799500e+001 -8.934364e-001
         vertex -1.341621e+000 2.799500e+001 -6.764311e-001
      endloop
   endfacet
   facet normal 0.000000e+000 1.000000e+000 0.000000e+000
      outer loop
         vertex -1.274209e-001 2.799500e+001 -1.497087e+000
         vertex -3.785970e-001 2.799500e+001 -1.454019e+000
         vertex 0.000000e+000 2.799500e+001 0.000000e+000
      endloop
   endfacet
   facet normal 0.000000e+000 1.000000e+000 0.000000e+000
      outer loop
         vertex 0.000000e+000 2.799500e+001 0.000000e+000
         vertex -3.785970e-001 2.799500e+001 -1.454019e+000
         vertex -6.188816e-001 2.799500e+001 -1.369121e+000
      endloop
   endfacet
   facet normal 0.000000e+000 1.000000e+000 0.000000e+000
      outer loop
         vertex 0.000000e+000 2.799500e+001 0.000000e+000
         vertex -6.188816e-001 2.799500e+001 -1.369121e+000
         vertex -8.413621e-001 2.799500e+001 -1.244836e+000
      endloop
   endfacet
   facet normal 0.000000e+000 1.000000e+000 0.000000e+000
      outer loop
         vertex 6.188816e-001 2.799500e+001 -1.369121e+000
         vertex 3.785970e-001 2.799500e+001 -1.454019e+000
         vertex 0.000000e+000 2.799500e+001 0.000000e+000
      endloop
   endfacet
   facet normal 0.000000e+000 1.000000e+000 0.000000e+000
      outer loop
         vertex 0.000000e+000 2.799500e+001 0.000000e+000
         vertex 3.785970e-001 2.799500e+001 -1.454019e+000
         vertex 1.274209e-001 2.799500e+001 -1.497087e+000
      endloop
   endfacet
   facet normal 0.000000e+000 1.000000e+000 0.000000e+000
      outer loop
         vertex 0.000000e+000 2.799500e+001 0.000000e+000
         vertex 1.274209e-001 2.799500e+001 -1.497087e+000
         vertex -1.274209e-001 2.799500e+001 -1.497087e+000
      endloop
   endfacet
   facet normal 0.000000e+000 1.000000e+000 0.000000e+000
      outer loop
         vertex 1.208006e+000 2.799500e+001 -8.934364e-001
         vertex 1.039638e+000 2.799500e+001 -1.084739e+000
         vertex 0.000000e+000 2.799500e+001 0.000000e+000
      endloop
   endfacet
   facet normal 0.000000e+000 1.000000e+000 0.000000e+000
      outer loop
         vertex 0.000000e+000 2.799500e+001 0.000000e+000
         vertex 1.039638e+000 2.799500e+001 -1.084739e+000
         vertex 8.413621e-001 2.799500e+001 -1.244836e+000
      endloop
   endfacet
   facet normal 0.000000e+000 1.000000e+000 0.000000e+000
      outer loop
         vertex 0.000000e+000 2.799500e+001 0.000000e+000
         vertex 8.413621e-001 2.799500e+001 -1.244836e+000
         vertex 6.188816e-001 2.799500e+001 -1.369121e+000
      endloop
   endfacet
   facet normal 0.000000e+000 1.000000e+000 0.000000e+000
      outer loop
         vertex 1.490330e+000 2.799500e+001 -1.908443e-001
         vertex 1.436641e+000 2.799500e+001 -4.399662e-001
         vertex 0.000000e+000 2.799500e+001 0.000000e+000
      endloop
   endfacet
   facet normal 0.000000e+000 1.000000e+000 0.000000e+000
      outer loop
         vertex 0.000000e+000 2.799500e+001 0.000000e+000
         vertex 1.436641e+000 2.799500e+001 -4.399662e-001
         vertex 1.341621e+000 2.799500e+001 -6.764311e-001
      endloop
   endfacet
   facet normal 0.000000e+000 1.000000e+000 0.000000e+000
      outer loop
         vertex 0.000000e+000 2.799500e+001 0.000000e+000
         vertex 1.341621e+000 2.799500e+001 -6.764311e-001
         vertex 1.208006e+000 2.799500e+001 -8.934364e-001
      endloop
   endfacet
   facet normal 0.000000e+000 1.000000e+000 0.000000e+000
      outer loop
         vertex 1.394153e+000 2.799500e+001 5.602168e-001
         vertex 1.468777e+000 2.799500e+001 3.165456e-001
         vertex 0.000000e+000 2.799500e+001 0.000000e+000
      endloop
   endfacet
   facet normal 0.000000e+000 1.000000e+000 0.000000e+000
      outer loop
         vertex 0.000000e+000 2.799500e+001 0.000000e+000
         vertex 1.468777e+000 2.799500e+001 3.165456e-001
         vertex 1.501146e+000 2.799500e+001 6.376791e-002
      endloop
   endfacet
   facet normal 0.000000e+000 1.000000e+000 0.000000e+000
      outer loop
         vertex 0.000000e+000 2.799500e+001 0.000000e+000
         vertex 1.501146e+000 2.799500e+001 6.376791e-002
         vertex 1.490330e+000 2.799500e+001 -1.908443e-001
      endloop
   endfacet
   facet normal 0.000000e+000 1.000000e+000 0.000000e+000
      outer loop
         vertex 9.439005e-001 2.799500e+001 1.168999e+000
         vertex 1.127885e+000 2.799500e+001 9.926638e-001
         vertex 0.000000e+000 2.799500e+001 0.000000e+000
      endloop
   endfacet
   facet normal 0.000000e+000 1.000000e+000 0.000000e+000
      outer loop
         vertex 0.000000e+000 2.799500e+001 0.000000e+000
         vertex 1.127885e+000 2.799500e+001 9.926638e-001
         vertex 1.279423e+000 2.799500e+001 7.877717e-001
      endloop
   endfacet
   facet normal 0.000000e+000 1.000000e+000 0.000000e+000
      outer loop
         vertex 0.000000e+000 2.799500e+001 0.000000e+000
         vertex 1.279423e+000 2.799500e+001 7.877717e-001
         vertex 1.394153e+000 2.799500e+001 5.602168e-001
      endloop
   endfacet
   facet normal 0.000000e+000 1.000000e+000 0.000000e+000
      outer loop
         vertex 2.539237e-001 2.799500e+001 1.480888e+000
         vertex 5.005425e-001 2.799500e+001 1.416673e+000
         vertex 0.000000e+000 2.799500e+001 0.000000e+000
      endloop
   endfacet
   facet normal 0.000000e+000 1.000000e+000 0.000000e+000
      outer loop
         vertex 0.000000e+000 2.799500e+001 0.000000e+000
         vertex 5.005425e-001 2.799500e+001 1.416673e+000
         vertex 7.327616e-001 2.799500e+001 1.311704e+000
      endloop
   endfacet
   facet normal 0.000000e+000 1.000000e+000 0.000000e+000
      outer loop
         vertex 0.000000e+000 2.799500e+001 0.000000e+000
         vertex 7.327616e-001 2.799500e+001 1.311704e+000
         vertex 9.439005e-001 2.799500e+001 1.168999e+000
      endloop
   endfacet
endsolid