solid Motor-Axle_Default_sldprt
   facet normal 2.829130e-002 0.000000e+000 9.995998e-001
      outer loop
         vertex 6.360444e-002 1.412500e+001 7.472981e-001
         vertex 2.755455e-016 1.412500e+001 7.500000e-001
         vertex 9.184851e-017 0.000000e+000 7.500000e-001
      endloop
   endfacet
   facet normal -2.829130e-002 0.000000e+000 9.995998e-001
      outer loop
         vertex 9.184851e-017 0.000000e+000 7.500000e-001
         vertex 2.755455e-016 1.412500e+001 7.500000e-001
         vertex -6.360444e-002 0.000000e+000 7.472981e-001
      endloop
   endfacet
   facet normal -5.658260e-002 0.000000e+000 9.983979e-001
      outer loop
         vertex 2.755455e-016 1.412500e+001 7.500000e-001
         vertex -6.360444e-002 1.412500e+001 7.472981e-001
         vertex -6.360444e-002 0.000000e+000 7.472981e-001
      endloop
   endfacet
   facet normal -1.409813e-001 0.000000e+000 9.900123e-001
      outer loop
         vertex -6.360444e-002 0.000000e+000 7.472981e-001
         vertex -6.360444e-002 1.412500e+001 7.472981e-001
         vertex -1.889835e-001 1.412500e+001 7.257997e-001
      endloop
   endfacet
   facet normal -1.968844e-001 0.000000e+000 9.804267e-001
      outer loop
         vertex -6.360444e-002 0.000000e+000 7.472981e-001
         vertex -1.889835e-001 1.412500e+001 7.257997e-001
         vertex -1.889835e-001 0.000000e+000 7.257997e-001
      endloop
   endfacet
   facet normal -3.062663e-001 0.000000e+000 9.519458e-001
      outer loop
         vertex -1.889835e-001 0.000000e+000 7.257997e-001
         vertex -1.889835e-001 1.412500e+001 7.257997e-001
         vertex -3.089259e-001 1.412500e+001 6.834214e-001
      endloop
   endfacet
   facet normal -3.597453e-001 0.000000e+000 9.330506e-001
      outer loop
         vertex -1.889835e-001 0.000000e+000 7.257997e-001
         vertex -3.089259e-001 1.412500e+001 6.834214e-001
         vertex -3.089259e-001 0.000000e+000 6.834214e-001
      endloop
   endfacet
   facet normal -4.627406e-001 0.000000e+000 8.864937e-001
      outer loop
         vertex -3.089259e-001 0.000000e+000 6.834214e-001
         vertex -3.089259e-001 1.412500e+001 6.834214e-001
         vertex -4.199811e-001 1.412500e+001 6.213822e-001
      endloop
   endfacet
   facet normal -5.122570e-001 0.000000e+000 8.588322e-001
      outer loop
         vertex -3.089259e-001 0.000000e+000 6.834214e-001
         vertex -4.199811e-001 1.412500e+001 6.213822e-001
         vertex -4.199811e-001 0.000000e+000 6.213822e-001
      endloop
   endfacet
   facet normal -6.059027e-001 0.000000e+000 7.955388e-001
      outer loop
         vertex -4.199811e-001 0.000000e+000 6.213822e-001
         vertex -4.199811e-001 1.412500e+001 6.213822e-001
         vertex -5.189541e-001 1.412500e+001 5.414671e-001
      endloop
   endfacet
   facet normal -6.500320e-001 0.000000e+000 7.599069e-001
      outer loop
         vertex -4.199811e-001 0.000000e+000 6.213822e-001
         vertex -5.189541e-001 1.412500e+001 5.414671e-001
         vertex -5.189541e-001 0.000000e+000 5.414671e-001
      endloop
   endfacet
   facet normal -7.316340e-001 0.000000e+000 6.816977e-001
      outer loop
         vertex -5.189541e-001 0.000000e+000 5.414671e-001
         vertex -5.189541e-001 1.412500e+001 5.414671e-001
         vertex -6.029978e-001 1.412500e+001 4.459749e-001
      endloop
   endfacet
   facet normal -7.691067e-001 0.000000e+000 6.391203e-001
      outer loop
         vertex -5.189541e-001 0.000000e+000 5.414671e-001
         vertex -6.029978e-001 1.412500e+001 4.459749e-001
         vertex -6.029978e-001 0.000000e+000 4.459749e-001
      endloop
   endfacet
   facet normal -8.363176e-001 0.000000e+000 5.482453e-001
      outer loop
         vertex -6.029978e-001 0.000000e+000 4.459749e-001
         vertex -6.029978e-001 1.412500e+001 4.459749e-001
         vertex -6.696944e-001 1.412500e+001 3.376528e-001
      endloop
   endfacet
   facet normal -8.660557e-001 0.000000e+000 4.999475e-001
      outer loop
         vertex -6.029978e-001 0.000000e+000 4.459749e-001
         vertex -6.696944e-001 1.412500e+001 3.376528e-001
         vertex -6.696944e-001 0.000000e+000 3.376528e-001
      endloop
   endfacet
   facet normal -9.169418e-001 0.000000e+000 3.990209e-001
      outer loop
         vertex -6.696944e-001 0.000000e+000 3.376528e-001
         vertex -6.696944e-001 1.412500e+001 3.376528e-001
         vertex -7.171251e-001 1.412500e+001 2.196171e-001
      endloop
   endfacet
   facet normal -9.380898e-001 0.000000e+000 3.463921e-001
      outer loop
         vertex -6.696944e-001 0.000000e+000 3.376528e-001
         vertex -7.171251e-001 1.412500e+001 2.196171e-001
         vertex -7.171251e-001 0.000000e+000 2.196171e-001
      endloop
   endfacet
   facet normal -9.711873e-001 0.000000e+000 2.383175e-001
      outer loop
         vertex -7.171251e-001 0.000000e+000 2.196171e-001
         vertex -7.171251e-001 1.412500e+001 2.196171e-001
         vertex -7.439253e-001 1.412500e+001 9.526336e-002
      endloop
   endfacet
   facet normal -9.831368e-001 0.000000e+000 1.828716e-001
      outer loop
         vertex -7.171251e-001 0.000000e+000 2.196171e-001
         vertex -7.439253e-001 1.412500e+001 9.526336e-002
         vertex -7.439253e-001 0.000000e+000 9.526336e-002
      endloop
   endfacet
   facet normal -9.974935e-001 0.000000e+000 7.075802e-002
      outer loop
         vertex -7.439253e-001 0.000000e+000 9.526336e-002
         vertex -7.439253e-001 1.412500e+001 9.526336e-002
         vertex -7.493242e-001 1.412500e+001 -3.183090e-002
      endloop
   endfacet
   facet normal -9.999007e-001 0.000000e+000 1.409025e-002
      outer loop
         vertex -7.439253e-001 0.000000e+000 9.526336e-002
         vertex -7.493242e-001 1.412500e+001 -3.183090e-002
         vertex -7.493242e-001 0.000000e+000 -3.183090e-002
      endloop
   endfacet
   facet normal -9.951036e-001 0.000000e+000 -9.883699e-002
      outer loop
         vertex -7.493242e-001 0.000000e+000 -3.183090e-002
         vertex -7.493242e-001 1.412500e+001 -3.183090e-002
         vertex -7.331664e-001 1.412500e+001 -1.580095e-001
      endloop
   endfacet
   facet normal -9.878993e-001 0.000000e+000 -1.550965e-001
      outer loop
         vertex -7.493242e-001 0.000000e+000 -3.183090e-002
         vertex -7.331664e-001 1.412500e+001 -1.580095e-001
         vertex -7.331664e-001 0.000000e+000 -1.580095e-001
      endloop
   endfacet
   facet normal -9.640865e-001 0.000000e+000 -2.655886e-001
      outer loop
         vertex -7.331664e-001 0.000000e+000 -1.580095e-001
         vertex -7.331664e-001 1.412500e+001 -1.580095e-001
         vertex -6.959168e-001 1.412500e+001 -2.796423e-001
      endloop
   endfacet
   facet normal -9.474779e-001 0.000000e+000 -3.198213e-001
      outer loop
         vertex -7.331664e-001 0.000000e+000 -1.580095e-001
         vertex -6.959168e-001 1.412500e+001 -2.796423e-001
         vertex -6.959168e-001 0.000000e+000 -2.796423e-001
      endloop
   endfacet
   facet normal -9.053342e-001 0.000000e+000 -4.246998e-001
      outer loop
         vertex -6.959168e-001 0.000000e+000 -2.796423e-001
         vertex -6.959168e-001 1.412500e+001 -2.796423e-001
         vertex -6.386468e-001 1.412500e+001 -3.932305e-001
      endloop
   endfacet
   facet normal -8.797992e-001 0.000000e+000 -4.753455e-001
      outer loop
         vertex -6.959168e-001 0.000000e+000 -2.796423e-001
         vertex -6.386468e-001 1.412500e+001 -3.932305e-001
         vertex -6.386468e-001 0.000000e+000 -3.932305e-001
      endloop
   endfacet
   facet normal -8.205372e-001 0.000000e+000 -5.715931e-001
      outer loop
         vertex -6.386468e-001 0.000000e+000 -3.932305e-001
         vertex -6.386468e-001 1.412500e+001 -3.932305e-001
         vertex -5.630043e-001 1.412500e+001 -4.955060e-001
      endloop
   endfacet
   facet normal -7.868103e-001 0.000000e+000 -6.171949e-001
      outer loop
         vertex -6.386468e-001 0.000000e+000 -3.932305e-001
         vertex -5.630043e-001 1.412500e+001 -4.955060e-001
         vertex -5.630043e-001 0.000000e+000 -4.955060e-001
      endloop
   endfacet
   facet normal -7.121348e-001 0.000000e+000 -7.020428e-001
      outer loop
         vertex -5.630043e-001 0.000000e+000 -4.955060e-001
         vertex -5.630043e-001 1.412500e+001 -4.955060e-001
         vertex -4.711650e-001 1.412500e+001 -5.835268e-001
      endloop
   endfacet
   facet normal -6.711863e-001 0.000000e+000 -7.412888e-001
      outer loop
         vertex -5.630043e-001 0.000000e+000 -4.955060e-001
         vertex -4.711650e-001 1.412500e+001 -5.835268e-001
         vertex -4.711650e-001 0.000000e+000 -5.835268e-001
      endloop
   endfacet
   facet normal -5.832456e-001 0.000000e+000 -8.122959e-001
      outer loop
         vertex -4.711650e-001 0.000000e+000 -5.835268e-001
         vertex -4.711650e-001 1.412500e+001 -5.835268e-001
         vertex -3.657712e-001 1.412500e+001 -6.547606e-001
      endloop
   endfacet
   facet normal -5.362535e-001 0.000000e+000 -8.440570e-001
      outer loop
         vertex -4.711650e-001 0.000000e+000 -5.835268e-001
         vertex -3.657712e-001 1.412500e+001 -6.547606e-001
         vertex -3.657712e-001 0.000000e+000 -6.547606e-001
      endloop
   endfacet
   facet normal -4.375775e-001 0.000000e+000 -8.991807e-001
      outer loop
         vertex -3.657712e-001 0.000000e+000 -6.547606e-001
         vertex -3.657712e-001 1.412500e+001 -6.547606e-001
         vertex -2.498548e-001 1.412500e+001 -7.071581e-001
      endloop
   endfacet
   facet normal -3.858936e-001 0.000000e+000 -9.225433e-001
      outer loop
         vertex -3.657712e-001 0.000000e+000 -6.547606e-001
         vertex -2.498548e-001 1.412500e+001 -7.071581e-001
         vertex -2.498548e-001 0.000000e+000 -7.071581e-001
      endloop
   endfacet
   facet normal -2.793211e-001 0.000000e+000 -9.601977e-001
      outer loop
         vertex -2.498548e-001 0.000000e+000 -7.071581e-001
         vertex -2.498548e-001 1.412500e+001 -7.071581e-001
         vertex -1.267506e-001 1.412500e+001 -7.392119e-001
      endloop
   endfacet
   facet normal -2.244324e-001 0.000000e+000 -9.744897e-001
      outer loop
         vertex -2.498548e-001 0.000000e+000 -7.071581e-001
         vertex -1.267506e-001 1.412500e+001 -7.392119e-001
         vertex -1.267506e-001 0.000000e+000 -7.392119e-001
      endloop
   endfacet
   facet normal -1.130291e-001 0.000000e+000 -9.935917e-001
      outer loop
         vertex -1.267506e-001 0.000000e+000 -7.392119e-001
         vertex -1.267506e-001 1.412500e+001 -7.392119e-001
         vertex 0.000000e+000 1.412500e+001 -7.500000e-001
      endloop
   endfacet
   facet normal -5.651454e-002 0.000000e+000 -9.984018e-001
      outer loop
         vertex -1.267506e-001 0.000000e+000 -7.392119e-001
         vertex 0.000000e+000 1.412500e+001 -7.500000e-001
         vertex 0.000000e+000 0.000000e+000 -7.500000e-001
      endloop
   endfacet
   facet normal 5.651454e-002 0.000000e+000 -9.984018e-001
      outer loop
         vertex 0.000000e+000 0.000000e+000 -7.500000e-001
         vertex 0.000000e+000 1.412500e+001 -7.500000e-001
         vertex 1.267506e-001 1.412500e+001 -7.392119e-001
      endloop
   endfacet
   facet normal 1.130291e-001 0.000000e+000 -9.935917e-001
      outer loop
         vertex 0.000000e+000 0.000000e+000 -7.500000e-001
         vertex 1.267506e-001 1.412500e+001 -7.392119e-001
         vertex 1.267506e-001 0.000000e+000 -7.392119e-001
      endloop
   endfacet
   facet normal 2.244324e-001 0.000000e+000 -9.744897e-001
      outer loop
         vertex 1.267506e-001 0.000000e+000 -7.392119e-001
         vertex 1.267506e-001 1.412500e+001 -7.392119e-001
         vertex 2.498548e-001 1.412500e+001 -7.071581e-001
      endloop
   endfacet
   facet normal 2.793211e-001 0.000000e+000 -9.601977e-001
      outer loop
         vertex 1.267506e-001 0.000000e+000 -7.392119e-001
         vertex 2.498548e-001 1.412500e+001 -7.071581e-001
         vertex 2.498548e-001 0.000000e+000 -7.071581e-001
      endloop
   endfacet
   facet normal 3.858936e-001 0.000000e+000 -9.225433e-001
      outer loop
         vertex 2.498548e-001 0.000000e+000 -7.071581e-001
         vertex 2.498548e-001 1.412500e+001 -7.071581e-001
         vertex 3.657712e-001 1.412500e+001 -6.547606e-001
      endloop
   endfacet
   facet normal 4.375775e-001 0.000000e+000 -8.991807e-001
      outer loop
         vertex 2.498548e-001 0.000000e+000 -7.071581e-001
         vertex 3.657712e-001 1.412500e+001 -6.547606e-001
         vertex 3.657712e-001 0.000000e+000 -6.547606e-001
      endloop
   endfacet
   facet normal 5.362535e-001 0.000000e+000 -8.440570e-001
      outer loop
         vertex 3.657712e-001 0.000000e+000 -6.547606e-001
         vertex 3.657712e-001 1.412500e+001 -6.547606e-001
         vertex 4.711650e-001 1.412500e+001 -5.835268e-001
      endloop
   endfacet
   facet normal 5.832456e-001 0.000000e+000 -8.122959e-001
      outer loop
         vertex 3.657712e-001 0.000000e+000 -6.547606e-001
         vertex 4.711650e-001 1.412500e+001 -5.835268e-001
         vertex 4.711650e-001 0.000000e+000 -5.835268e-001
      endloop
   endfacet
   facet normal 6.711863e-001 0.000000e+000 -7.412888e-001
      outer loop
         vertex 4.711650e-001 0.000000e+000 -5.835268e-001
         vertex 4.711650e-001 1.412500e+001 -5.835268e-001
         vertex 5.630043e-001 1.412500e+001 -4.955060e-001
      endloop
   endfacet
   facet normal 7.121348e-001 0.000000e+000 -7.020428e-001
      outer loop
         vertex 4.711650e-001 0.000000e+000 -5.835268e-001
         vertex 5.630043e-001 1.412500e+001 -4.955060e-001
         vertex 5.630043e-001 0.000000e+000 -4.955060e-001
      endloop
   endfacet
   facet normal 7.868103e-001 0.000000e+000 -6.171949e-001
      outer loop
         vertex 5.630043e-001 0.000000e+000 -4.955060e-001
         vertex 5.630043e-001 1.412500e+001 -4.955060e-001
         vertex 6.386468e-001 1.412500e+001 -3.932305e-001
      endloop
   endfacet
   facet normal 8.205372e-001 0.000000e+000 -5.715931e-001
      outer loop
         vertex 5.630043e-001 0.000000e+000 -4.955060e-001
         vertex 6.386468e-001 1.412500e+001 -3.932305e-001
         vertex 6.386468e-001 0.000000e+000 -3.932305e-001
      endloop
   endfacet
   facet normal 8.797992e-001 0.000000e+000 -4.753455e-001
      outer loop
         vertex 6.386468e-001 0.000000e+000 -3.932305e-001
         vertex 6.386468e-001 1.412500e+001 -3.932305e-001
         vertex 6.959168e-001 1.412500e+001 -2.796423e-001
      endloop
   endfacet
   facet normal 9.053342e-001 0.000000e+000 -4.246998e-001
      outer loop
         vertex 6.386468e-001 0.000000e+000 -3.932305e-001
         vertex 6.959168e-001 1.412500e+001 -2.796423e-001
         vertex 6.959168e-001 0.000000e+000 -2.796423e-001
      endloop
   endfacet
   facet normal 9.474779e-001 0.000000e+000 -3.198213e-001
      outer loop
         vertex 6.959168e-001 0.000000e+000 -2.796423e-001
         vertex 6.959168e-001 1.412500e+001 -2.796423e-001
         vertex 7.331664e-001 1.412500e+001 -1.580095e-001
      endloop
   endfacet
   facet normal 9.640865e-001 0.000000e+000 -2.655886e-001
      outer loop
         vertex 6.959168e-001 0.000000e+000 -2.796423e-001
         vertex 7.331664e-001 1.412500e+001 -1.580095e-001
         vertex 7.331664e-001 0.000000e+000 -1.580095e-001
      endloop
   endfacet
   facet normal 9.878993e-001 0.000000e+000 -1.550965e-001
      outer loop
         vertex 7.331664e-001 0.000000e+000 -1.580095e-001
         vertex 7.331664e-001 1.412500e+001 -1.580095e-001
         vertex 7.493242e-001 1.412500e+001 -3.183090e-002
      endloop
   endfacet
   facet normal 9.951036e-001 0.000000e+000 -9.883699e-002
      outer loop
         vertex 7.331664e-001 0.000000e+000 -1.580095e-001
         vertex 7.493242e-001 1.412500e+001 -3.183090e-002
         vertex 7.493242e-001 0.000000e+000 -3.183090e-002
      endloop
   endfacet
   facet normal 9.999007e-001 0.000000e+000 1.409025e-002
      outer loop
         vertex 7.493242e-001 0.000000e+000 -3.183090e-002
         vertex 7.493242e-001 1.412500e+001 -3.183090e-002
         vertex 7.439253e-001 1.412500e+001 9.526336e-002
      endloop
   endfacet
   facet normal 9.974935e-001 0.000000e+000 7.075802e-002
      outer loop
         vertex 7.493242e-001 0.000000e+000 -3.183090e-002
         vertex 7.439253e-001 1.412500e+001 9.526336e-002
         vertex 7.439253e-001 0.000000e+000 9.526336e-002
      endloop
   endfacet
   facet normal 9.831368e-001 0.000000e+000 1.828716e-001
      outer loop
         vertex 7.439253e-001 0.000000e+000 9.526336e-002
         vertex 7.439253e-001 1.412500e+001 9.526336e-002
         vertex 7.171251e-001 1.412500e+001 2.196171e-001
      endloop
   endfacet
   facet normal 9.711873e-001 0.000000e+000 2.383175e-001
      outer loop
         vertex 7.439253e-001 0.000000e+000 9.526336e-002
         vertex 7.171251e-001 1.412500e+001 2.196171e-001
         vertex 7.171251e-001 0.000000e+000 2.196171e-001
      endloop
   endfacet
   facet normal 9.380898e-001 0.000000e+000 3.463921e-001
      outer loop
         vertex 7.171251e-001 0.000000e+000 2.196171e-001
         vertex 7.171251e-001 1.412500e+001 2.196171e-001
         vertex 6.696944e-001 1.412500e+001 3.376528e-001
      endloop
   endfacet
   facet normal 9.169418e-001 0.000000e+000 3.990209e-001
      outer loop
         vertex 7.171251e-001 0.000000e+000 2.196171e-001
         vertex 6.696944e-001 1.412500e+001 3.376528e-001
         vertex 6.696944e-001 0.000000e+000 3.376528e-001
      endloop
   endfacet
   facet normal 8.660557e-001 0.000000e+000 4.999475e-001
      outer loop
         vertex 6.696944e-001 0.000000e+000 3.376528e-001
         vertex 6.696944e-001 1.412500e+001 3.376528e-001
         vertex 6.029978e-001 1.412500e+001 4.459749e-001
      endloop
   endfacet
   facet normal 8.363176e-001 0.000000e+000 5.482453e-001
      outer loop
         vertex 6.696944e-001 0.000000e+000 3.376528e-001
         vertex 6.029978e-001 1.412500e+001 4.459749e-001
         vertex 6.029978e-001 0.000000e+000 4.459749e-001
      endloop
   endfacet
   facet normal 7.691067e-001 0.000000e+000 6.391203e-001
      outer loop
         vertex 6.029978e-001 0.000000e+000 4.459749e-001
         vertex 6.029978e-001 1.412500e+001 4.459749e-001
         vertex 5.189541e-001 1.412500e+001 5.414671e-001
      endloop
   endfacet
   facet normal 7.316340e-001 0.000000e+000 6.816977e-001
      outer loop
         vertex 6.029978e-001 0.000000e+000 4.459749e-001
         vertex 5.189541e-001 1.412500e+001 5.414671e-001
         vertex 5.189541e-001 0.000000e+000 5.414671e-001
      endloop
   endfacet
   facet normal 6.500320e-001 0.000000e+000 7.599069e-001
      outer loop
         vertex 5.189541e-001 0.000000e+000 5.414671e-001
         vertex 5.189541e-001 1.412500e+001 5.414671e-001
         vertex 4.199811e-001 1.412500e+001 6.213822e-001
      endloop
   endfacet
   facet normal 6.059027e-001 0.000000e+000 7.955388e-001
      outer loop
         vertex 5.189541e-001 0.000000e+000 5.414671e-001
         vertex 4.199811e-001 1.412500e+001 6.213822e-001
         vertex 4.199811e-001 0.000000e+000 6.213822e-001
      endloop
   endfacet
   facet normal 5.122570e-001 0.000000e+000 8.588322e-001
      outer loop
         vertex 4.199811e-001 0.000000e+000 6.213822e-001
         vertex 4.199811e-001 1.412500e+001 6.213822e-001
         vertex 3.089259e-001 1.412500e+001 6.834214e-001
      endloop
   endfacet
   facet normal 4.627406e-001 0.000000e+000 8.864937e-001
      outer loop
         vertex 4.199811e-001 0.000000e+000 6.213822e-001
         vertex 3.089259e-001 1.412500e+001 6.834214e-001
         vertex 3.089259e-001 0.000000e+000 6.834214e-001
      endloop
   endfacet
   facet normal 3.597453e-001 0.000000e+000 9.330506e-001
      outer loop
         vertex 3.089259e-001 0.000000e+000 6.834214e-001
         vertex 3.089259e-001 1.412500e+001 6.834214e-001
         vertex 1.889835e-001 1.412500e+001 7.257997e-001
      endloop
   endfacet
   facet normal 3.062663e-001 0.000000e+000 9.519458e-001
      outer loop
         vertex 3.089259e-001 0.000000e+000 6.834214e-001
         vertex 1.889835e-001 1.412500e+001 7.257997e-001
         vertex 1.889835e-001 0.000000e+000 7.257997e-001
      endloop
   endfacet
   facet normal 1.968844e-001 0.000000e+000 9.804267e-001
      outer loop
         vertex 1.889835e-001 0.000000e+000 7.257997e-001
         vertex 1.889835e-001 1.412500e+001 7.257997e-001
         vertex 6.360444e-002 1.412500e+001 7.472981e-001
      endloop
   endfacet
   facet normal 1.409813e-001 0.000000e+000 9.900123e-001
      outer loop
         vertex 1.889835e-001 0.000000e+000 7.257997e-001
         vertex 6.360444e-002 1.412500e+001 7.472981e-001
         vertex 6.360444e-002 0.000000e+000 7.472981e-001
      endloop
   endfacet
   facet normal 5.658260e-002 0.000000e+000 9.983979e-001
      outer loop
         vertex 6.360444e-002 0.000000e+000 7.472981e-001
         vertex 6.360444e-002 1.412500e+001 7.472981e-001
         vertex 9.184851e-017 0.000000e+000 7.500000e-001
      endloop
   endfacet
   facet normal 0.000000e+000 1.000000e+000 0.000000e+000
      outer loop
         vertex 9.184851e-017 1.412500e+001 7.500000e-001
         vertex 6.360444e-002 1.412500e+001 7.472981e-001
         vertex 0.000000e+000 1.412500e+001 0.000000e+000
      endloop
   endfacet
   facet normal 0.000000e+000 1.000000e+000 0.000000e+000
      outer loop
         vertex 9.184851e-017 1.412500e+001 7.500000e-001
         vertex 0.000000e+000 1.412500e+001 0.000000e+000
         vertex -6.360444e-002 1.412500e+001 7.472981e-001
      endloop
   endfacet
   facet normal 0.000000e+000 1.000000e+000 0.000000e+000
      outer loop
         vertex -4.199811e-001 1.412500e+001 6.213822e-001
         vertex -3.089259e-001 1.412500e+001 6.834214e-001
         vertex 0.000000e+000 1.412500e+001 0.000000e+000
      endloop
   endfacet
   facet normal 0.000000e+000 1.000000e+000 0.000000e+000
      outer loop
         vertex 0.000000e+000 1.412500e+001 0.000000e+000
         vertex -3.089259e-001 1.412500e+001 6.834214e-001
         vertex -1.889835e-001 1.412500e+001 7.257997e-001
      endloop
   endfacet
   facet normal 0.000000e+000 1.000000e+000 0.000000e+000
      outer loop
         vertex 0.000000e+000 1.412500e+001 0.000000e+000
         vertex -1.889835e-001 1.412500e+001 7.257997e-001
         vertex -6.360444e-002 1.412500e+001 7.472981e-001
      endloop
   endfacet
   facet normal 0.000000e+000 1.000000e+000 0.000000e+000
      outer loop
         vertex -6.696944e-001 1.412500e+001 3.376528e-001
         vertex -6.029978e-001 1.412500e+001 4.459749e-001
         vertex 0.000000e+000 1.412500e+001 0.000000e+000
      endloop
   endfacet
   facet normal 0.000000e+000 1.000000e+000 0.000000e+000
      outer loop
         vertex 0.000000e+000 1.412500e+001 0.000000e+000
         vertex -6.029978e-001 1.412500e+001 4.459749e-001
         vertex -5.189541e-001 1.412500e+001 5.414671e-001
      endloop
   endfacet
   facet normal 0.000000e+000 1.000000e+000 0.000000e+000
      outer loop
         vertex 0.000000e+000 1.412500e+001 0.000000e+000
         vertex -5.189541e-001 1.412500e+001 5.414671e-001
         vertex -4.199811e-001 1.412500e+001 6.213822e-001
      endloop
   endfacet
   facet normal 0.000000e+000 1.000000e+000 0.000000e+000
      outer loop
         vertex -7.493242e-001 1.412500e+001 -3.183090e-002
         vertex -7.439253e-001 1.412500e+001 9.526336e-002
         vertex 0.000000e+000 1.412500e+001 0.000000e+000
      endloop
   endfacet
   facet normal 0.000000e+000 1.000000e+000 0.000000e+000
      outer loop
         vertex 0.000000e+000 1.412500e+001 0.000000e+000
         vertex -7.439253e-001 1.412500e+001 9.526336e-002
         vertex -7.171251e-001 1.412500e+001 2.196171e-001
      endloop
   endfacet
   facet normal 0.000000e+000 1.000000e+000 0.000000e+000
      outer loop
         vertex 0.000000e+000 1.412500e+001 0.000000e+000
         vertex -7.171251e-001 1.412500e+001 2.196171e-001
         vertex -6.696944e-001 1.412500e+001 3.376528e-001
      endloop
   endfacet
   facet normal 0.000000e+000 1.000000e+000 0.000000e+000
      outer loop
         vertex -6.386468e-001 1.412500e+001 -3.932305e-001
         vertex -6.959168e-001 1.412500e+001 -2.796423e-001
         vertex 0.000000e+000 1.412500e+001 0.000000e+000
      endloop
   endfacet
   facet normal 0.000000e+000 1.000000e+000 0.000000e+000
      outer loop
         vertex 0.000000e+000 1.412500e+001 0.000000e+000
         vertex -6.959168e-001 1.412500e+001 -2.796423e-001
         vertex -7.331664e-001 1.412500e+001 -1.580095e-001
      endloop
   endfacet
   facet normal 0.000000e+000 1.000000e+000 0.000000e+000
      outer loop
         vertex 0.000000e+000 1.412500e+001 0.000000e+000
         vertex -7.331664e-001 1.412500e+001 -1.580095e-001
         vertex -7.493242e-001 1.412500e+001 -3.183090e-002
      endloop
   endfacet
   facet normal 0.000000e+000 1.000000e+000 0.000000e+000
      outer loop
         vertex -3.657712e-001 1.412500e+001 -6.547606e-001
         vertex -4.711650e-001 1.412500e+001 -5.835268e-001
         vertex 0.000000e+000 1.412500e+001 0.000000e+000
      endloop
   endfacet
   facet normal 0.000000e+000 1.000000e+000 0.000000e+000
      outer loop
         vertex 0.000000e+000 1.412500e+001 0.000000e+000
         vertex -4.711650e-001 1.412500e+001 -5.835268e-001
         vertex -5.630043e-001 1.412500e+001 -4.955060e-001
      endloop
   endfacet
   facet normal 0.000000e+000 1.000000e+000 0.000000e+000
      outer loop
         vertex 0.000000e+000 1.412500e+001 0.000000e+000
         vertex -5.630043e-001 1.412500e+001 -4.955060e-001
         vertex -6.386468e-001 1.412500e+001 -3.932305e-001
      endloop
   endfacet
   facet normal 0.000000e+000 1.000000e+000 0.000000e+000
      outer loop
         vertex 0.000000e+000 1.412500e+001 -7.500000e-001
         vertex -1.267506e-001 1.412500e+001 -7.392119e-001
         vertex 0.000000e+000 1.412500e+001 0.000000e+000
      endloop
   endfacet
   facet normal 0.000000e+000 1.000000e+000 0.000000e+000
      outer loop
         vertex 0.000000e+000 1.412500e+001 0.000000e+000
         vertex -1.267506e-001 1.412500e+001 -7.392119e-001
         vertex -2.498548e-001 1.412500e+001 -7.071581e-001
      endloop
   endfacet
   facet normal 0.000000e+000 1.000000e+000 0.000000e+000
      outer loop
         vertex 0.000000e+000 1.412500e+001 0.000000e+000
         vertex -2.498548e-001 1.412500e+001 -7.071581e-001
         vertex -3.657712e-001 1.412500e+001 -6.547606e-001
      endloop
   endfacet
   facet normal 0.000000e+000 1.000000e+000 0.000000e+000
      outer loop
         vertex 3.657712e-001 1.412500e+001 -6.547606e-001
         vertex 2.498548e-001 1.412500e+001 -7.071581e-001
         vertex 0.000000e+000 1.412500e+001 0.000000e+000
      endloop
   endfacet
   facet normal 0.000000e+000 1.000000e+000 0.000000e+000
      outer loop
         vertex 0.000000e+000 1.412500e+001 0.000000e+000
         vertex 2.498548e-001 1.412500e+001 -7.071581e-001
         vertex 1.267506e-001 1.412500e+001 -7.392119e-001
      endloop
   endfacet
   facet normal 0.000000e+000 1.000000e+000 0.000000e+000
      outer loop
         vertex 0.000000e+000 1.412500e+001 0.000000e+000
         vertex 1.267506e-001 1.412500e+001 -7.392119e-001
         vertex 0.000000e+000 1.412500e+001 -7.500000e-001
      endloop
   endfacet
   facet normal 0.000000e+000 1.000000e+000 0.000000e+000
      outer loop
         vertex 6.386468e-001 1.412500e+001 -3.932305e-001
         vertex 5.630043e-001 1.412500e+001 -4.955060e-001
         vertex 0.000000e+000 1.412500e+001 0.000000e+000
      endloop
   endfacet
   facet normal 0.000000e+000 1.000000e+000 0.000000e+000
      outer loop
         vertex 0.000000e+000 1.412500e+001 0.000000e+000
         vertex 5.630043e-001 1.412500e+001 -4.955060e-001
         vertex 4.711650e-001 1.412500e+001 -5.835268e-001
      endloop
   endfacet
   facet normal 0.000000e+000 1.000000e+000 0.000000e+000
      outer loop
         vertex 0.000000e+000 1.412500e+001 0.000000e+000
         vertex 4.711650e-001 1.412500e+001 -5.835268e-001
         vertex 3.657712e-001 1.412500e+001 -6.547606e-001
      endloop
   endfacet
   facet normal 0.000000e+000 1.000000e+000 0.000000e+000
      outer loop
         vertex 7.493242e-001 1.412500e+001 -3.183090e-002
         vertex 7.331664e-001 1.412500e+001 -1.580095e-001
         vertex 0.000000e+000 1.412500e+001 0.000000e+000
      endloop
   endfacet
   facet normal 0.000000e+000 1.000000e+000 0.000000e+000
      outer loop
         vertex 0.000000e+000 1.412500e+001 0.000000e+000
         vertex 7.331664e-001 1.412500e+001 -1.580095e-001
         vertex 6.959168e-001 1.412500e+001 -2.796423e-001
      endloop
   endfacet
   facet normal 0.000000e+000 1.000000e+000 0.000000e+000
      outer loop
         vertex 0.000000e+000 1.412500e+001 0.000000e+000
         vertex 6.959168e-001 1.412500e+001 -2.796423e-001
         vertex 6.386468e-001 1.412500e+001 -3.932305e-001
      endloop
   endfacet
   facet normal 0.000000e+000 1.000000e+000 0.000000e+000
      outer loop
         vertex 6.696944e-001 1.412500e+001 3.376528e-001
         vertex 7.171251e-001 1.412500e+001 2.196171e-001
         vertex 0.000000e+000 1.412500e+001 0.000000e+000
      endloop
   endfacet
   facet normal 0.000000e+000 1.000000e+000 0.000000e+000
      outer loop
         vertex 0.000000e+000 1.412500e+001 0.000000e+000
         vertex 7.171251e-001 1.412500e+001 2.196171e-001
         vertex 7.439253e-001 1.412500e+001 9.526336e-002
      endloop
   endfacet
   facet normal 0.000000e+000 1.000000e+000 0.000000e+000
      outer loop
         vertex 0.000000e+000 1.412500e+001 0.000000e+000
         vertex 7.439253e-001 1.412500e+001 9.526336e-002
         vertex 7.493242e-001 1.412500e+001 -3.183090e-002
      endloop
   endfacet
   facet normal 0.000000e+000 1.000000e+000 0.000000e+000
      outer loop
         vertex 4.199811e-001 1.412500e+001 6.213822e-001
         vertex 5.189541e-001 1.412500e+001 5.414671e-001
         vertex 0.000000e+000 1.412500e+001 0.000000e+000
      endloop
   endfacet
   facet normal 0.000000e+000 1.000000e+000 0.000000e+000
      outer loop
         vertex 0.000000e+000 1.412500e+001 0.000000e+000
         vertex 5.189541e-001 1.412500e+001 5.414671e-001
         vertex 6.029978e-001 1.412500e+001 4.459749e-001
      endloop
   endfacet
   facet normal 0.000000e+000 1.000000e+000 0.000000e+000
      outer loop
         vertex 0.000000e+000 1.412500e+001 0.000000e+000
         vertex 6.029978e-001 1.412500e+001 4.459749e-001
         vertex 6.696944e-001 1.412500e+001 3.376528e-001
      endloop
   endfacet
   facet normal 0.000000e+000 1.000000e+000 0.000000e+000
      outer loop
         vertex 6.360444e-002 1.412500e+001 7.472981e-001
         vertex 1.889835e-001 1.412500e+001 7.257997e-001
         vertex 0.000000e+000 1.412500e+001 0.000000e+000
      endloop
   endfacet
   facet normal 0.000000e+000 1.000000e+000 0.000000e+000
      outer loop
         vertex 0.000000e+000 1.412500e+001 0.000000e+000
         vertex 1.889835e-001 1.412500e+001 7.257997e-001
         vertex 3.089259e-001 1.412500e+001 6.834214e-001
      endloop
   endfacet
   facet normal 0.000000e+000 1.000000e+000 0.000000e+000
      outer loop
         vertex 0.000000e+000 1.412500e+001 0.000000e+000
         vertex 3.089259e-001 1.412500e+001 6.834214e-001
         vertex 4.199811e-001 1.412500e+001 6.213822e-001
      endloop
   endfacet
   facet normal 0.000000e+000 -1.000000e+000 0.000000e+000
      outer loop
         vertex 2.755455e-016 0.000000e+000 7.500000e-001
         vertex -6.360444e-002 0.000000e+000 7.472981e-001
         vertex 0.000000e+000 0.000000e+000 0.000000e+000
      endloop
   endfacet
   facet normal 0.000000e+000 -1.000000e+000 0.000000e+000
      outer loop
         vertex 2.755455e-016 0.000000e+000 7.500000e-001
         vertex 0.000000e+000 0.000000e+000 0.000000e+000
         vertex 6.360444e-002 0.000000e+000 7.472981e-001
      endloop
   endfacet
   facet normal 0.000000e+000 -1.000000e+000 0.000000e+000
      outer loop
         vertex 4.199811e-001 0.000000e+000 6.213822e-001
         vertex 3.089259e-001 0.000000e+000 6.834214e-001
         vertex 0.000000e+000 0.000000e+000 0.000000e+000
      endloop
   endfacet
   facet normal 0.000000e+000 -1.000000e+000 0.000000e+000
      outer loop
         vertex 0.000000e+000 0.000000e+000 0.000000e+000
         vertex 3.089259e-001 0.000000e+000 6.834214e-001
         vertex 1.889835e-001 0.000000e+000 7.257997e-001
      endloop
   endfacet
   facet normal 0.000000e+000 -1.000000e+000 0.000000e+000
      outer loop
         vertex 0.000000e+000 0.000000e+000 0.000000e+000
         vertex 1.889835e-001 0.000000e+000 7.257997e-001
         vertex 6.360444e-002 0.000000e+000 7.472981e-001
      endloop
   endfacet
   facet normal 0.000000e+000 -1.000000e+000 0.000000e+000
      outer loop
         vertex 6.696944e-001 0.000000e+000 3.376528e-001
         vertex 6.029978e-001 0.000000e+000 4.459749e-001
         vertex 0.000000e+000 0.000000e+000 0.000000e+000
      endloop
   endfacet
   facet normal 0.000000e+000 -1.000000e+000 0.000000e+000
      outer loop
         vertex 0.000000e+000 0.000000e+000 0.000000e+000
         vertex 6.029978e-001 0.000000e+000 4.459749e-001
         vertex 5.189541e-001 0.000000e+000 5.414671e-001
      endloop
   endfacet
   facet normal 0.000000e+000 -1.000000e+000 0.000000e+000
      outer loop
         vertex 0.000000e+000 0.000000e+000 0.000000e+000
         vertex 5.189541e-001 0.000000e+000 5.414671e-001
         vertex 4.199811e-001 0.000000e+000 6.213822e-001
      endloop
   endfacet
   facet normal 0.000000e+000 -1.000000e+000 0.000000e+000
      outer loop
         vertex 7.493242e-001 0.000000e+000 -3.183090e-002
         vertex 7.439253e-001 0.000000e+000 9.526336e-002
         vertex 0.000000e+000 0.000000e+000 0.000000e+000
      endloop
   endfacet
   facet normal 0.000000e+000 -1.000000e+000 0.000000e+000
      outer loop
         vertex 0.000000e+000 0.000000e+000 0.000000e+000
         vertex 7.439253e-001 0.000000e+000 9.526336e-002
         vertex 7.171251e-001 0.000000e+000 2.196171e-001
      endloop
   endfacet
   facet normal 0.000000e+000 -1.000000e+000 0.000000e+000
      outer loop
         vertex 0.000000e+000 0.000000e+000 0.000000e+000
         vertex 7.171251e-001 0.000000e+000 2.196171e-001
         vertex 6.696944e-001 0.000000e+000 3.376528e-001
      endloop
   endfacet
   facet normal 0.000000e+000 -1.000000e+000 0.000000e+000
      outer loop
         vertex 6.386468e-001 0.000000e+000 -3.932305e-001
         vertex 6.959168e-001 0.000000e+000 -2.796423e-001
         vertex 0.000000e+000 0.000000e+000 0.000000e+000
      endloop
   endfacet
   facet normal 0.000000e+000 -1.000000e+000 0.000000e+000
      outer loop
         vertex 0.000000e+000 0.000000e+000 0.000000e+000
         vertex 6.959168e-001 0.000000e+000 -2.796423e-001
         vertex 7.331664e-001 0.000000e+000 -1.580095e-001
      endloop
   endfacet
   facet normal 0.000000e+000 -1.000000e+000 0.000000e+000
      outer loop
         vertex 0.000000e+000 0.000000e+000 0.000000e+000
         vertex 7.331664e-001 0.000000e+000 -1.580095e-001
         vertex 7.493242e-001 0.000000e+000 -3.183090e-002
      endloop
   endfacet
   facet normal 0.000000e+000 -1.000000e+000 0.000000e+000
      outer loop
         vertex 3.657712e-001 0.000000e+000 -6.547606e-001
         vertex 4.711650e-001 0.000000e+000 -5.835268e-001
         vertex 0.000000e+000 0.000000e+000 0.000000e+000
      endloop
   endfacet
   facet normal 0.000000e+000 -1.000000e+000 0.000000e+000
      outer loop
         vertex 0.000000e+000 0.000000e+000 0.000000e+000
         vertex 4.711650e-001 0.000000e+000 -5.835268e-001
         vertex 5.630043e-001 0.000000e+000 -4.955060e-001
      endloop
   endfacet
   facet normal 0.000000e+000 -1.000000e+000 0.000000e+000
      outer loop
         vertex 0.000000e+000 0.000000e+000 0.000000e+000
         vertex 5.630043e-001 0.000000e+000 -4.955060e-001
         vertex 6.386468e-001 0.000000e+000 -3.932305e-001
      endloop
   endfacet
   facet normal 0.000000e+000 -1.000000e+000 0.000000e+000
      outer loop
         vertex 0.000000e+000 0.000000e+000 -7.500000e-001
         vertex 1.267506e-001 0.000000e+000 -7.392119e-001
         vertex 0.000000e+000 0.000000e+000 0.000000e+000
      endloop
   endfacet
   facet normal 0.000000e+000 -1.000000e+000 0.000000e+000
      outer loop
         vertex 0.000000e+000 0.000000e+000 0.000000e+000
         vertex 1.267506e-001 0.000000e+000 -7.392119e-001
         vertex 2.498548e-001 0.000000e+000 -7.071581e-001
      endloop
   endfacet
   facet normal 0.000000e+000 -1.000000e+000 0.000000e+000
      outer loop
         vertex 0.000000e+000 0.000000e+000 0.000000e+000
         vertex 2.498548e-001 0.000000e+000 -7.071581e-001
         vertex 3.657712e-001 0.000000e+000 -6.547606e-001
      endloop
   endfacet
   facet normal 0.000000e+000 -1.000000e+000 0.000000e+000
      outer loop
         vertex -3.657712e-001 0.000000e+000 -6.547606e-001
         vertex -2.498548e-001 0.000000e+000 -7.071581e-001
         vertex 0.000000e+000 0.000000e+000 0.000000e+000
      endloop
   endfacet
   facet normal 0.000000e+000 -1.000000e+000 0.000000e+000
      outer loop
         vertex 0.000000e+000 0.000000e+000 0.000000e+000
         vertex -2.498548e-001 0.000000e+000 -7.071581e-001
         vertex -1.267506e-001 0.000000e+000 -7.392119e-001
      endloop
   endfacet
   facet normal 0.000000e+000 -1.000000e+000 0.000000e+000
      outer loop
         vertex 0.000000e+000 0.000000e+000 0.000000e+000
         vertex -1.267506e-001 0.000000e+000 -7.392119e-001
         vertex 0.000000e+000 0.000000e+000 -7.500000e-001
      endloop
   endfacet
   facet normal 0.000000e+000 -1.000000e+000 0.000000e+000
      outer loop
         vertex -6.386468e-001 0.000000e+000 -3.932305e-001
         vertex -5.630043e-001 0.000000e+000 -4.955060e-001
         vertex 0.000000e+000 0.000000e+000 0.000000e+000
      endloop
   endfacet
   facet normal 0.000000e+000 -1.000000e+000 0.000000e+000
      outer loop
         vertex 0.000000e+000 0.000000e+000 0.000000e+000
         vertex -5.630043e-001 0.000000e+000 -4.955060e-001
         vertex -4.711650e-001 0.000000e+000 -5.835268e-001
      endloop
   endfacet
   facet normal 0.000000e+000 -1.000000e+000 0.000000e+000
      outer loop
         vertex 0.000000e+000 0.000000e+000 0.000000e+000
         vertex -4.711650e-001 0.000000e+000 -5.835268e-001
         vertex -3.657712e-001 0.000000e+000 -6.547606e-001
      endloop
   endfacet
   facet normal 0.000000e+000 -1.000000e+000 0.000000e+000
      outer loop
         vertex -7.493242e-001 0.000000e+000 -3.183090e-002
         vertex -7.331664e-001 0.000000e+000 -1.580095e-001
         vertex 0.000000e+000 0.000000e+000 0.000000e+000
      endloop
   endfacet
   facet normal 0.000000e+000 -1.000000e+000 0.000000e+000
      outer loop
         vertex 0.000000e+000 0.000000e+000 0.000000e+000
         vertex -7.331664e-001 0.000000e+000 -1.580095e-001
         vertex -6.959168e-001 0.000000e+000 -2.796423e-001
      endloop
   endfacet
   facet normal 0.000000e+000 -1.000000e+000 0.000000e+000
      outer loop
         vertex 0.000000e+000 0.000000e+000 0.000000e+000
         vertex -6.959168e-001 0.000000e+000 -2.796423e-001
         vertex -6.386468e-001 0.000000e+000 -3.932305e-001
      endloop
   endfacet
   facet normal 0.000000e+000 -1.000000e+000 0.000000e+000
      outer loop
         vertex -6.696944e-001 0.000000e+000 3.376528e-001
         vertex -7.171251e-001 0.000000e+000 2.196171e-001
         vertex 0.000000e+000 0.000000e+000 0.000000e+000
      endloop
   endfacet
   facet normal 0.000000e+000 -1.000000e+000 0.000000e+000
      outer loop
         vertex 0.000000e+000 0.000000e+000 0.000000e+000
         vertex -7.171251e-001 0.000000e+000 2.196171e-001
         vertex -7.439253e-001 0.000000e+000 9.526336e-002
      endloop
   endfacet
   facet normal 0.000000e+000 -1.000000e+000 0.000000e+000
      outer loop
         vertex 0.000000e+000 0.000000e+000 0.000000e+000
         vertex -7.439253e-001 0.000000e+000 9.526336e-002
         vertex -7.493242e-001 0.000000e+000 -3.183090e-002
      endloop
   endfacet
   facet normal 0.000000e+000 -1.000000e+000 0.000000e+000
      outer loop
         vertex -4.199811e-001 0.000000e+000 6.213822e-001
         vertex -5.189541e-001 0.000000e+000 5.414671e-001
         vertex 0.000000e+000 0.000000e+000 0.000000e+000
      endloop
   endfacet
   facet normal 0.000000e+000 -1.000000e+000 0.000000e+000
      outer loop
         vertex 0.000000e+000 0.000000e+000 0.000000e+000
         vertex -5.189541e-001 0.000000e+000 5.414671e-001
         vertex -6.029978e-001 0.000000e+000 4.459749e-001
      endloop
   endfacet
   facet normal 0.000000e+000 -1.000000e+000 0.000000e+000
      outer loop
         vertex 0.000000e+000 0.000000e+000 0.000000e+000
         vertex -6.029978e-001 0.000000e+000 4.459749e-001
         vertex -6.696944e-001 0.000000e+000 3.376528e-001
      endloop
   endfacet
   facet normal 0.000000e+000 -1.000000e+000 0.000000e+000
      outer loop
         vertex -6.360444e-002 0.000000e+000 7.472981e-001
         vertex -1.889835e-001 0.000000e+000 7.257997e-001
         vertex 0.000000e+000 0.000000e+000 0.000000e+000
      endloop
   endfacet
   facet normal 0.000000e+000 -1.000000e+000 0.000000e+000
      outer loop
         vertex 0.000000e+000 0.000000e+000 0.000000e+000
         vertex -1.889835e-001 0.000000e+000 7.257997e-001
         vertex -3.089259e-001 0.000000e+000 6.834214e-001
      endloop
   endfacet
   facet normal 0.000000e+000 -1.000000e+000 0.000000e+000
      outer loop
         vertex 0.000000e+000 0.000000e+000 0.000000e+000
         vertex -3.089259e-001 0.000000e+000 6.834214e-001
         vertex -4.199811e-001 0.000000e+000 6.213822e-001
      endloop
   endfacet
endsolid