solid Road_Default_sldprt
   facet normal -1.000000e+000 0.000000e+000 0.000000e+000
      outer loop
         vertex -3.000000e+003 3.000000e+001 1.500000e+002
         vertex -3.000000e+003 3.000000e+001 -1.500000e+002
         vertex -3.000000e+003 0.000000e+000 1.500000e+002
      endloop
   endfacet
   facet normal -1.000000e+000 0.000000e+000 0.000000e+000
      outer loop
         vertex -3.000000e+003 0.000000e+000 1.500000e+002
         vertex -3.000000e+003 3.000000e+001 -1.500000e+002
         vertex -3.000000e+003 0.000000e+000 -1.500000e+002
      endloop
   endfacet
   facet normal 0.000000e+000 0.000000e+000 1.000000e+000
      outer loop
         vertex 3.000000e+003 3.000000e+001 1.500000e+002
         vertex -3.000000e+003 3.000000e+001 1.500000e+002
         vertex 3.000000e+003 0.000000e+000 1.500000e+002
      endloop
   endfacet
   facet normal 0.000000e+000 0.000000e+000 1.000000e+000
      outer loop
         vertex 3.000000e+003 0.000000e+000 1.500000e+002
         vertex -3.000000e+003 3.000000e+001 1.500000e+002
         vertex -3.000000e+003 0.000000e+000 1.500000e+002
      endloop
   endfacet
   facet normal 1.000000e+000 0.000000e+000 0.000000e+000
      outer loop
         vertex 3.000000e+003 3.000000e+001 -1.500000e+002
         vertex 3.000000e+003 3.000000e+001 1.500000e+002
         vertex 3.000000e+003 0.000000e+000 -1.500000e+002
      endloop
   endfacet
   facet normal 1.000000e+000 0.000000e+000 0.000000e+000
      outer loop
         vertex 3.000000e+003 0.000000e+000 -1.500000e+002
         vertex 3.000000e+003 3.000000e+001 1.500000e+002
         vertex 3.000000e+003 0.000000e+000 1.500000e+002
      endloop
   endfacet
   facet normal 0.000000e+000 0.000000e+000 -1.000000e+000
      outer loop
         vertex -3.000000e+003 3.000000e+001 -1.500000e+002
         vertex 3.000000e+003 3.000000e+001 -1.500000e+002
         vertex -3.000000e+003 0.000000e+000 -1.500000e+002
      endloop
   endfacet
   facet normal 0.000000e+000 0.000000e+000 -1.000000e+000
      outer loop
         vertex -3.000000e+003 0.000000e+000 -1.500000e+002
         vertex 3.000000e+003 3.000000e+001 -1.500000e+002
         vertex 3.000000e+003 0.000000e+000 -1.500000e+002
      endloop
   endfacet
   facet normal 0.000000e+000 1.000000e+000 0.000000e+000
      outer loop
         vertex 3.000000e+003 3.000000e+001 1.500000e+002
         vertex 3.000000e+003 3.000000e+001 -1.500000e+002
         vertex -3.000000e+003 3.000000e+001 1.500000e+002
      endloop
   endfacet
   facet normal 0.000000e+000 1.000000e+000 0.000000e+000
      outer loop
         vertex -3.000000e+003 3.000000e+001 1.500000e+002
         vertex 3.000000e+003 3.000000e+001 -1.500000e+002
         vertex -3.000000e+003 3.000000e+001 -1.500000e+002
      endloop
   endfacet
   facet normal 0.000000e+000 -1.000000e+000 0.000000e+000
      outer loop
         vertex 3.000000e+003 0.000000e+000 -1.500000e+002
         vertex 3.000000e+003 0.000000e+000 1.500000e+002
         vertex -3.000000e+003 0.000000e+000 -1.500000e+002
      endloop
   endfacet
   facet normal 0.000000e+000 -1.000000e+000 0.000000e+000
      outer loop
         vertex -3.000000e+003 0.000000e+000 -1.500000e+002
         vertex 3.000000e+003 0.000000e+000 1.500000e+002
         vertex -3.000000e+003 0.000000e+000 1.500000e+002
      endloop
   endfacet
endsolid