solid Plane_Default_sldprt
   facet normal -1.000000e+000 0.000000e+000 1.110223e-016
      outer loop
         vertex -1.500000e+002 1.000000e+002 5.000000e+003
         vertex -1.500000e+002 1.000000e+002 -5.000000e+003
         vertex -1.500000e+002 0.000000e+000 5.000000e+003
      endloop
   endfacet
   facet normal -1.000000e+000 0.000000e+000 1.110223e-016
      outer loop
         vertex -1.500000e+002 0.000000e+000 5.000000e+003
         vertex -1.500000e+002 1.000000e+002 -5.000000e+003
         vertex -1.500000e+002 0.000000e+000 -5.000000e+003
      endloop
   endfacet
   facet normal 0.000000e+000 0.000000e+000 1.000000e+000
      outer loop
         vertex 1.500000e+002 1.000000e+002 5.000000e+003
         vertex -1.500000e+002 1.000000e+002 5.000000e+003
         vertex 1.500000e+002 0.000000e+000 5.000000e+003
      endloop
   endfacet
   facet normal 0.000000e+000 0.000000e+000 1.000000e+000
      outer loop
         vertex 1.500000e+002 0.000000e+000 5.000000e+003
         vertex -1.500000e+002 1.000000e+002 5.000000e+003
         vertex -1.500000e+002 0.000000e+000 5.000000e+003
      endloop
   endfacet
   facet normal 1.000000e+000 0.000000e+000 -1.221245e-016
      outer loop
         vertex 1.500000e+002 1.000000e+002 -5.000000e+003
         vertex 1.500000e+002 1.000000e+002 5.000000e+003
         vertex 1.500000e+002 0.000000e+000 -5.000000e+003
      endloop
   endfacet
   facet normal 1.000000e+000 0.000000e+000 -1.221245e-016
      outer loop
         vertex 1.500000e+002 0.000000e+000 -5.000000e+003
         vertex 1.500000e+002 1.000000e+002 5.000000e+003
         vertex 1.500000e+002 0.000000e+000 5.000000e+003
      endloop
   endfacet
   facet normal 0.000000e+000 0.000000e+000 -1.000000e+000
      outer loop
         vertex -1.500000e+002 1.000000e+002 -5.000000e+003
         vertex 1.500000e+002 1.000000e+002 -5.000000e+003
         vertex -1.500000e+002 0.000000e+000 -5.000000e+003
      endloop
   endfacet
   facet normal 0.000000e+000 0.000000e+000 -1.000000e+000
      outer loop
         vertex -1.500000e+002 0.000000e+000 -5.000000e+003
         vertex 1.500000e+002 1.000000e+002 -5.000000e+003
         vertex 1.500000e+002 0.000000e+000 -5.000000e+003
      endloop
   endfacet
   facet normal 0.000000e+000 1.000000e+000 0.000000e+000
      outer loop
         vertex 1.500000e+002 1.000000e+002 5.000000e+003
         vertex 1.500000e+002 1.000000e+002 -5.000000e+003
         vertex -1.500000e+002 1.000000e+002 5.000000e+003
      endloop
   endfacet
   facet normal 0.000000e+000 1.000000e+000 0.000000e+000
      outer loop
         vertex -1.500000e+002 1.000000e+002 5.000000e+003
         vertex 1.500000e+002 1.000000e+002 -5.000000e+003
         vertex -1.500000e+002 1.000000e+002 -5.000000e+003
      endloop
   endfacet
   facet normal 0.000000e+000 -1.000000e+000 0.000000e+000
      outer loop
         vertex 1.500000e+002 0.000000e+000 -5.000000e+003
         vertex 1.500000e+002 0.000000e+000 5.000000e+003
         vertex -1.500000e+002 0.000000e+000 -5.000000e+003
      endloop
   endfacet
   facet normal 0.000000e+000 -1.000000e+000 0.000000e+000
      outer loop
         vertex -1.500000e+002 0.000000e+000 -5.000000e+003
         vertex 1.500000e+002 0.000000e+000 5.000000e+003
         vertex -1.500000e+002 0.000000e+000 5.000000e+003
      endloop
   endfacet
endsolid